<svg width="39" height="71" viewBox="0 0 39 71" fill="none" xmlns="http://www.w3.org/2000/svg">
    <path d="M3.23168e-06 59.1409V68.7961C0.00192556 69.4618 0.541147 70.001 1.2069 70.003H37.4138C38.0795 70.001 38.6188 69.4618 38.6207 68.7961V59.1409C38.622 58.1802 38.2409 57.2586 37.5616 56.5793C36.8823 55.9 35.9607 55.5189 35 55.5202H3.62069C2.66003 55.5189 1.73835 55.9 1.05906 56.5793C0.379772 57.2586 -0.00128022 58.1802 3.23168e-06 59.1409ZM10.8621 61.5547C10.9358 60.1583 12.1202 59.0816 13.5172 59.1409H25.1034C26.5005 59.0816 27.6848 60.1583 27.7586 61.5547V63.9685C27.6848 65.3649 26.5005 66.4415 25.1034 66.3823H13.5172C12.1202 66.4415 10.9358 65.3649 10.8621 63.9685V61.5547Z" fill="#0A477D"/>
    <path d="M35.6637 13.3754C35.9925 13.0547 36.1098 12.5748 35.9661 12.1386C35.8224 11.7024 35.4428 11.3862 34.9879 11.3237L25.5017 9.93573C25.107 9.88337 24.7637 9.63944 24.5844 9.28401L20.3362 0.678836C20.1364 0.263851 19.7166 0 19.256 0C18.7954 0 18.3756 0.263851 18.1758 0.678836L13.9276 9.28401C13.7533 9.63854 13.4139 9.88294 13.0224 9.93573L3.52411 11.3237C3.06985 11.3878 2.69199 11.7055 2.55078 12.142C2.40956 12.5785 2.52972 13.0573 2.86031 13.3754L9.72755 20.0737C10.0131 20.3528 10.1439 20.754 10.0776 21.1478L8.44824 30.6099C8.37192 31.0618 8.55856 31.518 8.92981 31.7868C9.30105 32.0556 9.79265 32.0906 10.1982 31.8771L15.3745 29.1616C14.9107 34.5283 13.775 41.3945 10.9886 47.0719H7.24135C5.90825 47.0719 4.82755 48.1526 4.82755 49.4857V53.1064H33.7931V49.4857C33.7931 48.1526 32.7124 47.0719 31.3793 47.0719H27.6317C24.8545 41.4156 23.7183 34.5753 23.2448 29.2099L28.3138 31.8771C28.7193 32.0906 29.2109 32.0556 29.5822 31.7868C29.9534 31.518 30.1401 31.0618 30.0638 30.6099L28.4465 21.1478C28.3743 20.7536 28.5059 20.3496 28.7965 20.0737L35.6637 13.3754Z" fill="#0A477D"/>
</svg>
