<svg width="60" height="50" viewBox="0 0 60 50" fill="none" xmlns="http://www.w3.org/2000/svg">
    <path d="M34.4835 18.9389C33.5223 18.9389 32.7433 18.1599 32.7433 17.1987V0H26.6545V17.1987C26.6545 18.1599 25.8755 18.9389 24.9144 18.9389H0V25.0276H24.9144C25.8755 25.0276 26.6545 25.8066 26.6545 26.7678V43.962H32.7433V26.7678C32.7433 25.8066 33.5223 25.0276 34.4835 25.0276H59.3978V18.9389H34.4835Z" fill="#0A477D"/>
    <path d="M36.2236 12.9978L49.0792 0.142295C48.4719 0.0484892 47.8497 0 47.2166 0H36.2236V12.9978Z" fill="#0A477D"/>
    <path d="M38.6844 15.4586H59.3978V12.1812C59.3978 7.4719 56.7114 3.37887 52.7911 1.35229L38.6844 15.4586Z" fill="#0A477D"/>
    <path d="M38.6776 28.5079L52.7521 42.6301C56.6938 40.6107 59.3978 36.5055 59.3978 31.7807V28.5079H38.6776Z" fill="#0A477D"/>
    <path d="M23.1742 12.9978V0H12.1812C11.5481 0 10.9259 0.0484892 10.3187 0.142295L23.1742 12.9978Z" fill="#0A477D"/>
    <path d="M36.2236 30.976V43.962H47.2166C47.8334 43.962 48.4393 43.9158 49.0311 43.8269L36.2236 30.976Z" fill="#0A477D"/>
    <path d="M20.7135 15.4586L6.60676 1.35229C2.68639 3.37842 0 7.4719 0 12.1812V15.4586H20.7135Z" fill="#0A477D"/>
    <path d="M20.7135 28.5079H0V31.7807C0 36.4914 2.68775 40.5854 6.60993 42.6115L20.7135 28.5079Z" fill="#0A477D"/>
    <path d="M23.1742 30.9691L10.3228 43.8205C10.9286 43.9134 11.5495 43.9619 12.1812 43.9619H13.9889L18.2256 49.337C18.5559 49.7557 19.0594 50 19.5923 50C20.1253 50 20.6292 49.7557 20.9591 49.337L23.1742 46.5269V30.9691Z" fill="#0A477D"/>
</svg>
