<svg width="260" height="260" viewBox="0 0 260 260" fill="none" xmlns="http://www.w3.org/2000/svg">
<path d="M234.889 81.577C234.819 81.4318 234.749 81.2855 234.675 81.1382C234.447 80.565 234.24 80.04 234.136 79.4153C234.129 79.3706 234.122 79.3269 234.115 79.2839C234.007 78.6395 233.929 78.1754 234.021 77.6186C234.026 77.5915 234.028 77.5641 234.028 77.5366C234.028 76.9067 234.132 76.393 234.338 75.8766C234.499 75.4723 234.65 75.1548 234.873 74.8594L237.174 76.4819C237.052 76.6543 236.949 76.8273 236.879 76.9674C236.868 76.9885 236.859 77.0103 236.852 77.0328C236.835 77.0839 236.815 77.1373 236.795 77.1933C236.705 77.4436 236.596 77.7438 236.596 78.1133L236.596 78.1272C236.596 78.4719 236.596 78.7708 236.737 79.1938C236.778 79.319 236.801 79.4228 236.827 79.5401C236.831 79.5568 236.834 79.5738 236.838 79.5912C236.868 79.7242 236.907 79.8919 236.994 80.0666C237.358 80.7954 237.889 81.5052 238.745 81.8051C239.51 82.1817 240.297 82.3147 241.092 82.1819C241.246 82.1561 241.379 82.0596 241.452 81.921C241.525 81.7824 241.528 81.6178 241.462 81.4762L239.831 78.0031L241.801 77.0555L243.316 80.3959C243.384 80.5454 243.521 80.6521 243.682 80.6813C243.844 80.7106 244.01 80.6587 244.126 80.5425C244.659 80.0081 244.922 79.3491 245.143 78.7934C245.148 78.7822 245.152 78.7711 245.157 78.76C245.168 78.7317 245.177 78.7024 245.183 78.6725C245.313 78.0211 245.318 77.2092 244.91 76.3907L244.903 76.3777C244.789 76.1487 244.643 75.857 244.356 75.5687C244.269 75.4819 244.202 75.3937 244.114 75.2763L244.109 75.2687C244.025 75.1567 243.921 75.0173 243.78 74.8767C243.475 74.5707 243.165 74.4231 242.779 74.2943C242.576 74.2264 242.374 74.1911 242.183 74.1728L242.678 71.527C243.48 71.6753 244.284 71.9851 245.094 72.5237C245.932 73.1572 246.684 74.1199 247.229 75.3192C247.663 76.2988 247.875 77.2674 247.875 78.2286C247.875 79.1884 247.664 80.0499 247.332 80.9368C247.013 81.7884 246.593 82.4207 245.95 83.0656C245.31 83.7072 244.668 84.1406 243.894 84.5852C243.147 84.9025 242.284 85.119 241.299 85.2286C240.375 85.3315 239.546 85.1317 238.627 84.9015C237.767 84.5753 237.007 84.1406 236.236 83.5889C235.92 83.3623 235.646 83.0027 235.386 82.5498C235.205 82.2342 235.048 81.9087 234.889 81.577Z" fill="#62CEBB" stroke="#62CEBB" stroke-linejoin="round"/>
<path d="M240.654 94.5187C240.921 94.4613 241.093 94.2 241.039 93.9319C240.821 92.8358 240.821 91.9673 240.93 91.0929C241.038 90.2308 241.247 89.6163 241.656 89.0012C241.667 88.984 241.678 88.9661 241.687 88.9475C241.986 88.3474 242.493 87.8392 242.994 87.5381C243.013 87.5265 243.031 87.5137 243.049 87.4997C243.552 87.0966 244.286 86.7738 245.06 86.5522C245.83 86.3317 246.474 86.2255 247.225 86.2255C247.926 86.2255 248.534 86.4213 249.219 86.6497C249.858 86.9736 250.474 87.393 250.984 88.006C251.541 88.6757 252.086 89.4437 252.522 90.4264C252.624 90.6558 252.88 90.7742 253.121 90.7033L254.605 90.2658L255.458 93.0018L253.989 93.4349C253.741 93.508 253.589 93.7585 253.64 94.0123C253.859 95.1108 253.857 96.0919 253.75 96.8427L253.75 96.8427L253.749 96.8513C253.646 97.6794 253.339 98.3018 252.992 98.9968C252.704 99.5752 252.219 99.9728 251.631 100.445C251.127 100.848 250.393 101.171 249.724 101.395C248.965 101.611 248.209 101.719 247.455 101.719C246.753 101.719 246.141 101.52 245.492 101.195C244.841 100.869 244.214 100.446 243.696 99.823C243.139 99.1532 242.593 98.3852 242.157 97.4025C242.056 97.1745 241.802 97.0559 241.562 97.1246L240.421 97.4515L239.578 94.7497L240.654 94.5187ZM249.557 91.74C249.703 91.6956 249.82 91.5876 249.876 91.4464C249.932 91.3051 249.921 91.1461 249.846 91.014C249.381 90.1988 248.849 89.4825 248.101 89.1829C247.397 88.9007 246.698 88.9114 245.915 89.1727C245.135 89.4335 244.587 89.8373 244.177 90.3854C243.725 90.9899 243.617 91.8338 243.617 92.8764C243.617 93.0349 243.692 93.184 243.819 93.2783C243.947 93.3726 244.111 93.4009 244.263 93.3547L249.557 91.74ZM245.007 96.089C244.862 96.1333 244.744 96.2413 244.688 96.3826C244.632 96.5238 244.643 96.6829 244.719 96.8149C244.956 97.2311 245.209 97.6171 245.494 97.9194C245.769 98.2115 246.1 98.4531 246.504 98.5467C247.194 98.8124 247.882 98.7972 248.649 98.5409C249.392 98.2928 250.073 97.9018 250.502 97.3282C250.961 96.7154 251.065 95.8666 250.943 94.8906C250.925 94.7442 250.843 94.6133 250.719 94.533C250.596 94.4527 250.443 94.4312 250.301 94.4742L245.007 96.089Z" fill="#62CEBB" stroke="#62CEBB" stroke-linejoin="round"/>
<path d="M244.6 110.888C244.814 110.827 244.962 110.631 244.962 110.408C244.962 109.287 245.074 108.413 245.288 107.661C245.51 106.885 245.826 106.174 246.312 105.686C246.325 105.673 246.338 105.659 246.349 105.645C246.762 105.127 247.28 104.711 247.909 104.396C248.543 104.078 249.295 103.861 250.058 103.752C250.82 103.643 251.574 103.644 252.206 103.75L252.206 103.75L252.218 103.752C252.972 103.86 253.566 104.068 254.048 104.454C254.059 104.463 254.071 104.472 254.083 104.48C254.718 104.905 255.247 105.434 255.67 106.071C256.103 106.721 256.542 107.599 256.874 108.706C256.946 108.947 257.187 109.097 257.435 109.056L259.006 108.793L259.432 111.61L257.846 111.875C257.605 111.916 257.428 112.124 257.428 112.368C257.428 113.494 257.315 114.482 257.102 115.23C256.893 115.963 256.468 116.712 256.041 117.247C255.628 117.764 255.111 118.181 254.482 118.496C253.835 118.82 253.196 119.033 252.448 119.14C251.689 119.248 250.931 119.248 250.173 119.14C249.477 119.04 248.863 118.742 248.317 118.416C247.786 117.988 247.249 117.45 246.705 116.798C246.276 116.148 245.852 115.29 245.641 114.336C245.585 114.083 245.344 113.915 245.087 113.949L243.847 114.115L243.411 111.229L244.6 110.888ZM253.752 109.402C253.899 109.377 254.028 109.288 254.103 109.158C254.177 109.029 254.19 108.873 254.138 108.733C253.802 107.835 253.406 107.073 252.65 106.74C252.014 106.299 251.161 106.341 250.48 106.454C249.725 106.58 249.04 106.843 248.482 107.402C247.895 107.99 247.645 108.832 247.645 109.831C247.645 109.978 247.71 110.118 247.822 110.213C247.934 110.308 248.083 110.348 248.228 110.324L253.752 109.402ZM248.638 113.029C248.491 113.053 248.362 113.142 248.288 113.272C248.213 113.401 248.2 113.557 248.252 113.697C248.617 114.671 249.139 115.386 249.763 115.699C249.775 115.705 249.788 115.711 249.801 115.716C250.438 115.971 251.108 116.11 251.911 115.976C252.665 115.85 253.351 115.587 253.909 115.028C253.925 115.012 253.941 114.994 253.955 114.975C254.375 114.414 254.621 113.622 254.741 112.661C254.761 112.504 254.705 112.348 254.591 112.238C254.477 112.129 254.319 112.08 254.163 112.106L248.638 113.029Z" fill="#62CEBB" stroke="#62CEBB" stroke-linejoin="round"/>
<path d="M259.374 131.261L256.808 131.344L256.702 125.623C256.697 125.35 256.474 125.132 256.202 125.132H254.13C253.996 125.132 253.867 125.186 253.773 125.283C253.679 125.379 253.627 125.509 253.63 125.643L253.735 130.456L251.512 130.535L251.407 125.737C251.405 125.602 251.347 125.474 251.248 125.382C251.149 125.29 251.017 125.241 250.883 125.248L248.581 125.364C248.311 125.377 248.101 125.602 248.106 125.872L248.212 131.723L245.642 131.806L245.433 122.314L259.166 121.992L259.374 131.261Z" fill="#62CEBB" stroke="#62CEBB" stroke-linejoin="round"/>
<path d="M253.826 138.167C253.687 138.155 253.549 138.203 253.446 138.297C253.343 138.392 253.285 138.525 253.285 138.665V139.011C253.285 139.158 253.349 139.297 253.461 139.392L258.561 143.725L258.312 146.97L252.389 141.75C252.221 141.602 251.976 141.584 251.788 141.705L244.577 146.35L244.827 143.1L250.378 139.428C250.518 139.336 250.602 139.179 250.602 139.011V138.319C250.602 138.06 250.403 137.843 250.144 137.821L245.233 137.402L245.493 134.363L259.114 135.545L258.854 138.587L253.826 138.167Z" fill="#62CEBB" stroke="#62CEBB" stroke-linejoin="round"/>
<path d="M257.803 150.015L255.581 161.358L253.102 160.779L253.816 157.099C253.868 156.829 253.693 156.568 253.423 156.514L242.982 154.421L243.586 151.479L254.032 153.573C254.163 153.599 254.298 153.572 254.409 153.498C254.519 153.424 254.596 153.308 254.621 153.178L255.331 149.519L257.803 150.015Z" fill="#62CEBB" stroke="#62CEBB" stroke-linejoin="round"/>
<path d="M251.013 175.402L251.008 175.415C250.801 176.039 250.503 176.525 250.019 176.913C250.005 176.925 249.991 176.937 249.978 176.95C249.574 177.354 249.06 177.667 248.534 177.877C248.087 178.056 247.561 178.159 247.039 178.262C246.952 178.278 246.866 178.295 246.781 178.312C246.586 178.351 246.345 178.336 246.048 178.282C245.903 178.255 245.755 178.222 245.601 178.186C245.581 178.181 245.561 178.177 245.541 178.172C245.424 178.145 245.302 178.116 245.183 178.091C244.671 177.881 244.173 177.575 243.78 177.181C243.304 176.703 242.925 176.313 242.74 175.849C242.73 175.824 242.718 175.801 242.704 175.778C242.412 175.289 242.308 174.797 242.193 174.107C242.095 173.52 242.192 172.92 242.394 172.414C242.397 172.407 242.4 172.4 242.402 172.393L243.208 170.087C243.298 169.826 243.162 169.542 242.902 169.45L239.115 168.117L240.161 165.145L253.029 169.873L251.013 175.402ZM246.237 170.603C245.977 170.512 245.693 170.649 245.602 170.909L244.92 172.845C244.81 173.087 244.824 173.318 244.866 173.504C244.893 173.627 244.944 173.772 244.986 173.892C245 173.931 245.013 173.968 245.023 174.001C245.219 174.59 245.77 174.883 246.39 175.016C246.704 175.137 246.999 175.204 247.263 175.221C247.516 175.238 247.773 175.212 247.989 175.114C248.508 174.928 248.698 174.546 248.815 174.312C248.818 174.307 248.82 174.302 248.823 174.297C248.832 174.278 248.84 174.259 248.847 174.24L249.537 172.279C249.582 172.154 249.574 172.016 249.516 171.896C249.458 171.776 249.355 171.684 249.23 171.641L246.237 170.603Z" fill="#62CEBB" stroke="#62CEBB" stroke-linejoin="round"/>
<path d="M238.51 177.796C238.537 177.801 238.565 177.803 238.592 177.803C239.173 177.803 239.784 177.998 240.44 178.327C241.068 178.641 241.6 179.065 242.152 179.617C242.673 180.139 242.976 180.649 243.182 181.267C243.395 181.907 243.502 182.546 243.502 183.301C243.502 183.919 243.266 184.544 242.957 185.36C242.923 185.45 242.888 185.543 242.852 185.638C242.406 186.528 241.988 187.135 241.502 187.524C241.488 187.536 241.474 187.548 241.461 187.561C240.958 188.065 240.344 188.378 239.7 188.593C239.054 188.809 238.451 188.902 237.869 188.805C237.171 188.689 236.553 188.582 235.939 188.275L235.715 188.722L235.939 188.275C235.855 188.232 235.791 188.191 235.705 188.133L235.7 188.13C235.614 188.072 235.507 188 235.363 187.929C235.34 187.917 235.319 187.905 235.299 187.894L238.467 181.327C238.527 181.202 238.533 181.058 238.483 180.929C238.433 180.799 238.331 180.697 238.203 180.645C237.554 180.385 236.899 180.332 236.358 180.694C235.958 180.961 235.565 181.354 235.299 181.755C234.983 182.23 234.984 182.827 234.985 183.244C234.985 183.264 234.985 183.282 234.985 183.301C234.985 183.662 235.045 184.003 235.193 184.297L233.601 186.052C233.275 185.451 233.071 184.786 232.989 184.053C232.987 184.035 232.984 184.017 232.98 184C232.784 183.112 232.971 182.083 233.509 180.999C233.959 180.212 234.391 179.568 234.918 179.04C235.421 178.536 236.035 178.223 236.679 178.008C237.325 177.792 237.928 177.699 238.51 177.796ZM237.915 185.038C237.847 185.174 237.845 185.333 237.908 185.471C237.971 185.608 238.094 185.71 238.241 185.747C238.256 185.75 238.271 185.754 238.286 185.758C238.705 185.864 239.307 186.015 239.918 185.732C240.576 185.545 240.882 185.021 241.111 184.562C241.398 183.987 241.409 183.396 241.26 182.931C241.098 182.309 240.643 181.878 240.251 181.616C240.132 181.537 239.984 181.512 239.845 181.549C239.706 181.586 239.59 181.68 239.526 181.809L237.915 185.038Z" fill="#62CEBB" stroke="#62CEBB" stroke-linejoin="round"/>
<path d="M234.712 189.804C234.729 189.818 234.748 189.831 234.767 189.842C235.271 190.145 235.803 190.671 236.245 191.225C236.634 191.712 236.84 192.304 237.07 192.994C237.182 193.677 237.268 194.369 237.076 195.043C237.07 195.065 237.065 195.088 237.062 195.11C236.959 195.828 236.648 196.571 236.204 197.35C235.548 198.444 234.807 199.171 233.995 199.578C233.325 199.913 232.675 200.109 231.983 200.129L232.771 197.148C233.452 197.035 233.93 196.632 234.274 196.172C234.292 196.148 234.308 196.123 234.321 196.096C234.587 195.563 234.736 194.988 234.594 194.275C234.438 193.495 233.834 192.935 233.21 192.561C232.892 192.369 232.535 192.205 232.184 192.105C231.843 192.007 231.457 191.955 231.105 192.043C230.566 192.178 229.992 192.458 229.56 193.036C229.55 193.049 229.54 193.064 229.531 193.078C229.165 193.69 229.111 194.311 229.268 194.909L227.004 196.915C226.737 196.313 226.583 195.656 226.66 194.884C226.771 193.771 226.988 192.824 227.614 191.882C227.621 191.873 227.627 191.863 227.632 191.853C228.047 191.125 228.679 190.485 229.22 190.048C229.879 189.61 230.495 189.312 231.079 189.215C231.711 189.109 232.349 189.107 233.112 189.217C233.136 189.22 233.159 189.222 233.183 189.222C233.637 189.222 234.219 189.408 234.712 189.804Z" fill="#62CEBB" stroke="#62CEBB" stroke-linejoin="round"/>
<path d="M220.647 201.669L222.451 199.345L227.925 203.647C228.03 203.73 228.163 203.767 228.296 203.75C228.428 203.734 228.548 203.665 228.63 203.559L230.285 201.413L232.248 202.889L226.643 210.17L224.678 208.693L226.215 206.671C226.38 206.454 226.341 206.144 226.126 205.975L220.647 201.669Z" fill="#62CEBB" stroke="#62CEBB" stroke-linejoin="round"/>
<path d="M219.723 207.623C219.744 207.633 219.766 207.642 219.789 207.65C220.38 207.847 220.887 208.247 221.476 208.719C221.964 209.11 222.27 209.606 222.607 210.282C222.908 210.885 223.016 211.493 223.13 212.176C223.126 212.811 223.018 213.546 222.81 214.169C222.808 214.176 222.806 214.182 222.804 214.189C222.61 214.871 222.119 215.477 221.534 216.181C220.853 216.861 220.239 217.354 219.674 217.543C218.983 217.774 218.246 217.979 217.645 217.979C217.013 217.979 216.403 217.874 215.797 217.57C215.129 217.235 214.585 216.907 214.045 216.474C213.638 216.148 213.369 215.688 213.072 215.177C213.017 215.084 212.962 214.99 212.905 214.894C212.61 214.296 212.503 213.694 212.391 213.017C212.395 212.394 212.499 211.673 212.699 211.058C213.02 210.421 213.448 209.778 213.987 209.127C214.658 208.457 215.298 207.93 215.913 207.623C216.51 207.323 217.231 207.214 217.875 207.214C218.507 207.214 219.117 207.319 219.723 207.623ZM219.495 210.859C219.482 210.846 219.469 210.834 219.454 210.822C218.906 210.383 218.31 209.905 217.53 209.905C216.808 209.905 216.224 210.199 215.795 210.629C215.567 210.857 215.384 211.152 215.274 211.464C215.172 211.756 215.122 212.094 215.189 212.425C215.213 213.195 215.694 213.772 216.255 214.334C216.885 214.965 217.465 215.288 218.221 215.288C218.943 215.288 219.527 214.994 219.956 214.564C219.972 214.548 219.988 214.53 220.002 214.511C220.354 214.041 220.718 213.415 220.55 212.718C220.409 212.027 220.005 211.37 219.495 210.859Z" fill="#62CEBB" stroke="#62CEBB" stroke-linejoin="round"/>
<path d="M206.078 211.34L215.325 222.223L213.456 223.77L212.738 222.891C212.595 222.716 212.351 222.659 212.145 222.752C211.938 222.845 211.82 223.066 211.858 223.29C211.955 223.877 211.858 224.476 211.656 224.983C211.466 225.459 211.071 225.971 210.52 226.525C209.987 226.95 209.468 227.257 208.855 227.462C208.262 227.66 207.772 227.664 207.139 227.558C206.518 227.455 205.993 227.248 205.324 226.913C204.699 226.6 204.195 226.193 203.79 225.583C203.771 225.556 203.75 225.53 203.727 225.507C203.224 225.003 202.912 224.388 202.697 223.742C202.458 223.023 202.262 222.417 202.262 221.939C202.262 221.309 202.365 220.795 202.572 220.279C202.754 219.821 203.125 219.436 203.592 218.967C204.113 218.554 204.718 218.26 205.19 218.163C205.82 218.059 206.307 218.064 206.898 218.261C207.111 218.332 207.345 218.253 207.47 218.067C207.596 217.881 207.583 217.634 207.438 217.463L203.848 213.231L206.078 211.34ZM210.89 221.531C210.877 221.428 210.833 221.332 210.763 221.255L209.497 219.871C209.456 219.826 209.407 219.789 209.352 219.762C208.846 219.508 208.326 219.371 207.795 219.363C207.058 219.233 206.453 219.529 206.127 219.856C205.839 220.144 205.694 220.436 205.58 220.665L205.573 220.678C205.404 221.016 205.405 221.355 205.405 221.662C205.405 221.678 205.405 221.693 205.405 221.708C205.405 222.052 205.559 222.48 205.688 222.739C205.71 222.783 205.734 222.835 205.764 222.904L205.767 222.91C205.798 222.978 205.834 223.06 205.875 223.142C205.953 223.299 206.062 223.489 206.221 223.655C206.757 224.317 207.32 224.601 207.994 224.736C208.766 224.89 209.495 224.576 210.038 224.041C210.768 223.443 211.019 222.564 210.89 221.531Z" fill="#62CEBB" stroke="#62CEBB" stroke-linejoin="round"/>
<path d="M198.024 236.178C197.887 235.989 197.636 235.919 197.421 236.012C196.592 236.368 195.885 236.663 195.202 236.663C194.905 236.663 194.614 236.679 194.355 236.692C194.25 236.698 194.151 236.703 194.058 236.707C193.718 236.721 193.453 236.718 193.228 236.673C192.741 236.575 192.118 236.268 191.704 235.956C191.69 235.946 191.676 235.936 191.661 235.927C191.186 235.642 190.778 235.145 190.451 234.6L190.451 234.6L190.444 234.588C189.683 233.39 189.403 232.268 189.699 231.182C189.703 231.168 189.706 231.154 189.709 231.14C189.912 230.017 190.636 228.84 191.972 227.612C192.152 227.447 192.186 227.175 192.052 226.97L189.908 223.697L192.416 222.051L194.557 225.218C194.695 225.421 194.96 225.495 195.183 225.39C196.879 224.597 198.238 224.315 199.328 224.612C199.342 224.616 199.356 224.619 199.37 224.622C200.481 224.824 201.519 225.537 202.261 226.705C203.02 227.901 203.313 229.042 203.112 230.154L203.111 230.154L203.11 230.161C202.905 231.392 202.186 232.564 200.748 233.783C200.555 233.947 200.515 234.23 200.655 234.441L202.678 237.483L200.161 239.136L198.024 236.178ZM193.667 229.513C193.58 229.377 193.433 229.291 193.271 229.282C193.11 229.274 192.955 229.344 192.854 229.47C192.375 230.07 192.054 230.645 192.054 231.281C192.054 231.882 192.342 232.562 192.73 233.08C192.74 233.094 192.751 233.108 192.762 233.123C193.082 233.552 193.489 234.097 194.057 234.381C194.671 234.689 195.399 234.67 196.078 234.398C196.216 234.343 196.323 234.229 196.368 234.087C196.414 233.945 196.394 233.791 196.314 233.665L193.667 229.513ZM198.922 232.124C199.008 232.261 199.156 232.348 199.317 232.357C199.479 232.366 199.635 232.296 199.736 232.17C200.227 231.554 200.536 230.983 200.536 230.243C200.536 229.643 200.247 228.97 199.889 228.371C199.487 227.7 198.955 227.305 198.587 227.059C198.57 227.048 198.552 227.037 198.533 227.028C197.912 226.717 197.188 226.746 196.424 227.001C196.279 227.049 196.163 227.162 196.112 227.307C196.06 227.451 196.078 227.612 196.16 227.742L198.922 232.124Z" fill="#62CEBB" stroke="#62CEBB" stroke-linejoin="round"/>
<path d="M183.331 244.316C183.225 244.11 182.99 244.003 182.765 244.06C182.645 244.09 182.529 244.119 182.416 244.148C181.626 244.348 181.004 244.506 180.469 244.506C179.709 244.506 179.085 244.397 178.584 244.196C178.058 243.985 177.544 243.673 177.14 243.269C176.699 242.827 176.293 242.307 176.1 241.822C176.094 241.809 176.089 241.797 176.083 241.784C175.443 240.502 175.354 239.376 175.76 238.257C176.178 237.105 177.021 236.029 178.452 235.037C178.653 234.898 178.724 234.634 178.62 234.413L176.988 230.939L179.656 229.645L181.283 233.108C181.39 233.338 181.653 233.45 181.894 233.37C183.564 232.812 185.049 232.727 186.168 233.135C187.287 233.543 188.121 234.358 188.769 235.656C188.77 235.659 188.771 235.661 188.772 235.663C188.774 235.666 188.776 235.669 188.777 235.672C189.403 236.823 189.5 238.058 189.092 239.184C188.675 240.332 187.833 241.411 186.278 242.524C186.078 242.667 186.012 242.934 186.122 243.153L187.738 246.392L185.064 247.688L183.331 244.316ZM179.885 237.18C179.82 237.042 179.695 236.941 179.545 236.907C179.396 236.872 179.24 236.908 179.121 237.004C178.796 237.264 178.542 237.545 178.373 237.867C178.201 238.193 178.128 238.534 178.128 238.893C178.128 239.429 178.259 240.069 178.509 240.693C178.785 241.387 179.208 241.8 179.708 242.176C179.732 242.195 179.758 242.21 179.785 242.224C180.33 242.497 180.897 242.635 181.703 242.501C181.857 242.475 181.991 242.378 182.063 242.239C182.136 242.1 182.139 241.935 182.072 241.793L179.885 237.18ZM184.736 240.376C184.802 240.514 184.927 240.615 185.076 240.649C185.225 240.684 185.382 240.648 185.501 240.552C186.097 240.074 186.584 239.502 186.608 238.724C186.737 238.121 186.576 237.446 186.213 236.826C185.956 236.2 185.55 235.632 184.952 235.332C184.396 235.054 183.714 234.923 182.919 235.055C182.764 235.081 182.631 235.178 182.558 235.317C182.486 235.456 182.482 235.621 182.549 235.763L184.736 240.376Z" fill="#62CEBB" stroke="#62CEBB" stroke-linejoin="round"/>
<path d="M169.233 238.676C169.256 238.668 169.278 238.659 169.299 238.648C169.635 238.48 170.084 238.471 170.571 238.471C170.945 238.471 171.329 238.564 171.728 238.764C172.153 238.976 172.451 239.178 172.749 239.477C173.019 239.747 173.211 240.122 173.309 240.514C173.314 240.536 173.321 240.557 173.33 240.578C173.519 241.052 173.515 241.405 173.424 241.771C173.412 241.818 173.401 241.864 173.39 241.909C173.342 242.104 173.298 242.286 173.236 242.461C173.161 242.675 173.077 242.826 172.98 242.923C172.942 242.961 172.91 243.005 172.886 243.053C172.719 243.388 172.368 243.664 171.882 244.03C171.455 244.351 170.931 244.665 170.308 244.875C169.541 245.093 168.787 245.198 168.269 245.198C168.109 245.198 167.958 245.275 167.864 245.406C167.77 245.536 167.744 245.704 167.795 245.856L167.904 246.185C168.064 246.796 168.523 247.271 169.032 247.441C169.516 247.603 170.094 247.577 170.845 247.326C170.854 247.323 170.863 247.319 170.872 247.316L170.882 247.312C171.163 247.199 171.467 247.077 171.745 246.938C172.014 246.803 172.287 246.638 172.51 246.423C172.876 246.142 173.178 245.797 173.48 245.424L174.63 246.649C173.697 247.761 172.49 248.528 170.988 249.03L170.988 249.03L170.978 249.034C169.467 249.574 168.203 249.568 167.169 249.263C166.196 248.866 165.487 248.08 165.064 246.705C165.062 246.698 165.06 246.692 165.058 246.686L164.369 244.729C164.26 244.402 164.104 244.008 163.722 243.785C163.555 243.654 163.357 243.613 163.192 243.612L162.428 241.317C162.443 241.307 162.459 241.298 162.473 241.289L162.484 241.283C162.634 241.193 162.76 241.118 162.854 241.07L163.511 240.741C164.12 240.543 164.567 240.567 164.773 240.636C164.785 240.64 164.798 240.644 164.81 240.647C165.153 240.733 165.365 240.882 165.52 241.193C165.529 241.211 165.54 241.229 165.551 241.246L165.781 241.592C165.887 241.751 166.074 241.836 166.264 241.811C166.453 241.786 166.612 241.655 166.672 241.473C166.89 240.817 167.197 240.233 167.661 239.86C167.818 239.734 167.965 239.603 168.1 239.48C168.119 239.463 168.138 239.446 168.156 239.429C168.273 239.323 168.381 239.225 168.491 239.131C168.745 238.917 168.976 238.762 169.233 238.676ZM168.801 240.726C168.779 240.733 168.757 240.742 168.736 240.753L168.045 241.099C167.856 241.194 167.72 241.331 167.64 241.412C167.635 241.416 167.631 241.42 167.628 241.424C167.533 241.518 167.501 241.545 167.47 241.56C167.422 241.585 167.378 241.616 167.34 241.654C167.233 241.761 167.147 241.897 167.088 242.015C167.037 242.117 166.964 242.29 166.964 242.469V242.469V242.47V242.471V242.472V242.472V242.473V242.474V242.474V242.475V242.476V242.476V242.477V242.478V242.479V242.479V242.48V242.481V242.481V242.482V242.483V242.484V242.484V242.485V242.486V242.486V242.487V242.488V242.489V242.489V242.49V242.491V242.492V242.492V242.493V242.494V242.495V242.496V242.496V242.497V242.498V242.499V242.499V242.5V242.501V242.502V242.503V242.503V242.504V242.505V242.506V242.506V242.507V242.508V242.509V242.51V242.51V242.511V242.512V242.513V242.514V242.515V242.515V242.516V242.517V242.518V242.519V242.519V242.52V242.521V242.522V242.523V242.524V242.525V242.525V242.526V242.527V242.528V242.529V242.53V242.53V242.531V242.532V242.533V242.534V242.535V242.536V242.536V242.537V242.538V242.539V242.54V242.541V242.542V242.543V242.543V242.544V242.545V242.546V242.547V242.548V242.549V242.55V242.551V242.551V242.552V242.553V242.554V242.555V242.556V242.557V242.558V242.559V242.56V242.56V242.561V242.562V242.563V242.564V242.565V242.566V242.567V242.568V242.569V242.57V242.571V242.571V242.572V242.573V242.574V242.575V242.576V242.577V242.578V242.579V242.58V242.581V242.582V242.583V242.584V242.585V242.586V242.586V242.587V242.588V242.589V242.59V242.591V242.592V242.593V242.594V242.595V242.596V242.597V242.598V242.599V242.6V242.601V242.602V242.603V242.604V242.605V242.606V242.607V242.608V242.609V242.609V242.61V242.611V242.612V242.613V242.614V242.615V242.616V242.617V242.618V242.619V242.62V242.621V242.622V242.623V242.624V242.625V242.626V242.627V242.628V242.629V242.63V242.631V242.632V242.633V242.634V242.635V242.636V242.637V242.638V242.639V242.64V242.641V242.642V242.643V242.644V242.645V242.646V242.647V242.648V242.649V242.65V242.651V242.652V242.653V242.654V242.655V242.656V242.657V242.658V242.659V242.66V242.661V242.662V242.663V242.664V242.665V242.666V242.667V242.668V242.669V242.67V242.671V242.672V242.673V242.674V242.675V242.676V242.677V242.678V242.679V242.68V242.681V242.682V242.683V242.684V242.685V242.686V242.687V242.688V242.689V242.69V242.691V242.692V242.693V242.694V242.695V242.696V242.697V242.698V242.699V242.7V242.702V242.703V242.704V242.705V242.706V242.707V242.708V242.709V242.71V242.711V242.712V242.713V242.714V242.715V242.716V242.717V242.718V242.719V242.72V242.721V242.722V242.723V242.724V242.725V242.726V242.727V242.728V242.729V242.73V242.731V242.732V242.733V242.734V242.735V242.736V242.737V242.738V242.739V242.74V242.741V242.742V242.743V242.744V242.745V242.746V242.747V242.748V242.749V242.75V242.751V242.752V242.753V242.754V242.755V242.756V242.757V242.758V242.759V242.76V242.761V242.762V242.763V242.764V242.765V242.766V242.767V242.768V242.769V242.77V242.771V242.772V242.773V242.774V242.775V242.776V242.777V242.778V242.779V242.78V242.781V242.782V242.783V242.784V242.785V242.786V242.787V242.788V242.788V242.789V242.79V242.791V242.792V242.793V242.794V242.795V242.796V242.797V242.798V242.799V242.8V242.801V242.802V242.803V242.804V242.805V242.806V242.807V242.808V242.809V242.81V242.811V242.812V242.812V242.813V242.814V242.815V242.816V242.817V242.818V242.819V242.82V242.821V242.822V242.823V242.824V242.825V242.826V242.827V242.827V242.828V242.829V242.83V242.831V242.832V242.833V242.834V242.835V242.836V242.837V242.838V242.838V242.839V242.84V242.841V242.842V242.843V242.844V242.845V242.846V242.847V242.848V242.848V242.849V242.85V242.851V242.852V242.853V242.854V242.855V242.856V242.856V242.857V242.858V242.859V242.86V242.861V242.862V242.862V242.863V242.864V242.865V242.866V242.867V242.868V242.869V242.869V242.87V242.871V242.872V242.873V242.874V242.874V242.875V242.876V242.877V242.878V242.879V242.879V242.88V242.881V242.882V242.883V242.884V242.884V242.885V242.886V242.887V242.888V242.888V242.889V242.89V242.891V242.892V242.892V242.893V242.894V242.895V242.896V242.896V242.897V242.898V242.899V242.9V242.9V242.901V242.902V242.903V242.903V242.904V242.905V242.906V242.906V242.907V242.908V242.909V242.909V242.91V242.911V242.912V242.912V242.913V242.914V242.915V242.915V242.916V242.917V242.918V242.918V242.919V242.92V242.92V242.921V242.922V242.923V242.923V242.924V242.925V242.925V242.926V242.927V242.927V242.928V242.929V242.929V242.93C166.964 242.977 166.97 243.023 166.983 243.067L167.213 243.875C167.274 244.089 167.47 244.238 167.694 244.238H167.695H167.697H167.698H167.699H167.701H167.702H167.703H167.705H167.706H167.707H167.709H167.71H167.711H167.713H167.714H167.715H167.717H167.718H167.719H167.721H167.722H167.724H167.725H167.726H167.728H167.729H167.73H167.732H167.733H167.734H167.736H167.737H167.738H167.74H167.741H167.742H167.744H167.745H167.746H167.748H167.749H167.751H167.752H167.753H167.755H167.756H167.757H167.759H167.76H167.761H167.763H167.764H167.765H167.767H167.768H167.77H167.771H167.772H167.774H167.775H167.776H167.778H167.779H167.78H167.782H167.783H167.784H167.786H167.787H167.789H167.79H167.791H167.793H167.794H167.795H167.797H167.798H167.799H167.801H167.802H167.804H167.805H167.806H167.808H167.809H167.81H167.812H167.813H167.814H167.816H167.817H167.819H167.82H167.821H167.823H167.824H167.825H167.827H167.828H167.83H167.831H167.832H167.834H167.835H167.836H167.838H167.839H167.841H167.842H167.843H167.845H167.846H167.847H167.849H167.85H167.852H167.853H167.854H167.856H167.857H167.859H167.86H167.861H167.863H167.864H167.865H167.867H167.868H167.87H167.871H167.872H167.874H167.875H167.877H167.878H167.879H167.881H167.882H167.884H167.885H167.886H167.888H167.889H167.891H167.892H167.893H167.895H167.896H167.898H167.899H167.9H167.902H167.903H167.905H167.906H167.907H167.909H167.91H167.912H167.913H167.915H167.916H167.917H167.919H167.92H167.922H167.923H167.924H167.926H167.927H167.929H167.93H167.932H167.933H167.934H167.936H167.937H167.939H167.94H167.942H167.943H167.944H167.946H167.947H167.949H167.95H167.952H167.953H167.955H167.956H167.957H167.959H167.96H167.962H167.963H167.965H167.966H167.968H167.969H167.97H167.972H167.973H167.975H167.976H167.978H167.979H167.981H167.982H167.984H167.985H167.986H167.988H167.989H167.991H167.992H167.994H167.995H167.997H167.998H168H168.001H168.003H168.004H168.006H168.007H168.009H168.01H168.012H168.013H168.014H168.016H168.017H168.019H168.02H168.022H168.023H168.025H168.026H168.028H168.029H168.031H168.032H168.034H168.035H168.037H168.038H168.04H168.041H168.043H168.044H168.046H168.047H168.049H168.05H168.052H168.054H168.055H168.057H168.058H168.06H168.061H168.063H168.064H168.066H168.067H168.069H168.07H168.072H168.073H168.075H168.076H168.078H168.079H168.081H168.083H168.084H168.086H168.087H168.089H168.09H168.092H168.093H168.095H168.097H168.098H168.1H168.101H168.103H168.104H168.106H168.107H168.109H168.111H168.112H168.114H168.115H168.117H168.118H168.12H168.122H168.123H168.125H168.126H168.128H168.13H168.131H168.133H168.134H168.136H168.137H168.139H168.141H168.142H168.144H168.145H168.147H168.149H168.15H168.152H168.154H168.155H168.157H168.158H168.16H168.162H168.163H168.165H168.166H168.168H168.17H168.171H168.173H168.175H168.176H168.178H168.18H168.181H168.183H168.184H168.186H168.188H168.189H168.191H168.193H168.194H168.196H168.198H168.199H168.201H168.203H168.204H168.206H168.208H168.209H168.211H168.213H168.214H168.216H168.218H168.219H168.221H168.223H168.224H168.226H168.228H168.23H168.231H168.233H168.235H168.236H168.238H168.24H168.241H168.243H168.245H168.247H168.248H168.25H168.252H168.253H168.255H168.257H168.259H168.26H168.262H168.264H168.266H168.267H168.269H168.271H168.272H168.274H168.276H168.278H168.279H168.281H168.283H168.285H168.286H168.288H168.29H168.292H168.294H168.295H168.297H168.299H168.301H168.302H168.304H168.306H168.308H168.309H168.311H168.313H168.315H168.317H168.318H168.32H168.322H168.324H168.326H168.327H168.329H168.331H168.333H168.335H168.337H168.338H168.34H168.342H168.344H168.346H168.347H168.349H168.351H168.353H168.355H168.357H168.358H168.36H168.362H168.364H168.366H168.368H168.37H168.371H168.373H168.375H168.377H168.379H168.381H168.383H168.385H168.386H168.388H168.39H168.392H168.394H168.396H168.398H168.4H168.402H168.403H168.405H168.407H168.409H168.411H168.413H168.415H168.417H168.419H168.421H168.423H168.424H168.426H168.428H168.43H168.432H168.434H168.436H168.438H168.44H168.442H168.444H168.446H168.448H168.45H168.452H168.454H168.456H168.458H168.46H168.462H168.464H168.465H168.467H168.469H168.471H168.473H168.475H168.477H168.479H168.481H168.483H168.485H168.487H168.489H168.491H168.493H168.495H168.497H168.499C168.678 244.238 168.873 244.195 168.997 244.168C169.024 244.162 169.048 244.156 169.07 244.151C169.107 244.143 169.138 244.136 169.167 244.13C169.192 244.125 169.206 244.123 169.21 244.122C169.244 244.12 169.278 244.116 169.312 244.107C169.874 243.966 170.333 243.671 170.642 243.207C170.977 242.704 170.967 242.189 170.815 241.734C170.647 241.228 170.295 241.023 170.054 240.901C169.887 240.754 169.692 240.657 169.461 240.631C169.223 240.605 168.996 240.661 168.801 240.726Z" fill="#62CEBB" stroke="#62CEBB" stroke-linejoin="round"/>
<path d="M154.309 257.649L154.587 256.813C154.594 256.793 154.599 256.773 154.603 256.753C154.649 256.524 154.714 256.275 154.787 255.997C154.8 255.947 154.813 255.896 154.827 255.844C154.913 255.511 155.005 255.147 155.066 254.777C155.182 254.079 155.303 253.238 155.303 252.388V252.362C155.303 251.574 155.303 250.732 155.181 249.999L155.178 249.983C154.933 248.756 154.444 247.658 153.723 246.575C153.101 245.64 152.39 244.708 151.597 243.707L153.374 242.331C153.536 242.505 153.694 242.681 153.856 242.861L153.859 242.865C154.116 243.15 154.382 243.447 154.679 243.745C155.057 244.123 155.368 244.536 155.687 244.96C155.834 245.155 155.982 245.352 156.139 245.549C156.56 246.077 156.883 246.719 157.233 247.421C157.38 247.714 157.455 247.987 157.524 248.289C157.538 248.349 157.551 248.413 157.566 248.479C157.618 248.72 157.677 248.993 157.769 249.278C157.882 249.959 157.986 250.603 157.986 251.35C157.986 251.999 157.878 252.768 157.761 253.586C157.652 254.354 157.432 255.128 157.2 255.941C157.003 256.631 156.81 257.306 156.549 258.05L154.309 257.649Z" fill="#62CEBB" stroke="#62CEBB" stroke-linejoin="round"/>
<path d="M142.78 251.892C141.975 251.791 141.394 251.499 140.905 251.016C140.499 250.502 140.204 249.898 140.105 249.203L140.105 249.203L140.104 249.192C140.006 248.604 140.103 248.005 140.305 247.498C140.503 247.003 140.801 246.597 141.23 246.167C141.63 245.766 142.14 245.456 142.66 245.245C143.346 245.016 143.99 244.803 144.735 244.695C145.84 244.585 146.824 244.586 147.69 244.691C148.428 244.878 149.174 245.144 149.997 245.494L148.929 247.881C148.487 247.656 148.051 247.482 147.637 247.316L147.623 247.31C146.923 247.03 146.126 247.045 145.294 247.164C145.277 247.166 145.26 247.17 145.244 247.174C145.23 247.177 145.217 247.181 145.203 247.184C144.773 247.292 144.24 247.425 143.821 247.705C143.261 248.079 143.13 248.761 143.256 249.339C143.265 249.504 143.308 249.632 143.334 249.71C143.335 249.714 143.336 249.717 143.337 249.72C143.366 249.806 143.369 249.824 143.369 249.85C143.369 249.983 143.421 250.11 143.515 250.204C143.515 250.203 143.516 250.204 143.518 250.206L143.525 250.215C143.532 250.223 143.54 250.234 143.551 250.249C143.572 250.278 143.595 250.313 143.625 250.358C143.628 250.362 143.631 250.367 143.635 250.372C143.684 250.447 143.766 250.571 143.86 250.665C144.063 250.868 144.418 251.042 144.79 251.042C144.808 251.042 144.835 251.045 144.889 251.053C144.899 251.054 144.911 251.056 144.924 251.058C144.97 251.066 145.034 251.076 145.094 251.083C145.259 251.101 145.461 251.103 145.698 251.034L147.235 250.863L147.452 252.535L146.22 252.699L146.203 252.702C145.54 252.813 144.938 252.939 144.47 253.385C144.239 253.55 144.062 253.77 143.97 254.046C143.881 254.315 143.885 254.597 143.946 254.875C143.973 255.396 144.32 255.74 144.521 255.94C144.531 255.951 144.541 255.961 144.551 255.97C144.787 256.207 145.1 256.285 145.375 256.303C145.652 256.322 145.957 256.285 146.261 256.224C146.934 256.112 147.628 255.984 148.198 255.556C148.306 255.474 148.434 255.385 148.571 255.288C148.824 255.111 149.112 254.909 149.384 254.684L151.003 256.225C150.435 256.852 149.871 257.356 149.169 257.708C148.294 258.146 147.317 258.471 146.236 258.58C146.225 258.581 146.214 258.582 146.203 258.584C145.57 258.69 144.938 258.69 144.304 258.585C143.71 258.466 143.256 258.366 142.903 258.101C142.879 258.083 142.854 258.067 142.827 258.054C142.463 257.871 142.174 257.593 141.852 257.163C141.594 256.818 141.492 256.374 141.376 255.798V255.798V255.796V255.794V255.792V255.79V255.788V255.786V255.784V255.782V255.78V255.778V255.776V255.775V255.773V255.771V255.769V255.767V255.765V255.763V255.761V255.759V255.757V255.755V255.753V255.751V255.75V255.748V255.746V255.744V255.742V255.74V255.738V255.736V255.734V255.732V255.731V255.729V255.727V255.725V255.723V255.721V255.719V255.717V255.716V255.714V255.712V255.71V255.708V255.706V255.704V255.702V255.701V255.699V255.697V255.695V255.693V255.691V255.69V255.688V255.686V255.684V255.682V255.68V255.678V255.677V255.675V255.673V255.671V255.669V255.668V255.666V255.664V255.662V255.66V255.658V255.657V255.655V255.653V255.651V255.649V255.648V255.646V255.644V255.642V255.64V255.639V255.637V255.635V255.633V255.631V255.63V255.628V255.626V255.624V255.622V255.621V255.619V255.617V255.615V255.613V255.612V255.61V255.608V255.606V255.605V255.603V255.601V255.599V255.598V255.596V255.594V255.592V255.59V255.589V255.587V255.585V255.583V255.582V255.58V255.578V255.576V255.575V255.573V255.571V255.569V255.568V255.566V255.564V255.562V255.561V255.559V255.557V255.555V255.554V255.552V255.55V255.548V255.547V255.545V255.543V255.542V255.54V255.538V255.536V255.535V255.533V255.531V255.529V255.528V255.526V255.524V255.523V255.521V255.519V255.517V255.516V255.514V255.512V255.511V255.509V255.507V255.505V255.504V255.502V255.5V255.499V255.497V255.495V255.493V255.492V255.49V255.488V255.487V255.485V255.483V255.481V255.48V255.478V255.476V255.475V255.473V255.471V255.469V255.468V255.466V255.464V255.463V255.461V255.459V255.458V255.456V255.454V255.452V255.451V255.449V255.447V255.446V255.444V255.442V255.441V255.439V255.437V255.436V255.434V255.432V255.43V255.429V255.427V255.425V255.424V255.422V255.42V255.419V255.417V255.415V255.414V255.412V255.41V255.408V255.407V255.405V255.403V255.402V255.4V255.398V255.397V255.395V255.393V255.392V255.39V255.388V255.387V255.385V255.383V255.381V255.38V255.378V255.376V255.375V255.373V255.371V255.37V255.368V255.366V255.365V255.363V255.361V255.359V255.358V255.356V255.354V255.353V255.351V255.349V255.348V255.346V255.344V255.343V255.341V255.339V255.337V255.336V255.334V255.332V255.331V255.329V255.327V255.326V255.324V255.322V255.321V255.319V255.317V255.315V255.314V255.312V255.31V255.309V255.307V255.305V255.304V255.302V255.3V255.298V255.297V255.295V255.293V255.292V255.29V255.288V255.286V255.285V255.283V255.281V255.28V255.278V255.276V255.274V255.273V255.271V255.269V255.268V255.266V255.264V255.262V255.261V255.259V255.257V255.256V255.254V255.252V255.25V255.249V255.247V255.245V255.244V255.242V255.24V255.238V255.237V255.235V255.233V255.231V255.23V255.228V255.226V255.225V255.223V255.221V255.219V255.218V255.216V255.214V255.212V255.211V255.209V255.207V255.205V255.204V255.202V255.2V255.198V255.197V255.195V255.193V255.191V255.19V255.188V255.186V255.184V255.183V255.181V255.179V255.177V255.175V255.174V255.172V255.17V255.168V255.167V255.165V255.163V255.161V255.16V255.158V255.156V255.154V255.152V255.151V255.149V255.147V255.145V255.143V255.142V255.14V255.138V255.136V255.134V255.133V255.131V255.129V255.127V255.125V255.124V255.122V255.12V255.118V255.116V255.115V255.113V255.111V255.109V255.107V255.105V255.104V255.102V255.1V255.098V255.096V255.095V255.093V255.091V255.089V255.087V255.085V255.083V255.082V255.08V255.078V255.076V255.074V255.072V255.071V255.069V255.067V255.065V255.063V255.061V255.059V255.057V255.056V255.054V255.052V255.05V255.048V255.046V255.044V255.042V255.041V255.039V255.037V255.035V255.033V255.031V255.029V255.027V255.025V255.023V255.022V255.02V255.018V255.016V255.014V255.012V255.01V255.008V255.006V255.004V255.002V255V254.998V254.997V254.995V254.993V254.991V254.989V254.987V254.985V254.983V254.981V254.979V254.977V254.975V254.973V254.971V254.969V254.967V254.965V254.963V254.961V254.959V254.957V254.955V254.953V254.951V254.949V254.947V254.945V254.943V254.941V254.939V254.937V254.935V254.933V254.931V254.929V254.927V254.925C141.376 254.744 141.415 254.635 141.493 254.415C141.518 254.344 141.547 254.261 141.581 254.16C141.617 254.053 141.673 253.954 141.761 253.827C141.785 253.794 141.82 253.745 141.861 253.689C141.926 253.601 142.004 253.495 142.069 253.4C142.303 253.168 142.547 252.946 142.839 252.873C143.073 252.814 143.232 252.598 143.217 252.358C143.202 252.117 143.019 251.922 142.78 251.892Z" fill="#62CEBB" stroke="#62CEBB" stroke-linejoin="round"/>
<path d="M129.696 248.272C129.764 248.485 129.964 248.627 130.187 248.62L134.101 248.505C134.319 248.498 134.508 248.35 134.567 248.139L135.274 245.611L138.335 245.526L133.721 259.396L130.75 259.489L125.814 245.833L128.89 245.747L129.696 248.272ZM130.726 250.273C130.572 250.28 130.429 250.358 130.34 250.485C130.25 250.611 130.225 250.772 130.27 250.92L131.651 255.418C131.716 255.631 131.914 255.774 132.137 255.771C132.359 255.768 132.553 255.618 132.611 255.403L133.877 250.79C133.92 250.636 133.886 250.471 133.786 250.346C133.687 250.221 133.533 250.151 133.373 250.158L130.726 250.273Z" fill="#62CEBB" stroke="#62CEBB" stroke-linejoin="round"/>
<path d="M120.49 245.445L123.525 245.793L122.13 259.337L110.579 258.169L111.973 244.522L115.008 244.87L113.907 255.566C113.894 255.698 113.933 255.83 114.017 255.933C114.1 256.036 114.222 256.101 114.354 256.115L118.842 256.576C119.117 256.604 119.362 256.404 119.391 256.13L120.49 245.445Z" fill="#62CEBB" stroke="#62CEBB" stroke-linejoin="round"/>
<path d="M105.419 243.629C105.438 243.649 105.459 243.667 105.482 243.683C106.202 244.198 106.734 244.934 107.18 245.715C107.614 246.477 107.933 247.337 108.039 248.182C108.148 249.058 108.147 249.92 107.933 250.889C107.71 251.782 107.388 252.616 106.884 253.221C106.334 253.883 105.681 254.537 104.927 255.081C104.175 255.508 103.309 255.834 102.435 256.053C101.509 256.258 100.676 256.162 99.546 255.935C98.5677 255.717 97.6338 255.288 97.0341 254.687C97.0146 254.668 96.9936 254.65 96.9712 254.634C96.2511 254.119 95.7188 253.383 95.273 252.601C94.8385 251.84 94.5194 250.98 94.414 250.135C94.3039 249.252 94.3072 248.395 94.5181 247.549C94.7415 246.654 95.0641 245.817 95.5684 245.211C95.5763 245.201 95.5839 245.191 95.5911 245.181C96.1151 244.446 96.7477 243.91 97.5259 243.352C98.2778 242.924 99.1436 242.598 100.018 242.379C100.98 242.165 101.94 242.166 102.902 242.38C103.882 242.598 104.818 243.027 105.419 243.629ZM99.0496 245.513C99.0222 245.531 98.9967 245.552 98.9734 245.576L98.953 245.596C98.6228 245.927 98.2482 246.302 97.9903 246.69C97.7194 247.097 97.4704 247.731 97.346 248.23C97.2159 248.751 97.216 249.266 97.216 249.818L97.216 249.85C97.216 250.523 97.3584 250.946 97.6139 251.458C97.8473 251.925 98.1157 252.356 98.5477 252.66C98.971 253.069 99.5147 253.327 100.15 253.455C100.781 253.581 101.319 253.587 101.866 253.449C102.394 253.317 102.907 253.058 103.288 252.804C103.316 252.785 103.341 252.764 103.364 252.741L103.385 252.721C103.712 252.393 104.082 252.022 104.34 251.638C104.739 251.1 104.874 250.559 104.986 250.109L104.992 250.087C105.122 249.565 105.122 249.05 105.122 248.499L105.122 248.466C105.122 247.794 104.979 247.371 104.724 246.859C104.49 246.391 104.222 245.961 103.79 245.657C103.367 245.248 102.823 244.989 102.188 244.862C101.557 244.735 101.019 244.73 100.472 244.867C99.9434 245 99.4306 245.259 99.0496 245.513Z" fill="#62CEBB" stroke="#62CEBB" stroke-linejoin="round"/>
<path d="M80.623 235.032L83.4805 236.073L80.7924 242.861C80.7055 243.081 80.7838 243.331 80.9801 243.462C81.1764 243.592 81.4374 243.568 81.6063 243.404L85.6292 239.481L86.9851 240.041L87.2029 245.717C87.212 245.954 87.3853 246.151 87.6183 246.191C87.8513 246.231 88.0804 246.102 88.1675 245.882L90.8609 239.081L93.7297 240.213L88.6861 253.01L85.3099 251.694L84.9794 244.407C84.9705 244.211 84.8477 244.038 84.6654 243.965C84.4832 243.892 84.2751 243.933 84.1336 244.069L78.8418 249.151L75.5745 247.841L80.623 235.032Z" fill="#62CEBB" stroke="#62CEBB" stroke-linejoin="round"/>
<path d="M72.1386 236.95C72.245 236.763 72.2203 236.529 72.0771 236.369C71.934 236.209 71.7044 236.158 71.5069 236.242L62.0724 240.294L60.1838 239.176L67.0494 227.243L69.646 228.805L65.8609 235.415C65.7541 235.602 65.7784 235.836 65.9213 235.996C66.0643 236.157 66.2938 236.208 66.4914 236.124L75.7016 232.184L77.6953 233.313L70.8282 245.249L68.2433 243.781L72.1386 236.95Z" fill="#62CEBB" stroke="#62CEBB" stroke-linejoin="round"/>
<path d="M56.0719 236.236L53.6516 234.417L56.6754 230.551C56.7576 230.446 56.7944 230.312 56.7775 230.18C56.7607 230.048 56.6916 229.927 56.5856 229.846L52.6724 226.847C52.4548 226.681 52.1434 226.72 51.9744 226.936L48.9388 230.817L46.5128 228.994L54.8798 218.137L57.3087 219.963L54.1548 224.177C53.9907 224.396 54.0335 224.706 54.251 224.873L58.1642 227.872C58.2702 227.953 58.4044 227.989 58.5367 227.97C58.6691 227.952 58.7886 227.882 58.8686 227.775L62.0213 223.562L64.4389 225.379L56.0719 236.236Z" fill="#62CEBB" stroke="#62CEBB" stroke-linejoin="round"/>
<path d="M45.1343 212.365C45.0336 212.559 45.0698 212.795 45.2238 212.95L47.9861 215.718C48.145 215.877 48.3907 215.91 48.5865 215.8L50.9023 214.488L53.0251 216.615L40.1503 223.173L38.0087 221.027L44.229 207.916L46.3463 210.038L45.1343 212.365ZM44.5505 214.665C44.4396 214.554 44.2829 214.502 44.1273 214.523C43.9718 214.545 43.8355 214.639 43.7593 214.776L41.4574 218.928C41.3492 219.123 41.3835 219.367 41.5415 219.524C41.6995 219.682 41.9429 219.716 42.1379 219.607L46.2814 217.301C46.4183 217.224 46.5116 217.088 46.5333 216.933C46.5551 216.778 46.5028 216.622 46.3921 216.511L44.5505 214.665Z" fill="#62CEBB" stroke="#62CEBB" stroke-linejoin="round"/>
<path d="M23.276 210.478L22.369 209.359C22.547 209.283 22.7615 209.226 23.0255 209.16C23.4061 209.065 23.783 209.065 24.1636 209.16C24.547 209.256 24.9477 209.452 25.3659 209.767C25.8314 210.117 26.2146 210.41 26.5033 210.893C26.5122 210.907 26.5217 210.922 26.532 210.935C26.8574 211.37 27.1873 211.921 27.4057 212.358C27.5974 212.743 27.6984 213.241 27.6984 213.635C27.6984 214.009 27.6084 214.394 27.4965 214.843C27.3807 215.071 27.2763 215.239 27.1519 215.369L26.1723 214.086C26.3315 213.785 26.3965 213.432 26.3965 213.058C26.3965 212.434 26.0903 211.852 25.6749 211.436L25.6667 211.428C25.4998 211.26 25.3137 211.074 25.1235 210.915C24.9328 210.756 24.7035 210.594 24.4435 210.508C24.4314 210.503 24.4191 210.5 24.4066 210.497C24.0259 210.401 23.6503 210.361 23.276 210.478ZM36.451 207.567C36.6199 207.433 36.6836 207.206 36.6092 207.003C36.5348 206.801 36.339 206.669 36.1234 206.676L25.9005 207.014L24.5287 205.295L35.2508 196.807L37.165 199.249L31.1117 204.015C30.9427 204.148 30.8777 204.374 30.9504 204.577C31.0232 204.779 31.2172 204.912 31.4323 204.907L41.4208 204.682L42.8112 206.511L32.08 215.007L30.1644 212.564L36.451 207.567Z" fill="#62CEBB" stroke="#62CEBB" stroke-linejoin="round"/>
<path d="M22.8485 194.914L22.8485 194.914L22.8417 194.915C21.9996 195.021 21.0283 194.916 20.1479 194.696C19.3141 194.487 18.5676 194.065 17.7853 193.505C17.0504 192.979 16.4181 192.242 15.9948 191.287C15.9888 191.274 15.9822 191.26 15.975 191.247C15.4437 190.289 15.2275 189.44 15.117 188.463C15.119 187.476 15.2294 186.602 15.4474 185.729C15.6489 184.921 16.1619 184.186 16.7278 183.505C17.2713 182.852 18.017 182.22 18.7275 181.915C18.745 181.907 18.7621 181.899 18.7786 181.889C19.5032 181.474 20.3497 181.256 21.3478 181.145L21.3478 181.145L21.3546 181.144C22.1995 181.038 23.167 181.145 23.9171 181.359L23.9332 181.364C24.767 181.573 25.5136 181.994 26.2958 182.554C26.3042 182.56 26.3127 182.566 26.3214 182.571C27.1363 183.082 27.6609 183.8 28.2274 184.708C28.7543 185.662 28.9692 186.507 29.0793 187.481C29.0773 188.457 28.9692 189.323 28.7558 190.188C28.4295 191.052 27.9994 191.8 27.4685 192.439C26.9291 193.087 26.1688 193.74 25.4176 194.17C24.693 194.585 23.8466 194.803 22.8485 194.914ZM22.3283 191.99C22.3693 191.99 22.4101 191.985 22.4498 191.975C22.9639 191.846 23.4658 191.594 23.9088 191.372L23.9334 191.36C24.4669 191.093 24.8613 190.697 25.1944 190.364L25.2143 190.344C25.6061 189.951 25.8654 189.558 26.1135 189.06C26.3965 188.493 26.3964 188.043 26.3963 187.487L26.3963 187.453C26.3963 186.895 26.2533 186.351 25.8746 185.713C25.6224 185.213 25.217 184.65 24.624 184.353C24.5636 184.323 24.5005 184.289 24.4347 184.255C24.0956 184.075 23.6854 183.857 23.1962 183.84C22.6338 183.717 22.0903 183.854 21.6731 183.959C21.659 183.962 21.6451 183.966 21.6313 183.969L21.6129 183.974C21.163 184.087 20.6574 184.213 20.1477 184.469C19.6143 184.736 19.2199 185.131 18.8868 185.465C18.8801 185.472 18.8735 185.478 18.8668 185.485C18.4751 185.878 18.2158 186.271 17.9677 186.768C17.6847 187.336 17.6848 187.786 17.6849 188.342C17.6849 188.353 17.6849 188.364 17.6849 188.376C17.6849 188.933 17.8278 189.478 18.2065 190.116C18.4547 190.607 18.851 191.16 19.4283 191.461C19.7857 191.696 20.3118 191.97 20.8853 191.989C21.1686 192.051 21.4379 192.047 21.669 192.032C21.7698 192.026 21.8569 192.018 21.9374 192.012C22.0758 192 22.1943 191.99 22.3283 191.99Z" fill="#62CEBB" stroke="#62CEBB" stroke-linejoin="round"/>
<path d="M11.4477 182.312L7.21359 171.598L9.72206 170.677L11.0422 174.137C11.0896 174.261 11.1845 174.361 11.3059 174.415C11.4273 174.469 11.5652 174.473 11.6892 174.425L21.6994 170.567L22.8298 173.442L12.8258 177.298C12.5688 177.397 12.4403 177.685 12.5385 177.943L13.8563 181.397L11.4477 182.312Z" fill="#62CEBB" stroke="#62CEBB" stroke-linejoin="round"/>
<path d="M17.4578 156.298L7.12698 158.942C6.99724 158.975 6.88623 159.059 6.81884 159.174C6.75144 159.29 6.7333 159.428 6.76847 159.557L7.45904 162.095C7.52809 162.348 7.7819 162.505 8.03975 162.454L9.76323 162.108C11.5739 161.768 13.0383 161.656 14.2717 161.656C15.5207 161.656 16.4727 161.772 17.182 162.077C17.9385 162.402 18.5329 162.812 18.9196 163.394C19.279 163.934 19.5739 164.652 19.8689 165.652L17.4108 166.332C17.3541 166.222 17.2963 166.114 17.2382 166.012C17.1183 165.802 16.9765 165.581 16.8125 165.416C16.4954 165.099 15.9397 164.836 15.4291 164.708C15.4214 164.706 15.4136 164.704 15.4058 164.703C14.7561 164.572 14.0055 164.578 13.0586 164.697C12.8195 164.727 12.5622 164.757 12.2853 164.789C11.5116 164.88 10.5852 164.989 9.47664 165.16L9.47664 165.16L9.47262 165.161L5.66562 165.779L3.36996 156.787L16.6776 153.345L17.4578 156.298Z" fill="#62CEBB" stroke="#62CEBB" stroke-linejoin="round"/>
<path d="M9.8454 147.696C10.059 147.67 10.2315 147.509 10.2736 147.298C10.3157 147.087 10.2181 146.873 10.0311 146.766L1.15726 141.701L0.901443 139.564L14.5227 137.952L14.8695 140.994L7.30937 141.859C7.09558 141.884 6.92144 142.042 6.87703 142.253C6.83262 142.463 6.9279 142.679 7.11358 142.788L15.7604 147.852L16.0201 150.107L2.39667 151.72L2.04922 148.673L9.8454 147.696Z" fill="#62CEBB" stroke="#62CEBB" stroke-linejoin="round"/>
<path d="M9.20362 132.828C9.00985 133.314 8.71913 133.714 8.30392 134.134C7.9104 134.422 7.41071 134.626 6.83478 134.856C6.36739 135.044 5.78331 135.051 5.06987 135.051L0.514551 134.947L0.600185 132.03L3.78249 132.129L3.79814 132.13C4.62436 132.13 5.45749 132.017 6.05516 131.568C6.68666 131.093 6.94533 130.336 6.94533 129.438C6.94533 128.801 6.81894 128.178 6.70027 127.703C6.64557 127.483 6.45056 127.328 6.22459 127.324L0.629705 127.218L0.715507 124.294L14.4477 124.509L14.3621 127.428L9.67913 127.324C9.49287 127.32 9.31974 127.419 9.22993 127.583C9.14012 127.746 9.14851 127.945 9.2517 128.101C9.41512 128.346 9.51328 128.705 9.51328 129.092C9.51328 129.133 9.51827 129.174 9.52815 129.213C9.62508 129.602 9.62838 130.108 9.62838 130.822C9.62838 131.711 9.5154 132.295 9.23901 132.757C9.22533 132.78 9.2135 132.804 9.20362 132.828Z" fill="#62CEBB" stroke="#62CEBB" stroke-linejoin="round"/>
<path d="M12.9111 113.377C12.6972 113.418 12.5346 113.593 12.5092 113.81L12.0488 117.731C12.0228 117.953 12.1468 118.165 12.3527 118.251L14.7694 119.26L14.4283 122.336L1.34617 115.996L1.71848 113.011L15.8825 109.893L15.5431 112.87L12.9111 113.377ZM10.7393 114.278C10.7598 114.121 10.7043 113.963 10.5899 113.853C10.4754 113.743 10.3156 113.694 10.1591 113.721L5.44025 114.528C5.22131 114.566 5.05333 114.743 5.02787 114.964C5.0024 115.185 5.12555 115.396 5.33019 115.482L9.70381 117.327C9.84768 117.388 10.0116 117.378 10.1471 117.3C10.2825 117.223 10.3738 117.086 10.394 116.931L10.7393 114.278Z" fill="#62CEBB" stroke="#62CEBB" stroke-linejoin="round"/>
<path d="M3.02659 104.291L3.80629 101.339L8.61098 102.7C8.7399 102.736 8.87807 102.72 8.99452 102.653C9.11098 102.587 9.19596 102.477 9.23041 102.347L9.69079 100.617C9.7546 100.378 9.6329 100.127 9.40491 100.029C8.70094 99.727 8.1891 99.2216 7.60492 98.6361C7.07191 98.102 6.66013 97.4743 6.45938 96.8708C6.23346 96.1916 6.01294 95.4148 5.90366 94.761C5.80315 94.0484 5.90228 93.3175 6.12049 92.5522C6.12321 92.5427 6.12565 92.533 6.1278 92.5234C6.33783 91.5762 6.75619 90.8395 7.29014 90.1974C7.82045 89.5597 8.45636 89.0259 9.20132 88.5957C9.99649 88.2553 10.8245 87.9556 11.6246 87.9556C11.6454 87.9556 11.6661 87.9543 11.6868 87.9517C12.5233 87.8469 13.4836 87.9502 14.4587 88.2759C15.492 88.621 16.3491 88.9478 17.0883 89.4769C17.8245 90.0038 18.3581 90.6393 18.7951 91.2937C19.2334 92.0649 19.5423 92.8031 19.6455 93.6304L19.6454 93.6304L19.6467 93.639C19.7486 94.3541 19.6502 95.2036 19.4247 96.2219C19.2109 97.0759 18.8931 97.7143 18.4593 98.3664C18.0527 98.9776 17.5407 99.3952 16.8714 99.8423C16.2485 100.258 15.6205 100.472 14.8247 100.7C14.0971 100.908 13.3613 100.911 12.5454 100.911C12.3187 100.911 12.1205 101.064 12.0622 101.283L11.6018 103.013C11.531 103.279 11.6884 103.552 11.954 103.624L16.9993 104.993L16.2195 107.945L3.02659 104.291ZM16.9269 95.4738C16.9335 95.456 16.9392 95.4379 16.9437 95.4196C17.2033 94.379 17.0819 93.3977 16.3827 92.5568C15.7055 91.7424 14.7718 91.3628 13.6101 91.0136C12.3974 90.649 11.2559 90.6304 10.4406 90.8994C9.39576 91.2035 8.85728 92.0997 8.60738 93.1014C8.35618 94.1083 8.45295 95.1058 9.16408 95.8467C9.72344 96.6586 10.6526 97.1547 11.8259 97.5074C13.0387 97.872 14.1801 97.8906 14.9955 97.6216C16.033 97.3195 16.5689 96.4303 16.9269 95.4738Z" fill="#62CEBB" stroke="#62CEBB" stroke-linejoin="round"/>
<path d="M29.6883 72.7068C29.5687 72.6468 29.43 72.6373 29.3033 72.6804C29.1767 72.7235 29.0725 72.8156 29.0143 72.936L21.8667 87.7089L9.5236 81.6858L10.825 78.9036L20.3801 83.6362C20.627 83.7585 20.9264 83.6579 21.0494 83.4114L22.5457 80.4126C22.605 80.2937 22.6145 80.1561 22.5722 80.0302C22.5299 79.9042 22.4392 79.8003 22.3202 79.7413L12.745 74.9988L14.0477 72.2141L23.6028 76.9466C23.8497 77.0689 24.1491 76.9684 24.2721 76.7218L25.7683 73.723C25.8276 73.6042 25.8372 73.4665 25.7949 73.3406C25.7526 73.2147 25.6619 73.1107 25.5428 73.0518L15.9677 68.3093L17.2703 65.5245L26.8254 70.2571C27.0724 70.3794 27.3717 70.2788 27.4947 70.0323L28.1919 68.635L33.5187 71.304L32.2272 73.9789L29.6883 72.7068Z" fill="#62CEBB" stroke="#62CEBB" stroke-linejoin="round"/>
<path d="M26.0261 52.51L28.0772 53.9076L24.7936 58.6841C24.7178 58.7943 24.6894 58.9303 24.7146 59.0617C24.7399 59.193 24.8167 59.3088 24.9279 59.3831L26.6543 60.5365C26.8823 60.6888 27.1904 60.6291 27.345 60.4026L30.0528 56.4368L31.8796 57.7103L29.1663 61.6842C29.0904 61.7954 29.0625 61.9325 29.0891 62.0646C29.1156 62.1966 29.1942 62.3124 29.3072 62.3856L31.2639 63.6543C31.4887 63.8001 31.7886 63.7427 31.9437 63.5242L35.3428 58.7341L37.3986 60.135L31.9838 67.9613L20.7218 60.2226L26.0261 52.51Z" fill="#62CEBB" stroke="#62CEBB" stroke-linejoin="round"/>
<path d="M38.3885 46.516L40.1471 47.9579L37.0261 51.6067C36.8476 51.8155 36.8708 52.1291 37.0782 52.3093L38.8046 53.8086C38.9052 53.896 39.0366 53.9396 39.1695 53.9298C39.3024 53.9199 39.4258 53.8574 39.5125 53.7561L43.3279 49.2954L45.2216 50.9456L39.0775 58.1462L28.6719 49.2237L34.6967 42.1453L36.5897 43.795L32.882 48.1474C32.7035 48.357 32.728 48.6715 32.9368 48.8509L34.5482 50.235C34.6489 50.3215 34.7799 50.3644 34.9123 50.3542C35.0447 50.344 35.1676 50.2816 35.2539 50.1807L38.3885 46.516Z" fill="#62CEBB" stroke="#62CEBB" stroke-linejoin="round"/>
<path d="M50.6506 42.3659C50.6886 42.3279 50.7201 42.284 50.7441 42.236C50.7599 42.2043 50.7827 42.1667 50.8213 42.106C50.8249 42.1003 50.8287 42.0944 50.8326 42.0883C50.866 42.0357 50.9096 41.9672 50.9498 41.8947C51.0337 41.7434 51.1219 41.5424 51.139 41.2924C51.2571 40.9062 51.2571 40.6217 51.2571 40.2965V40.2827C51.2571 40.0794 51.2242 39.897 51.1795 39.7324L53.9967 39.1336C54.1023 39.5062 54.1311 39.8528 54.0649 40.1848C54.0585 40.217 54.0552 40.2498 54.0552 40.2827C54.0552 40.8031 53.9497 41.4314 53.7456 41.9427C53.533 42.4753 53.2102 43.0167 52.8602 43.6013C52.5546 44.1117 52.1443 44.5282 51.6829 44.9906C50.9165 45.6463 50.0509 46.1844 49.2001 46.5042C48.3552 46.8217 47.4011 46.9274 46.5607 46.8221C45.6811 46.7119 44.7984 46.4912 43.9122 46.1582C43.1035 45.8543 42.2496 45.1175 41.7037 44.4611C41.1222 43.7619 40.6027 43.1308 40.2913 42.2988C39.9557 41.402 39.7476 40.6587 39.7476 39.706C39.7476 38.867 39.9561 38.0079 40.2945 36.9893C40.6049 36.1655 41.2363 35.3089 42.0081 34.5334C43.0037 33.6489 44.0722 33.0208 45.1006 32.8147C46.0334 32.6277 46.9418 32.6057 47.7671 32.7972L47.2579 35.6035C47.0542 35.5525 46.836 35.5152 46.6137 35.5152L46.6027 35.5152C46.4377 35.5152 46.2458 35.5152 46.0647 35.5317C45.8938 35.5472 45.6923 35.5803 45.5048 35.6663C45.1419 35.7897 44.8932 35.9143 44.6669 36.0277L44.6632 36.0295C44.3588 36.1821 44.0789 36.463 43.8713 36.6714C43.8696 36.673 43.868 36.6747 43.8664 36.6763C43.3102 37.1067 43.038 37.6711 42.9059 38.2009C42.9024 38.2147 42.899 38.2285 42.8954 38.2426C42.7908 38.6607 42.6547 39.2047 42.7769 39.7675C42.7954 40.3408 43.0678 40.8671 43.3026 41.2254C43.5466 41.7097 43.8035 42.0959 44.188 42.4812L44.208 42.5012C44.5411 42.8351 44.9355 43.2305 45.4689 43.4978C45.9787 43.7532 46.4843 43.8798 46.9342 43.9925L46.9525 43.9971C47.5359 44.1433 48.1031 44.0008 48.535 43.8923C48.549 43.8887 48.5629 43.8852 48.5767 43.8818C49.1074 43.7488 49.6541 43.4799 50.0752 43.0579C50.2155 42.9173 50.3198 42.7779 50.4036 42.6659L50.4093 42.6583C50.4972 42.5409 50.564 42.4527 50.6506 42.3659Z" fill="#62CEBB" stroke="#62CEBB" stroke-linejoin="round"/>
<path d="M57.7885 22.2997L65.9369 33.3662L63.5244 35.093L60.7101 31.3328C60.6305 31.2265 60.512 31.1562 60.3805 31.1374C60.2491 31.1186 60.1155 31.1529 60.0094 31.2327L59.0886 31.9247C58.9523 32.0271 58.8776 32.192 58.8905 32.362L59.33 38.1985L56.8319 40.0343L56.435 34.3656C56.4254 34.2285 56.3598 34.1015 56.2537 34.0143C56.1476 33.927 56.0103 33.8873 55.874 33.9044C54.9861 34.0156 54.286 34.0044 53.6014 33.7104C52.8904 33.405 52.269 32.8923 51.7395 32.1495C51.7343 32.1421 51.7288 32.1349 51.7231 32.1278C51.3181 31.6204 51.1183 31.1194 51.017 30.6118C50.9164 30.1078 50.9118 29.4899 50.9116 28.9151C51.0171 28.417 51.2209 27.9093 51.5312 27.3911C51.8332 26.8866 52.2422 26.4697 52.7894 26.0303L57.7885 22.2997ZM57.1548 26.391C57.0783 26.279 56.9596 26.2028 56.8259 26.18C56.6923 26.1572 56.5551 26.1897 56.4458 26.27L54.7193 27.5387C54.6988 27.5538 54.6795 27.5704 54.6615 27.5884L54.4889 27.7614L54.3162 27.9344C54.3131 27.9376 54.3099 27.9408 54.3066 27.9441C54.1827 28.0679 53.94 28.3105 53.94 28.749V28.7496V28.7503V28.751V28.7517V28.7524V28.7531V28.7538V28.7545V28.7551V28.7558V28.7566V28.7573V28.758V28.7587V28.7594V28.7601V28.7608V28.7615V28.7623V28.763V28.7637V28.7645V28.7652V28.7659V28.7667V28.7674V28.7682V28.7689V28.7696V28.7704V28.7712V28.7719V28.7727V28.7734V28.7742V28.775V28.7757V28.7765V28.7773V28.778V28.7788V28.7796V28.7804V28.7812V28.782V28.7828V28.7835V28.7843V28.7851V28.7859V28.7867V28.7875V28.7884V28.7892V28.79V28.7908V28.7916V28.7924V28.7933V28.7941V28.7949V28.7957V28.7966V28.7974V28.7982V28.7991V28.7999V28.8007V28.8016V28.8024V28.8033V28.8041V28.805V28.8058V28.8067V28.8076V28.8084V28.8093V28.8102V28.811V28.8119V28.8128V28.8137V28.8145V28.8154V28.8163V28.8172V28.8181V28.819V28.8198V28.8207V28.8216V28.8225V28.8234V28.8243V28.8252V28.8261V28.8271V28.828V28.8289V28.8298V28.8307V28.8316V28.8326V28.8335V28.8344V28.8353V28.8363V28.8372V28.8381V28.8391V28.84V28.8409V28.8419V28.8428V28.8438V28.8447V28.8457V28.8466V28.8476V28.8485V28.8495V28.8505V28.8514V28.8524V28.8533V28.8543V28.8553V28.8563V28.8572V28.8582V28.8592V28.8602V28.8612V28.8621V28.8631V28.8641V28.8651V28.8661V28.8671V28.8681V28.8691V28.8701V28.8711V28.8721V28.8731V28.8741V28.8751V28.8761V28.8771V28.8781V28.8792V28.8802V28.8812V28.8822V28.8832V28.8843V28.8853V28.8863V28.8874V28.8884V28.8894V28.8905V28.8915V28.8925V28.8936V28.8946V28.8957V28.8967V28.8978V28.8988V28.8999V28.9009V28.902V28.903V28.9041V28.9052V28.9062V28.9073V28.9084V28.9094V28.9105V28.9116V28.9126V28.9137V28.9148V28.9159V28.917V28.918V28.9191V28.9202V28.9213V28.9224V28.9235V28.9246V28.9257V28.9267V28.9278V28.9289V28.93V28.9311V28.9322V28.9334V28.9345V28.9356V28.9367V28.9378V28.9389V28.94V28.9411V28.9422V28.9434V28.9445V28.9456V28.9467V28.9479V28.949V28.9501V28.9512V28.9524V28.9535V28.9546V28.9558V28.9569V28.958V28.9592V28.9603V28.9615V28.9626V28.9638V28.9649V28.9661V28.9672V28.9684V28.9695V28.9707V28.9718V28.973V28.9741V28.9753V28.9765V28.9776V28.9788V28.98V28.9811V28.9823V28.9835V28.9846V28.9858V28.987V28.9882V28.9893V28.9905V28.9917V28.9929V28.9941V28.9952V28.9964V28.9976V28.9988V29V29.0012V29.0024V29.0036V29.0047V29.0059V29.0071V29.0083V29.0095V29.0107V29.0119V29.0131V29.0143V29.0155V29.0168V29.018V29.0192V29.0204V29.0216V29.0228V29.024V29.0252V29.0264V29.0277V29.0289V29.0301V29.0313V29.0325V29.0338V29.035V29.0362V29.0374V29.0387V29.0399V29.0411V29.0424V29.0436V29.0448V29.0461V29.0473V29.0485V29.0498V29.051V29.0522V29.0535V29.0547V29.056V29.0572V29.0585V29.0597V29.061V29.0622V29.0634V29.0647V29.0659V29.0672V29.0685V29.0697V29.071V29.0722V29.0735V29.0747V29.076V29.0773V29.0785V29.0798V29.081V29.0823V29.0836V29.0848V29.0861V29.0874V29.0886V29.0899V29.0912V29.0924V29.0937V29.095V29.0963V29.0975V29.0988V29.1001V29.1014V29.1027V29.1039V29.1052V29.1065V29.1078V29.1091V29.1103V29.1116V29.1129V29.1142V29.1155V29.1168V29.1181V29.1193V29.1206V29.1219V29.1232V29.1245V29.1258V29.1271V29.1284V29.1297V29.131V29.1323V29.1336V29.1349V29.1362V29.1375V29.1388V29.1401V29.1414V29.1427V29.144V29.1453V29.1466V29.1479V29.1492V29.1505V29.1518V29.1531V29.1544V29.1558V29.1571V29.1584V29.1597V29.161V29.1623V29.1636V29.1649V29.1663V29.1676V29.1689V29.1702V29.1715V29.1728V29.1742V29.1755V29.1768V29.1781V29.1794V29.1808V29.1821V29.1834V29.1847V29.186V29.1874V29.1887V29.19V29.1913V29.1927V29.194V29.1953V29.1967V29.198V29.1993V29.2006V29.202V29.2033V29.2046V29.206V29.2073V29.2086V29.21V29.2113V29.2126V29.214V29.2153V29.2166V29.218V29.2193V29.2206V29.222V29.2233V29.2246V29.226V29.2273V29.2287V29.23V29.2313V29.2327V29.234V29.2353V29.2367V29.238V29.2394V29.2407V29.2421V29.2434V29.2447V29.2461V29.2474V29.2488V29.2501V29.2515V29.2528V29.2541V29.2555V29.2568V29.2582V29.2595V29.2609V29.2622V29.2636V29.2649V29.2662V29.2676V29.2689V29.2703V29.2716V29.273V29.2743V29.2757V29.277V29.2784V29.2797V29.2811V29.2824V29.2838V29.2851V29.2865V29.2878V29.2892V29.2905V29.2919V29.2932V29.2946V29.2959V29.2973V29.2986V29.3V29.3013V29.3027V29.304V29.3054V29.3067V29.3081V29.3094V29.3108V29.3121V29.3135V29.3148V29.3162V29.3175V29.3189V29.3202V29.3216V29.3229V29.3243V29.3256C53.94 29.6624 54.0827 29.9859 54.2602 30.1946C54.3584 30.362 54.4837 30.4797 54.5798 30.56C54.6225 30.5957 54.6671 30.63 54.6997 30.655C54.7072 30.6607 54.714 30.666 54.7201 30.6707C54.7384 30.6849 54.7515 30.6953 54.7619 30.704C54.7669 30.7081 54.7705 30.7113 54.7731 30.7136C54.7756 30.7159 54.7767 30.717 54.7766 30.7169C54.945 30.8856 55.1572 30.9375 55.2783 30.9578C55.4062 30.9791 55.5273 30.9791 55.5848 30.979L55.5909 30.979L55.5971 30.979C55.6546 30.9791 55.7756 30.9791 55.9035 30.9578C56.0176 30.9387 56.2127 30.8915 56.3757 30.7449C56.3878 30.7403 56.4064 30.7338 56.4399 30.7226L56.4463 30.7205C56.4854 30.7074 56.5505 30.6857 56.6146 30.6565C56.675 30.629 56.754 30.5866 56.8303 30.5194L58.5342 29.2672C58.7513 29.1077 58.8029 28.8048 58.651 28.5824L57.1548 26.391Z" fill="#62CEBB" stroke="#62CEBB" stroke-linejoin="round"/>
<path d="M67.9427 20.8509L67.9428 20.8509L67.9419 20.8441C67.837 20.0029 67.9399 19.1456 68.1611 18.259C68.3683 17.4285 68.7841 16.689 69.4371 15.9255C70.0917 15.1602 70.8515 14.5077 71.8307 13.9623C73.0104 13.3178 74.1905 13.1017 75.2723 13.1017C76.173 13.1017 76.9901 13.3337 77.7338 13.8013L76.4858 16.2192C76.3001 16.1027 76.0976 16.0026 75.8911 15.9336C75.4685 15.7925 75.1698 15.7925 74.8258 15.7925L74.8119 15.7925L74.798 15.7925C74.4539 15.7925 74.1552 15.7925 73.7327 15.9336C73.3537 16.0602 73.0975 16.1886 72.8651 16.305L72.8615 16.3069C72.366 16.5551 71.8052 16.9549 71.5018 17.5399C71.2584 17.9109 70.9741 18.4628 70.9741 19.0606C70.9741 19.1951 70.9641 19.314 70.9524 19.4529C70.9456 19.5334 70.9382 19.6207 70.9319 19.7215C70.9165 19.9692 70.9128 20.2605 70.989 20.5657C70.9923 20.5792 70.9957 20.5928 70.9991 20.6065C71.1043 21.0285 71.2339 21.5489 71.5008 21.9637C71.7671 22.4844 72.1538 22.8718 72.4814 23.2L72.5013 23.2199C72.8931 23.6125 73.2859 23.8724 73.7822 24.1211C74.3491 24.4052 74.9121 24.405 75.3552 24.4048C75.366 24.4048 75.3767 24.4048 75.3874 24.4048C75.9343 24.4048 76.4709 24.2671 76.9925 24.0058L77.0054 23.9993C77.2339 23.8849 77.5252 23.739 77.813 23.4506C77.8223 23.4413 77.8318 23.4318 77.8415 23.4221C78.0495 23.214 78.3298 22.9335 78.4819 22.6286C78.5044 22.5837 78.5334 22.5311 78.5714 22.4622L78.5749 22.4558C78.6123 22.388 78.6566 22.3075 78.6978 22.225C78.7592 22.1017 78.8518 21.9039 78.8746 21.6924C78.9301 21.5128 78.96 21.3552 78.9761 21.2055L81.7879 21.3763C81.7758 21.7632 81.735 22.1089 81.5985 22.4507C81.3626 23.0416 81.1649 23.5201 80.7882 23.8976C80.7593 23.9265 80.7341 23.9589 80.7131 23.994C80.41 24.5003 80.0084 24.9027 79.5033 25.2063C79.2578 25.354 79.0265 25.5244 78.822 25.675C78.7667 25.7157 78.7133 25.7551 78.6622 25.7921C78.4086 25.9756 78.1911 26.1176 77.9636 26.2088C77.9507 26.2139 77.9381 26.2196 77.9257 26.2259C77.0431 26.6681 76.0865 26.9802 75.1572 26.9802C74.1601 26.9802 73.3033 26.8694 72.4557 26.5509C71.5839 26.2233 70.8449 25.7958 70.2167 25.1663C70.2037 25.1533 70.1899 25.1409 70.1755 25.1294C69.6579 24.7144 69.121 24.0744 68.6858 23.3111C68.2667 22.5761 68.0522 21.8379 67.9427 20.8509Z" fill="#62CEBB" stroke="#62CEBB" stroke-linejoin="round"/>
<path d="M84.6249 18.9278C84.6313 18.8956 84.6346 18.8628 84.6346 18.83V18.8248C84.6346 18.2416 84.6346 17.4998 84.3895 16.5175C84.2611 16.003 84.1349 15.4256 83.9873 14.7506C83.8707 14.2173 83.7408 13.6231 83.586 12.9509C83.5843 12.9437 83.5825 12.9366 83.5805 12.9295L82.5537 9.22515L91.3133 6.09012L95.9267 18.9917L93.0663 20.034L89.4387 10.0095C89.3931 9.88341 89.2987 9.78091 89.1767 9.72507C89.0548 9.66922 88.9155 9.66471 88.7902 9.71254L86.3732 10.6352C86.1266 10.7294 85.9956 10.9991 86.0742 11.2512L86.6454 13.0828C87.1051 14.9262 87.439 16.385 87.5498 17.6064C87.6641 18.8662 87.6551 19.8254 87.4519 20.5383C87.2512 21.2421 86.8505 21.8504 86.2311 22.3676C85.6944 22.8158 84.9879 23.1999 84.0973 23.5103L83.2526 21.1402C83.5791 20.943 83.8708 20.7059 84.0905 20.3756C84.3731 19.9507 84.5045 19.5312 84.6249 18.9278Z" fill="#62CEBB" stroke="#62CEBB" stroke-linejoin="round"/>
<path d="M102.326 16.8455L102.326 16.8454L102.313 16.8425C101.336 16.6249 100.594 16.3041 99.8483 15.7706C99.0841 15.2236 98.4505 14.582 98.035 13.8534C98.0267 13.8388 98.0176 13.8246 98.0078 13.8109C97.4754 13.0639 97.1552 12.3199 96.9379 11.3401L96.9381 11.3401L96.9349 11.3273C96.7255 10.4883 96.7225 9.6446 96.9379 8.67317C97.1652 7.64795 97.3785 6.9238 97.8928 6.20238C97.9025 6.18867 97.9116 6.17447 97.92 6.15984C98.3354 5.43131 98.969 4.78972 99.7332 4.24267C100.495 3.69727 101.355 3.26881 102.313 3.05543C103.282 2.83965 104.354 2.84276 105.191 3.0524L105.191 3.05256L105.203 3.05543C106.181 3.27308 106.923 3.59384 107.668 4.12733C108.432 4.67438 109.066 5.31598 109.482 6.04451C109.49 6.05913 109.499 6.07333 109.509 6.08704C110.044 6.83737 110.365 7.58574 110.582 8.45527C110.791 9.29251 110.794 10.1343 110.58 11.1031C110.347 12.0371 110.134 12.8638 109.624 13.5802C109.061 14.3697 108.523 15.0102 107.783 15.5399C107.771 15.5485 107.76 15.5576 107.749 15.5672C107.005 16.2057 106.159 16.6297 105.203 16.8425C104.234 17.0583 103.163 17.0552 102.326 16.8455ZM102.852 14.2293C102.864 14.2334 102.876 14.237 102.889 14.2401C103.436 14.3772 103.973 14.3719 104.605 14.2453C105.257 14.1145 105.813 13.8452 106.241 13.4163C106.253 13.4049 106.264 13.3934 106.276 13.3818C106.587 13.0709 107.002 12.6552 107.164 12.0863C107.409 11.5785 107.539 11.0569 107.539 10.5257V10.5156C107.539 10.0562 107.539 9.55366 107.414 8.92841C107.412 8.92065 107.41 8.91292 107.409 8.90524L107.404 8.8868C107.291 8.43596 107.165 7.92955 106.91 7.41899C106.636 6.86873 106.227 6.46006 105.82 6.18843C105.439 5.93391 104.926 5.6749 104.398 5.54249C103.85 5.40538 103.313 5.4107 102.682 5.53725C102.029 5.66805 101.473 5.93738 101.045 6.36634L101.037 6.37458C100.87 6.54181 100.684 6.72829 100.525 6.91885C100.374 7.10115 100.22 7.31835 100.131 7.56364C99.88 8.07686 99.7479 8.6043 99.7479 9.14161C99.7479 9.16909 99.7502 9.19653 99.7547 9.22364C99.8027 9.51241 99.8295 9.75752 99.8552 9.99193C99.8588 10.025 99.8624 10.0578 99.866 10.0906C99.8948 10.3504 99.9265 10.6109 99.9929 10.8774L99.9975 10.8956C100.11 11.3465 100.236 11.853 100.491 12.3636C100.757 12.896 101.149 13.2959 101.542 13.5673C101.933 13.939 102.43 14.0955 102.737 14.1925C102.779 14.2057 102.818 14.2179 102.852 14.2293Z" fill="#62CEBB" stroke="#62CEBB" stroke-linejoin="round"/>
<path d="M121.195 14.2931C121.182 14.2931 121.169 14.2936 121.155 14.2947L114.399 14.832L113.219 1.17962L121.215 0.52994C121.444 0.529991 121.666 0.531234 121.87 0.555334C122.087 0.580909 122.224 0.626473 122.298 0.676369C122.316 0.687898 122.334 0.698341 122.352 0.707638C122.777 0.920288 123.074 1.12173 123.373 1.42115C123.672 1.72059 123.873 2.01912 124.085 2.44458C124.285 2.84484 124.378 3.23024 124.378 3.60539C124.378 3.63287 124.38 3.66031 124.385 3.68742C124.475 4.22658 124.303 4.78692 124.07 5.489C123.775 6.06682 123.396 6.44149 122.813 6.73382C122.628 6.82613 122.52 7.02201 122.539 7.22718C122.558 7.43236 122.701 7.60481 122.899 7.66153C123.689 7.88779 124.361 8.19948 124.718 8.64616C124.741 8.67502 124.767 8.70123 124.796 8.72433C125.221 9.06516 125.533 9.71023 125.644 10.6691C125.644 11.3823 125.631 11.8181 125.467 12.1478C125.264 12.553 124.965 12.9488 124.578 13.24C124.18 13.5389 123.67 13.7467 123.081 13.983C122.579 14.184 121.955 14.2931 121.195 14.2931ZM117.012 3.453C116.878 3.46373 116.754 3.52786 116.668 3.63095C116.582 3.73404 116.541 3.86742 116.554 4.00105L116.784 6.30779C116.811 6.57944 117.051 6.77913 117.323 6.75641L120.068 6.52724C120.25 6.52367 120.453 6.47927 120.636 6.39772C120.785 6.33154 120.963 6.22101 121.095 6.04536C121.505 5.74506 121.568 5.17623 121.464 4.69766C121.458 4.4922 121.421 4.27782 121.343 4.08322C121.26 3.87541 121.108 3.63701 120.844 3.50438C120.833 3.49901 120.822 3.49341 120.81 3.48762C120.606 3.38466 120.281 3.22073 119.929 3.22073C119.916 3.22073 119.902 3.22126 119.889 3.22233L117.012 3.453ZM120.85 8.4109C120.833 8.4109 120.815 8.41179 120.798 8.41357L117.46 8.75958C117.187 8.78788 116.988 9.03098 117.014 9.30422L117.244 11.7263C117.27 11.9967 117.507 12.1971 117.778 12.1777L120.984 11.9482C121.208 11.9461 121.417 11.9066 121.614 11.8186C121.815 11.729 121.98 11.6004 122.124 11.4555C122.162 11.4175 122.194 11.3736 122.218 11.3255C122.356 11.0481 122.501 10.6249 122.501 10.1796C122.501 9.73465 122.354 9.24945 122.009 8.90373C121.865 8.75886 121.7 8.63024 121.499 8.54066C121.296 8.4501 121.081 8.4109 120.85 8.4109Z" fill="#62CEBB" stroke="#62CEBB" stroke-linejoin="round"/>
<path d="M128.241 9.71264C128.236 9.69426 128.231 9.67616 128.224 9.65843C127.905 8.80619 127.795 7.94604 127.795 7.06557C127.795 6.22907 128.003 5.38232 128.433 4.52071C128.876 3.6339 129.307 2.98936 129.951 2.34392C130.579 1.71442 131.318 1.28699 132.19 0.959394C133.069 0.628978 134.022 0.423454 134.951 0.526932C134.97 0.528977 134.988 0.530003 135.007 0.530003C136.047 0.530003 136.887 0.83928 137.775 1.28439C138.626 1.71053 139.265 2.24091 139.919 3.00509C140.454 3.64955 140.887 4.40613 141.214 5.28008C141.533 6.13232 141.643 6.99246 141.643 7.87293C141.643 8.70944 141.435 9.55618 141.005 10.4178C140.562 11.3046 140.131 11.9491 139.487 12.5946C138.873 13.2095 138.152 13.635 137.276 14.0771C136.385 14.1885 135.513 14.2932 134.431 14.2932C133.391 14.2932 132.551 13.9839 131.663 13.5388C130.807 13.1101 130.16 12.5729 129.491 11.9026C128.862 11.2727 128.449 10.545 128.241 9.71264ZM136.279 11.472C136.315 11.4632 136.349 11.4504 136.382 11.4341C136.864 11.1927 137.306 10.9139 137.61 10.4566C137.857 10.0846 138.099 9.60068 138.322 9.1538L138.332 9.1342C138.348 9.1016 138.36 9.06733 138.369 9.03199L138.376 9.00576C138.487 8.56212 138.614 8.05008 138.614 7.52692L138.614 7.49896C138.614 7.05523 138.615 6.42807 138.484 5.90651C138.352 5.37722 138.094 4.86359 137.84 4.48188C137.569 4.07463 137.161 3.66439 136.612 3.38911C136.082 3.12339 135.544 2.99012 134.892 2.99012C134.254 2.99012 133.744 3.11809 133.288 3.23215L133.274 3.23578C133.239 3.24466 133.204 3.2574 133.171 3.27377C132.704 3.50795 132.274 3.77725 131.971 4.21062C131.759 4.43427 131.623 4.68182 131.518 4.90818C131.472 5.00644 131.429 5.10801 131.389 5.20201C131.381 5.22033 131.373 5.23837 131.366 5.25604C131.318 5.36825 131.272 5.47223 131.222 5.57363C131.205 5.60623 131.193 5.6405 131.184 5.67584L131.177 5.70188C131.067 6.14558 130.939 6.65768 130.939 7.18091L130.939 7.20905C130.939 7.65275 130.939 8.27982 131.069 8.80132C131.201 9.33061 131.459 9.84424 131.713 10.2259C131.984 10.6332 132.392 11.0434 132.941 11.3187C133.472 11.5844 134.009 11.7177 134.662 11.7177C135.299 11.7177 135.81 11.5897 136.265 11.4757L136.279 11.472Z" fill="#62CEBB" stroke="#62CEBB" stroke-linejoin="round"/>
<path d="M160.3 14.5696C160.298 14.5783 160.296 14.587 160.295 14.5958C160.195 15.1934 160.01 15.5574 159.628 15.9394C159.612 15.9561 159.596 15.974 159.582 15.9929C159.324 16.3371 158.977 16.5259 158.415 16.7511C157.9 16.9576 157.388 17.0612 156.76 17.0612C156.058 17.0612 155.448 17.0573 154.846 16.8563C154.828 16.8502 154.81 16.8452 154.791 16.8413L148.143 15.4444L150.933 2.00444L158.835 3.63158C159.207 3.72648 159.593 3.91438 159.895 4.11014C160.056 4.27215 160.199 4.41764 160.317 4.55949C160.446 4.7143 160.515 4.83073 160.544 4.91663C160.551 4.93904 160.56 4.9609 160.571 4.98204C160.781 5.40437 160.885 5.71481 160.993 6.14855C161.032 6.30466 161.036 6.47474 161.023 6.68842C161.019 6.74434 161.014 6.80931 161.008 6.87957C160.996 7.02988 160.981 7.20442 160.979 7.36651C160.878 7.92172 160.595 8.40925 160.167 8.94502C159.786 9.42242 159.325 9.70279 158.645 9.80004C158.434 9.8303 158.265 9.9914 158.225 10.2011C158.185 10.4108 158.283 10.6228 158.468 10.7289C159.236 11.1686 159.7 11.561 159.983 12.2217C159.995 12.2497 160.009 12.2766 160.026 12.302C160.39 12.849 160.51 13.6219 160.3 14.5696ZM153.066 10.3828C152.935 10.3546 152.797 10.3806 152.685 10.455C152.573 10.5295 152.495 10.646 152.47 10.7783L152.01 13.2004C151.959 13.4657 152.129 13.7231 152.392 13.7818L155.477 14.4688C155.939 14.6133 156.311 14.4794 156.58 14.3826C156.618 14.3689 156.654 14.356 156.688 14.3447C156.814 14.3027 156.918 14.2124 156.977 14.0937C156.992 14.0628 157.015 14.0252 157.054 13.9651C157.061 13.9544 157.068 13.943 157.076 13.9308C157.109 13.8806 157.149 13.8182 157.189 13.7524C157.29 13.583 157.398 13.3693 157.47 13.0864C157.638 12.5577 157.455 12.0685 157.322 11.8018C157.162 11.4807 156.809 11.0907 156.243 11.065L153.066 10.3828ZM154.096 5.07592C153.827 5.02201 153.564 5.1949 153.508 5.46338L153.048 7.65478C152.991 7.92361 153.162 8.18765 153.431 8.24612L156.078 8.82281C156.113 8.83042 156.148 8.83426 156.184 8.83426H156.191C156.303 8.83427 156.468 8.83428 156.637 8.81736C156.804 8.80063 157.018 8.76385 157.214 8.66595C157.581 8.48214 157.896 8.13146 158.046 7.55023C158.214 7.02148 158.031 6.53232 157.898 6.26564C157.696 5.86246 157.307 5.66244 156.931 5.64423L154.096 5.07592Z" fill="#62CEBB" stroke="#62CEBB" stroke-linejoin="round"/>
<path d="M179.147 9.90134L178.323 12.2977L173.625 10.5195C173.501 10.4724 173.363 10.4768 173.242 10.5318C173.121 10.5867 173.026 10.6877 172.98 10.8124L169.24 20.843L166.379 19.8003L171.098 6.90237L179.147 9.90134Z" fill="#62CEBB" stroke="#62CEBB" stroke-linejoin="round"/>
<path d="M183.916 22.3044L183.916 22.3043L183.906 22.2997L181.72 21.2617C181.472 21.144 181.175 21.2482 181.055 21.4953L179.314 25.0876L176.537 23.783L182.541 11.4264L187.728 13.9724C188.365 14.2916 188.764 14.595 189.171 15.1051C189.58 15.617 189.787 16.1288 190.018 16.7086C190.206 17.1787 190.213 17.7665 190.213 18.4839C190.213 19.0665 190.022 19.5583 189.788 20.144C189.594 20.6311 189.192 21.1351 188.801 21.429C188.75 21.4674 188.699 21.5063 188.647 21.5453C188.206 21.879 187.75 22.2239 187.304 22.4026C186.794 22.6071 186.168 22.7128 185.649 22.7128C185.03 22.7128 184.532 22.6131 183.916 22.3044ZM182.554 18.2607C182.494 18.3811 182.485 18.5206 182.529 18.6477C182.573 18.7748 182.666 18.8788 182.788 18.9362L184.74 19.8566C185.129 20.0492 185.506 20.02 185.922 19.8809C186.486 19.6927 186.793 19.1547 187.017 18.7072C187.023 18.6948 187.029 18.6822 187.034 18.6693C187.248 18.1314 187.457 17.6067 187.274 17.0574C187.093 16.5143 186.702 16.3183 186.463 16.1989C186.458 16.1964 186.453 16.1939 186.448 16.1915L184.607 15.2688C184.488 15.2094 184.35 15.1995 184.224 15.2415C184.098 15.2835 183.994 15.3738 183.935 15.4926L182.554 18.2607Z" fill="#62CEBB" stroke="#62CEBB" stroke-linejoin="round"/>
<path d="M188.567 29.4407L190.225 27.9295C190.231 27.9354 190.236 27.9412 190.242 27.9469C190.244 27.9513 190.251 27.9635 190.265 27.9918C190.267 27.9942 190.268 27.9967 190.269 27.9993C190.299 28.0599 190.358 28.179 190.474 28.2948L190.819 28.6408C190.857 28.6789 190.901 28.7106 190.949 28.7347L190.963 28.7414C191.196 28.8582 191.515 29.0183 191.979 29.0183C192.389 29.0183 192.739 28.8106 193.023 28.5255C193.106 28.4425 193.157 28.333 193.167 28.2161L194.131 17.2725L196.957 19.0744L195.859 25.7848C195.826 25.9854 195.918 26.1859 196.091 26.292C196.265 26.3981 196.485 26.3887 196.649 26.2682L202.011 22.3207L204.639 24.0199L194.937 30.2853C194.358 30.6334 193.804 30.9661 193.366 31.1854C192.962 31.3878 192.554 31.4919 192.087 31.6087C191.724 31.6998 191.469 31.7039 191.115 31.6211C190.993 31.5607 190.885 31.5104 190.786 31.4639C190.501 31.3312 190.286 31.2305 190 31.0188C189.911 30.9373 189.805 30.8669 189.739 30.8226C189.734 30.8192 189.729 30.816 189.724 30.813C189.679 30.7829 189.645 30.7599 189.615 30.7382C189.601 30.7278 189.59 30.7194 189.582 30.7128L189.573 30.7051C189.572 30.7042 189.571 30.7035 189.571 30.7031C189.571 30.7027 189.57 30.7025 189.57 30.7025L189.159 30.2901C189.07 30.1423 188.96 30.0332 188.892 29.9647C188.888 29.9606 188.884 29.9567 188.88 29.9528C188.786 29.8584 188.759 29.8261 188.743 29.7945L188.567 29.4407Z" fill="#62CEBB" stroke="#62CEBB" stroke-linejoin="round"/>
<path d="M216.483 33.5469L207.791 44.1927L205.46 42.2893L212.276 34.0267C212.451 33.8145 212.422 33.5009 212.211 33.3247L208.758 30.4413C208.656 30.3559 208.524 30.3149 208.391 30.3272C208.259 30.3395 208.136 30.4042 208.052 30.5069L201.232 38.7734L198.893 36.8634L207.475 26.1133L216.483 33.5469Z" fill="#62CEBB" stroke="#62CEBB" stroke-linejoin="round"/>
<path d="M220.064 41.1881L212.26 48.5677L210.177 46.306L220.154 36.953L228.105 45.4518L218.129 54.9107L216.045 52.648L223.858 45.2595C224.058 45.0709 224.068 44.7569 223.881 44.5559L220.773 41.2111C220.683 41.1134 220.557 41.056 220.423 41.0517C220.29 41.0474 220.161 41.0965 220.064 41.1881Z" fill="#62CEBB" stroke="#62CEBB" stroke-linejoin="round"/>
<path d="M228.87 55.4625L231.789 59.3273L229.945 60.6928L227.021 56.8206C226.855 56.6006 226.542 56.5566 226.322 56.7223L224.48 58.1063C224.262 58.2707 224.216 58.5804 224.377 58.8013L227.878 63.5852L225.81 65.0774L220.185 57.4576L231.235 49.2872L236.74 56.7809L234.676 58.2701L231.285 53.5988C231.206 53.4888 231.084 53.416 230.95 53.3973C230.815 53.3786 230.678 53.4155 230.571 53.4997L228.96 54.7684C228.746 54.9368 228.706 55.2453 228.87 55.4625Z" fill="#62CEBB" stroke="#62CEBB" stroke-linejoin="round"/>
<path d="M236.742 66.2264C236.312 66.6571 235.775 67.088 235.243 67.4101C235.097 67.4834 234.96 67.5546 234.827 67.6233C234.309 67.8916 233.865 68.1213 233.275 68.2903C233.118 68.3352 232.968 68.3793 232.823 68.422C232.198 68.6057 231.658 68.7642 231.04 68.8527C230.228 68.9689 229.458 69.0783 228.694 69.0783H228.689H228.685H228.68H228.675H228.67H228.666H228.661H228.656H228.652H228.647H228.642H228.637H228.633H228.628H228.623H228.619H228.614H228.609H228.604H228.6H228.595H228.59H228.586H228.581H228.576H228.571H228.567H228.562H228.557H228.552H228.548H228.543H228.538H228.534H228.529H228.524H228.519H228.515H228.51H228.505H228.501H228.496H228.491H228.486H228.482H228.477H228.472H228.468H228.463H228.458H228.453H228.449H228.444H228.439H228.435H228.43H228.425H228.42H228.416H228.411H228.406H228.402H228.397H228.392H228.387H228.383H228.378H228.373H228.369H228.364H228.359H228.354H228.35H228.345H228.34H228.336H228.331H228.326H228.322H228.317H228.312H228.307H228.303H228.298H228.293H228.289H228.284H228.279H228.275H228.27H228.265H228.26H228.256H228.251H228.246H228.242H228.237H228.232H228.228H228.223H228.218H228.213H228.209H228.204H228.199H228.195H228.19H228.185H228.181H228.176H228.171H228.167H228.162H228.157H228.152H228.148H228.143H228.138H228.134H228.129H228.124H228.12H228.115H228.11H228.106H228.101H228.096H228.092H228.087H228.082H228.078H228.073H228.068H228.064H228.059H228.054H228.05H228.045H228.04H228.036H228.031H228.026H228.022H228.017H228.012H228.008H228.003H227.998H227.994H227.989H227.984H227.98H227.975H227.97H227.966H227.961H227.956H227.952H227.947H227.942H227.938H227.933H227.928H227.924H227.919H227.914H227.91H227.905H227.9H227.896H227.891H227.886H227.882H227.877H227.873H227.868H227.863H227.859H227.854H227.849H227.845H227.84H227.835H227.831H227.826H227.822H227.817H227.812H227.808H227.803H227.798H227.794H227.789H227.785H227.78H227.775H227.771H227.766H227.761H227.757H227.752H227.748H227.743H227.738H227.734H227.729H227.724H227.72H227.715H227.711H227.706H227.701H227.697H227.692H227.688H227.683H227.678H227.674H227.669H227.665H227.66H227.655H227.651H227.646H227.642H227.637H227.632H227.628H227.623H227.619H227.614H227.61H227.605H227.6H227.596H227.591H227.587H227.582H227.578H227.573H227.568H227.564H227.559H227.555H227.55H227.546H227.541H227.536H227.532H227.527H227.523H227.518H227.514H227.509H227.505H227.5H227.495H227.491H227.486H227.482H227.477H227.473H227.468H227.464H227.459H227.455H227.45H227.445H227.441H227.436H227.432H227.427H227.423H227.418H227.414H227.409H227.405H227.4H227.396H227.391H227.387H227.382H227.378H227.373H227.369H227.364H227.359H227.355H227.35H227.346H227.341H227.337H227.332H227.328H227.323H227.319H227.314H227.31H227.306H227.301H227.297H227.292H227.288H227.283H227.279H227.274H227.27H227.265H227.261H227.256H227.252H227.247H227.243H227.238H227.234H227.229H227.225H227.22H227.216H227.212H227.207H227.203H227.198H227.194H227.189H227.185H227.18H227.176H227.171H227.167H227.163H227.158H227.154H227.149H227.145H227.14H227.136H227.132H227.127H227.123H227.118H227.114H227.109H227.105H227.101H227.096H227.092H227.087H227.083H227.079H227.074H227.07H227.065H227.061H227.057H227.052H227.048H227.043H227.039H227.035H227.03H227.026H227.021H227.017H227.013H227.008H227.004H227H226.995H226.991H226.986H226.982H226.978H226.973H226.969H226.965H226.96H226.956H226.952H226.947H226.943H226.939H226.934H226.93H226.926H226.921H226.917H226.913H226.908H226.904H226.9H226.895H226.891H226.887H226.882H226.878H226.874H226.869H226.865H226.861H226.856H226.852H226.848H226.843H226.84L226.601 66.9221C227.883 66.8185 229.022 66.703 230.165 66.4948C231.471 66.2567 232.558 65.8961 233.647 65.2915C234.406 64.9085 235.027 64.2858 235.581 63.7309L235.608 63.7033C236.21 63.1005 236.691 62.4975 237.167 61.7817C237.32 61.552 237.464 61.3422 237.602 61.1417C237.862 60.7626 238.1 60.4164 238.331 60.0315C238.386 59.9396 238.439 59.8513 238.491 59.7658C238.598 59.5901 238.697 59.4269 238.785 59.2709L240.591 60.6083C240.483 60.809 240.381 61.0074 240.283 61.1989C240.242 61.2784 240.202 61.3567 240.162 61.4335C239.962 61.8209 239.771 62.1749 239.557 62.4965L238.188 64.5545C237.731 65.1271 237.29 65.6775 236.742 66.2264Z" fill="#62CEBB" stroke="#62CEBB" stroke-linejoin="round"/>
<path d="M196.667 100.667C201.085 100.667 204.667 97.0849 204.667 92.6667C204.667 88.2484 201.085 84.6667 196.667 84.6667C192.248 84.6667 188.667 88.2484 188.667 92.6667C188.667 97.0849 192.248 100.667 196.667 100.667Z" fill="#828181"/>
<path d="M132.667 92.6667C137.085 92.6667 140.667 89.0849 140.667 84.6667C140.667 80.2484 137.085 76.6667 132.667 76.6667C128.248 76.6667 124.667 80.2484 124.667 84.6667C124.667 89.0849 128.248 92.6667 132.667 92.6667Z" fill="#828181"/>
<path d="M100.667 210C105.085 210 108.667 206.418 108.667 202C108.667 197.582 105.085 194 100.667 194C96.2485 194 92.6667 197.582 92.6667 202C92.6667 206.418 96.2485 210 100.667 210Z" fill="#828181"/>
<path d="M90.0001 170C92.9456 170 95.3334 167.612 95.3334 164.667C95.3334 161.721 92.9456 159.333 90.0001 159.333C87.0546 159.333 84.6667 161.721 84.6667 164.667C84.6667 167.612 87.0546 170 90.0001 170Z" fill="#62CEBB"/>
<path d="M103.333 106C109.224 106 114 101.224 114 95.3333C114 89.4423 109.224 84.6667 103.333 84.6667C97.4424 84.6667 92.6667 89.4423 92.6667 95.3333C92.6667 101.224 97.4424 106 103.333 106Z" fill="#62CEBB"/>
<path d="M82 140.667C90.8366 140.667 98 133.503 98 124.667C98 115.83 90.8366 108.667 82 108.667C73.1634 108.667 66 115.83 66 124.667C66 133.503 73.1634 140.667 82 140.667Z" fill="#08345B"/>
<path d="M167.333 92.6667C174.697 92.6667 180.667 86.6971 180.667 79.3333C180.667 71.9695 174.697 66 167.333 66C159.97 66 154 71.9695 154 79.3333C154 86.6971 159.97 92.6667 167.333 92.6667Z" fill="#62CEBB"/>
<path d="M68.6667 87.3333C78.976 87.3333 87.3333 78.976 87.3333 68.6667C87.3333 58.3574 78.976 50 68.6667 50C58.3574 50 50 58.3574 50 68.6667C50 78.976 58.3574 87.3333 68.6667 87.3333Z" fill="#08345B"/>
<path d="M111.333 71.3333C117.224 71.3333 122 66.5577 122 60.6667C122 54.7756 117.224 50 111.333 50C105.442 50 100.667 54.7756 100.667 60.6667C100.667 66.5577 105.442 71.3333 111.333 71.3333Z" fill="#62CEBB"/>
<path d="M132.667 82C134.316 82.0033 135.924 82.5179 137.269 83.4731C138.614 84.4282 139.63 85.7769 140.177 87.3333C140.621 86.1242 140.766 84.8256 140.601 83.5482C140.436 82.2707 139.964 81.052 139.227 79.9958C138.49 78.9395 137.508 78.0769 136.366 77.4813C135.224 76.8857 133.955 76.5747 132.667 76.5747C131.378 76.5747 130.109 76.8857 128.967 77.4813C127.825 78.0769 126.844 78.9395 126.106 79.9958C125.369 81.052 124.898 82.2707 124.732 83.5482C124.567 84.8256 124.712 86.1242 125.156 87.3333C125.703 85.7769 126.719 84.4282 128.064 83.4731C129.409 82.5179 131.017 82.0033 132.667 82Z" fill="#08345B"/>
<path d="M196.667 84.6667C195.296 84.669 193.948 85.025 192.755 85.7004C191.562 86.3757 190.563 87.3474 189.855 88.5217C191.38 87.5792 193.179 87.1793 194.961 87.3868C196.742 87.5942 198.4 88.397 199.668 89.6649C200.936 90.9329 201.739 92.5917 201.947 94.3728C202.154 96.1539 201.754 97.9529 200.812 99.4784C202.305 98.5763 203.462 97.2095 204.105 95.5873C204.748 93.965 204.842 92.1768 204.371 90.4963C203.901 88.8159 202.893 87.3359 201.502 86.283C200.11 85.2301 198.412 84.6624 196.667 84.6667Z" fill="#08345B"/>
<path d="M103.333 207.333C101.913 207.34 100.516 206.967 99.2879 206.252C98.06 205.537 97.0459 204.506 96.3509 203.267C95.6558 202.028 95.3051 200.625 95.3352 199.204C95.3652 197.784 95.7749 196.397 96.5218 195.188C95.4853 195.814 94.6048 196.668 93.947 197.684C93.2892 198.701 92.8714 199.854 92.7252 201.056C92.5789 202.258 92.7081 203.477 93.103 204.622C93.4978 205.767 94.1479 206.806 95.0041 207.663C95.8603 208.519 96.9001 209.169 98.0448 209.564C99.1894 209.959 100.409 210.088 101.611 209.942C102.813 209.795 103.966 209.378 104.982 208.72C105.999 208.062 106.853 207.181 107.478 206.145C106.233 206.916 104.798 207.328 103.333 207.333Z" fill="#08345B"/>
<path d="M87.3333 164.667C87.3354 163.487 87.7295 162.342 88.4536 161.41C89.1776 160.479 90.1906 159.815 91.3333 159.522C90.5419 159.305 89.7112 159.274 88.9057 159.431C88.1003 159.588 87.342 159.929 86.6896 160.426C86.0373 160.924 85.5087 161.566 85.1448 162.301C84.7809 163.037 84.5916 163.846 84.5916 164.667C84.5916 165.487 84.7809 166.297 85.1448 167.032C85.5087 167.768 86.0373 168.409 86.6896 168.907C87.342 169.405 88.1003 169.745 88.9057 169.902C89.7112 170.059 90.5419 170.028 91.3333 169.811C90.1906 169.519 89.1776 168.854 88.4536 167.923C87.7295 166.992 87.3355 165.846 87.3333 164.667Z" fill="#449486"/>
<path d="M58.0001 108.667C60.9456 108.667 63.3334 106.279 63.3334 103.333C63.3334 100.388 60.9456 98 58.0001 98C55.0546 98 52.6667 100.388 52.6667 103.333C52.6667 106.279 55.0546 108.667 58.0001 108.667Z" fill="#62CEBB"/>
<path d="M95.3335 100.667C95.3274 98.5211 95.9704 96.4238 97.1779 94.6503C98.3854 92.8768 100.101 91.5099 102.1 90.7292C104.098 89.9484 106.286 89.7903 108.376 90.2756C110.466 90.7609 112.36 91.8669 113.81 93.4484C113.523 91.816 112.86 90.2731 111.872 88.9424C110.884 87.6116 109.599 86.5298 108.119 85.7829C106.639 85.036 105.006 84.6447 103.349 84.6401C101.691 84.6355 100.056 85.0176 98.5719 85.7563C97.0881 86.4949 95.7972 87.5695 94.8018 88.8947C93.8064 90.2199 93.134 91.7591 92.838 93.3899C92.542 95.0206 92.6306 96.698 93.0968 98.2884C93.563 99.8789 94.3939 101.339 95.5235 102.552C95.4043 101.93 95.3407 101.299 95.3335 100.667Z" fill="#449486"/>
<path d="M140.667 66C145.085 66 148.667 62.4183 148.667 58C148.667 53.5817 145.085 50 140.667 50C136.248 50 132.667 53.5817 132.667 58C132.667 62.4183 136.248 66 140.667 66Z" fill="#08345B"/>
<path d="M167.333 74C170.161 74.0067 172.913 74.9154 175.189 76.594C177.465 78.2726 179.147 80.6335 179.988 83.3333C180.419 82.043 180.648 80.6937 180.667 79.3333C180.667 75.7971 179.262 72.4057 176.761 69.9052C174.261 67.4048 170.87 66 167.333 66C163.797 66 160.406 67.4048 157.905 69.9052C155.405 72.4057 154 75.7971 154 79.3333C154.018 80.6937 154.247 82.043 154.678 83.3333C155.52 80.6335 157.201 78.2726 159.477 76.594C161.753 74.9154 164.505 74.0067 167.333 74Z" fill="#449486"/>
<path d="M199.333 71.3333C205.224 71.3333 210 66.5577 210 60.6667C210 54.7756 205.224 50 199.333 50C193.442 50 188.667 54.7756 188.667 60.6667C188.667 66.5577 193.442 71.3333 199.333 71.3333Z" fill="#62CEBB"/>
<path d="M74 127.333C74 123.09 75.6857 119.02 78.6863 116.02C81.6869 113.019 85.7565 111.333 90 111.333C90.3082 111.333 90.6092 111.362 90.9132 111.38C88.8708 110.007 86.5391 109.124 84.0998 108.8C81.6604 108.476 79.1792 108.719 76.8491 109.51C74.519 110.302 72.403 111.62 70.6658 113.363C68.9286 115.106 67.617 117.226 66.8331 119.559C66.0492 121.892 65.8142 124.374 66.1463 126.812C66.4785 129.25 67.3688 131.579 68.748 133.617C70.1272 135.655 71.9581 137.347 74.0982 138.562C76.2383 139.777 78.6299 140.481 81.0867 140.62C78.9046 139.159 77.1164 137.181 75.8804 134.864C74.6443 132.546 73.9985 129.96 74 127.333Z" fill="#828181"/>
<path d="M63.3334 167.333C69.2245 167.333 74.0001 162.558 74.0001 156.667C74.0001 150.776 69.2245 146 63.3334 146C57.4424 146 52.6667 150.776 52.6667 156.667C52.6667 162.558 57.4424 167.333 63.3334 167.333Z" fill="#08345B"/>
<path d="M66 210C74.8366 210 82 202.837 82 194C82 185.163 74.8366 178 66 178C57.1634 178 50 185.163 50 194C50 202.837 57.1634 210 66 210Z" fill="#62CEBB"/>
<path d="M159.333 124.667L166.888 149.112H191.333L171.557 164.221L179.109 188.667L159.333 173.557L139.557 188.667L147.109 164.221L127.333 149.112H151.779L159.333 124.667Z" fill="#62CEBB"/>
<path d="M156.667 108.667H162V116.667H156.667V108.667Z" fill="#D9D4D4"/>
<path d="M156.667 202H162V210H156.667V202Z" fill="#D9D4D4"/>
<path d="M156.667 108.667H162V116.667H156.667V108.667Z" fill="#D9D4D4"/>
<path d="M156.667 202H162V210H156.667V202Z" fill="#D9D4D4"/>
<path d="M187.617 127.279L193.275 121.621L197.046 125.392L191.388 131.049L187.617 127.279Z" fill="#D9D4D4"/>
<path d="M121.621 193.275L127.279 187.617L131.049 191.388L125.392 197.046L121.621 193.275Z" fill="#D9D4D4"/>
<path d="M187.617 127.279L193.275 121.621L197.046 125.392L191.388 131.049L187.617 127.279Z" fill="#D9D4D4"/>
<path d="M121.621 193.275L127.279 187.617L131.049 191.388L125.392 197.046L121.621 193.275Z" fill="#D9D4D4"/>
<path d="M202 156.667H210V162H202V156.667Z" fill="#D9D4D4"/>
<path d="M108.667 156.667H116.667V162H108.667V156.667Z" fill="#D9D4D4"/>
<path d="M202 156.667H210V162H202V156.667Z" fill="#D9D4D4"/>
<path d="M108.667 156.667H116.667V162H108.667V156.667Z" fill="#D9D4D4"/>
<path d="M187.617 191.388L191.388 187.617L197.046 193.275L193.275 197.046L187.617 191.388Z" fill="#D9D4D4"/>
<path d="M121.621 125.392L125.392 121.621L131.049 127.279L127.279 131.049L121.621 125.392Z" fill="#D9D4D4"/>
<path d="M187.617 191.388L191.388 187.617L197.046 193.275L193.275 197.046L187.617 191.388Z" fill="#D9D4D4"/>
<path d="M121.621 125.392L125.392 121.621L131.049 127.279L127.279 131.049L121.621 125.392Z" fill="#D9D4D4"/>
</svg>
