<svg width="260" height="260" viewBox="0 0 260 260" fill="none" xmlns="http://www.w3.org/2000/svg">
<path d="M230.538 81.971C230.538 81.8934 230.52 81.8168 230.485 81.7473C230.467 81.7108 230.449 81.6438 230.419 81.4794C230.417 81.4667 230.414 81.4535 230.412 81.4397C230.391 81.3201 230.362 81.164 230.315 81.002C230.308 80.8232 230.279 80.6534 230.256 80.517L230.254 80.5023C230.225 80.3285 230.205 80.2033 230.205 80.0854C230.205 79.9138 230.206 79.7711 230.217 79.6453C230.217 79.6443 230.217 79.6432 230.217 79.6422L233.424 79.1491C233.423 79.165 233.422 79.1813 233.422 79.198V79.1993V79.2006V79.2019V79.2032V79.2044V79.2057V79.207V79.2083V79.2096V79.2109V79.2121V79.2134V79.2147V79.2159V79.2172V79.2185V79.2197V79.221V79.2222V79.2235V79.2247V79.226V79.2272V79.2285V79.2297V79.2309V79.2322V79.2334V79.2346V79.2359V79.2371V79.2383V79.2395V79.2408V79.242V79.2432V79.2444V79.2456V79.2468V79.248V79.2493V79.2505V79.2517V79.2529V79.2541V79.2552V79.2564V79.2576V79.2588V79.26V79.2612V79.2624V79.2635V79.2647V79.2659V79.2671V79.2683V79.2694V79.2706V79.2718V79.2729V79.2741V79.2752V79.2764V79.2776V79.2787V79.2799V79.281V79.2822V79.2833V79.2845V79.2856V79.2867V79.2879V79.289V79.2902V79.2913V79.2924V79.2936V79.2947V79.2958V79.2969V79.2981V79.2992V79.3003V79.3014V79.3025V79.3037V79.3048V79.3059V79.307V79.3081V79.3092V79.3103V79.3114V79.3125V79.3136V79.3147V79.3158V79.3169V79.318V79.3191V79.3202V79.3213V79.3224V79.3235V79.3246V79.3256V79.3267V79.3278V79.3289V79.33V79.331V79.3321V79.3332V79.3343V79.3353V79.3364V79.3375V79.3385V79.3396V79.3407V79.3417V79.3428V79.3439V79.3449V79.346V79.347V79.3481V79.3491V79.3502V79.3512V79.3523V79.3533V79.3544V79.3554V79.3565V79.3575V79.3586V79.3596V79.3607V79.3617V79.3627V79.3638V79.3648V79.3658V79.3669V79.3679V79.3689V79.37V79.371V79.372V79.3731V79.3741V79.3751V79.3761V79.3772V79.3782V79.3792V79.3802V79.3812V79.3823V79.3833V79.3843V79.3853V79.3863V79.3874V79.3884V79.3894V79.3904V79.3914V79.3924V79.3934V79.3944V79.3954V79.3964V79.3974V79.3985V79.3995V79.4005V79.4015V79.4025V79.4035V79.4045V79.4055V79.4065V79.4075V79.4085V79.4095V79.4105V79.4115V79.4125V79.4134V79.4144V79.4154V79.4164V79.4174V79.4184V79.4194V79.4204V79.4214V79.4224V79.4234V79.4244V79.4253V79.4263V79.4273V79.4283V79.4293V79.4303V79.4313V79.4322V79.4332V79.4342V79.4352V79.4362V79.4372V79.4381V79.4391V79.4401V79.4411V79.4421V79.443V79.444V79.445V79.446V79.447V79.4479V79.4489V79.4499V79.4509V79.4519V79.4528V79.4538V79.4548V79.4558V79.4567V79.4577V79.4587V79.4597V79.4607V79.4616V79.4626V79.4636V79.4646V79.4655V79.4665V79.4675V79.4685V79.4694V79.4704V79.4714V79.4724V79.4733V79.4743V79.4753V79.4763V79.4772V79.4782V79.4792V79.4802V79.4811V79.4821V79.4831V79.4841V79.485V79.486V79.487V79.488V79.4889V79.4899V79.4909V79.4919V79.4928V79.4938V79.4948V79.4958V79.4967V79.4977V79.4987V79.4997V79.5007V79.5016V79.5026V79.5036V79.5046V79.5056V79.5065V79.5075V79.5085V79.5095V79.5105V79.5114V79.5124V79.5134V79.5144V79.5154V79.5163V79.5173V79.5183V79.5193V79.5203V79.5213V79.5223V79.5232V79.5242V79.5252V79.5262V79.5272V79.5282V79.5292V79.5302V79.5312V79.5321V79.5331V79.5341V79.5351V79.5361V79.5371V79.5381V79.5391V79.5401V79.5411V79.5421V79.5431V79.5441V79.5451V79.5461V79.5471V79.5481V79.5491V79.5501V79.5511V79.5521V79.5531V79.5541V79.5551V79.5561V79.5571V79.5582V79.5592V79.5602V79.5612V79.5622V79.5632V79.5642V79.5652V79.5663V79.5673V79.5683V79.5693V79.5703V79.5714V79.5724V79.5734V79.5744V79.5754V79.5765V79.5775V79.5785V79.5796V79.5806V79.5816V79.5827V79.5837V79.5847V79.5858V79.5868V79.5878V79.5889V79.5899V79.5909V79.592V79.593V79.5941V79.5951V79.5962V79.5972V79.5983V79.5993V79.6004V79.6014V79.6025V79.6035V79.6046V79.6056V79.6067V79.6078V79.6088V79.6099V79.611V79.612V79.6131V79.6142V79.6152V79.6163V79.6174V79.6184V79.6195V79.6206V79.6217V79.6228V79.6238V79.6249V79.626V79.6271V79.6282V79.6293V79.6304V79.6315V79.6325V79.6336V79.6347V79.6358V79.6369V79.638V79.6391V79.6402V79.6413V79.6425V79.6436V79.6447V79.6458V79.6469V79.648V79.6491V79.6503V79.6514V79.6525V79.6536V79.6547V79.6559V79.657V79.6581V79.6593V79.6604V79.6615V79.6627V79.6638V79.665V79.6661V79.6672V79.6684V79.6695V79.6707V79.6718V79.673V79.6742V79.6753V79.6765V79.6776V79.6788V79.68V79.6811V79.6823V79.6835V79.6847V79.6858V79.687V79.6882V79.6894V79.6906V79.6917V79.6929V79.6941V79.6953V79.6965V79.6977V79.6989V79.7001V79.7013V79.7025V79.7037V79.7049V79.7061V79.7074V79.7086V79.7098V79.711V79.7122V79.7135V79.7147V79.7159V79.7171V79.7184V79.7196V79.7209V79.7221V79.7233V79.7246V79.7258V79.7271V79.7283V79.7296V79.7308V79.7321V79.7334V79.7346V79.7359V79.7372V79.7384V79.7397V79.741V79.7423V79.7435V79.7448V79.7461V79.7474V79.7487V79.75V79.7513V79.7526C233.422 79.9265 233.463 80.09 233.489 80.191C233.49 80.1964 233.491 80.2016 233.493 80.2067C233.523 80.3293 233.533 80.3795 233.533 80.4181C233.533 80.4719 233.542 80.5253 233.559 80.5763C233.691 80.9717 233.989 81.4851 234.541 81.6689C234.566 81.6774 234.594 81.6871 234.624 81.6976C234.748 81.7407 234.907 81.7961 235.067 81.8252C235.294 81.8664 235.532 81.8621 235.819 81.7906C235.925 81.7641 236.019 81.7038 236.087 81.6188L245.118 70.3875L246.979 74.5514L240.992 80.9642C240.853 81.113 240.818 81.3312 240.903 81.5158C240.989 81.7005 241.178 81.8148 241.381 81.8049L250.139 81.3779L251.902 85.3424L236.814 85.1315L236.814 85.1314H236.807C236.382 85.1314 235.953 85.1048 235.537 85.0771C235.505 85.075 235.474 85.0729 235.443 85.0708C235.082 85.0466 234.725 85.0227 234.408 85.0206C233.731 84.9075 233.168 84.8066 232.814 84.6296C232.802 84.6234 232.789 84.6177 232.776 84.6126C232.296 84.4205 231.907 84.1305 231.612 83.8358C231.234 83.4579 231.045 83.0869 230.707 82.4129C230.582 82.162 230.538 82.0518 230.538 81.971Z" fill="#62CEBB" stroke="#62CEBB" stroke-linejoin="round"/>
<path d="M243.537 109.162L244.076 111.227L236.394 113.196L235.416 109.286L239.262 108.3C239.529 108.232 239.69 107.96 239.623 107.693L237.07 97.5993C237.038 97.4704 236.955 97.3599 236.841 97.292C236.727 97.2241 236.59 97.2045 236.461 97.2375L232.621 98.2218L231.642 94.3099L239.241 92.3371L239.433 92.9745C239.574 93.5305 239.877 93.9916 240.468 94.2868C240.983 94.5445 241.49 94.6647 242.285 94.7783C242.309 94.7816 242.332 94.7833 242.356 94.7833H242.36C243.137 94.7833 244.045 94.7833 245.18 94.6699C246.075 94.5804 247.184 94.4197 248.378 94.2466C248.683 94.2025 248.993 94.1575 249.307 94.1127L249.307 94.1128L249.315 94.1115L254.412 93.2964L257.396 105.125L243.897 108.551C243.768 108.584 243.658 108.667 243.59 108.782C243.522 108.896 243.503 109.033 243.537 109.162ZM242.204 104.166C242.236 104.295 242.318 104.406 242.433 104.474C242.547 104.542 242.684 104.562 242.813 104.529L252.356 102.089C252.621 102.021 252.782 101.753 252.718 101.487L251.941 98.27C251.88 98.0138 251.629 97.8496 251.37 97.8948L248.825 98.3371C248.71 98.3535 248.597 98.3698 248.484 98.386C247.054 98.5911 245.775 98.7748 244.686 98.7748C243.455 98.7748 242.38 98.7739 241.53 98.6677C241.367 98.6472 241.203 98.7088 241.094 98.8323C240.985 98.9557 240.943 99.1251 240.983 99.2851L242.204 104.166Z" fill="#62CEBB" stroke="#62CEBB" stroke-linejoin="round"/>
<path d="M246.336 113.817C246.341 113.814 246.347 113.812 246.352 113.809C247.404 113.283 248.549 112.974 249.68 112.974C249.695 112.974 249.71 112.974 249.725 112.972C250.852 112.87 251.999 113.071 253.19 113.395C254.348 113.818 255.293 114.343 256.241 115.079C257.071 115.807 257.81 116.751 258.452 117.818C258.982 118.883 259.389 120.128 259.389 121.348C259.389 121.361 259.389 121.374 259.39 121.386C259.495 122.752 259.286 124.011 258.864 125.17C258.447 126.317 257.823 127.254 256.983 128.093C256.141 128.935 255.19 129.571 254.117 130.107C253.088 130.622 251.938 130.836 250.853 130.944C249.72 131.047 248.568 130.842 247.37 130.516L247.238 130.998L247.37 130.516C246.249 130.21 245.316 129.595 244.46 128.847C243.622 128.114 242.877 127.16 242.23 126.082C242.224 126.072 242.217 126.062 242.21 126.053C241.5 125.039 241.185 123.914 241.079 122.53C240.974 121.165 241.183 119.905 241.605 118.746C242.022 117.6 242.646 116.663 243.486 115.823C244.338 114.971 245.178 114.343 246.336 113.817ZM248.028 117.53C247.998 117.536 247.969 117.545 247.941 117.556C247.337 117.797 246.744 118.154 246.273 118.508C245.723 118.92 245.347 119.572 245.11 120.164C244.858 120.792 244.741 121.524 244.741 122.346C244.741 123.238 245.002 123.881 245.367 124.489C245.725 125.086 246.217 125.598 246.752 125.878C247.266 126.253 247.887 126.492 248.599 126.611C248.65 126.619 248.7 126.628 248.751 126.637C249.333 126.735 249.923 126.835 250.609 126.728C250.981 126.724 251.315 126.661 251.613 126.59C251.75 126.557 251.869 126.526 251.979 126.497C252.138 126.456 252.28 126.418 252.441 126.386C252.471 126.38 252.5 126.371 252.529 126.36C253.132 126.119 253.725 125.762 254.196 125.409C254.215 125.394 254.233 125.379 254.25 125.362C254.725 124.887 255.105 124.388 255.359 123.752C255.609 123.128 255.728 122.397 255.728 121.681C255.728 120.789 255.467 120.146 255.102 119.538C254.744 118.941 254.252 118.429 253.717 118.149C253.213 117.78 252.604 117.543 251.909 117.423C251.182 117.188 250.568 117.188 249.925 117.188L249.902 117.188C249.513 117.188 249.165 117.253 248.857 117.326C248.719 117.359 248.6 117.39 248.49 117.419C248.331 117.461 248.189 117.498 248.028 117.53Z" fill="#62CEBB" stroke="#62CEBB" stroke-linejoin="round"/>
<path d="M251.623 140.162L251.29 144.041C251.076 146.183 250.44 147.717 249.447 148.716C248.46 149.599 247.165 150.012 245.508 149.911C243.723 149.699 242.542 149.081 241.761 148.008C240.961 146.908 240.532 145.375 240.745 143.249L240.745 143.247L241.586 134.427L259.452 136.108L258.109 149.531L254.553 149.184L255.393 140.475C255.406 140.341 255.365 140.208 255.279 140.105C255.193 140.003 255.069 139.939 254.935 139.928L252.161 139.706C251.887 139.684 251.646 139.888 251.623 140.162ZM245.897 145.459C245.936 145.469 245.977 145.474 246.018 145.474C246.282 145.474 246.54 145.441 246.794 145.344C247.049 145.246 247.273 145.092 247.481 144.884C247.904 144.461 248.163 143.914 248.287 143.171C248.288 143.16 248.29 143.148 248.291 143.137L248.624 139.698C248.65 139.425 248.452 139.182 248.179 139.153L245.072 138.82C244.94 138.806 244.807 138.845 244.703 138.93C244.6 139.014 244.534 139.136 244.521 139.269L244.19 142.691C244.07 143.434 244.182 144.121 244.492 144.586C244.816 145.072 245.406 145.337 245.897 145.459Z" fill="#62CEBB" stroke="#62CEBB" stroke-linejoin="round"/>
<path d="M247.556 165.868L253.849 167.518L252.867 171.533L235.532 166.807L236.607 162.779L243.226 164.536C243.492 164.607 243.765 164.45 243.837 164.184L245.502 158.084C245.537 157.955 245.519 157.818 245.453 157.703C245.386 157.587 245.276 157.503 245.148 157.469L238.529 155.712L239.602 151.69L256.837 156.417L255.761 160.448L249.474 158.8C249.209 158.73 248.937 158.887 248.865 159.152L247.2 165.252C247.165 165.381 247.183 165.519 247.25 165.634C247.316 165.75 247.427 165.834 247.556 165.868Z" fill="#62CEBB" stroke="#62CEBB" stroke-linejoin="round"/>
<path d="M243.578 179.689C243.334 179.567 243.037 179.664 242.911 179.906L241.469 182.679C241.464 182.688 241.459 182.697 241.455 182.706C241.035 183.652 240.521 184.36 239.928 184.855C239.916 184.864 239.905 184.875 239.894 184.885C239.269 185.51 238.674 185.897 238.002 186.089C237.982 186.095 237.962 186.102 237.942 186.11C237.243 186.41 236.559 186.505 235.88 186.408C235.142 186.302 234.308 186.093 233.48 185.679C231.809 184.844 230.8 183.721 230.293 182.313C229.892 180.895 229.986 179.369 230.924 177.597L230.924 177.598L230.928 177.59L234.586 170.382L250.564 178.472L248.68 182.239L243.578 179.689ZM236.159 175.926C236.041 175.862 235.903 175.848 235.775 175.887C235.646 175.926 235.539 176.014 235.477 176.133L234.263 178.45C233.85 179.147 233.863 179.839 233.987 180.456C233.996 180.5 234.01 180.542 234.03 180.582C234.284 181.089 234.675 181.615 235.33 182.007C235.353 182.021 235.377 182.033 235.401 182.043C235.993 182.279 236.545 182.429 237.238 182.291C237.951 182.148 238.536 181.706 238.822 180.889L240.025 178.594C240.151 178.352 240.061 178.053 239.821 177.923L236.159 175.926ZM224.716 189.898L226.599 186.134L242.574 194.223L240.691 197.987L224.716 189.898Z" fill="#62CEBB" stroke="#62CEBB" stroke-linejoin="round"/>
<path d="M228.197 202.796L224.394 207.829L221.859 205.886L225.666 200.848C225.832 200.628 225.789 200.315 225.57 200.148L223.239 198.374C223.02 198.207 222.708 198.248 222.54 198.466L217.632 204.834L214.865 202.673L222.368 192.706L236.661 203.527L229.28 213.261L226.518 211.104L231.102 205.063C231.267 204.846 231.228 204.537 231.014 204.369L228.905 202.705C228.8 202.622 228.665 202.584 228.532 202.601C228.399 202.619 228.278 202.689 228.197 202.796Z" fill="#62CEBB" stroke="#62CEBB" stroke-linejoin="round"/>
<path d="M213.107 220.186C212.942 219.995 212.66 219.956 212.45 220.096L212.117 220.318C211.963 220.42 211.879 220.599 211.897 220.784L212.759 229.401L209.265 232.457L208.454 222.026C208.437 221.803 208.274 221.619 208.055 221.575L196.953 219.335L200.333 216.39L208.749 218.008C208.896 218.036 209.048 217.997 209.163 217.901L209.829 217.347C209.934 217.26 209.998 217.134 210.008 216.999C210.018 216.864 209.972 216.73 209.882 216.629L205.556 211.79L208.689 209.017L220.567 222.465L217.437 225.236L213.107 220.186Z" fill="#62CEBB" stroke="#62CEBB" stroke-linejoin="round"/>
<path d="M189.1 228.657C189.266 228.799 189.506 228.816 189.691 228.699L193.908 226.037C194.092 225.921 194.18 225.698 194.124 225.486L193.218 222.065L196.756 219.766L201.063 238.14L197.667 240.308L182.855 228.547L186.382 226.343L189.1 228.657ZM191.592 230.187C191.461 230.273 191.378 230.415 191.366 230.571C191.355 230.726 191.418 230.879 191.535 230.982L196.085 234.975C196.252 235.121 196.495 235.14 196.682 235.022C196.869 234.904 196.956 234.676 196.896 234.463L195.232 228.584C195.188 228.431 195.075 228.308 194.926 228.252C194.777 228.196 194.61 228.215 194.477 228.302L191.592 230.187Z" fill="#62CEBB" stroke="#62CEBB" stroke-linejoin="round"/>
<path d="M174.464 247.667C174.453 247.656 174.442 247.646 174.43 247.636C173.837 247.142 173.436 246.547 173.127 245.827C172.811 245.089 172.613 244.382 172.613 243.584C172.613 242.741 172.718 242.011 172.926 241.281C173.12 240.602 173.514 240 174.05 239.356C174.541 238.767 175.136 238.362 175.987 237.936L178.75 236.72C179.003 236.609 179.117 236.315 179.007 236.062L176.876 231.195L180.735 229.49L187.988 245.882L181.022 249C180.161 249.322 179.454 249.517 178.66 249.517C177.861 249.517 177.153 249.319 176.415 249.003C175.698 248.696 175.085 248.288 174.464 247.667ZM180.896 240.172C180.843 240.049 180.745 239.952 180.621 239.903C180.497 239.853 180.358 239.855 180.236 239.908L177.702 241.009C177.478 241.088 177.267 241.212 177.093 241.407C176.919 241.603 176.807 241.843 176.736 242.114C176.65 242.39 176.665 242.699 176.709 242.992C176.756 243.303 176.846 243.661 176.958 244.054C176.967 244.084 176.978 244.112 176.992 244.14C177.166 244.487 177.354 244.808 177.575 245.062C177.798 245.32 178.075 245.534 178.428 245.622C178.897 245.739 179.376 245.777 179.762 245.588L182.196 244.482C182.443 244.37 182.555 244.082 182.449 243.832L180.896 240.172Z" fill="#62CEBB" stroke="#62CEBB" stroke-linejoin="round"/>
<path d="M170.99 249.19L171.939 252.554L157.378 256.608L156.518 253.252L161.26 251.941C161.388 251.906 161.497 251.821 161.562 251.705C161.628 251.589 161.644 251.452 161.608 251.324L157.858 237.937L161.891 236.772L165.639 250.152C165.713 250.417 165.988 250.572 166.254 250.499L170.99 249.19Z" fill="#62CEBB" stroke="#62CEBB" stroke-linejoin="round"/>
<path d="M150.652 255.012C150.646 255.019 150.64 255.027 150.634 255.034C149.897 255.982 149.056 256.718 147.997 257.353C146.946 257.983 145.8 258.399 144.443 258.503C143.057 258.61 141.791 258.503 140.638 258.192C139.456 257.761 138.431 257.238 137.622 256.43C137.614 256.422 137.606 256.414 137.598 256.407C136.759 255.674 136.022 254.727 135.496 253.676C134.97 252.624 134.651 251.568 134.435 250.393C134.333 249.242 134.439 248.089 134.755 246.932C135.067 245.788 135.586 244.849 136.331 243.891C137.069 242.943 137.909 242.207 138.968 241.572C139.976 240.967 141.201 240.755 142.544 240.531C143.921 240.427 145.181 240.534 146.327 240.844C147.51 241.275 148.549 241.802 149.368 242.518C150.206 243.251 150.943 244.198 151.469 245.249C152.014 246.339 152.425 247.382 152.528 248.509C152.633 249.668 152.528 250.829 152.211 251.993C151.894 253.153 151.371 254.191 150.652 255.012ZM138.776 248.255L138.773 248.271C138.653 248.991 138.653 249.601 138.773 250.321C138.884 250.992 139.002 251.592 139.245 252.199C139.478 252.781 139.846 253.421 140.379 253.834C140.885 254.33 141.393 254.579 141.965 254.807C142.589 255.057 143.345 255.186 144.114 255.059C144.959 254.938 145.575 254.692 146.181 254.328C146.82 253.945 147.203 253.434 147.529 253L147.545 252.979C147.555 252.966 147.564 252.951 147.573 252.937C147.912 252.372 148.177 251.753 148.198 251.098C148.426 250.367 148.422 249.644 148.302 249.04C148.191 248.372 148.073 247.775 147.831 247.169C147.594 246.577 147.217 245.925 146.668 245.513C146.566 245.437 146.463 245.353 146.349 245.26L146.331 245.246C146.225 245.159 146.11 245.066 145.992 244.975C145.741 244.784 145.45 244.586 145.111 244.45C144.478 244.197 143.724 244.074 142.857 244.198C142.009 244.319 141.392 244.565 140.784 244.93C140.125 245.325 139.74 245.852 139.392 246.432C139.014 247.061 138.889 247.688 138.78 248.231L138.776 248.255Z" fill="#62CEBB" stroke="#62CEBB" stroke-linejoin="round"/>
<path d="M117.767 240.999L121.874 241.177L121.566 247.33C121.558 247.5 121.637 247.663 121.775 247.762C121.914 247.861 122.093 247.882 122.251 247.819C122.764 247.614 123.171 247.511 123.812 247.404L123.828 247.402C124.319 247.303 125.028 247.3 126.036 247.3C127.146 247.412 127.921 247.52 128.587 247.9C128.603 247.909 128.62 247.918 128.638 247.925C129.307 248.212 129.8 248.695 130.22 249.22C130.605 249.701 130.904 250.392 131.003 251.086C131.006 251.109 131.011 251.131 131.017 251.153C131.215 251.846 131.22 252.654 131.22 253.554L130.913 259.479L126.805 259.3L127.003 255.045C127.118 253.872 126.894 252.85 126.354 252.162C126.087 251.769 125.745 251.46 125.299 251.255C124.854 251.049 124.333 250.959 123.73 250.959C123.711 250.959 123.691 250.959 123.672 250.959C122.942 250.959 122.192 250.959 121.547 251.217C121.365 251.29 121.242 251.463 121.233 251.66L120.922 259.035L116.821 258.857L117.767 240.999Z" fill="#62CEBB" stroke="#62CEBB" stroke-linejoin="round"/>
<path d="M107.573 250.568C107.631 250.303 107.469 250.041 107.206 249.976L106.762 249.865C106.6 249.824 106.427 249.868 106.304 249.981L99.9461 255.797L95.4002 254.836L103.199 247.952C103.367 247.804 103.416 247.562 103.319 247.36L98.4344 237.189L102.858 238.142L106.635 245.91C106.7 246.043 106.82 246.14 106.964 246.176L107.852 246.398C107.983 246.431 108.123 246.409 108.238 246.337C108.353 246.265 108.434 246.149 108.462 246.016L109.801 239.631L113.929 240.528L110.25 258.073L106.127 257.177L107.573 250.568Z" fill="#62CEBB" stroke="#62CEBB" stroke-linejoin="round"/>
<path d="M89.9032 242.11C89.9857 241.909 89.9294 241.678 89.7639 241.538C89.5983 241.398 89.3612 241.381 89.1769 241.495L77.9633 248.46L75.1075 247.3L81.7332 230.585L85.6823 232.11L81.9851 241.402C81.9055 241.602 81.963 241.831 82.1278 241.97C82.2926 242.108 82.5276 242.126 82.7112 242.013L93.7036 235.268L96.561 236.429L89.9353 253.143L85.9917 251.62L89.9032 242.11Z" fill="#62CEBB" stroke="#62CEBB" stroke-linejoin="round"/>
<path d="M65.5524 230.11C65.6731 229.933 65.6668 229.698 65.5367 229.527C65.4066 229.356 65.1818 229.287 64.9783 229.356L52.4523 233.602L49.9689 231.917L60.1571 217.219L63.5587 219.635L57.8477 227.881C57.7254 228.057 57.7295 228.292 57.8579 228.464C57.9863 228.637 58.2102 228.707 58.4143 228.641L70.7184 224.614L73.3198 226.407L63.1295 241.108L59.7243 238.69L65.5524 230.11Z" fill="#62CEBB" stroke="#62CEBB" stroke-linejoin="round"/>
<path d="M39.492 216.57C39.5036 216.561 39.5148 216.55 39.5254 216.54C39.862 216.203 40.0512 216.016 40.337 215.826C40.6755 215.6 40.9418 215.427 41.2906 215.34C41.6653 215.246 42.0479 215.244 42.501 215.244C42.8702 215.244 43.3618 215.338 43.869 215.541C44.0723 215.622 44.305 215.562 44.4429 215.392C44.5809 215.222 44.5921 214.982 44.4706 214.799C43.8654 213.892 43.6931 212.926 43.8738 212.203C43.8793 212.182 43.8833 212.159 43.8857 212.137C43.983 211.263 44.3694 210.478 45.0739 209.773C45.699 209.149 46.2974 208.758 46.8659 208.567C47.5987 208.358 48.2972 208.265 48.9775 208.362C49.7057 208.466 50.4194 208.671 51.1306 209.078C51.874 209.502 52.6141 210.031 53.3554 210.772C53.3616 210.778 53.368 210.784 53.3745 210.79C54.4333 211.742 55.178 212.804 55.7132 213.767C56.1794 214.606 56.5706 215.712 56.8016 216.933L53.3402 217.885C53.2087 217.176 53.0034 216.525 52.7258 215.878C52.3553 215.014 51.747 214.295 51.0662 213.614C50.5354 213.083 49.8853 212.83 49.3914 212.706C49.3837 212.704 49.3759 212.702 49.3682 212.701C48.9942 212.626 48.6346 212.662 48.2944 212.822C47.9652 212.977 47.6866 213.233 47.4372 213.544C47.4152 213.572 47.3961 213.602 47.3804 213.633C47.3668 213.66 47.3433 213.689 47.2521 213.78C47.2484 213.784 47.2445 213.788 47.2405 213.792C47.1628 213.869 47.029 214.003 46.9365 214.188C46.772 214.517 46.7724 214.842 46.7727 215.052C46.7727 215.061 46.7727 215.069 46.7727 215.077C46.7727 215.412 46.9223 215.827 47.0475 216.077C47.1837 216.349 47.4381 216.726 47.807 217.094L47.8178 217.105L49.3374 218.534L47.7083 220.24L46.5165 219.049C46.1665 218.699 45.8291 218.42 45.5047 218.225C45.2023 218.044 44.884 217.92 44.5604 217.906C43.8964 217.768 43.3047 218.114 42.9243 218.495C42.7166 218.702 42.5627 218.926 42.4644 219.182C42.3669 219.435 42.3339 219.694 42.3339 219.957C42.3339 220.321 42.476 220.617 42.6666 220.877C42.8421 221.116 43.0872 221.361 43.3468 221.621L43.3682 221.642C43.3789 221.653 43.3901 221.663 43.4017 221.673C44.0857 222.242 44.8081 222.732 45.5611 222.983C46.1077 223.165 46.7572 223.358 47.4953 223.426L47.1577 226.547C46.0576 226.503 45.0321 226.295 44.0035 225.921L43.8327 226.391L44.0035 225.921C42.872 225.51 41.8206 224.783 40.6267 223.699C39.984 223.056 39.454 222.419 39.0331 221.787C38.6349 221.19 38.4349 220.594 38.3335 219.986C38.2315 219.374 38.2369 218.796 38.4256 218.23C38.6306 217.615 38.9228 217.044 39.492 216.57Z" fill="#62CEBB" stroke="#62CEBB" stroke-linejoin="round"/>
<path d="M45.6542 203.775L42.6636 205.103C42.6507 204.96 42.6134 204.848 42.5902 204.779L42.5871 204.769C42.5594 204.686 42.5572 204.672 42.5572 204.65C42.5572 204.573 42.5392 204.496 42.5044 204.427C42.4349 204.288 42.365 204.183 42.3101 204.1L42.3068 204.095C42.2512 204.012 42.2116 203.952 42.1715 203.872C42.1622 203.853 42.1518 203.835 42.1403 203.818C41.8733 203.418 41.4354 203.076 40.9179 203.044C40.4515 202.918 40.0085 203.067 39.722 203.163C39.7075 203.168 39.6935 203.173 39.6798 203.178C39.547 203.222 39.4389 203.32 39.3816 203.447L33.5023 216.565L30.6714 213.028L34.9498 205.223C35.0477 205.045 35.0275 204.825 34.8989 204.667C34.7703 204.509 34.5589 204.445 34.3644 204.505L26.0404 207.065L23.3946 203.627L38.0669 200.145L38.0669 200.145L38.0726 200.144C38.9322 199.929 39.6853 199.821 40.4634 199.71L40.4634 199.71L40.4749 199.708C41.0922 199.605 41.696 199.608 42.1812 199.705C42.6617 199.801 43.0499 199.993 43.4983 200.217C43.5194 200.227 43.5413 200.237 43.5637 200.244C43.6227 200.264 43.7513 200.34 43.9231 200.511C44.0824 200.671 44.2484 200.882 44.3938 201.121C44.463 201.257 44.5325 201.359 44.605 201.461C44.6237 201.487 44.6424 201.513 44.6614 201.539C44.7152 201.613 44.772 201.692 44.8433 201.798C44.9063 201.92 44.9897 202.059 45.062 202.179L45.0686 202.19C45.1462 202.319 45.2117 202.429 45.2569 202.515C45.3555 202.811 45.468 203.147 45.5871 203.396C45.6259 203.521 45.6449 203.65 45.6542 203.775Z" fill="#62CEBB" stroke="#62CEBB" stroke-linejoin="round"/>
<path d="M28.3215 188.779C28.5172 189.06 28.7362 189.375 28.9833 189.721C29.5112 190.676 29.8107 191.494 29.9099 192.182C30.009 192.98 29.9126 193.574 29.7028 194.308C29.5175 194.956 29.1506 195.432 28.5319 195.947C28.5203 195.957 28.5091 195.967 28.4984 195.977C27.9685 196.507 27.3455 197.024 26.52 197.437C26.5107 197.441 26.5016 197.446 26.4927 197.451L21.3783 200.417L19.327 196.851L22.9914 194.772C22.992 194.771 22.9927 194.771 22.9933 194.771C24.0495 194.184 24.6915 193.565 25.0823 192.783C25.5223 191.904 25.3287 190.941 24.7445 189.886C24.3852 189.171 23.8869 188.533 23.2277 188.138C23.0724 188.045 22.8789 188.043 22.7218 188.133L16.3859 191.767L14.3334 188.199L29.887 179.375L31.9424 182.948L26.6047 186.026C26.4591 186.11 26.3655 186.261 26.3554 186.429C26.3453 186.597 26.4201 186.758 26.5545 186.859C27.0085 187.199 27.3923 187.491 27.6752 187.868C27.8591 188.113 28.0712 188.419 28.3215 188.779Z" fill="#62CEBB" stroke="#62CEBB" stroke-linejoin="round"/>
<path d="M7.19304 170.991L10.4776 169.695L13.1822 176.766C13.2303 176.891 13.3271 176.992 13.4506 177.046C13.5741 177.099 13.7139 177.101 13.8385 177.05L16.2798 176.052C16.5335 175.948 16.6564 175.659 16.5553 175.404L14.1869 169.434L17.1423 168.253L19.5097 174.22C19.5587 174.344 19.6548 174.443 19.7768 174.495C19.8988 174.548 20.0367 174.549 20.1601 174.5L22.9343 173.391C23.1871 173.29 23.3126 173.005 23.2166 172.75L20.5051 165.557L23.7967 164.259L28.3156 175.859L11.6041 182.373L7.19304 170.991Z" fill="#62CEBB" stroke="#62CEBB" stroke-linejoin="round"/>
<path d="M19.3701 146.234L20.2671 150.359L13.544 151.806C13.2742 151.864 13.1025 152.13 13.1603 152.4L14.4919 158.612C14.5198 158.741 14.598 158.855 14.7094 158.927C14.8209 158.999 14.9564 159.024 15.0861 158.996L21.8113 157.548L22.7086 161.674L5.26506 165.455L4.36827 161.331L10.6463 159.994C10.7761 159.966 10.8895 159.888 10.9617 159.777C11.0339 159.666 11.0588 159.53 11.031 159.4L9.69934 153.189C9.64151 152.919 9.37611 152.747 9.10628 152.804L2.82413 154.143L1.92657 150.016L19.3701 146.234Z" fill="#62CEBB" stroke="#62CEBB" stroke-linejoin="round"/>
<path d="M11.2284 138.597C11.4433 138.588 11.6285 138.443 11.6882 138.236C11.7479 138.029 11.6688 137.808 11.4917 137.686L0.603307 130.176L0.514319 127.152L18.3864 126.416L18.5658 130.631L8.63432 131.053C8.42024 131.062 8.23576 131.207 8.17565 131.413C8.11554 131.618 8.19316 131.839 8.36864 131.962L18.9269 139.361L19.0166 142.499L1.14413 143.234L0.96472 139.02L11.2284 138.597Z" fill="#62CEBB" stroke="#62CEBB" stroke-linejoin="round"/>
<path d="M19.8657 113.019L13.8272 112.201C13.5595 112.164 13.3113 112.347 13.2669 112.614L13.045 113.945C13.0157 114.12 13.0817 114.298 13.2181 114.411L19.0016 119.229L18.4776 123.594L12.6369 118.745C12.5224 118.65 12.3716 118.611 12.2254 118.638C12.0791 118.666 11.9527 118.757 11.8805 118.887C11.393 119.764 10.6045 120.367 9.67318 120.78C8.78283 121.176 7.65971 121.289 6.37697 121.183C5.55011 121.079 4.84662 120.876 4.14652 120.479C3.47167 120.029 2.90069 119.638 2.52433 119.074C2.10353 118.443 1.79556 117.824 1.59039 117.107C1.39447 116.421 1.38801 115.609 1.49471 114.756C1.49474 114.755 1.49477 114.755 1.49481 114.755L2.54057 106.601L20.3121 108.914L19.8657 113.019ZM5.96346 111.316C5.82876 111.293 5.69073 111.327 5.58145 111.409C5.47217 111.491 5.40114 111.614 5.38486 111.749L5.05196 114.522C5.04958 114.542 5.04839 114.562 5.04839 114.582V114.583V114.584V114.586V114.587V114.588V114.59V114.591V114.592V114.594V114.595V114.596V114.597V114.599V114.6V114.601V114.603V114.604V114.605V114.607V114.608V114.609V114.61V114.612V114.613V114.614V114.616V114.617V114.618V114.62V114.621V114.622V114.623V114.625V114.626V114.627V114.629V114.63V114.631V114.633V114.634V114.635V114.636V114.638V114.639V114.64V114.642V114.643V114.644V114.646V114.647V114.648V114.649V114.651V114.652V114.653V114.655V114.656V114.657V114.659V114.66V114.661V114.662V114.664V114.665V114.666V114.668V114.669V114.67V114.672V114.673V114.674V114.675V114.677V114.678V114.679V114.681V114.682V114.683V114.685V114.686V114.687V114.688V114.69V114.691V114.692V114.694V114.695V114.696V114.698V114.699V114.7V114.701V114.703V114.704V114.705V114.707V114.708V114.709V114.711V114.712V114.713V114.714V114.716V114.717V114.718V114.72V114.721V114.722V114.724V114.725V114.726V114.727V114.729V114.73V114.731V114.733V114.734V114.735V114.737V114.738V114.739V114.74V114.742V114.743V114.744V114.746V114.747V114.748V114.75V114.751V114.752V114.753V114.755V114.756V114.757V114.759V114.76V114.761V114.763V114.764V114.765V114.766V114.768V114.769V114.77V114.772V114.773V114.774V114.776V114.777V114.778V114.779V114.781V114.782V114.783V114.785V114.786V114.787V114.789V114.79V114.791V114.792V114.794V114.795V114.796V114.798V114.799V114.8V114.802V114.803V114.804V114.805V114.807V114.808V114.809V114.811V114.812V114.813V114.815V114.816V114.817V114.818V114.82V114.821V114.822V114.824V114.825V114.826V114.828V114.829V114.83V114.831V114.833V114.834V114.835V114.837V114.838V114.839V114.841V114.842V114.843V114.844V114.846V114.847V114.848V114.85V114.851V114.852V114.854V114.855V114.856V114.857V114.859V114.86V114.861V114.863V114.864V114.865V114.867V114.868V114.869V114.87V114.872V114.873V114.874V114.876V114.877V114.878V114.88V114.881V114.882V114.883V114.885V114.886V114.887V114.889V114.89V114.891V114.893V114.894V114.895V114.896V114.898V114.899V114.9V114.902V114.903V114.904V114.906V114.907V114.908V114.909V114.911V114.912V114.913V114.915V114.916V114.917V114.919V114.92V114.921V114.922V114.924V114.925V114.926V114.928V114.929V114.93V114.932V114.933V114.934V114.935V114.937V114.938V114.939V114.941V114.942V114.943V114.945V114.946V114.947V114.948V114.95V114.951V114.952V114.954V114.955V114.956V114.958V114.959V114.96V114.961V114.963V114.964V114.965V114.967V114.968V114.969V114.971V114.972V114.973V114.974V114.976V114.977V114.978V114.98V114.981V114.982V114.984V114.985V114.986V114.987V114.989V114.99V114.991V114.993V114.994V114.995V114.997V114.998V114.999V115V115.002V115.003V115.004V115.006V115.007V115.008V115.01V115.011V115.012V115.013V115.015V115.016V115.017V115.019V115.02V115.021V115.023V115.024V115.025V115.026V115.028V115.029V115.03V115.032V115.033V115.034V115.036V115.037V115.038V115.039V115.041V115.042V115.043V115.045V115.046V115.047V115.049V115.05V115.051V115.052V115.054V115.055V115.056V115.058V115.059V115.06V115.062V115.063V115.064V115.065V115.067V115.068V115.069V115.071V115.072V115.073V115.075V115.076V115.077V115.078V115.08V115.081V115.082V115.084V115.085V115.086V115.088V115.089V115.09V115.091V115.093V115.094V115.095V115.097V115.098V115.099V115.101V115.102V115.103V115.104V115.106V115.107V115.108V115.11V115.111V115.112V115.114V115.115V115.116V115.117V115.119V115.12V115.121V115.123V115.124V115.125V115.127V115.128V115.129V115.13V115.132V115.133V115.134V115.136V115.137V115.138V115.14V115.141V115.142V115.143V115.145V115.146V115.147V115.149V115.15V115.151V115.153V115.154V115.155V115.156V115.158V115.159V115.16V115.162V115.163V115.164V115.166V115.167V115.168V115.169V115.171V115.172V115.173V115.175V115.176V115.177V115.179V115.18V115.181V115.182V115.184V115.185V115.186V115.188V115.189V115.19V115.192V115.193V115.194V115.195V115.197V115.198V115.199V115.201V115.202V115.203V115.205V115.206V115.207V115.208V115.21V115.211V115.212V115.214V115.215V115.216V115.218V115.219V115.22V115.221V115.223V115.224V115.225V115.227V115.228V115.229V115.231V115.232V115.233V115.234V115.236V115.237V115.238V115.24V115.241V115.242V115.244V115.245V115.246V115.247C5.04839 115.591 5.20793 115.908 5.30682 116.104C5.31248 116.115 5.31794 116.126 5.32316 116.137C5.39373 116.278 5.47786 116.411 5.59718 116.53C5.71651 116.649 5.84957 116.733 5.99068 116.804L6.21421 116.357L5.99068 116.804L5.99438 116.806C6.2185 116.918 6.46633 117.042 6.83293 117.164C6.8839 117.181 6.93727 117.189 6.99099 117.189H6.99294H6.99489H6.99684H6.99879H7.00074H7.00269H7.00464H7.00659H7.00854H7.01049H7.01244H7.01439H7.01634H7.01829H7.02024H7.02219H7.02414H7.02609H7.02804H7.02999H7.03194H7.03389H7.03584H7.03779H7.03974H7.04169H7.04364H7.04559H7.04754H7.04948H7.05143H7.05338H7.05533H7.05728H7.05922H7.06117H7.06312H7.06507H7.06701H7.06896H7.07091H7.07285H7.0748H7.07675H7.07869H7.08064H7.08258H7.08453H7.08647H7.08842H7.09036H7.0923H7.09425H7.09619H7.09813H7.10008H7.10202H7.10396H7.10591H7.10785H7.10979H7.11173H7.11367H7.11561H7.11755H7.11949H7.12143H7.12337H7.12531H7.12725H7.12919H7.13112H7.13306H7.135H7.13694H7.13887H7.14081H7.14274H7.14468H7.14661H7.14855H7.15048H7.15242H7.15435H7.15628H7.15822H7.16015H7.16208H7.16401H7.16594H7.16787H7.1698H7.17173H7.17366H7.17559H7.17752H7.17944H7.18137H7.1833H7.18522H7.18715H7.18907H7.191H7.19292H7.19485H7.19677H7.19869H7.20061H7.20254H7.20446H7.20638H7.2083H7.21022H7.21213H7.21405H7.21597H7.21789H7.2198H7.22172H7.22363H7.22555H7.22746H7.22938H7.23129H7.2332H7.23511H7.23702H7.23893H7.24084H7.24275H7.24466H7.24657H7.24848H7.25038H7.25229H7.25419H7.2561H7.258H7.2599H7.26181H7.26371H7.26561H7.26751H7.26941H7.27131H7.27321H7.2751H7.277H7.2789H7.28079H7.28269H7.28458H7.28647H7.28837H7.29026H7.29215H7.29404H7.29593H7.29781H7.2997H7.30159H7.30347H7.30536H7.30724H7.30913H7.31101H7.31289H7.31477H7.31665H7.31853H7.32041H7.32229H7.32417H7.32604H7.32792H7.32979H7.33166H7.33354H7.33541H7.33728H7.33915H7.34102H7.34289H7.34475H7.34662H7.34848H7.35035H7.35221H7.35407H7.35594H7.3578H7.35966H7.36152H7.36337H7.36523H7.36709H7.36894H7.37079H7.37265H7.3745H7.37635H7.3782H7.38005H7.3819H7.38374H7.38559H7.38743H7.38928H7.39112H7.39296H7.3948H7.39664H7.39848H7.40032H7.40216H7.40399H7.40583H7.40766H7.40949H7.41132H7.41315H7.41498H7.41681H7.41864H7.42046H7.42229H7.42411H7.42593H7.42775H7.42957H7.43139H7.43321H7.43503H7.43684H7.43866H7.44047H7.44228H7.44409H7.4459H7.44771H7.44952H7.45132H7.45313H7.45493H7.45673H7.45853H7.46033H7.46213H7.46393H7.46573H7.46752H7.46932H7.47111H7.4729H7.47469H7.47648H7.47827H7.48005H7.48184H7.48362H7.4854H7.48718H7.48896H7.49074H7.49252H7.4943H7.49607H7.49784H7.49961H7.50138H7.50315H7.50492H7.50669H7.50845H7.51022H7.51198H7.51374H7.5155H7.51726H7.51902H7.52077H7.52252H7.52428H7.52603H7.52778H7.52953H7.53127H7.53302H7.53476H7.53651H7.53825H7.53999H7.54173H7.54346H7.5452H7.54693H7.54867H7.5504H7.55213H7.55385H7.55558H7.55731H7.55903H7.56075H7.56247H7.56419H7.56591H7.56763H7.56934H7.57105H7.57276H7.57447H7.57618H7.57789H7.5796H7.5813H7.583H7.5847H7.5864H7.5881H7.58979H7.59149H7.59318H7.59487H7.59656H7.59825H7.59994H7.60162H7.6033H7.60498H7.60666H7.60834H7.61002H7.61169H7.61337H7.61504H7.61671H7.61838H7.62004H7.62171H7.62337H7.62503H7.62669H7.62835H7.63001H7.63166H7.63331H7.63496H7.63661H7.63826H7.63991H7.64155H7.64319H7.64483H7.64647H7.64811H7.64975H7.65138H7.65301H7.65464H7.65627H7.6579H7.65952H7.66114H7.66276H7.66438H7.666H7.66762H7.66923H7.67084H7.67245H7.67406H7.67567H7.67727H7.67887H7.68048H7.68208H7.68367H7.68527H7.68686H7.68845H7.69004H7.69163H7.69322H7.6948H7.69638H7.69796H7.69954H7.70112H7.70269H7.70426H7.70583H7.7074H7.70897H7.71053H7.7121H7.71366H7.71522H7.71677H7.71833H7.71988H7.72143H7.72298H7.72453H7.72607H7.72761H7.72915H7.73069H7.73223H7.73376H7.7353H7.73683H7.73836H7.73988H7.74141H7.74293H7.74445H7.74597H7.74748H7.749H7.75051H7.75202H7.75353H7.75503H7.75654H7.75804H7.75954H7.76104H7.76253H7.76402H7.76552H7.767H7.76849H7.76998H7.77146H7.77294H7.77442H7.77589H7.77737H7.77884H7.78031H7.78177H7.78324H7.7847H7.78616H7.78762H7.78908H7.79053H7.79198H7.79343H7.79488H7.79632H7.79777H7.79921H7.80065H7.80208H7.80352H7.80495H7.80638H7.8078H7.80923H7.81065H7.81207H7.81349H7.8149H7.81632H7.81773H7.81914H7.82054H7.82195H7.82335H7.82475H7.82614H7.82754H7.82893H7.83032H7.83171H7.83309H7.83448H7.83586H7.83723H7.83861H7.83998H7.84135H7.84272H7.84409H7.84545H7.84681H7.84817H7.84953H7.85088H7.85223H7.85358H7.85493H7.85627H7.85761H7.85895H7.86029H7.86162H7.86296H7.86428H7.86561H7.86694H7.86826H7.86958H7.87089H7.87221H7.87352H7.87483H7.87614H7.87744H7.87874C7.95634 117.189 8.03287 117.171 8.10227 117.137L8.10868 117.133C8.21511 117.08 8.33652 117.02 8.44577 116.957C8.55118 116.897 8.68252 116.815 8.78706 116.71L8.43359 116.357L8.78707 116.71C8.89162 116.606 8.97388 116.474 9.03412 116.369C9.09654 116.26 9.15724 116.139 9.21044 116.032L9.21367 116.026C9.3769 115.699 9.37776 115.377 9.37749 115.166L9.7068 112.423C9.73866 112.158 9.55618 111.914 9.29253 111.87L5.96346 111.316Z" fill="#62CEBB" stroke="#62CEBB" stroke-linejoin="round"/>
<path d="M15.5922 84.8276L9.51947 82.667L10.9521 78.729L27.7669 84.8217L26.3337 88.7615L19.8128 86.3818C19.6873 86.336 19.5487 86.3424 19.4279 86.3994C19.3071 86.4565 19.2141 86.5595 19.1698 86.6855L17.0614 92.6753C16.9704 92.9337 17.1043 93.2171 17.3616 93.311L23.8834 95.691L22.4494 99.6328L5.63456 93.5401L7.06918 89.5965L13.1486 91.7595C13.2738 91.804 13.4116 91.7969 13.5315 91.7397C13.6515 91.6824 13.7437 91.5798 13.7878 91.4544L15.8962 85.4647C15.9877 85.2048 15.8518 84.9199 15.5922 84.8276Z" fill="#62CEBB" stroke="#62CEBB" stroke-linejoin="round"/>
<path d="M16.5885 69.0385L16.5888 69.0347C16.6924 67.7923 17.107 66.6399 17.7501 65.4614C18.38 64.3071 19.2163 63.3677 20.2611 62.6367C21.3047 61.9064 22.3512 61.4838 23.5252 61.1622C24.7132 60.9476 25.8588 60.85 26.9871 61.0551C28.171 61.2703 29.2178 61.5874 30.2594 62.2121C31.3185 62.8473 32.159 63.5832 32.8961 64.5306C33.6326 65.4771 34.1587 66.5284 34.4746 67.578C34.789 68.733 34.8941 69.8838 34.7922 71.0332C34.5779 72.1981 34.1523 73.4694 33.5176 74.6325C32.8878 75.7868 32.0514 76.7262 31.0066 77.4572C29.9636 78.1871 28.9165 78.6104 27.8473 78.9328C26.6616 79.1467 25.518 79.2435 24.3917 79.0388C23.2078 78.8236 22.1609 78.5064 21.1194 77.8818C20.0602 77.2466 19.2198 76.5107 18.4826 75.5633C17.7462 74.6168 17.22 73.5655 16.9042 72.5159C16.5878 71.3535 16.4833 70.1952 16.5885 69.0385ZM28.9266 74.4489C28.9514 74.439 28.9753 74.4272 28.9982 74.4134C29.6297 74.0347 30.1419 73.5219 30.5198 72.7664C30.8653 72.0756 31.1275 71.327 31.1275 70.657C31.1275 69.9292 31.0049 69.3115 30.7588 68.6965C30.5043 68.0605 30.1247 67.5618 29.6493 67.0867C29.172 66.6095 28.6943 66.2524 28.1104 65.9023C27.5085 65.5413 26.8949 65.2948 26.1599 65.1723C26.1047 65.1631 26.0491 65.1537 25.9934 65.1442C25.4147 65.0457 24.8113 64.943 24.2042 65.0643C23.5858 65.188 22.9776 65.4333 22.3806 65.7914C21.7491 66.1701 21.2369 66.6829 20.8589 67.4384C20.5184 68.1192 20.2513 68.7609 20.2513 69.5478C20.2513 70.2756 20.3739 70.8933 20.62 71.5083C20.8745 72.1443 21.2541 72.643 21.7294 73.1181C21.7461 73.1349 21.764 73.1504 21.783 73.1646L21.7892 73.1693C22.2302 73.4998 22.6913 73.8456 23.2683 74.1916C23.868 74.5513 24.4794 74.7973 25.2107 74.9202C25.7557 75.029 26.5115 75.1621 27.1745 75.0296C27.7746 74.9096 28.3653 74.6734 28.9054 74.4574L28.9266 74.4489Z" fill="#62CEBB" stroke="#62CEBB" stroke-linejoin="round"/>
<path d="M45.2107 57.7082L39.6573 64.5161L25.7838 53.0648L32.4549 45.0205L32.4549 45.0206L32.4604 45.0138C32.8567 44.5186 33.2327 44.2425 33.6982 44.0564C34.1986 43.8563 34.6906 43.7594 35.1771 43.7594C35.6757 43.7594 36.2776 43.8607 36.767 44.0564C37.2693 44.2572 37.7818 44.5626 38.1959 44.8718C38.792 45.3714 39.2975 46.0779 39.6002 46.784C39.876 47.4272 39.8925 48.3077 39.6827 49.2515C39.6372 49.4558 39.7238 49.6667 39.8996 49.7802C40.0754 49.8936 40.3033 49.8856 40.4707 49.7601C41.249 49.1766 42.1328 48.9727 43.0559 48.9727C44.0168 48.9727 44.9082 49.352 45.8495 50.0824C46.4703 50.6007 46.8389 51.0815 47.0204 51.6257C47.2245 52.238 47.319 52.8235 47.2217 53.5043C47.1191 54.2222 46.9142 54.8434 46.5913 55.5965C46.3538 56.1502 45.9983 56.6332 45.5759 57.2072C45.4589 57.366 45.3369 57.5319 45.2107 57.7082ZM31.4592 51.7079C31.2886 51.919 31.3176 52.2275 31.5243 52.4032L33.7437 54.2889C33.8467 54.3764 33.9807 54.4185 34.1153 54.4055C34.2498 54.3926 34.3734 54.3258 34.4578 54.2203L36.6618 51.4664C36.9543 51.1609 37.0935 50.7414 37.1912 50.4472C37.1959 50.433 37.2005 50.4192 37.205 50.4056C37.222 50.3546 37.2307 50.3012 37.2307 50.2474C37.2307 49.6897 36.8597 49.2257 36.4184 48.7846C36.4016 48.7678 36.3837 48.7523 36.3648 48.7381C35.8617 48.3609 35.426 48.1945 34.9552 48.1945C34.4107 48.1945 34.0543 48.5536 33.8544 48.755C33.8442 48.7653 33.8344 48.7752 33.8249 48.7846C33.8124 48.7971 33.8006 48.8102 33.7895 48.824L31.4592 51.7079ZM39.4844 52.7777C39.4737 52.7884 39.4635 52.7996 39.4538 52.8112L36.6796 56.1388C36.5929 56.2428 36.5521 56.3774 36.5664 56.5119C36.5807 56.6465 36.649 56.7695 36.7555 56.8528L39.3078 58.8494C39.5184 59.0142 39.8214 58.9841 39.9955 58.7811L42.6587 55.6753C42.6718 55.66 42.684 55.644 42.6951 55.6272C42.7029 55.6156 42.7109 55.6037 42.7191 55.5914C42.9265 55.282 43.2625 54.7806 43.0971 54.1193C43.0408 53.8941 42.9733 53.6469 42.8442 53.4073C42.7142 53.1659 42.5334 52.9521 42.2737 52.7522C41.8269 52.3221 41.2558 52.1877 40.8366 52.1877C40.572 52.1877 40.3281 52.2208 40.0888 52.3295C39.8557 52.4354 39.6668 52.5953 39.4844 52.7777Z" fill="#62CEBB" stroke="#62CEBB" stroke-linejoin="round"/>
<mask id="path-27-inside-1" fill="white">
<path d="M57.5928 46.2542C56.4831 47.1416 55.3734 47.8071 54.0418 48.1399C52.8211 48.4727 51.6004 48.5836 50.3798 48.4727C49.1591 48.3617 48.0494 48.029 46.9398 47.4744C45.8301 46.9198 44.8313 46.1433 44.0546 45.2559C43.2778 44.3686 42.612 43.2594 42.2791 42.0392C41.8352 40.8191 41.7242 39.599 41.8352 38.3788C41.9462 37.1587 42.2791 35.9385 42.7229 34.8293C43.2778 33.6092 44.0546 32.6109 45.1643 31.7235C46.2739 30.8362 47.3836 30.1706 48.7153 29.8379C49.9359 29.5051 51.1566 29.3942 52.3772 29.5051C53.5979 29.616 54.7076 29.9488 55.8173 30.6143C56.927 31.1689 57.8147 31.9454 58.7024 32.8327C59.4792 33.7201 60.1451 34.8293 60.478 36.0495C60.8109 37.2696 61.0328 38.3788 60.9218 39.599C60.8109 40.8191 60.5889 42.0392 60.0341 43.1484C59.3683 44.2577 58.5915 45.3669 57.5928 46.2542ZM48.0494 41.8174C48.4933 42.2611 48.9372 42.7048 49.492 43.0375C50.0469 43.3703 50.6017 43.5921 51.1566 43.703C51.7114 43.814 52.2663 43.814 52.9321 43.703C53.4869 43.5921 54.1527 43.2594 54.7076 42.8157C55.2624 42.372 55.7063 41.8174 55.9282 41.2628C56.1502 40.7082 56.2611 40.1536 56.1502 39.488C56.1502 38.9334 55.9282 38.3788 55.7063 37.7133C55.4844 37.1587 55.1514 36.6041 54.7076 36.1604C54.2637 35.7167 53.8198 35.273 53.265 34.9403C52.7101 34.6075 52.1553 34.3856 51.6005 34.2747C51.0456 34.1638 50.4908 34.1638 49.8249 34.3856C49.2701 34.4966 48.7153 34.8293 48.1604 35.273C47.6056 35.7167 47.1617 36.2713 46.9398 36.8259C46.7178 37.3805 46.6069 37.9351 46.7178 38.6007C46.7178 39.1553 46.9398 39.7099 47.1617 40.3754C47.3836 41.0409 47.6056 41.3737 48.0494 41.8174Z"/>
</mask>
<path d="M57.5928 46.2542C56.4831 47.1416 55.3734 47.8071 54.0418 48.1399C52.8211 48.4727 51.6004 48.5836 50.3798 48.4727C49.1591 48.3617 48.0494 48.029 46.9398 47.4744C45.8301 46.9198 44.8313 46.1433 44.0546 45.2559C43.2778 44.3686 42.612 43.2594 42.2791 42.0392C41.8352 40.8191 41.7242 39.599 41.8352 38.3788C41.9462 37.1587 42.2791 35.9385 42.7229 34.8293C43.2778 33.6092 44.0546 32.6109 45.1643 31.7235C46.2739 30.8362 47.3836 30.1706 48.7153 29.8379C49.9359 29.5051 51.1566 29.3942 52.3772 29.5051C53.5979 29.616 54.7076 29.9488 55.8173 30.6143C56.927 31.1689 57.8147 31.9454 58.7024 32.8327C59.4792 33.7201 60.1451 34.8293 60.478 36.0495C60.8109 37.2696 61.0328 38.3788 60.9218 39.599C60.8109 40.8191 60.5889 42.0392 60.0341 43.1484C59.3683 44.2577 58.5915 45.3669 57.5928 46.2542ZM48.0494 41.8174C48.4933 42.2611 48.9372 42.7048 49.492 43.0375C50.0469 43.3703 50.6017 43.5921 51.1566 43.703C51.7114 43.814 52.2663 43.814 52.9321 43.703C53.4869 43.5921 54.1527 43.2594 54.7076 42.8157C55.2624 42.372 55.7063 41.8174 55.9282 41.2628C56.1502 40.7082 56.2611 40.1536 56.1502 39.488C56.1502 38.9334 55.9282 38.3788 55.7063 37.7133C55.4844 37.1587 55.1514 36.6041 54.7076 36.1604C54.2637 35.7167 53.8198 35.273 53.265 34.9403C52.7101 34.6075 52.1553 34.3856 51.6005 34.2747C51.0456 34.1638 50.4908 34.1638 49.8249 34.3856C49.2701 34.4966 48.7153 34.8293 48.1604 35.273C47.6056 35.7167 47.1617 36.2713 46.9398 36.8259C46.7178 37.3805 46.6069 37.9351 46.7178 38.6007C46.7178 39.1553 46.9398 39.7099 47.1617 40.3754C47.3836 41.0409 47.6056 41.3737 48.0494 41.8174Z" fill="#62CEBB"/>
<path d="M57.5928 46.2542L58.2173 47.0352C58.2308 47.0244 58.244 47.0133 58.257 47.0018L57.5928 46.2542ZM54.0418 48.1399L53.7993 47.1697C53.7924 47.1715 53.7856 47.1732 53.7787 47.1751L54.0418 48.1399ZM42.2791 42.0392L43.2438 41.776C43.2366 41.7494 43.2282 41.7232 43.2188 41.6973L42.2791 42.0392ZM42.7229 34.8293L41.8126 34.4154C41.8063 34.4294 41.8002 34.4435 41.7945 34.4578L42.7229 34.8293ZM48.7153 29.8379L48.9577 30.808C48.9646 30.8063 48.9714 30.8045 48.9783 30.8026L48.7153 29.8379ZM55.8173 30.6143L55.3029 31.4719C55.3249 31.4851 55.3473 31.4974 55.3702 31.5088L55.8173 30.6143ZM58.7024 32.8327L59.4549 32.1741C59.4403 32.1574 59.4251 32.1412 59.4094 32.1255L58.7024 32.8327ZM60.0341 43.1484L60.8915 43.6631C60.9047 43.6411 60.917 43.6187 60.9284 43.5958L60.0341 43.1484ZM52.9321 43.703L53.0964 44.6894C53.107 44.6877 53.1176 44.6857 53.1281 44.6836L52.9321 43.703ZM56.1502 39.488H55.1502C55.1502 39.5431 55.1547 39.5981 55.1638 39.6525L56.1502 39.488ZM55.7063 37.7133L56.6549 37.3969C56.6487 37.3784 56.642 37.36 56.6347 37.3418L55.7063 37.7133ZM49.8249 34.3856L50.021 35.3662C50.0616 35.3581 50.1017 35.3475 50.141 35.3344L49.8249 34.3856ZM46.7178 38.6007H47.7178C47.7178 38.5456 47.7133 38.4905 47.7042 38.4362L46.7178 38.6007ZM56.9682 45.4732C55.9229 46.3092 54.9422 46.8841 53.7993 47.1697L54.2842 49.1101C55.8046 48.7301 57.0433 47.9741 58.2173 47.0352L56.9682 45.4732ZM53.7787 47.1751C52.6694 47.4775 51.5684 47.5766 50.4703 47.4768L50.2893 49.4686C51.6325 49.5906 52.9728 49.4678 54.3048 49.1047L53.7787 47.1751ZM50.4703 47.4768C49.3838 47.378 48.3944 47.0834 47.3868 46.5799L46.4927 48.3689C47.7045 48.9745 48.9345 49.3455 50.2893 49.4686L50.4703 47.4768ZM47.3868 46.5799C46.3924 46.0829 45.4976 45.3862 44.807 44.5973L43.3021 45.9146C44.1651 46.9004 45.2678 47.7567 46.4927 48.3689L47.3868 46.5799ZM44.807 44.5973C44.1102 43.8012 43.5296 42.8234 43.2438 41.776L41.3143 42.3024C41.6944 43.6953 42.4454 44.9359 43.3021 45.9146L44.807 44.5973ZM43.2188 41.6973C42.8324 40.6352 42.7314 39.5654 42.8311 38.4694L40.8393 38.2882C40.717 39.6325 40.838 41.003 41.3393 42.3811L43.2188 41.6973ZM42.8311 38.4694C42.9316 37.3646 43.2356 36.2397 43.6514 35.2009L41.7945 34.4578C41.3225 35.6374 40.9608 36.9527 40.8393 38.2882L42.8311 38.4694ZM43.6332 35.2433C44.1211 34.1705 44.7982 33.2967 45.7888 32.5045L44.5397 30.9425C43.311 31.9251 42.4345 33.0478 41.8126 34.4154L43.6332 35.2433ZM45.7888 32.5045C46.8341 31.6686 47.8149 31.0936 48.9577 30.808L48.4728 28.8677C46.9524 29.2476 45.7137 30.0037 44.5397 30.9425L45.7888 32.5045ZM48.9783 30.8026C50.0877 30.5002 51.1887 30.4012 52.2867 30.501L52.4677 28.5092C51.1245 28.3871 49.7842 28.51 48.4522 28.8731L48.9783 30.8026ZM52.2867 30.501C53.3693 30.5994 54.3321 30.8897 55.3029 31.4719L56.3316 29.7567C55.083 29.0079 53.8265 28.6327 52.4677 28.5092L52.2867 30.501ZM55.3702 31.5088C56.3356 31.9913 57.1328 32.6777 57.9955 33.54L59.4094 32.1255C58.4965 31.213 57.5183 30.3466 56.2643 29.7198L55.3702 31.5088ZM57.95 33.4914C58.6469 34.2875 59.2275 35.2653 59.5132 36.3127L61.4427 35.7862C61.0627 34.3934 60.3116 33.1528 59.4549 32.1741L57.95 33.4914ZM59.5132 36.3127C59.8369 37.499 60.0205 38.4691 59.9259 39.5084L61.9177 39.6895C62.0451 38.2885 61.7848 37.0402 61.4427 35.7862L59.5132 36.3127ZM59.9259 39.5084C59.8195 40.6785 59.613 41.7548 59.1397 42.7011L60.9284 43.5958C61.5648 42.3236 61.8022 40.9597 61.9177 39.6895L59.9259 39.5084ZM59.1767 42.6338C58.5313 43.7089 57.8161 44.7181 56.9286 45.5067L58.257 47.0018C59.3669 46.0156 60.2052 44.8064 60.8915 43.6631L59.1767 42.6338ZM47.3425 42.5246C47.7732 42.9552 48.3005 43.4889 48.9777 43.8951L50.0064 42.1799C49.5739 41.9206 49.2134 41.5669 48.7564 41.1101L47.3425 42.5246ZM48.9777 43.8951C49.6169 44.2785 50.2785 44.5473 50.9605 44.6836L51.3526 42.7224C50.925 42.637 50.4768 42.4621 50.0064 42.1799L48.9777 43.8951ZM50.9605 44.6836C51.6546 44.8224 52.3336 44.8165 53.0964 44.6894L52.7677 42.7166C52.1989 42.8114 51.7682 42.8055 51.3526 42.7224L50.9605 44.6836ZM53.1281 44.6836C53.8747 44.5344 54.6836 44.1152 55.3321 43.5967L54.083 42.0347C53.6218 42.4035 53.0992 42.6498 52.736 42.7224L53.1281 44.6836ZM55.3321 43.5967C55.9877 43.0724 56.556 42.3856 56.8567 41.6343L54.9998 40.8912C54.8566 41.2491 54.5371 41.6716 54.083 42.0347L55.3321 43.5967ZM56.8567 41.6343C57.1279 40.9564 57.285 40.2136 57.1366 39.3236L55.1638 39.6525C55.2373 40.0935 55.1724 40.4599 54.9998 40.8912L56.8567 41.6343ZM57.1502 39.488C57.1502 38.7249 56.8427 37.9599 56.6549 37.3969L54.7577 38.0296C55.0138 38.7978 55.1502 39.1419 55.1502 39.488H57.1502ZM56.6347 37.3418C56.3729 36.6874 55.9722 36.0106 55.4145 35.4531L54.0006 36.8676C54.3307 37.1976 54.5959 37.63 54.7779 38.0848L56.6347 37.3418ZM55.4145 35.4531C54.9838 35.0226 54.4566 34.4888 53.7793 34.0827L52.7506 35.7978C53.1831 36.0572 53.5436 36.4108 54.0006 36.8676L55.4145 35.4531ZM53.7793 34.0827C53.1401 33.6993 52.4786 33.4305 51.7965 33.2941L51.4044 35.2553C51.832 35.3408 52.2802 35.5157 52.7506 35.7978L53.7793 34.0827ZM51.7965 33.2941C51.0913 33.1531 50.3583 33.1539 49.5088 33.4369L50.141 35.3344C50.6233 35.1737 50.9999 35.1744 51.4044 35.2553L51.7965 33.2941ZM49.6289 33.405C48.8399 33.5628 48.1343 34.0135 47.5359 34.492L48.7849 36.054C49.2962 35.6452 49.7003 35.4304 50.021 35.3662L49.6289 33.405ZM47.5359 34.492C46.8802 35.0163 46.312 35.7031 46.0113 36.4544L47.8682 37.1974C48.0114 36.8395 48.3309 36.4171 48.7849 36.054L47.5359 34.492ZM46.0113 36.4544C45.7401 37.1323 45.583 37.8751 45.7314 38.7651L47.7042 38.4362C47.6307 37.9952 47.6956 37.6288 47.8682 37.1974L46.0113 36.4544ZM45.7178 38.6007C45.7178 39.3638 46.0253 40.1288 46.2131 40.6917L48.1103 40.059C47.8542 39.2909 47.7178 38.9468 47.7178 38.6007H45.7178ZM46.2131 40.6917C46.4863 41.5111 46.7937 41.9761 47.3425 42.5246L48.7564 41.1101C48.4174 40.7713 48.281 40.5708 48.1103 40.059L46.2131 40.6917Z" fill="#62CEBB" mask="url(#path-27-inside-1)"/>
<path d="M66.4694 29.882C66.6795 29.8346 66.8357 29.6579 66.8569 29.4436L68.1634 16.2754L70.7337 14.7693L79.8786 30.1093L76.2985 32.2564L71.2282 23.7041C71.1186 23.5191 70.9028 23.4249 70.6926 23.4703C70.4824 23.5157 70.3247 23.6905 70.3012 23.9043L68.8857 36.7465L66.1993 38.3577L57.057 23.0221L60.6402 20.8731L65.9311 29.6523C66.0423 29.8368 66.2592 29.9293 66.4694 29.882ZM57.8928 17.2365C57.6111 17.0253 57.3332 16.7676 57.0913 16.4649L58.9116 15.4035C59.2768 15.7323 59.7629 15.8294 60.1465 15.9061L60.1581 15.9084C60.1904 15.9148 60.2232 15.9181 60.2561 15.9181C60.8833 15.9181 61.531 15.7911 62.1778 15.4032C62.8327 15.0104 63.2238 14.4851 63.4775 13.978L63.0303 13.7543L63.4775 13.978C63.7021 13.5289 63.7461 13.0186 63.6948 12.5702L65.8305 11.3386C65.9942 11.6878 66.0813 12.0099 66.0813 12.3123C66.0813 12.8105 65.98 13.4121 65.7842 13.9013L66.2484 14.087L65.7842 13.9013C65.5857 14.3972 65.2891 14.8936 64.7853 15.3972C64.7722 15.4103 64.7599 15.424 64.7484 15.4384C64.3625 15.9206 63.7689 16.3216 63.086 16.7768C62.4648 17.1907 61.7537 17.4902 61.1727 17.587C60.4921 17.7004 59.9094 17.7929 59.3395 17.6979C58.6588 17.5845 58.2251 17.4856 57.8928 17.2365Z" fill="#62CEBB" stroke="#62CEBB" stroke-linejoin="round"/>
<path d="M88.1572 17.8798L88.1573 17.8798L88.1556 17.8712C88.0821 17.504 88.006 17.0705 87.9195 16.5782C87.7558 15.6466 87.5551 14.5043 87.2656 13.2021L87.2654 13.201L86.1451 8.21286L97.7728 4.51004L103.236 21.524L99.1959 22.7805L94.9099 9.60641C94.8253 9.34636 94.5474 9.20253 94.2863 9.28355L91.0682 10.2818C90.8129 10.361 90.665 10.627 90.7325 10.8857L91.397 13.4316C91.9473 15.743 92.2738 17.7094 92.3821 19.2251C92.4901 20.737 92.3796 22.004 92.069 23.0389C91.7738 24.0227 91.1835 24.7232 90.4471 25.3541C89.832 25.8811 88.7812 26.3589 87.5471 26.7687L86.5067 23.4757C87.0158 23.2405 87.3909 22.9437 87.6859 22.6489C88.1239 22.211 88.378 21.5352 88.387 20.7835C88.5032 20.0252 88.3731 19.0665 88.1572 17.8798Z" fill="#62CEBB" stroke="#62CEBB" stroke-linejoin="round"/>
<path d="M109.94 9.58933L116.215 8.56109L116.721 11.6781L110.444 12.7066C110.175 12.7508 109.99 13.0031 110.03 13.2733L110.474 16.2682C110.494 16.4005 110.566 16.5195 110.674 16.5985C110.782 16.6774 110.917 16.7099 111.049 16.6884L118.761 15.4383L119.278 18.8844L106.947 20.8359L104.216 3.19213L116.319 1.34663L116.837 4.79467L109.34 5.93952C109.208 5.95972 109.089 6.03208 109.01 6.14042C108.932 6.24877 108.9 6.38405 108.922 6.51603L109.366 9.17814C109.411 9.44999 109.668 9.63389 109.94 9.58933Z" fill="#62CEBB" stroke="#62CEBB" stroke-linejoin="round"/>
<path d="M126.226 7.43174C126.226 7.70788 126.45 7.93174 126.726 7.93174H127.17C127.334 7.93174 127.487 7.85182 127.58 7.71772L132.539 0.606028L137.164 0.518803L131.093 8.91348C130.962 9.09502 130.967 9.34175 131.106 9.51726L138.135 18.3762L133.62 18.463L128.225 11.7765C128.13 11.6588 127.987 11.5904 127.836 11.5904H126.948C126.814 11.5904 126.686 11.6442 126.592 11.7397C126.498 11.8352 126.446 11.9644 126.448 12.0984L126.552 18.5892L122.335 18.6789L122.02 0.822058L126.226 0.73259V7.43174Z" fill="#62CEBB" stroke="#62CEBB" stroke-linejoin="round"/>
<path d="M150.398 2.15868L150.398 2.15888L150.412 2.16063C152.095 2.37097 153.565 3.00018 154.718 3.83531C155.734 4.66845 156.419 5.57816 156.927 6.64859L153.534 8.38771C153.41 8.09426 153.259 7.82285 153.109 7.59866L152.693 7.87609L153.109 7.59866C152.851 7.21098 152.471 6.83109 152.083 6.57264C152.074 6.56657 152.064 6.56045 152.055 6.5543C151.742 6.3458 151.362 6.0921 150.965 5.95975C150.628 5.84768 150.142 5.72017 149.735 5.71262C148.944 5.6023 148.183 5.59133 147.514 5.85893C146.92 6.09648 146.299 6.46114 145.903 6.85693C145.428 7.33205 145.049 7.83079 144.794 8.46678L144.786 8.48806C144.569 9.02791 144.333 9.61841 144.213 10.2183L144.21 10.2341C144.092 10.9451 144.088 11.6696 144.212 12.2921C144.333 13.017 144.575 13.6174 144.811 14.0895C144.817 14.101 144.823 14.1122 144.83 14.1232C145.174 14.6974 145.554 15.2187 146.2 15.6126C146.734 16.0043 147.478 16.2401 148.172 16.3556C148.199 16.3602 148.227 16.3624 148.254 16.3624C148.339 16.3624 148.403 16.3696 148.49 16.3793C148.552 16.3863 148.627 16.3947 148.729 16.4026C148.925 16.4176 149.158 16.4203 149.426 16.3615C149.829 16.3495 150.302 16.2248 150.632 16.115C151.029 15.9826 151.41 15.7289 151.722 15.5204C151.731 15.5142 151.741 15.5081 151.75 15.5021C152.015 15.3253 152.218 15.1009 152.388 14.8497L155.376 17.3091C155.087 17.7357 154.681 18.115 154.191 18.4412C153.568 18.8569 152.94 19.1732 152.192 19.4945C151.421 19.7148 150.716 19.9102 149.919 19.9102C149.898 19.9102 149.877 19.9115 149.857 19.9141C149.045 20.0155 148.332 19.9162 147.551 19.8047C146.166 19.5914 145.034 19.1713 144.123 18.4626C144.116 18.4574 144.109 18.4525 144.102 18.4476C143.018 17.6891 142.195 16.9607 141.581 15.9379C140.925 14.8447 140.407 13.7975 140.202 12.6672C140.199 12.651 140.195 12.635 140.191 12.6192C139.997 11.9437 139.987 10.8156 140.094 9.61184C140.309 8.54705 140.628 7.49416 141.151 6.44573C141.669 5.51613 142.398 4.68198 143.346 3.94489C144.292 3.20896 145.342 2.68414 146.499 2.36873C147.655 2.05382 149.026 1.9478 150.398 2.15868Z" fill="#62CEBB" stroke="#62CEBB" stroke-linejoin="round"/>
<path d="M163.758 15.8191C163.692 16.0239 163.764 16.2481 163.938 16.3756C164.111 16.503 164.347 16.5052 164.522 16.381L175.299 8.76421L178.142 9.74107L172.572 26.7611L168.638 25.4207L171.81 15.909C171.878 15.7054 171.808 15.4811 171.637 15.3518C171.466 15.2224 171.231 15.2169 171.054 15.338L160.384 22.6298L157.429 21.6453L162.998 4.62968L166.936 5.97159L163.758 15.8191Z" fill="#62CEBB" stroke="#62CEBB" stroke-linejoin="round"/>
<path d="M184.99 20.2815C184.866 20.5089 184.936 20.793 185.152 20.9366L185.485 21.1584C185.632 21.2568 185.821 21.2696 185.981 21.1921L193.742 17.4209L197.853 19.607L188.433 24.0617C188.232 24.1571 188.117 24.3749 188.154 24.5952L189.988 35.6978L185.989 33.6124L184.479 25.0919C184.453 24.9457 184.363 24.8186 184.234 24.745L183.458 24.3013C183.339 24.2338 183.199 24.2174 183.068 24.2559C182.938 24.2945 182.828 24.3846 182.766 24.5055L179.781 30.2667L176.117 28.3014L184.526 12.4358L188.19 14.4008L184.99 20.2815Z" fill="#62CEBB" stroke="#62CEBB" stroke-linejoin="round"/>
<path d="M199.569 33.305C199.438 33.4759 199.431 33.7115 199.552 33.8898C199.673 34.068 199.894 34.1489 200.102 34.0904L212.842 30.4986L215.245 32.3673L204.316 46.5481L200.998 43.9487L207.13 36.0227C207.262 35.8529 207.27 35.6181 207.151 35.4395C207.032 35.2608 206.812 35.1781 206.605 35.2339L194.079 38.6091L191.572 36.7298L202.496 22.5559L205.815 25.1567L199.569 33.305Z" fill="#62CEBB" stroke="#62CEBB" stroke-linejoin="round"/>
<path d="M206 71H46V183.5H206V71Z" fill="#D9D4D4"/>
<path d="M206 71H96.3125V183.5H206V71Z" fill="#828181"/>
<path d="M130.688 92.875H61.9375V161.625H130.688V92.875Z" fill="#0A477D"/>
<path d="M130.688 92.875H96.3125V161.625H130.688V92.875Z" fill="#08345B"/>
<path d="M108.979 134.166C111.227 131.377 112.576 127.835 112.576 123.982C112.576 115.015 105.28 107.719 96.3128 107.719C87.3453 107.719 80.0497 115.015 80.0497 123.982C80.0497 127.835 81.3991 131.377 83.6462 134.166C75.66 138.626 70.2453 147.159 70.2453 156.937V161.625H122.379V156.937C122.38 147.159 116.965 138.626 108.979 134.166Z" fill="#62CEBB"/>
<path d="M122.38 156.937C122.38 147.159 116.965 138.626 108.979 134.166C111.227 131.377 112.576 127.835 112.576 123.982C112.576 115.015 105.28 107.719 96.3128 107.719V161.625H122.38V156.937H122.38Z" fill="#449486"/>
<path d="M185.375 103.241H146.281V112.616H185.375V103.241Z" fill="#62CEBB"/>
<path d="M185.375 122.562H146.281V131.938H185.375V122.562Z" fill="#62CEBB"/>
<path d="M169.033 141.884H146.281V151.259H169.033V141.884Z" fill="#62CEBB"/>
</svg>
