<svg width="73" height="50" viewBox="0 0 73 50" fill="none" xmlns="http://www.w3.org/2000/svg">
    <path d="M66.2501 43.75V23.125C66.2501 10.3735 55.8729 0 43.1177 0H29.3824C16.6272 0 6.25002 10.3736 6.25002 23.125V43.75H0V46.25H7.50008H8.75014H12.5002V48.7499C12.5002 49.4402 13.0592 50 13.7502 50H17.5003H20.0003H21.2503H23.7503H27.5003C28.1912 50 28.7504 49.4402 28.7504 48.7499V46.25H43.7504V48.7499C43.7504 49.4402 44.3094 50 45.0005 50H48.7505H51.2505H52.5005H55.0005H58.7506C59.4414 50 60.0006 49.4402 60.0006 48.7499V46.25H63.7507H65.0007H72.5001V43.75H66.2501Z" fill="#334F55"/>
    <path d="M26.25 47.5H23.75V43.75H21.25V47.5H20V43.75H17.5V47.5H15V46.25V44.9999C15 43.6211 16.1243 42.4999 17.5073 42.4999H23.7426C25.1257 42.4999 26.25 43.6211 26.25 44.9999V46.25V47.5Z" fill="#62CEBB"/>
    <path d="M57.5001 47.5H55.0001V43.75H52.5002V47.5H51.2501V43.75H48.7501V47.5H46.2502V46.25V44.9999C46.2502 43.6211 47.3745 42.4999 48.7575 42.4999H54.9928C56.3758 42.4999 57.5001 43.6211 57.5001 44.9999V46.25V47.5Z" fill="#62CEBB"/>
    <path d="M59.8223 43.75C59.2625 41.5998 57.3193 40 54.9927 40H48.7575C46.4311 40 44.4879 41.5996 43.928 43.75H28.5723C28.0124 41.5998 26.0692 40 23.7427 40H17.5072C15.1808 40 13.2376 41.5996 12.6777 43.75H8.75V23.125C8.75 11.7523 18.0054 2.5 29.3824 2.5H43.1177C54.4947 2.5 63.7501 11.7523 63.7501 23.125V43.75H59.8223Z" fill="#D9D4D4"/>
    <path d="M26.2499 21.2499C22.1142 21.2499 18.7498 24.6143 18.7498 28.75V30.0001H21.2498V28.75C21.2498 25.993 23.4922 23.7501 26.2498 23.7501C27.5309 23.7501 28.6887 24.2481 29.5742 25.043C28.3989 25.2466 27.4997 26.267 27.4997 27.5C27.4997 28.8787 28.6215 29.9999 29.9997 29.9999C30.4571 29.9999 30.8804 29.8675 31.2497 29.652V29.9999H33.7497V28.7499C33.75 24.6143 30.3857 21.2499 26.2499 21.2499Z" fill="#334F55"/>
    <path d="M48.75 21.2499C44.6143 21.2499 41.25 24.6143 41.25 28.75V30.0001H43.7499V28.75C43.7499 25.993 45.9924 23.7501 48.7499 23.7501C50.031 23.7501 51.1889 24.2481 52.0743 25.043C50.899 25.2466 49.9998 26.267 49.9998 27.5C49.9998 28.8787 51.1216 29.9999 52.4998 29.9999C52.9572 29.9999 53.3806 29.8675 53.7499 29.652V29.9999H56.2498V28.7499C56.25 24.6143 52.8858 21.2499 48.75 21.2499Z" fill="#334F55"/>
</svg>
