<svg width="260" height="260" viewBox="0 0 260 260" fill="none" xmlns="http://www.w3.org/2000/svg">
<path d="M236.528 86.7453C236.689 86.6024 236.741 86.3719 236.656 86.1736L234.656 81.5109C234.569 81.3079 234.359 81.1861 234.14 81.2112L230.62 81.6132L228.936 77.7153L247.878 76.3483L249.484 80.0291L235.597 92.9599L233.911 89.0585L236.528 86.7453ZM238.632 84.472C238.697 84.6128 238.824 84.7152 238.975 84.7492C239.127 84.7832 239.286 84.7449 239.405 84.6456L244.071 80.76C244.242 80.6178 244.298 80.38 244.21 80.1763C244.121 79.9725 243.908 79.8517 243.688 79.8798L237.578 80.6569C237.419 80.677 237.28 80.7715 237.203 80.9111C237.126 81.0508 237.12 81.2189 237.187 81.3636L238.632 84.472Z" fill="#62CEBB" stroke="#62CEBB" stroke-linejoin="round"/>
<path d="M251.271 92.4613C251.282 92.4679 251.293 92.474 251.305 92.4797C252.336 92.9949 253.171 93.7188 254.026 94.7873C254.032 94.7941 254.037 94.8007 254.043 94.8071C254.861 95.7267 255.389 96.8661 255.822 98.3788C256.254 100.109 256.344 101.669 255.939 102.987C255.562 104.21 255.025 105.247 254.262 106.114L251.295 103.673C251.525 103.429 251.684 103.191 251.827 102.976L251.833 102.968C252.057 102.631 252.192 102.198 252.283 101.903C252.303 101.841 252.32 101.785 252.336 101.738C252.34 101.726 252.343 101.714 252.346 101.701C252.472 101.197 252.472 100.813 252.472 100.478V100.47C252.472 100.054 252.34 99.5482 252.225 99.2013C252.219 99.1835 252.213 99.1656 252.207 99.1475C251.998 98.5218 251.744 97.7581 251.215 97.2296C250.739 96.7541 250.24 96.3744 249.603 96.1198C248.987 95.8737 248.368 95.7511 247.64 95.7511C246.923 95.7511 246.327 95.8703 245.778 95.9801L245.764 95.9828C245.744 95.9869 245.724 95.9922 245.704 95.9987C245.021 96.2261 244.427 96.4616 243.827 96.8214C243.206 97.1941 242.715 97.6864 242.351 98.1713C241.965 98.6865 241.717 99.3146 241.594 99.9275C241.469 100.555 241.468 101.311 241.721 102.071L241.727 102.089C241.836 102.413 241.965 102.801 242.224 103.19L242.242 103.216C242.441 103.515 242.674 103.864 242.919 104.119C243.196 104.513 243.586 104.776 243.975 104.919C244.218 105.07 244.493 105.173 244.777 105.233L243.725 109.001C243.192 108.885 242.722 108.694 242.251 108.38C241.577 107.931 240.971 107.524 240.469 106.921C239.936 106.283 239.508 105.642 239.075 104.884C238.666 104.169 238.458 103.451 238.235 102.672C237.914 101.386 237.822 100.152 238.123 99.0471C238.461 97.8089 238.776 96.6709 239.39 95.7514C240.032 94.7882 240.878 93.8443 241.806 93.2257C241.825 93.2136 241.842 93.2003 241.858 93.186C242.683 92.4648 243.727 91.94 244.784 91.6233C245.804 91.3173 246.841 91.3114 248.039 91.4202C249.192 91.525 250.229 91.8368 251.271 92.4613Z" fill="#62CEBB" stroke="#62CEBB" stroke-linejoin="round"/>
<path d="M249.462 110.293L249.462 110.293L249.467 110.293C250.514 110.188 251.67 110.293 252.718 110.607C253.767 110.922 254.828 111.449 255.791 112.088C256.733 112.823 257.466 113.661 258.099 114.715C258.724 115.756 259.145 117.012 259.251 118.49C259.251 118.499 259.252 118.508 259.253 118.516C259.466 120.214 259.251 121.783 258.629 123.129C258.066 124.349 257.352 125.286 256.504 125.901L253.976 123.026C254.217 122.87 254.438 122.692 254.659 122.472C254.682 122.448 254.703 122.423 254.722 122.395L255.055 121.896L255.388 121.396C255.413 121.359 255.432 121.319 255.447 121.277C255.562 120.93 255.694 120.424 255.694 120.009V120.007V120.005V120.003V120.001V119.999V119.997V119.995V119.993V119.991V119.989V119.987V119.985V119.983V119.981V119.979V119.977V119.975V119.973V119.971V119.969V119.967V119.965V119.963V119.961V119.959V119.957V119.955V119.953V119.951V119.949V119.947V119.945V119.943V119.941V119.939V119.937V119.935V119.933V119.931V119.929V119.927V119.924V119.922V119.92V119.918V119.916V119.914V119.912V119.91V119.908V119.906V119.904V119.902V119.9V119.898V119.896V119.894V119.891V119.889V119.887V119.885V119.883V119.881V119.879V119.877V119.875V119.873V119.871V119.868V119.866V119.864V119.862V119.86V119.858V119.856V119.854V119.852V119.849V119.847V119.845V119.843V119.841V119.839V119.837V119.835V119.832V119.83V119.828V119.826V119.824V119.822V119.82V119.817V119.815V119.813V119.811V119.809V119.807V119.805V119.802V119.8V119.798V119.796V119.794V119.792V119.789V119.787V119.785V119.783V119.781V119.779V119.776V119.774V119.772V119.77V119.768V119.766V119.763V119.761V119.759V119.757V119.755V119.752V119.75V119.748V119.746V119.744V119.741V119.739V119.737V119.735V119.733V119.73V119.728V119.726V119.724V119.722V119.719V119.717V119.715V119.713V119.711V119.708V119.706V119.704V119.702V119.7V119.697V119.695V119.693V119.691V119.688V119.686V119.684V119.682V119.68V119.677V119.675V119.673V119.671V119.668V119.666V119.664V119.662V119.659V119.657V119.655V119.653V119.65V119.648V119.646V119.644V119.642V119.639V119.637V119.635V119.633V119.63V119.628V119.626V119.624V119.621V119.619V119.617V119.615V119.612V119.61V119.608V119.606V119.603V119.601V119.599V119.597V119.594V119.592V119.59V119.587V119.585V119.583V119.581V119.578V119.576V119.574V119.572V119.569V119.567V119.565V119.563V119.56V119.558V119.556V119.554V119.551V119.549V119.547V119.544V119.542V119.54V119.538V119.535V119.533V119.531V119.529V119.526V119.524V119.522V119.519V119.517V119.515V119.513V119.51V119.508V119.506V119.504V119.501V119.499V119.497V119.494V119.492V119.49V119.488V119.485V119.483V119.481V119.479V119.476V119.474V119.472V119.469V119.467V119.465V119.463V119.46V119.458V119.456V119.453V119.451V119.449V119.447V119.444V119.442V119.44V119.438V119.435V119.433V119.431V119.428V119.426V119.424V119.422V119.419V119.417V119.415V119.413V119.41V119.408V119.406V119.403V119.401V119.399V119.397V119.394V119.392V119.39V119.388V119.385V119.383V119.381V119.378V119.376V119.374V119.372V119.369V119.367V119.365V119.363V119.36V119.358V119.356V119.353V119.351V119.349V119.347V119.344V119.342V119.34V119.338V119.335V119.333V119.331V119.329V119.326V119.324V119.322V119.32V119.317V119.315V119.313V119.31V119.308V119.306V119.304V119.301V119.299V119.297V119.295V119.292V119.29V119.288V119.286V119.283V119.281V119.279V119.277V119.274V119.272V119.27V119.268V119.265V119.263V119.261V119.259V119.257V119.254V119.252V119.25V119.248V119.245V119.243V119.241V119.239V119.236V119.234V119.232V119.23V119.227V119.225V119.223V119.221V119.219V119.216V119.214V119.212V119.21V119.207V119.205V119.203V119.201V119.199V119.196V119.194V119.192V119.19V119.188V119.185V119.183V119.181V119.179V119.177V119.174V119.172V119.17V119.168V119.166V119.163V119.161V119.159V119.157V119.155V119.152V119.15V119.148V119.146V119.144V119.141V119.139V119.137V119.135V119.133V119.131V119.128V119.126V119.124V119.122V119.12V119.118V119.115V119.113V119.111V119.109V119.107V119.105V119.102V119.1V119.098V119.096V119.094V119.092V119.09V119.087V119.085V119.083V119.081V119.079V119.077V119.075V119.072V119.07V119.068V119.066V119.064V119.062V119.06V119.058V119.055V119.053V119.051V119.049V119.047V119.045V119.043V119.041V119.039V119.036V119.034V119.032V119.03V119.028V119.026V119.024V119.022V119.02V119.018V119.016V119.013V119.011V119.009V119.007V119.005V119.003V119.001V118.999V118.997V118.995V118.993V118.991V118.989V118.987V118.985V118.982V118.98V118.978V118.976V118.974V118.972V118.97V118.968V118.966V118.964V118.962V118.96V118.958V118.956V118.954V118.952V118.95V118.948V118.946V118.944V118.942V118.94V118.938V118.936V118.934V118.932V118.93V118.928V118.926V118.924V118.922V118.92V118.918V118.916V118.914V118.912V118.91V118.908V118.906V118.904V118.902V118.9V118.898C255.694 118.875 255.693 118.851 255.689 118.828C255.568 117.979 255.321 117.361 254.956 116.754C254.573 116.114 254.061 115.731 253.626 115.405L253.606 115.39C253.592 115.38 253.578 115.37 253.563 115.361C252.965 115.003 252.356 114.757 251.737 114.634C251.133 114.513 250.426 114.513 249.886 114.513L249.862 114.513C249.834 114.513 249.807 114.515 249.78 114.52C249.102 114.632 248.517 114.749 247.815 114.983C247.806 114.986 247.796 114.989 247.787 114.993C247.182 115.235 246.565 115.601 246.064 116.102C245.588 116.578 245.208 117.077 244.953 117.713C244.707 118.328 244.578 119.072 244.696 119.83C244.703 120.151 244.791 120.482 244.874 120.793C244.894 120.869 244.914 120.944 244.933 121.018C244.936 121.03 244.939 121.043 244.943 121.055C245.076 121.452 245.33 121.833 245.539 122.146C245.545 122.155 245.551 122.164 245.557 122.173C245.564 122.183 245.57 122.193 245.577 122.202C245.786 122.516 246.056 122.922 246.474 123.2L246.493 123.213C246.69 123.344 246.912 123.493 247.175 123.619L245.496 127.151C245.026 126.956 244.558 126.688 244.088 126.3C243.534 125.745 243.02 125.228 242.612 124.616C242.204 124.004 241.888 123.277 241.56 122.405C241.344 121.646 241.133 120.799 241.027 120.065C240.922 118.68 241.031 117.538 241.444 116.405C241.865 115.247 242.496 114.195 243.228 113.356C244.095 112.49 244.932 111.765 245.959 111.249C247.258 110.709 248.314 110.397 249.462 110.293Z" fill="#62CEBB" stroke="#62CEBB" stroke-linejoin="round"/>
<path d="M259.473 139.173L259.473 139.176C259.367 140.557 259.05 141.709 258.422 142.86C257.79 144.017 257.056 144.858 256.209 145.6C255.254 146.341 254.315 146.858 253.174 147.169C251.969 147.498 250.927 147.701 249.796 147.598C248.632 147.492 247.471 147.175 246.419 146.649C245.365 146.123 244.417 145.386 243.683 144.547C242.946 143.706 242.311 142.649 241.888 141.486C241.881 141.468 241.874 141.45 241.865 141.433C241.355 140.414 241.145 139.286 241.25 137.921C241.356 136.543 241.671 135.394 242.296 134.245C242.94 133.175 243.681 132.227 244.514 131.496C245.463 130.76 246.409 130.234 247.569 129.811C248.76 129.487 249.8 129.285 251.04 129.388C252.203 129.494 253.364 129.811 254.415 130.336C255.469 130.863 256.417 131.6 257.151 132.439C257.888 133.28 258.523 134.336 258.946 135.5C259.369 136.663 259.578 137.923 259.473 139.173ZM250.721 133.725C250.694 133.721 250.667 133.719 250.639 133.719H250.624C249.967 133.719 249.376 133.719 248.668 133.836L248.653 133.839C248.033 133.963 247.425 134.209 246.827 134.567C246.812 134.576 246.798 134.585 246.784 134.596C246.302 134.957 245.824 135.435 245.462 135.917C245.452 135.931 245.442 135.945 245.433 135.96C245.068 136.568 244.806 137.212 244.806 138.104C244.806 138.127 244.806 138.149 244.806 138.172C244.806 138.882 244.806 139.657 245.19 140.324C245.445 140.944 245.819 141.433 246.286 141.899C246.303 141.916 246.321 141.932 246.34 141.946C246.812 142.3 247.406 142.657 248.009 142.898C248.63 143.146 249.361 143.267 249.973 143.267H249.987C250.645 143.267 251.236 143.267 251.943 143.149L251.959 143.146C252.578 143.022 253.187 142.777 253.785 142.419C253.8 142.41 253.814 142.4 253.828 142.39C254.313 142.026 254.806 141.536 255.179 140.915C255.568 140.267 255.688 139.624 255.8 138.841C255.804 138.818 255.805 138.794 255.805 138.77C255.805 138.748 255.805 138.726 255.805 138.703C255.806 137.993 255.806 137.218 255.422 136.55C255.167 135.931 254.792 135.442 254.326 134.975C254.309 134.958 254.291 134.943 254.272 134.929C253.8 134.575 253.206 134.218 252.602 133.976C252.543 133.953 252.48 133.941 252.417 133.941C251.988 133.941 251.561 133.868 251.015 133.775C250.921 133.759 250.823 133.742 250.721 133.725Z" fill="#62CEBB" stroke="#62CEBB" stroke-linejoin="round"/>
<path d="M236.605 162.34C236.736 162.38 236.878 162.365 236.998 162.297C237.117 162.23 237.204 162.116 237.237 161.983L240.338 149.589L257.701 153.901L256.717 157.923L243.208 154.494C242.941 154.426 242.671 154.587 242.601 154.852L241.268 159.959C241.234 160.088 241.253 160.225 241.321 160.34C241.389 160.454 241.5 160.537 241.629 160.57L255.147 164.001L254.162 168.025L240.653 164.597C240.386 164.529 240.115 164.689 240.046 164.955L239.505 167.027L231.803 165.053L232.776 161.162L236.605 162.34Z" fill="#62CEBB" stroke="#62CEBB" stroke-linejoin="round"/>
<path d="M240.292 175.838C240.095 175.749 239.864 175.796 239.717 175.955C239.571 176.114 239.543 176.348 239.648 176.537L246.081 188.085L244.835 190.842L228.522 183.48L230.228 179.622L239.323 183.743C239.519 183.832 239.75 183.785 239.896 183.628C240.043 183.47 240.072 183.236 239.968 183.047L233.754 171.717L235.008 168.853L251.315 176.212L249.609 180.07L240.292 175.838Z" fill="#62CEBB" stroke="#62CEBB" stroke-linejoin="round"/>
<path d="M223.942 196.533C224.154 196.597 224.382 196.514 224.504 196.33L227.282 192.111C227.402 191.929 227.39 191.689 227.252 191.52L225.042 188.811L227.441 185.259L238.914 200.509L236.65 203.807L218.336 198.969L220.63 195.53L223.942 196.533ZM227.001 197.113C226.916 197.243 226.896 197.406 226.948 197.553C226.999 197.699 227.116 197.814 227.264 197.862L233.041 199.749C233.252 199.818 233.483 199.74 233.609 199.557C233.734 199.374 233.724 199.13 233.584 198.958L229.696 194.185C229.595 194.061 229.441 193.993 229.282 194.001C229.123 194.009 228.977 194.093 228.89 194.227L227.001 197.113Z" fill="#62CEBB" stroke="#62CEBB" stroke-linejoin="round"/>
<path d="M207.415 210.187C207.616 210.374 207.93 210.364 208.119 210.164L216.886 200.869L229.935 213.172L227.066 216.218L216.987 206.682C216.89 206.591 216.762 206.542 216.629 206.545C216.496 206.549 216.371 206.606 216.28 206.702L212.613 210.588C212.424 210.788 212.433 211.104 212.633 211.294L222.714 220.832L219.845 223.878L209.765 214.342C209.669 214.251 209.54 214.202 209.407 214.206C209.275 214.209 209.149 214.266 209.058 214.363L207.621 215.888L201.798 210.463L204.557 207.528L207.415 210.187Z" fill="#62CEBB" stroke="#62CEBB" stroke-linejoin="round"/>
<path d="M204.155 223.619C204.025 223.447 203.801 223.377 203.597 223.446C203.393 223.514 203.256 223.705 203.256 223.92V237.101L200.859 238.875L190.125 224.468L193.54 221.954L199.465 229.989C199.592 230.163 199.817 230.235 200.021 230.168C200.226 230.102 200.365 229.912 200.367 229.697L200.476 216.733L202.988 214.851L213.72 229.255L210.301 231.772L204.155 223.619Z" fill="#62CEBB" stroke="#62CEBB" stroke-linejoin="round"/>
<path d="M186.542 235.25C186.449 235.054 186.24 234.941 186.025 234.97C185.81 234.998 185.638 235.162 185.599 235.375L183.201 248.448L180.43 249.787L172.429 233.691L176.2 231.807L180.643 240.794C180.739 240.987 180.947 241.097 181.16 241.067C181.373 241.038 181.543 240.876 181.583 240.665L183.981 227.924L186.752 226.583L194.754 242.679L190.989 244.56L186.542 235.25Z" fill="#62CEBB" stroke="#62CEBB" stroke-linejoin="round"/>
<path d="M152.355 257.954L148.251 240.499L152.387 239.51L153.94 246.236C153.97 246.365 154.05 246.477 154.163 246.547C154.275 246.617 154.411 246.64 154.54 246.61L160.762 245.167C161.031 245.105 161.198 244.836 161.136 244.567L159.581 237.835L163.721 236.845L167.825 254.301L163.69 255.289L162.247 249.009C162.218 248.879 162.138 248.767 162.025 248.696C161.912 248.626 161.776 248.603 161.647 248.633L155.425 250.077C155.157 250.139 154.989 250.407 155.051 250.676L156.496 256.965L152.355 257.954Z" fill="#62CEBB" stroke="#62CEBB" stroke-linejoin="round"/>
<path d="M134.964 245.085C135.044 245.288 135.246 245.415 135.463 245.401L140.462 245.068C140.681 245.053 140.865 244.897 140.916 244.683L141.719 241.27L145.981 241.004L140.931 259.193L136.862 259.476L129.498 242.025L133.654 241.76L134.964 245.085ZM136.508 247.733C136.351 247.743 136.208 247.827 136.122 247.959C136.036 248.091 136.017 248.256 136.071 248.404L138.182 254.177C138.258 254.385 138.463 254.519 138.684 254.504C138.906 254.489 139.091 254.33 139.14 254.114L140.473 248.119C140.507 247.965 140.467 247.805 140.364 247.685C140.262 247.566 140.109 247.501 139.952 247.511L136.508 247.733Z" fill="#62CEBB" stroke="#62CEBB" stroke-linejoin="round"/>
<path d="M121.426 241.557L119.112 259.325L111.5 258.283L111.5 258.283L111.494 258.283C110.679 258.181 109.864 257.874 109.265 257.475C109.256 257.468 109.246 257.462 109.236 257.456C108.556 257.068 108.052 256.475 107.626 255.837C107.216 255.222 106.902 254.494 106.691 253.757C106.494 253.068 106.49 252.255 106.594 251.522C106.702 250.77 106.911 249.971 107.293 249.398C107.299 249.388 107.305 249.379 107.311 249.369C107.73 248.636 108.138 248.129 108.752 247.617C109.356 247.114 109.963 246.805 110.711 246.484C111.428 246.283 112.235 246.187 113.032 246.286L116.139 246.729C116.271 246.748 116.405 246.713 116.511 246.633C116.617 246.552 116.687 246.433 116.705 246.301L117.416 241.023L121.426 241.557ZM116.036 250.755C116.058 250.62 116.024 250.483 115.942 250.374C115.86 250.265 115.738 250.194 115.602 250.178L112.825 249.845C112.805 249.843 112.785 249.842 112.765 249.842C112.347 249.842 111.892 249.975 111.558 250.287C111.3 250.475 111.123 250.755 110.999 251.049C110.866 251.365 110.774 251.744 110.715 252.158C110.595 253 110.699 253.696 111.016 254.172C111.034 254.199 111.055 254.224 111.079 254.248C111.096 254.265 111.113 254.283 111.131 254.301C111.405 254.577 111.759 254.933 112.284 254.949L114.812 255.278C115.079 255.313 115.326 255.129 115.37 254.862L116.036 250.755Z" fill="#62CEBB" stroke="#62CEBB" stroke-linejoin="round"/>
<path d="M103.413 238.595C103.436 238.618 103.462 238.639 103.489 238.657C103.609 238.737 103.705 238.797 103.785 238.848C103.966 238.963 104.069 239.028 104.191 239.15L104.583 239.542L102.927 242.357L102.898 242.328C102.806 242.236 102.685 242.156 102.613 242.108C102.608 242.105 102.604 242.102 102.599 242.099C102.556 242.07 102.523 242.048 102.495 242.027C102.481 242.017 102.471 242.01 102.463 242.003C102.456 241.998 102.453 241.995 102.453 241.995L102.453 241.995C102.415 241.957 102.371 241.925 102.323 241.901C102.243 241.861 102.183 241.821 102.099 241.766L102.094 241.763C102.012 241.708 101.907 241.638 101.768 241.568C101.747 241.558 101.725 241.548 101.702 241.541C101.267 241.396 100.822 241.396 100.387 241.541C99.904 241.702 99.5646 242.041 99.4036 242.523C99.376 242.606 99.3705 242.695 99.3878 242.78L102.226 256.856L97.7786 255.612L96.708 246.84C96.6834 246.638 96.5395 246.471 96.3437 246.418C96.148 246.364 95.9393 246.434 95.8155 246.595L90.4701 253.539L86.3181 252.303L96.146 240.899L96.1461 240.899L96.1513 240.892C96.6821 240.256 97.3216 239.615 97.7675 239.169C98.2938 238.749 98.7071 238.441 99.2118 238.135C99.6813 237.95 100.067 237.85 100.548 237.751C100.728 237.783 100.912 237.807 101.084 237.83C101.166 237.84 101.246 237.851 101.321 237.862C101.59 237.9 101.853 237.948 102.135 238.04C102.283 238.108 102.424 238.143 102.522 238.168L102.534 238.171C102.651 238.2 102.71 238.217 102.765 238.244C102.828 238.275 102.896 238.306 102.955 238.332L102.969 238.338C103.035 238.368 103.095 238.395 103.154 238.424C103.274 238.484 103.358 238.539 103.413 238.595Z" fill="#62CEBB" stroke="#62CEBB" stroke-linejoin="round"/>
<path d="M74.7706 247.23L74.7707 247.23L74.7584 247.224C73.167 246.482 72.0066 245.534 71.0546 244.374C70.322 243.363 69.9138 242.273 69.759 241.09L73.5011 240.395C73.5141 240.669 73.5449 240.958 73.6177 241.249C73.7499 241.777 74.0133 242.172 74.2294 242.496L74.2423 242.515C74.5206 242.932 74.9265 243.202 75.2407 243.411C75.2505 243.418 75.2602 243.424 75.2698 243.431L75.2973 243.449C75.6013 243.652 75.9691 243.897 76.3541 244.032C77.0903 244.393 77.8236 244.514 78.4356 244.514C79.2154 244.514 79.8528 244.253 80.3255 244.017C80.8257 243.767 81.4295 243.288 81.8134 242.788C82.3021 242.292 82.6612 241.686 82.8993 241.091C83.1287 240.518 83.3646 239.815 83.4838 239.1C83.6101 238.343 83.4836 237.712 83.3743 237.166L83.3698 237.144C83.2367 236.478 82.8499 235.851 82.5017 235.387C82.1164 234.874 81.4883 234.371 80.8431 234.113C80.834 234.109 80.8249 234.106 80.8156 234.103L79.8157 233.77C79.4041 233.633 78.8919 233.633 78.5783 233.633C78.5675 233.633 78.557 233.633 78.5467 233.633C78.0209 233.633 77.6229 233.766 77.2923 233.876L77.2777 233.881C77.0193 233.967 76.772 234.101 76.535 234.275L74.3179 230.996C74.7344 230.671 75.2212 230.448 75.7954 230.284C76.5869 230.058 77.2958 229.859 77.9912 229.859C78.7762 229.859 79.605 229.862 80.4253 230.067C81.3124 230.288 82.0429 230.5 82.6561 230.806C82.6616 230.809 82.6671 230.811 82.6728 230.814C83.8433 231.346 84.8808 232.079 85.5957 232.997C86.3509 233.967 86.976 235.018 87.2855 236.152C87.611 237.345 87.8153 238.492 87.716 239.62C87.4996 240.911 87.1774 242.088 86.7517 243.153C86.331 244.096 85.7052 245.028 84.8835 245.747C84.0271 246.495 83.0747 247.127 82.0274 247.546C80.9818 247.964 79.8236 248.176 78.5467 248.176C77.2998 248.176 76.0426 247.865 74.7706 247.23Z" fill="#62CEBB" stroke="#62CEBB" stroke-linejoin="round"/>
<path d="M52.7718 230.405L56.6285 230.317C56.6046 230.597 56.6046 230.866 56.6046 231.112L56.6046 231.136C56.6046 231.177 56.6096 231.217 56.6196 231.257C56.7353 231.72 56.8632 232.119 57.1331 232.523L57.1505 232.55C57.3594 232.863 57.6045 233.23 57.8622 233.488L57.8674 233.493C57.9762 233.602 58.1297 233.755 58.3018 233.896C58.4568 234.023 58.6542 234.162 58.8777 234.25C59.5722 234.705 60.2121 234.966 60.9931 234.966C61.007 234.966 61.0209 234.966 61.0349 234.966C61.6707 234.966 62.3108 234.966 62.9562 234.708C62.9673 234.704 62.9783 234.7 62.9894 234.695C63.5241 234.482 64.162 234.227 64.6795 233.71L64.6944 233.695C65.128 233.262 65.5933 232.797 65.948 232.324C65.9583 232.31 65.9679 232.296 65.9768 232.281L65.9947 232.251C66.3093 231.728 66.6748 231.119 66.8098 230.382C67.0484 229.749 67.0482 229.026 67.048 228.509C67.048 228.496 67.048 228.484 67.048 228.471C67.048 227.785 66.7746 227.137 66.4212 226.549C66.0476 225.927 65.5477 225.426 64.9265 225.051C64.7372 224.926 64.5508 224.833 64.3921 224.754L64.3829 224.749C64.213 224.664 64.0736 224.594 63.9366 224.503C63.8997 224.478 63.8596 224.459 63.8174 224.444C63.4703 224.329 62.9641 224.197 62.5484 224.197L62.5333 224.197C62.205 224.197 61.7095 224.197 61.2052 224.323C60.9317 224.391 60.6669 224.467 60.4079 224.603L58.7508 221.117C59.2259 220.864 59.7168 220.721 60.286 220.64C61.0129 220.536 61.7443 220.535 62.5932 220.641C63.3354 220.747 64.1785 220.959 64.9069 221.271C65.6915 221.607 66.4233 221.922 67.0438 222.334C68.1075 223.079 69.0519 224.028 69.6745 225.065C70.3097 226.123 70.7242 227.273 70.8273 228.406C70.8287 228.42 70.8307 228.435 70.8333 228.45C71.04 229.585 70.9399 230.738 70.7223 231.934C70.5201 233.045 70.0186 233.859 69.354 234.855C68.724 235.799 67.9935 236.529 67.0485 237.159C66.1121 237.782 65.0615 238.207 63.987 238.531C62.804 238.744 61.6533 238.843 60.4086 238.636C59.1646 238.429 58.0058 237.909 56.6992 237.148C55.2136 236.192 54.172 235.037 53.5522 233.798C52.988 232.671 52.6915 231.492 52.7718 230.405Z" fill="#62CEBB" stroke="#62CEBB" stroke-linejoin="round"/>
<path d="M48.2485 221.709C48.3491 221.601 48.3974 221.455 48.3806 221.309C48.3638 221.163 48.2835 221.032 48.1611 220.95L47.8278 220.728C47.7189 220.656 47.5859 220.629 47.4574 220.653L38.9278 222.271L35.5205 219.129L45.7496 217.307C45.9698 217.268 46.1372 217.087 46.1594 216.865L47.2801 205.666L50.5866 208.797L49.83 217.437C49.8157 217.6 49.8822 217.76 50.0081 217.865L50.6747 218.42C50.8783 218.59 51.1788 218.571 51.3598 218.378L55.7946 213.637L58.8433 216.504L46.6393 229.54L43.5908 226.673L48.2485 221.709Z" fill="#62CEBB" stroke="#62CEBB" stroke-linejoin="round"/>
<path d="M43.0572 201.244L43.0572 201.244L43.0585 201.251C43.2768 202.45 43.375 203.709 43.1713 204.727L43.1712 204.727L43.1696 204.735C42.9601 205.887 42.5407 206.944 42.0009 208.025C41.3654 209.08 40.638 209.902 39.7181 210.515C39.7079 210.521 39.698 210.529 39.6884 210.536C38.7407 211.273 37.6893 211.798 36.5308 212.114C35.3634 212.432 34.2183 212.532 33.0854 212.326C33.0708 212.324 33.0561 212.321 33.0413 212.32C31.9101 212.217 30.7569 211.805 29.6815 211.269C28.6137 210.627 27.6695 209.889 26.8315 208.842C25.9932 207.795 25.4753 206.652 25.2679 205.409L25.2679 205.409L25.2666 205.402C25.0484 204.202 24.9502 202.943 25.1539 201.926L25.1539 201.926L25.1555 201.917C25.3655 200.763 25.7856 199.709 26.4254 198.643C27.0633 197.581 27.7935 196.754 28.7182 196.138C28.7283 196.131 28.7382 196.124 28.7478 196.116C29.6971 195.379 30.7353 194.864 31.8633 194.659C31.8775 194.657 31.8915 194.654 31.9054 194.65C33.0728 194.332 34.2179 194.231 35.3508 194.437C36.5468 194.655 37.7186 194.977 38.7719 195.503C38.7787 195.506 38.7855 195.509 38.7924 195.512C39.6904 195.911 40.6305 196.732 41.4936 197.81C42.332 198.857 42.8499 200 43.0572 201.244ZM38.6176 205.68C38.6279 205.666 38.6375 205.652 38.6463 205.637C38.6991 205.549 38.7556 205.46 38.8135 205.367C39.0797 204.943 39.3761 204.471 39.4856 203.924L39.4901 203.902C39.5994 203.356 39.7259 202.724 39.5997 201.967L39.5967 201.951C39.4761 201.348 39.2249 200.573 38.5711 199.92L38.5467 199.895C38.0102 199.359 37.5279 198.877 36.9194 198.512C36.8965 198.499 36.8726 198.487 36.8479 198.477C36.2321 198.231 35.6135 198.108 34.8847 198.108C34.2729 198.108 33.5425 198.229 32.9215 198.477C32.3287 198.714 31.7445 199.064 31.2021 199.389L31.1835 199.4C30.5349 199.789 30.0394 200.419 29.7076 200.861C29.6972 200.875 29.6876 200.889 29.6788 200.904C29.626 200.992 29.5695 201.082 29.5117 201.174C29.2454 201.598 28.949 202.07 28.8395 202.618C28.7144 203.242 28.7174 203.86 28.8366 204.574C28.96 205.314 29.2131 205.951 29.7171 206.581C30.2019 207.186 30.8235 207.692 31.4773 207.954C32.0872 208.197 32.7055 208.322 33.3293 208.322C33.923 208.322 34.6284 208.209 35.237 207.975C35.9838 207.857 36.4815 207.549 36.9304 207.27C37.0018 207.226 37.0719 207.183 37.1416 207.141C37.7902 206.752 38.2857 206.122 38.6176 205.68Z" fill="#62CEBB" stroke="#62CEBB" stroke-linejoin="round"/>
<path d="M27.9837 175.63L19.5519 179.843C19.3408 179.949 19.2321 180.187 19.2913 180.416C19.3505 180.644 19.5613 180.8 19.797 180.79L27.1391 180.471L28.0714 182.334L23.3874 188.079C23.2385 188.261 23.2373 188.523 23.3846 188.707C23.5318 188.891 23.7876 188.947 23.9984 188.842L32.4393 184.625L34.3249 188.393L18.3324 196.383L16.1437 192.009L22.0549 184.599C22.1766 184.446 22.1984 184.237 22.1108 184.062C22.0231 183.888 21.842 183.781 21.647 183.787L12.1878 184.11L10.007 179.846L26.0039 171.854L27.9837 175.63Z" fill="#62CEBB" stroke="#62CEBB" stroke-linejoin="round"/>
<path d="M22.9985 160.24L26.8404 159.354L27.7311 163.359L19.8343 164.937L19.7102 164.317C19.7086 164.309 19.7069 164.301 19.705 164.294C19.5683 163.747 19.2822 163.301 18.8305 163C18.4194 162.726 17.7793 162.479 16.9228 162.472C16.1012 162.358 15.1796 162.362 14.0596 162.474C13.8026 162.5 13.5253 162.526 13.2311 162.553C12.2716 162.643 11.1331 162.749 9.9336 162.92L4.83276 163.532L2.1529 151.584L15.7723 148.584C16.0415 148.525 16.2119 148.259 16.1533 147.989L15.7031 145.92L23.5071 144.143L24.4013 148.164L20.5519 149.052C20.2851 149.113 20.1174 149.378 20.1756 149.645L22.3976 159.859C22.426 159.989 22.5056 160.103 22.6185 160.175C22.7314 160.246 22.8683 160.27 22.9985 160.24ZM17.1527 152.983C17.0929 152.714 16.8271 152.544 16.558 152.603L6.89242 154.712C6.76163 154.741 6.64775 154.821 6.57627 154.934C6.50479 155.047 6.48169 155.184 6.51213 155.314L7.28982 158.645C7.34823 158.895 7.58665 159.06 7.84135 159.027L10.3966 158.694L10.3966 158.694L10.4027 158.693C11.9397 158.474 13.36 158.365 14.5538 158.365C15.7465 158.365 16.8346 158.473 17.7137 158.583C17.875 158.603 18.0361 158.544 18.1455 158.424C18.2549 158.303 18.299 158.137 18.2637 157.979L17.1527 152.983Z" fill="#62CEBB" stroke="#62CEBB" stroke-linejoin="round"/>
<path d="M7.2873 136.493C7.2948 136.493 7.30232 136.494 7.30985 136.494C9.73944 136.605 11.7091 136.825 13.2272 137.15C14.7305 137.472 15.8949 137.896 16.8366 138.414C17.6538 139.032 18.2519 139.739 18.6522 140.639C19.0147 141.454 19.2271 142.543 19.2682 143.846L15.7467 144.022C15.6492 143.527 15.5079 143.037 15.2024 142.614C14.8946 142.032 14.3239 141.645 13.601 141.404C12.9023 141.172 11.9772 140.941 10.8263 140.826L10.8263 140.826L10.8218 140.826C9.59244 140.714 8.03127 140.603 6.13979 140.491L1.03609 140.185L0.520583 127.926L18.4085 127.19L18.5881 131.407L4.75791 131.943C4.48302 131.953 4.26836 132.184 4.27753 132.459L4.38863 135.789C4.39704 136.042 4.59191 136.248 4.84312 136.271L7.2873 136.493Z" fill="#62CEBB" stroke="#62CEBB" stroke-linejoin="round"/>
<path d="M19.6654 113.902L13.613 113.184C13.3479 113.153 13.1049 113.335 13.061 113.598L12.8388 114.931C12.809 115.109 12.8782 115.29 13.0198 115.403L18.9128 120.114L18.3888 124.477L12.5403 119.624C12.4258 119.529 12.275 119.49 12.1289 119.517C11.9827 119.545 11.8563 119.636 11.784 119.766C11.2959 120.643 10.5064 121.247 9.57387 121.661C8.65557 122.069 7.53232 122.273 6.30379 122.069C6.30126 122.068 6.29874 122.068 6.29621 122.068C6.29202 122.067 6.28782 122.066 6.28362 122.066C5.45129 121.962 4.74396 121.758 4.04006 121.359C3.36441 120.909 2.79267 120.518 2.41581 119.953C1.9945 119.322 1.68615 118.702 1.48073 117.984C1.28451 117.298 1.2781 116.485 1.38505 115.63L1.38559 115.625L2.32763 107.467L20.1153 109.676L19.6654 113.902ZM5.73219 112.186C5.59963 112.168 5.46552 112.204 5.35983 112.286C5.25413 112.368 5.18566 112.489 5.16972 112.622L4.83642 115.397C4.83405 115.417 4.83285 115.437 4.83285 115.457V115.458V115.459V115.461V115.462V115.463V115.465V115.466V115.467V115.469V115.47V115.471V115.472V115.474V115.475V115.476V115.478V115.479V115.48V115.482V115.483V115.484V115.485V115.487V115.488V115.489V115.491V115.492V115.493V115.495V115.496V115.497V115.499V115.5V115.501V115.502V115.504V115.505V115.506V115.508V115.509V115.51V115.512V115.513V115.514V115.515V115.517V115.518V115.519V115.521V115.522V115.523V115.525V115.526V115.527V115.528V115.53V115.531V115.532V115.534V115.535V115.536V115.538V115.539V115.54V115.541V115.543V115.544V115.545V115.547V115.548V115.549V115.551V115.552V115.553V115.554V115.556V115.557V115.558V115.56V115.561V115.562V115.564V115.565V115.566V115.567V115.569V115.57V115.571V115.573V115.574V115.575V115.577V115.578V115.579V115.58V115.582V115.583V115.584V115.586V115.587V115.588V115.59V115.591V115.592V115.593V115.595V115.596V115.597V115.599V115.6V115.601V115.603V115.604V115.605V115.606V115.608V115.609V115.61V115.612V115.613V115.614V115.616V115.617V115.618V115.62V115.621V115.622V115.623V115.625V115.626V115.627V115.629V115.63V115.631V115.633V115.634V115.635V115.636V115.638V115.639V115.64V115.642V115.643V115.644V115.646V115.647V115.648V115.649V115.651V115.652V115.653V115.655V115.656V115.657V115.659V115.66V115.661V115.662V115.664V115.665V115.666V115.668V115.669V115.67V115.672V115.673V115.674V115.675V115.677V115.678V115.679V115.681V115.682V115.683V115.685V115.686V115.687V115.688V115.69V115.691V115.692V115.694V115.695V115.696V115.698V115.699V115.7V115.701V115.703V115.704V115.705V115.707V115.708V115.709V115.711V115.712V115.713V115.714V115.716V115.717V115.718V115.72V115.721V115.722V115.724V115.725V115.726V115.727V115.729V115.73V115.731V115.733V115.734V115.735V115.737V115.738V115.739V115.74V115.742V115.743V115.744V115.746V115.747V115.748V115.75V115.751V115.752V115.754V115.755V115.756V115.757V115.759V115.76V115.761V115.763V115.764V115.765V115.767V115.768V115.769V115.77V115.772V115.773V115.774V115.776V115.777V115.778V115.78V115.781V115.782V115.783V115.785V115.786V115.787V115.789V115.79V115.791V115.793V115.794V115.795V115.796V115.798V115.799V115.8V115.802V115.803V115.804V115.806V115.807V115.808V115.809V115.811V115.812V115.813V115.815V115.816V115.817V115.819V115.82V115.821V115.822V115.824V115.825V115.826V115.828V115.829V115.83V115.832V115.833V115.834V115.835V115.837V115.838V115.839V115.841V115.842V115.843V115.845V115.846V115.847V115.848V115.85V115.851V115.852V115.854V115.855V115.856V115.858V115.859V115.86V115.861V115.863V115.864V115.865V115.867V115.868V115.869V115.871V115.872V115.873V115.874V115.876V115.877V115.878V115.88V115.881V115.882V115.884V115.885V115.886V115.888V115.889V115.89V115.891V115.893V115.894V115.895V115.897V115.898V115.899V115.901V115.902V115.903V115.904V115.906V115.907V115.908V115.91V115.911V115.912V115.914V115.915V115.916V115.917V115.919V115.92V115.921V115.923V115.924V115.925V115.927V115.928V115.929V115.93V115.932V115.933V115.934V115.936V115.937V115.938V115.94V115.941V115.942V115.943V115.945V115.946V115.947V115.949V115.95V115.951V115.953V115.954V115.955V115.956V115.958V115.959V115.96V115.962V115.963V115.964V115.966V115.967V115.968V115.969V115.971V115.972V115.973V115.975V115.976V115.977V115.979V115.98V115.981V115.982V115.984V115.985V115.986V115.988V115.989V115.99V115.992V115.993V115.994V115.995V115.997V115.998V115.999V116.001V116.002V116.003V116.005V116.006V116.007V116.008V116.01V116.011V116.012V116.014V116.015V116.016V116.018V116.019V116.02V116.022V116.023V116.024V116.025V116.027V116.028V116.029V116.031V116.032V116.033V116.035V116.036V116.037V116.038V116.04V116.041V116.042V116.044V116.045V116.046V116.048V116.049V116.05V116.051V116.053V116.054V116.055V116.057V116.058V116.059V116.061V116.062V116.063V116.064V116.066V116.067V116.068V116.07V116.071V116.072V116.074V116.075V116.076V116.077V116.079V116.08V116.081V116.083V116.084V116.085V116.087V116.088V116.089V116.09V116.092V116.093V116.094V116.096V116.097V116.098V116.1V116.101V116.102V116.103V116.105V116.106V116.107V116.109V116.11V116.111V116.113V116.114V116.115V116.116V116.118V116.119V116.12V116.122V116.123C4.83285 116.466 4.99254 116.784 5.09154 116.98C5.09721 116.991 5.10268 117.002 5.10791 117.013C5.17855 117.154 5.26274 117.287 5.38216 117.406C5.50157 117.526 5.63472 117.61 5.77597 117.68L5.78921 117.687C6.01435 117.8 6.32545 117.955 6.77714 117.955H6.77909H6.78105H6.783H6.78495H6.78691H6.78886H6.79081H6.79276H6.79472H6.79667H6.79862H6.80057H6.80253H6.80448H6.80643H6.80838H6.81034H6.81229H6.81424H6.81619H6.81814H6.8201H6.82205H6.824H6.82595H6.8279H6.82985H6.8318H6.83376H6.83571H6.83766H6.83961H6.84156H6.84351H6.84546H6.84741H6.84936H6.85131H6.85326H6.8552H6.85715H6.8591H6.86105H6.863H6.86495H6.86689H6.86884H6.87079H6.87274H6.87468H6.87663H6.87858H6.88052H6.88247H6.88441H6.88636H6.8883H6.89025H6.89219H6.89414H6.89608H6.89802H6.89997H6.90191H6.90385H6.9058H6.90774H6.90968H6.91162H6.91356H6.9155H6.91744H6.91938H6.92132H6.92326H6.9252H6.92714H6.92908H6.93101H6.93295H6.93489H6.93682H6.93876H6.9407H6.94263H6.94456H6.9465H6.94843H6.95037H6.9523H6.95423H6.95616H6.9581H6.96003H6.96196H6.96389H6.96582H6.96775H6.96968H6.9716H6.97353H6.97546H6.97739H6.97931H6.98124H6.98316H6.98509H6.98701H6.98894H6.99086H6.99278H6.9947H6.99663H6.99855H7.00047H7.00239H7.00431H7.00622H7.00814H7.01006H7.01198H7.01389H7.01581H7.01772H7.01964H7.02155H7.02347H7.02538H7.02729H7.0292H7.03111H7.03302H7.03493H7.03684H7.03875H7.04066H7.04256H7.04447H7.04637H7.04828H7.05018H7.05208H7.05399H7.05589H7.05779H7.05969H7.06159H7.06349H7.06539H7.06728H7.06918H7.07108H7.07297H7.07487H7.07676H7.07865H7.08054H7.08244H7.08433H7.08622H7.08811H7.08999H7.09188H7.09377H7.09565H7.09754H7.09942H7.10131H7.10319H7.10507H7.10695H7.10883H7.11071H7.11259H7.11446H7.11634H7.11822H7.12009H7.12196H7.12384H7.12571H7.12758H7.12945H7.13132H7.13319H7.13506H7.13692H7.13879H7.14065H7.14252H7.14438H7.14624H7.1481H7.14996H7.15182H7.15368H7.15554H7.15739H7.15925H7.1611H7.16295H7.16481H7.16666H7.16851H7.17036H7.1722H7.17405H7.1759H7.17774H7.17959H7.18143H7.18327H7.18511H7.18695H7.18879H7.19063H7.19246H7.1943H7.19613H7.19797H7.1998H7.20163H7.20346H7.20529H7.20712H7.20894H7.21077H7.21259H7.21442H7.21624H7.21806H7.21988H7.2217H7.22352H7.22533H7.22715H7.22896H7.23077H7.23259H7.2344H7.23621H7.23801H7.23982H7.24163H7.24343H7.24523H7.24704H7.24884H7.25064H7.25244H7.25423H7.25603H7.25782H7.25962H7.26141H7.2632H7.26499H7.26678H7.26856H7.27035H7.27213H7.27392H7.2757H7.27748H7.27926H7.28104H7.28281H7.28459H7.28636H7.28813H7.28991H7.29168H7.29344H7.29521H7.29698H7.29874H7.3005H7.30227H7.30403H7.30579H7.30754H7.3093H7.31105H7.31281H7.31456H7.31631H7.31806H7.31981H7.32155H7.3233H7.32504H7.32678H7.32852H7.33026H7.332H7.33374H7.33547H7.3372H7.33893H7.34066H7.34239H7.34412H7.34585H7.34757H7.34929H7.35101H7.35273H7.35445H7.35617H7.35788H7.3596H7.36131H7.36302H7.36473H7.36644H7.36814H7.36985H7.37155H7.37325H7.37495H7.37665H7.37834H7.38004H7.38173H7.38342H7.38511H7.3868H7.38849H7.39017H7.39185H7.39354H7.39522H7.39689H7.39857H7.40025H7.40192H7.40359H7.40526H7.40693H7.4086H7.41026H7.41192H7.41359H7.41525H7.4169H7.41856H7.42022H7.42187H7.42352H7.42517H7.42682H7.42846H7.43011H7.43175H7.43339H7.43503H7.43667H7.4383H7.43994H7.44157H7.4432H7.44483H7.44645H7.44808H7.4497H7.45132H7.45294H7.45456H7.45618H7.45779H7.4594H7.46101H7.46262H7.46423H7.46583H7.46743H7.46904H7.47063H7.47223H7.47383H7.47542H7.47701H7.4786H7.48019H7.48177H7.48336H7.48494H7.48652H7.4881H7.48967H7.49125H7.49282H7.49439H7.49596H7.49753H7.49909H7.50065H7.50221H7.50377H7.50533H7.50688H7.50844H7.50999H7.51154H7.51308H7.51463H7.51617H7.51771H7.51925H7.52078H7.52232H7.52385H7.52538H7.52691H7.52844H7.52996H7.53148H7.533H7.53452H7.53604H7.53755H7.53906H7.54057H7.54208H7.54358H7.54509H7.54659H7.54809H7.54959H7.55108H7.55257H7.55406H7.55555H7.55704H7.55852H7.56H7.56148H7.56296H7.56444H7.56591H7.56738H7.56885H7.57032H7.57178H7.57324H7.5747H7.57616H7.57762H7.57907H7.58052H7.58197H7.58342H7.58486H7.5863H7.58774H7.58918H7.59062H7.59205H7.59348H7.59491H7.59634H7.59776H7.59918H7.6006H7.60202H7.60343H7.60485H7.60626H7.60766H7.60907H7.61047H7.61187H7.61327H7.61467H7.61606H7.61745H7.61884H7.62023H7.62161H7.623H7.62437H7.62575H7.62713H7.6285H7.62987H7.63124H7.6326H7.63396H7.63532H7.63668H7.63804H7.63939H7.64074H7.64209H7.64344H7.64478H7.64612H7.64746H7.64879H7.65013H7.65146H7.65279H7.65411H7.65544H7.65676H7.65807H7.65939H7.6607H7.66201H7.66332H7.66463H7.66593C7.7435 117.955 7.82001 117.937 7.88941 117.902L7.89579 117.899C8.00235 117.846 8.1239 117.785 8.23327 117.723C8.33879 117.663 8.47023 117.58 8.57485 117.476L8.22143 117.122L8.57485 117.476C8.67948 117.371 8.76181 117.24 8.82212 117.134C8.88462 117.025 8.9454 116.904 8.99867 116.797L9.00187 116.791C9.16526 116.464 9.16612 116.141 9.16585 115.931L9.49555 113.185C9.52818 112.913 9.33638 112.666 9.06516 112.63L5.73219 112.186Z" fill="#62CEBB" stroke="#62CEBB" stroke-linejoin="round"/>
<path d="M8.02129 86.8833C8.02514 86.8733 8.02867 86.8632 8.03187 86.8529C8.56147 85.1595 9.39918 83.9138 10.5375 82.9832C10.5436 82.9782 10.5495 82.9731 10.5554 82.9678C11.4797 82.1366 12.5594 81.5572 13.645 81.2916L14.6873 84.9371C14.3786 85.0001 14.0742 85.1077 13.7749 85.2573C13.7564 85.2665 13.7384 85.2769 13.7212 85.2884L12.7213 85.9545C12.6939 85.9728 12.6684 85.9937 12.6451 86.0169C12.6326 86.0294 12.6201 86.0419 12.6076 86.0543C12.3056 86.3557 12.0066 86.6539 11.8576 87.1005C11.8153 87.2272 11.7493 87.3613 11.6626 87.5346L11.6559 87.548C11.5771 87.7054 11.4801 87.8991 11.4132 88.0997C11.1761 88.8104 11.0429 89.5635 11.1721 90.3385C11.2981 91.0934 11.5556 91.5998 11.9033 92.1788C11.9121 92.1936 11.9217 92.2078 11.932 92.2216C12.2938 92.7035 12.7718 93.1813 13.2541 93.5427C13.2679 93.553 13.2822 93.5626 13.2969 93.5714C13.3849 93.6242 13.4749 93.6807 13.5672 93.7385C13.9833 93.9994 14.4456 94.2891 14.9795 94.4034C15.6723 94.6321 16.2755 94.7528 16.9981 94.7528C17.7268 94.7528 18.3454 94.6302 18.9612 94.384C19.556 94.1463 20.177 93.7813 20.5734 93.3853C21.0747 92.8844 21.4419 92.2682 21.684 91.6632C21.6877 91.6541 21.691 91.6449 21.6941 91.6356L21.699 91.6209C21.8093 91.2906 21.942 90.8927 21.942 90.3672V90.3653V90.3633V90.3613V90.3594V90.3574V90.3555V90.3535V90.3515V90.3495V90.3476V90.3456V90.3436V90.3416V90.3396V90.3377V90.3357V90.3337V90.3317V90.3297V90.3277V90.3257V90.3237V90.3217V90.3197V90.3177V90.3156V90.3136V90.3116V90.3096V90.3076V90.3055V90.3035V90.3015V90.2995V90.2974V90.2954V90.2934V90.2913V90.2893V90.2872V90.2852V90.2831V90.2811V90.279V90.277V90.2749V90.2729V90.2708V90.2687V90.2667V90.2646V90.2625V90.2605V90.2584V90.2563V90.2542V90.2522V90.2501V90.248V90.2459V90.2438V90.2417V90.2396V90.2375V90.2355V90.2334V90.2313V90.2292V90.2271V90.225V90.2228V90.2207V90.2186V90.2165V90.2144V90.2123V90.2102V90.2081V90.2059V90.2038V90.2017V90.1996V90.1974V90.1953V90.1932V90.191V90.1889V90.1868V90.1846V90.1825V90.1804V90.1782V90.1761V90.1739V90.1718V90.1696V90.1675V90.1653V90.1632V90.161V90.1589V90.1567V90.1545V90.1524V90.1502V90.1481V90.1459V90.1437V90.1415V90.1394V90.1372V90.135V90.1329V90.1307V90.1285V90.1263V90.1241V90.122V90.1198V90.1176V90.1154V90.1132V90.111V90.1088V90.1067V90.1045V90.1023V90.1001V90.0979V90.0957V90.0935V90.0913V90.0891V90.0869V90.0847V90.0825V90.0803V90.0781V90.0759V90.0736V90.0714V90.0692V90.067V90.0648V90.0626V90.0604V90.0581V90.0559V90.0537V90.0515V90.0493V90.047V90.0448V90.0426V90.0404V90.0381V90.0359V90.0337V90.0315V90.0292V90.027V90.0248V90.0225V90.0203V90.0181V90.0158V90.0136V90.0114V90.0091V90.0069V90.0046V90.0024V90.0001V89.9979V89.9957V89.9934V89.9912V89.9889V89.9867V89.9844V89.9822V89.9799V89.9777V89.9754V89.9732V89.9709V89.9687V89.9664V89.9642V89.9619V89.9597V89.9574V89.9551V89.9529V89.9506V89.9484V89.9461V89.9439V89.9416V89.9393V89.9371V89.9348V89.9325V89.9303V89.928V89.9258V89.9235V89.9212V89.919V89.9167V89.9144V89.9122V89.9099V89.9076V89.9054V89.9031V89.9008V89.8986V89.8963V89.894V89.8917V89.8895V89.8872V89.8849V89.8827V89.8804V89.8781V89.8758V89.8736V89.8713V89.869V89.8667V89.8645V89.8622V89.8599V89.8576V89.8554V89.8531V89.8508V89.8485V89.8463V89.844V89.8417V89.8394V89.8372V89.8349V89.8326V89.8303V89.8281V89.8258V89.8235V89.8212V89.819V89.8167V89.8144V89.8121V89.8099V89.8076V89.8053V89.803V89.8007V89.7985V89.7962V89.7939V89.7916V89.7894V89.7871V89.7848V89.7825V89.7803V89.778V89.7757V89.7734V89.7712V89.7689V89.7666V89.7643V89.7621V89.7598V89.7575V89.7552V89.753V89.7507V89.7484V89.7461V89.7439V89.7416V89.7393V89.7371V89.7348V89.7325V89.7302V89.728V89.7257V89.7234V89.7212V89.7189V89.7166V89.7144V89.7121V89.7098V89.7076V89.7053V89.703V89.7008V89.6985V89.6962V89.694V89.6917V89.6894V89.6872V89.6849V89.6827V89.6804V89.6781V89.6759V89.6736V89.6714V89.6691V89.6669V89.6646V89.6623V89.6601V89.6578V89.6556V89.6533V89.6511V89.6488V89.6466V89.6443V89.6421V89.6398V89.6376V89.6353V89.6331V89.6308V89.6286V89.6264V89.6241V89.6219V89.6196V89.6174V89.6151V89.6129V89.6107V89.6084V89.6062V89.604V89.6017V89.5995V89.5973V89.595V89.5928V89.5906V89.5883V89.5861V89.5839V89.5817V89.5794V89.5772V89.575V89.5728V89.5705V89.5683V89.5661V89.5639V89.5617V89.5595V89.5572V89.555V89.5528V89.5506V89.5484V89.5462V89.544V89.5418V89.5396V89.5374V89.5352V89.533V89.5308V89.5286V89.5264V89.5242V89.522V89.5198V89.5176V89.5154V89.5132V89.511V89.5088V89.5067V89.5045V89.5023V89.5001V89.4979V89.4958V89.4936V89.4914V89.4892V89.4871V89.4849V89.4827V89.4805V89.4784V89.4762V89.474V89.4719V89.4697V89.4676V89.4654V89.4632V89.4611V89.4589V89.4568V89.4546V89.4525V89.4503V89.4482V89.446V89.4439V89.4418V89.4396V89.4375V89.4354V89.4332V89.4311V89.429V89.4268V89.4247V89.4226V89.4204V89.4183V89.4162V89.4141V89.412V89.4099V89.4077V89.4056V89.4035V89.4014V89.3993V89.3972V89.3951V89.393V89.3909V89.3888V89.3867V89.3846V89.3825V89.3804V89.3784V89.3763V89.3742V89.3721V89.37V89.3679V89.3659V89.3638V89.3617V89.3597V89.3576V89.3555V89.3535V89.3514V89.3493V89.3473V89.3452V89.3432V89.3411V89.3391V89.337V89.335V89.3329V89.3309V89.3289V89.3268V89.3248V89.3228V89.3207V89.3187V89.3167V89.3147V89.3126V89.3106V89.3086V89.3066V89.3046V89.3026V89.3006V89.2986V89.2966V89.2946V89.2926V89.2906V89.2886V89.2866V89.2846V89.2826V89.2806V89.2787V89.2767V89.2747V89.2727V89.2708V89.2688V89.2668V89.2649V89.2629V89.261V89.259V89.257C21.942 89.2033 21.9334 89.1498 21.9163 89.0988C21.8649 88.9447 21.8125 88.7616 21.7561 88.5645L21.7543 88.558C21.7001 88.3684 21.642 88.1655 21.583 87.9887C21.569 87.9465 21.5493 87.9064 21.5247 87.8694L21.5173 87.8583C21.3785 87.6502 21.2291 87.4263 21.0446 87.1966L24.0963 84.5955C24.4404 84.9559 24.7402 85.4224 24.9879 85.9153C25.3061 86.6589 25.5092 87.2757 25.6121 88.0979L25.612 88.0979L25.6132 88.1066C25.7172 88.8341 25.7184 89.6771 25.6121 90.5272C25.5006 91.418 25.3954 92.1299 25.0932 92.8345C25.0877 92.8473 25.0828 92.8602 25.0784 92.8734C24.6556 94.1407 24.0272 95.1813 23.1995 96.0084C22.3382 96.8691 21.3987 97.5918 20.2714 98.0015L20.2566 98.0071C19.1819 98.4367 18.0249 98.7485 16.7759 98.7485C15.4286 98.7485 14.3929 98.7449 13.3643 98.4365C12.3473 98.1316 11.4096 97.5143 10.5501 96.7628C9.69493 96.015 8.96474 95.1764 8.4462 94.1401C7.91767 93.0838 7.60297 92.0352 7.49743 90.7697C7.39141 89.4983 7.49762 88.2438 8.02129 86.8833Z" fill="#62CEBB" stroke="#62CEBB" stroke-linejoin="round"/>
<path d="M33.7934 73.8127L21.5696 67.1696C21.3307 67.0398 21.0318 67.1247 20.8969 67.3607L19.1193 70.4692C18.9876 70.6994 19.0586 70.9923 19.281 71.1367L21.5005 72.5783C23.4808 73.8977 25.0217 75.1074 26.2361 76.1002C27.3879 77.0419 28.1262 78.0887 28.6599 79.045C29.0715 79.9769 29.2561 80.8621 29.062 81.8319C28.8746 82.7678 28.5189 83.7967 27.9133 84.9192L24.8289 83.246C24.8922 83.0611 24.9538 82.8791 25.0039 82.7122C25.0908 82.4226 25.1639 82.116 25.1639 81.819C25.1639 81.2219 24.8736 80.5594 24.3876 79.9523C23.9701 79.4309 23.3752 78.9135 22.6579 78.2897C22.5501 78.196 22.4397 78.1 22.3266 78.0011C22.3172 77.9928 22.3074 77.9849 22.2974 77.9774L22.2943 77.9751C21.4064 77.3097 20.0602 76.3008 18.3764 75.2904L14.1003 72.4419L19.9769 61.6248L35.7638 70.1434L33.7934 73.8127Z" fill="#62CEBB" stroke="#62CEBB" stroke-linejoin="round"/>
<path d="M39.789 63.4901C39.7834 63.4927 39.7779 63.4953 39.7723 63.4981C38.7201 64.0238 37.5589 64.3409 36.3954 64.4465C35.2353 64.5519 34.0883 64.4459 32.9451 64.0305C32.9322 64.0258 32.9191 64.0216 32.9058 64.018C31.7604 63.7059 30.8189 63.1862 29.8593 62.4404C28.9089 61.7017 28.1837 60.8695 27.6666 59.836C27.1211 58.7458 26.7091 57.7018 26.6064 56.573C26.4978 55.3793 26.5021 54.2255 26.813 53.0864C27.1313 51.9201 27.6591 50.7633 28.4985 49.7147C29.3548 48.6452 30.296 47.8172 31.4258 47.3041C31.4314 47.3015 31.4369 47.2989 31.4425 47.2961C32.4947 46.7704 33.6559 46.4533 34.8194 46.3477C35.9795 46.2423 37.1265 46.3483 38.2697 46.7637C38.2826 46.7684 38.2957 46.7726 38.309 46.7762C39.4545 47.0884 40.3959 47.6081 41.3555 48.3538C42.3059 49.0925 43.0311 49.9248 43.5482 50.9582C44.0937 52.0484 44.5057 53.0924 44.6084 54.2212C44.717 55.4149 44.7127 56.5687 44.4018 57.7078C44.398 57.7217 44.3948 57.7358 44.3923 57.75C44.19 58.8614 43.5746 60.0074 42.7163 61.0795C41.86 62.149 40.9188 62.977 39.789 63.4901ZM41.0416 56.7164L41.0445 56.7005C41.1631 55.9896 41.1744 55.3308 40.9044 54.6562L40.8923 54.6261C40.6817 54.0997 40.4425 53.502 40.078 53.0086C39.7097 52.4029 39.2207 51.9132 38.6155 51.5444C38.0226 51.0746 37.5305 50.8305 36.8346 50.5977C36.2234 50.3552 35.6086 50.2344 34.8853 50.2344C34.1439 50.2344 33.6364 50.3621 33.0332 50.6032C32.3794 50.8645 31.7578 51.3707 31.2731 51.9762C30.7912 52.578 30.4146 53.3157 30.2843 53.9668C30.1603 54.5866 30.1603 55.3194 30.2843 55.9393C30.4175 56.6045 30.8043 57.2317 31.1524 57.6955C31.1666 57.7145 31.1821 57.7324 31.1989 57.7491C31.3202 57.8704 31.4368 57.9939 31.5528 58.1168C31.9049 58.4898 32.2515 58.8571 32.71 59.1386C33.3031 59.6085 33.7953 59.8526 34.4913 60.0855C35.1025 60.328 35.7173 60.4488 36.4406 60.4488C37.182 60.4488 37.6895 60.3211 38.2927 60.08C38.9465 59.8187 39.5681 59.3125 40.0528 58.707C40.5347 58.1052 40.9113 57.3674 41.0416 56.7164Z" fill="#62CEBB" stroke="#62CEBB" stroke-linejoin="round"/>
<path d="M48.05 41.6131C48.0419 41.3887 47.8853 41.1973 47.6669 41.1449L37.5294 38.7137L41.1183 35.7398L49.5371 37.8968C49.6745 37.932 49.8204 37.9072 49.9384 37.8286L50.2717 37.6066C50.3893 37.5283 50.4682 37.4039 50.489 37.2642C50.5099 37.1245 50.4706 36.9825 50.381 36.8733L46.1409 31.7062L49.372 29.0156L53.6076 34.1772C53.7705 34.3757 54.0575 34.4185 54.2713 34.2761L54.6046 34.0541C54.753 33.9552 54.8375 33.7847 54.8264 33.6067L54.2868 24.9793L57.876 22.0051L58.383 32.441C58.3938 32.662 58.5485 32.8497 58.7634 32.9024L69.5717 35.5515L66.0842 38.4265L57.6556 36.5909C57.5232 36.5621 57.3848 36.5882 57.272 36.6633L56.6054 37.1074C56.4873 37.1861 56.4082 37.3113 56.3878 37.4517C56.3675 37.5922 56.4077 37.7347 56.4987 37.8437L60.6221 42.7882L57.391 45.4788L53.2671 40.5338C53.0903 40.3218 52.7752 40.2932 52.5631 40.4698L51.8965 41.0248C51.7791 41.1226 51.7128 41.2688 51.7167 41.4216L51.9328 50.0595L48.4579 52.9241L48.05 41.6131Z" fill="#62CEBB" stroke="#62CEBB" stroke-linejoin="round"/>
<path d="M85.4287 27.6584L81.7542 29.6286L78.5448 23.5248C78.4174 23.2826 78.1191 23.1878 77.8752 23.312L72.2092 26.1984C72.09 26.2591 72.0002 26.365 71.9596 26.4925C71.9191 26.6199 71.9314 26.7583 71.9936 26.8766L75.2068 32.9876L71.5339 34.957L63.2209 19.0795L66.8928 17.1107L69.8813 22.8774C70.0078 23.1214 70.3074 23.2176 70.5522 23.0929L76.2183 20.2064C76.337 20.146 76.4266 20.0406 76.4674 19.9138C76.5081 19.787 76.4965 19.6491 76.4353 19.5309L73.4402 13.7517L77.1158 11.7809L85.4287 27.6584Z" fill="#62CEBB" stroke="#62CEBB" stroke-linejoin="round"/>
<path d="M89.3997 13.2421C89.4782 13.5067 89.7563 13.6577 90.021 13.5794L93.0207 12.6912L93.0368 12.6862C93.976 12.3733 94.9005 12.2744 95.7054 12.3749C95.7259 12.3775 95.7466 12.3787 95.7673 12.3787C96.5621 12.3787 97.2671 12.5746 98.0009 12.8876C98.5899 13.1847 99.1992 13.6884 99.7162 14.3083C100.21 14.9007 100.519 15.603 100.848 16.4779C101.368 18.2583 101.25 19.7776 100.549 21.0779C99.8547 22.3661 98.5464 23.2998 96.6335 23.8308L96.6308 23.8315L88.8829 26.0286L83.7265 8.88841L87.7633 7.7231L89.3997 13.2421ZM91.6176 21.1094C91.6522 21.2408 91.7388 21.3525 91.8574 21.4187C91.9761 21.4849 92.1166 21.5 92.2466 21.4604L94.8018 20.6833L94.8019 20.6835L94.8144 20.6793C95.554 20.433 96.1342 20.0341 96.4367 19.4296C96.7326 18.8382 96.7091 18.1496 96.5938 17.4583L96.5909 17.4424C96.4504 16.7402 96.0305 16.1971 95.5117 15.8083C94.8905 15.3428 94.1489 15.3789 93.4632 15.4931C93.4418 15.4967 93.4206 15.5017 93.3999 15.508L90.8446 16.2851C90.5874 16.3633 90.4381 16.6309 90.5066 16.8908L91.6176 21.1094ZM109.703 19.974L105.664 21.1399L100.718 3.89447L104.757 2.72861L109.703 19.974Z" fill="#62CEBB" stroke="#62CEBB" stroke-linejoin="round"/>
<path d="M116.824 10.3474L110.28 2.07191L114.636 1.63666L118.467 7.06047C118.57 7.20617 118.743 7.286 118.921 7.26996C119.098 7.25393 119.254 7.14445 119.329 6.98267L122.098 1.02426L126.433 0.591072L121.435 9.86529C121.341 10.0404 121.359 10.2549 121.482 10.4113L127.808 18.4657L123.452 18.9011L119.842 13.7029C119.739 13.5545 119.564 13.4733 119.384 13.4903C119.204 13.5073 119.048 13.6199 118.974 13.7849L116.426 19.5143L112.087 19.9478L116.874 10.8912C116.966 10.7161 116.947 10.5028 116.824 10.3474Z" fill="#62CEBB" stroke="#62CEBB" stroke-linejoin="round"/>
<path d="M145.908 1.7162L145.908 1.7164L145.922 1.71815C147.636 1.93222 149.106 2.46391 150.245 3.29172C151.269 4.03554 152.037 4.93848 152.56 6.00322L149.263 7.82386C149.14 7.5364 148.991 7.27063 148.844 7.05041C148.566 6.6332 148.16 6.36312 147.846 6.15404C147.836 6.14752 147.826 6.14107 147.817 6.13467C147.417 5.8686 147.023 5.74071 146.568 5.62624C146.232 5.51556 145.755 5.39235 145.354 5.38503C144.501 5.26905 143.757 5.3925 143.132 5.64244C142.549 5.87539 141.909 6.24287 141.496 6.77673C141.01 7.27049 140.758 7.77278 140.442 8.40503L140.426 8.43636C140.42 8.44876 140.414 8.46141 140.409 8.47428C140.166 9.08268 140.048 9.68308 139.936 10.3541C139.809 11.1146 139.937 11.8563 140.048 12.414C140.169 13.1292 140.411 13.7536 140.791 14.2683C141.174 14.8945 141.678 15.2727 142.108 15.5947L142.129 15.6102C142.143 15.6205 142.157 15.6301 142.172 15.6389C142.774 16.0002 143.389 16.2468 144.124 16.3694C144.151 16.3739 144.179 16.3762 144.206 16.3762H144.208H144.21H144.212H144.214H144.216H144.218H144.22H144.222H144.224H144.226H144.228H144.23H144.232H144.234H144.236H144.238H144.24H144.242H144.243H144.245H144.247H144.249H144.251H144.253H144.255H144.257H144.259H144.261H144.263H144.265H144.267H144.269H144.271H144.273H144.275H144.277H144.279H144.281H144.283H144.285H144.287H144.288H144.29H144.292H144.294H144.296H144.298H144.3H144.302H144.304H144.306H144.308H144.31H144.312H144.314H144.316H144.318H144.32H144.322H144.324H144.326H144.328H144.33H144.332H144.334H144.336H144.337H144.339H144.341H144.343H144.345H144.347H144.349H144.351H144.353H144.355H144.357H144.359H144.361H144.363H144.365H144.367H144.369H144.371H144.373H144.375H144.377H144.379H144.381H144.383H144.385H144.387H144.389H144.391H144.393H144.395H144.397H144.399H144.401H144.403H144.404H144.406H144.408H144.41H144.412H144.414H144.416H144.418H144.42H144.422H144.424H144.426H144.428H144.43H144.432H144.434H144.436H144.438H144.44H144.442H144.444H144.446H144.448H144.45H144.452H144.454H144.456H144.458H144.46H144.462H144.464H144.466H144.468H144.47H144.472H144.474H144.476H144.478H144.48H144.482H144.484H144.486H144.488H144.49H144.492H144.494H144.496H144.498H144.5H144.502H144.504H144.506H144.508H144.51H144.512H144.514H144.516H144.518H144.52H144.522H144.524H144.526H144.528H144.53H144.532H144.534H144.536H144.538H144.54H144.542H144.544H144.546H144.549H144.551H144.553H144.555H144.557H144.559H144.561H144.563H144.565H144.567H144.569H144.571H144.573H144.575H144.577H144.579H144.581H144.583H144.585H144.587H144.589H144.591H144.593H144.595H144.597H144.599H144.602H144.604H144.606H144.608H144.61H144.612H144.614H144.616H144.618H144.62H144.622H144.624H144.626H144.628H144.63H144.632H144.634H144.637H144.639H144.641H144.643H144.645H144.647H144.649H144.651H144.653H144.655H144.657H144.659H144.661H144.664H144.666H144.668H144.67H144.672H144.674H144.676H144.678H144.68H144.682H144.684H144.687H144.689H144.691H144.693H144.695H144.697H144.699H144.701H144.703H144.705H144.708H144.71H144.712H144.714H144.716H144.718H144.72H144.722H144.724H144.727H144.729H144.731H144.733H144.735H144.737H144.739H144.741H144.744H144.746H144.748H144.75H144.752H144.754H144.756H144.759H144.761H144.763H144.765H144.767H144.769H144.771H144.774H144.776H144.778H144.78H144.782H144.784H144.786H144.789H144.791H144.793H144.795H144.797H144.799H144.802H144.804H144.806H144.808H144.81H144.812H144.815H144.817H144.819H144.821H144.823H144.826H144.828H144.83H144.832H144.834H144.836H144.839H144.841H144.843H144.845H144.847H144.85H144.852H144.854H144.856H144.858H144.861H144.863H144.865H144.867H144.869H144.872H144.874H144.876H144.878H144.881H144.883H144.885H144.887H144.889H144.892H144.894H144.896H144.898H144.901H144.903H144.905H144.907H144.91H144.912H144.914H144.916H144.919H144.921H144.923H144.925H144.928H144.93H144.932H144.934H144.937H144.939H144.941H144.944H144.946H144.948H144.95H144.953H144.955H144.957H144.959H144.962H144.964H144.966H144.969H144.971H144.973H144.975H144.978H144.98H144.982H144.985H144.987H144.989H144.992H144.994H144.996H144.999H145.001H145.003H145.005H145.008H145.01H145.012H145.015H145.017H145.019H145.022H145.024H145.026H145.029H145.031H145.033H145.036H145.038H145.041H145.043H145.045H145.048H145.05H145.052H145.055H145.057H145.059H145.062H145.064H145.066H145.069H145.071H145.074H145.076H145.078H145.081H145.083H145.086H145.088H145.09H145.093H145.095H145.098H145.1H145.102H145.105H145.107H145.11H145.112H145.114H145.117H145.119H145.122H145.124H145.126H145.129H145.131H145.134H145.136H145.139H145.141H145.143H145.146H145.148H145.151H145.153H145.156H145.158H145.161H145.163H145.166H145.168H145.17H145.173H145.175H145.178H145.18H145.183H145.185H145.188H145.19H145.193H145.195H145.198H145.2H145.203H145.205H145.208H145.21H145.213H145.215H145.218H145.22H145.223H145.225H145.228H145.23H145.233H145.235H145.238H145.24H145.243H145.245H145.248H145.251H145.253H145.256H145.258H145.261H145.263H145.266H145.268H145.271H145.273H145.276H145.279H145.281H145.284H145.286H145.289H145.291H145.294H145.297H145.299H145.302H145.304H145.307H145.31H145.312H145.315H145.317C145.733 16.3762 146.239 16.2441 146.586 16.1285C146.984 15.9961 147.365 15.7422 147.678 15.5335C147.687 15.5273 147.696 15.5212 147.705 15.5152C147.977 15.3346 148.183 15.1042 148.355 14.8464L151.441 17.225C151.156 17.648 150.768 18.0267 150.355 18.3587C149.684 18.805 149.086 19.1966 148.402 19.3919C148.382 19.3977 148.362 19.4048 148.342 19.4131C147.637 19.7151 146.925 19.8203 146.033 19.9317C145.182 20.0379 144.45 20.0368 143.722 19.9328C143.711 19.9313 143.7 19.9301 143.689 19.9293C142.331 19.8249 141.183 19.4088 140.131 18.7778C139.088 18.1528 138.243 17.3133 137.491 16.3462C136.778 15.431 136.358 14.4055 136.036 13.2379C136.026 13.098 136.016 12.9613 136.006 12.8276C135.908 11.4786 135.832 10.4381 135.927 9.487C136.031 8.44385 136.345 7.3923 136.877 6.33047C137.395 5.29415 138.125 4.45549 138.981 3.70773C139.805 2.98721 140.852 2.45816 142.044 2.025C143.176 1.61373 144.534 1.50495 145.908 1.7162Z" fill="#62CEBB" stroke="#62CEBB" stroke-linejoin="round"/>
<path d="M155.539 21.1482C155.522 21.1482 155.506 21.149 155.489 21.1507C154.587 21.2408 153.492 21.0918 152.266 20.7523L153.236 17.3171C153.763 17.371 154.241 17.3533 154.66 17.2486C155.242 17.1033 155.766 16.6879 156.226 16.229C156.239 16.216 156.251 16.2022 156.262 16.1878C156.747 15.583 157.213 14.7588 157.67 13.6188C157.822 13.2384 158.007 12.8031 158.213 12.3202C158.585 11.448 159.023 10.4206 159.45 9.28067C159.451 9.28013 159.451 9.27958 159.451 9.27903L161.285 4.49357L173.03 7.89082L168.084 25.1365L164.046 23.9708L167.907 10.574C167.944 10.4456 167.928 10.3078 167.863 10.1912C167.797 10.0746 167.688 9.98903 167.559 9.95352L164.337 9.06539C164.079 8.99404 163.81 9.13987 163.728 9.39571L162.956 11.8208C162.066 14.0426 161.304 15.8867 160.551 17.1775C159.776 18.5049 159.041 19.537 158.239 20.1379C157.407 20.7614 156.51 21.1482 155.539 21.1482Z" fill="#62CEBB" stroke="#62CEBB" stroke-linejoin="round"/>
<path d="M186.74 13.761C186.746 13.7638 186.751 13.7666 186.756 13.7692C188.037 14.409 188.973 15.1424 189.696 16.0714C190.451 17.0415 191.076 18.0922 191.386 19.2264C191.704 20.3919 191.809 21.5532 191.703 22.713C191.597 23.8794 191.28 25.0303 190.764 25.9569C190.761 25.9632 190.757 25.9696 190.754 25.9761C190.228 27.0286 189.49 27.9758 188.65 28.7098C187.807 29.4474 186.745 30.0848 185.683 30.5092C184.668 30.915 183.531 31.027 182.23 31.0286C181.286 30.9204 180.022 30.6033 178.862 30.078C177.586 29.4392 176.653 28.7069 175.931 27.78C175.176 26.8095 174.549 25.757 174.24 24.7298C173.924 23.5713 173.816 22.5145 173.814 21.2269C173.922 20.0778 174.236 18.9196 174.66 17.8568C175.186 16.8117 175.92 15.8713 176.754 15.1416C177.598 14.404 178.66 13.7666 179.722 13.3422C180.744 12.9335 181.89 12.8228 183.202 12.8228C184.445 12.8228 185.585 13.1312 186.74 13.761ZM177.935 21.661L177.932 21.6769C177.813 22.3916 177.81 23.0088 177.935 23.6336C178.057 24.2465 178.305 24.8746 178.692 25.3898C179.082 25.91 179.705 26.3992 180.424 26.7581C181.17 27.1311 181.915 27.2549 182.536 27.2549C183.306 27.2549 183.937 27.0008 184.408 26.767C185.05 26.5043 185.551 26.0033 185.969 25.5857C185.979 25.5752 185.989 25.5647 186 25.5544C186.491 25.0634 186.854 24.4618 187.096 23.8686C187.434 23.2874 187.565 22.6155 187.664 22.1122C187.673 22.0625 187.683 22.0145 187.692 21.9683L187.695 21.9524C187.814 21.2378 187.817 20.6206 187.692 19.9958C187.571 19.3897 187.322 18.7427 186.803 18.2113C186.411 17.7017 185.798 17.2237 185.092 16.8712C184.346 16.4983 183.601 16.3745 182.98 16.3745C182.265 16.3745 181.583 16.4919 181.014 16.9184C180.91 16.9965 180.787 17.0819 180.655 17.1744C180.297 17.4248 179.864 17.7271 179.516 18.075C179.468 18.1229 179.43 18.18 179.405 18.2429C179.263 18.597 179.081 18.8828 178.859 19.232C178.764 19.3814 178.662 19.5425 178.552 19.7255C178.198 20.3146 178.063 21.0036 177.963 21.5172C177.953 21.5668 177.944 21.6149 177.935 21.661Z" fill="#62CEBB" stroke="#62CEBB" stroke-linejoin="round"/>
<path d="M204.124 40.6781L204.124 40.678L204.117 40.6875C203.718 41.2857 203.126 41.7661 202.681 41.9439C202.156 42.1539 201.476 42.3389 200.826 42.2462C200.803 42.2429 200.779 42.2412 200.756 42.2412C200.081 42.2412 199.49 42.0515 198.731 41.7265C197.99 41.4094 197.244 40.9842 196.492 40.4477C196.492 40.4474 196.492 40.4472 196.491 40.447L189.343 35.3001L199.758 20.7934L208.239 26.9378C208.251 26.9462 208.263 26.9542 208.276 26.9617C208.639 27.1794 208.875 27.5063 209.154 27.8911C209.218 27.9796 209.284 28.0712 209.355 28.1652C209.591 28.4798 209.699 29.0135 209.699 29.5303C209.699 30.1067 209.693 30.6712 209.513 31.1207C209.291 31.6737 209.085 32.1872 208.781 32.6972C208.274 33.401 207.681 33.8871 207.003 34.1774C206.999 34.1788 206.996 34.1802 206.993 34.1817C206.987 34.1843 206.982 34.187 206.976 34.1898C206.219 34.568 205.449 34.5811 204.477 34.4731C204.279 34.4511 204.087 34.549 203.988 34.7222C203.889 34.8954 203.902 35.1107 204.022 35.2702C204.651 36.1077 205.033 37.0033 205.033 37.8565C205.033 37.875 205.034 37.8934 205.036 37.9118C205.129 38.7488 204.86 39.6273 204.124 40.6781ZM197.498 32.1261C197.392 32.047 197.258 32.0136 197.127 32.0332C196.996 32.0528 196.878 32.1237 196.799 32.2304L194.91 34.7838C194.831 34.8907 194.798 35.0247 194.818 35.1562C194.838 35.2877 194.909 35.4058 195.016 35.4844L198.349 37.9268C198.355 37.9312 198.361 37.9354 198.368 37.9396C198.78 38.2146 199.21 38.3565 199.756 38.3565C199.833 38.3565 199.91 38.3385 199.979 38.3038L199.991 38.2979C200.205 38.191 200.448 38.0698 200.665 37.9303C200.886 37.7884 201.117 37.6052 201.283 37.3569C201.405 37.1733 201.541 36.9408 201.629 36.6926C201.707 36.4744 201.77 36.1873 201.699 35.8949C201.687 35.6119 201.606 35.3673 201.457 35.155C201.308 34.9427 201.111 34.7918 200.933 34.6722L197.498 32.1261ZM201.609 26.353C201.501 26.2732 201.366 26.2401 201.233 26.261C201.101 26.2819 200.982 26.3551 200.905 26.4641L199.238 28.7955C199.079 29.0185 199.129 29.3283 199.35 29.49L202.239 31.5993C202.244 31.6036 202.25 31.6077 202.256 31.6116C202.429 31.7271 202.609 31.8384 202.821 31.9153C203.04 31.9948 203.266 32.0286 203.533 32.0286C204.105 32.0286 204.568 31.6495 204.933 31.1626C205.295 30.6808 205.532 30.168 205.341 29.5941C205.281 29.4157 205.209 29.226 205.088 29.0446C204.965 28.8599 204.806 28.7062 204.599 28.5664L201.609 26.353Z" fill="#62CEBB" stroke="#62CEBB" stroke-linejoin="round"/>
<path d="M160.303 105.687C163.565 100.213 165.451 93.8247 165.476 86.9956C165.549 67.0372 149.441 50.4697 129.488 50.01C108.733 49.5319 91.7588 66.2132 91.7588 86.8588C91.7588 93.7416 93.6494 100.181 96.9354 105.692C98.4641 108.256 98.1041 111.519 96.1241 113.753C86.8191 124.25 81.001 139.2 81.001 155.793C81.001 187.558 102.32 204.434 128.618 204.434C154.916 204.434 176.235 187.558 176.235 155.793C176.235 139.2 170.417 124.25 161.111 113.753C159.129 111.517 158.774 108.253 160.303 105.687Z" fill="#D9D4D4"/>
<path d="M108.977 117.35C110.024 114.51 109.713 111.367 108.181 108.757C100.774 96.136 97.465 75.4235 107.482 56.6603C97.9744 63.3266 91.7578 74.366 91.7578 86.8588C91.7578 93.7416 93.6484 100.181 96.9344 105.692C98.4631 108.256 98.1031 111.519 96.1231 113.753C86.8181 124.25 81 139.2 81 155.793C81 187.558 102.319 204.434 128.617 204.434C132.468 204.434 136.212 204.069 139.799 203.352C92.4328 192.479 100.851 139.393 108.977 117.35Z" fill="#828181"/>
<path d="M128.617 210C121.623 210 106.92 209.275 96.1795 206.558C92.152 205.54 89.7129 201.449 90.7314 197.422C91.7501 193.394 95.8407 190.955 99.8682 191.973C107.969 194.023 120.449 194.956 128.617 194.956C136.784 194.956 149.264 194.022 157.366 191.973C161.394 190.955 165.484 193.394 166.503 197.422C167.521 201.449 165.082 205.54 161.054 206.558C150.314 209.275 135.611 210 128.617 210Z" fill="#62CEBB"/>
<path d="M132.824 209.929C125.813 206.658 124.882 199.324 127.6 194.951C119.442 194.878 107.641 193.94 99.8682 191.974C95.8407 190.955 91.7501 193.394 90.7314 197.422C89.7129 201.449 92.152 205.54 96.1795 206.559C106.92 209.275 121.623 210 128.617 210C129.812 210 131.237 209.978 132.824 209.929Z" fill="#449486"/>
<path d="M165.476 86.9956C165.548 67.0372 149.44 50.4697 129.487 50.01C108.733 49.5319 91.7582 66.2131 91.7582 86.8588C91.7582 93.7416 93.6488 100.181 96.9347 105.692C98.4635 108.256 98.1035 111.519 96.1235 113.753C90.0869 120.563 85.5207 129.248 83.0557 139.038C95.5953 137.107 114.317 131.201 128.617 120.749C142.917 131.201 161.639 137.107 174.179 139.038C171.714 129.248 167.147 120.563 161.111 113.753C159.129 111.518 158.773 108.253 160.303 105.687C163.565 100.213 165.451 93.8247 165.476 86.9956Z" fill="#62CEBB"/>
<path d="M83.0554 139.038C89.1735 138.096 96.7642 136.205 104.594 133.304C105.786 127.163 107.387 121.662 108.977 117.35C110.024 114.51 109.713 111.367 108.181 108.757C100.774 96.136 97.4651 75.4235 107.482 56.6603C97.9748 63.3266 91.7582 74.366 91.7582 86.8588C91.7582 93.7416 93.6489 100.181 96.9348 105.692C98.4635 108.256 98.1035 111.519 96.1235 113.753C90.087 120.563 85.5204 129.248 83.0554 139.038Z" fill="#449486"/>
<path d="M128.617 110.179C141.479 110.179 151.906 99.7524 151.906 86.8903C151.906 74.0283 141.479 63.6016 128.617 63.6016C115.755 63.6016 105.328 74.0283 105.328 86.8903C105.328 99.7524 115.755 110.179 128.617 110.179Z" fill="#D9D4D4"/>
<path d="M151.19 81.1457C148.631 71.0622 139.496 63.6016 128.617 63.6016C117.224 63.6016 107.748 71.785 105.731 82.5928C115.774 82.5703 131.018 80.5135 135.52 75.1413C137.688 78.69 144.399 81.6578 151.19 81.1457Z" fill="#08345B"/>
<path d="M128.617 120.749C131.549 123.681 131.549 128.433 128.617 131.365C123.309 136.673 116.566 138.108 113.912 135.454C111.258 132.8 112.693 126.057 118.001 120.749C120.933 117.818 125.685 117.818 128.617 120.749Z" fill="#0A477D"/>
<path d="M128.617 120.749C125.686 123.681 125.686 128.433 128.617 131.365C133.925 136.673 140.668 138.108 143.322 135.454C145.976 132.8 144.541 126.057 139.233 120.749C136.302 117.818 131.549 117.818 128.617 120.749Z" fill="#0A477D"/>
<path d="M121.226 182.123C125.147 182.623 128.617 179.568 128.617 175.615V164.138L117.702 167.684C113.942 168.906 112.109 173.15 113.796 176.725C115.188 179.675 117.99 181.711 121.226 182.123Z" fill="#0A477D"/>
<path d="M143.438 176.725C145.126 173.15 143.292 168.906 139.533 167.684L128.617 164.138V175.615C128.617 179.568 132.087 182.623 136.008 182.123C139.244 181.711 142.046 179.675 143.438 176.725Z" fill="#62CEBB"/>
<path d="M145.168 153.932C142.29 151.222 137.687 151.655 135.363 154.853L128.617 164.138L139.532 167.684C143.292 168.906 147.27 166.55 148.006 162.666C148.614 159.461 147.544 156.168 145.168 153.932Z" fill="#0A477D"/>
<path d="M112.066 153.932C114.944 151.222 119.547 151.655 121.871 154.853L128.617 164.138L117.702 167.684C113.942 168.906 109.964 166.55 109.228 162.666C108.62 159.461 109.69 156.168 112.066 153.932Z" fill="#62CEBB"/>
<path d="M124.025 145.242C120.558 147.143 119.547 151.654 121.871 154.852L128.617 164.138L135.363 154.852C137.686 151.654 136.675 147.143 133.209 145.242C130.348 143.674 126.885 143.674 124.025 145.242Z" fill="#D8EFED"/>
<path d="M113.528 97.7134C116.603 97.7134 119.095 95.7284 119.095 93.2797C119.095 90.831 116.603 88.8459 113.528 88.8459C110.453 88.8459 107.96 90.831 107.96 93.2797C107.96 95.7284 110.453 97.7134 113.528 97.7134Z" fill="#828181"/>
<path d="M143.706 97.7134C146.781 97.7134 149.274 95.7284 149.274 93.2797C149.274 90.831 146.781 88.8459 143.706 88.8459C140.631 88.8459 138.138 90.831 138.138 93.2797C138.138 95.7284 140.631 97.7134 143.706 97.7134Z" fill="#828181"/>
<path d="M116.772 91.2003C115.478 91.2003 114.428 90.1509 114.428 88.8566V86.8903C114.428 85.5959 115.478 84.5466 116.772 84.5466C118.067 84.5466 119.116 85.5959 119.116 86.8903V88.8566C119.116 90.1509 118.067 91.2003 116.772 91.2003Z" fill="#08345B"/>
<path d="M140.461 91.2003C139.167 91.2003 138.118 90.1509 138.118 88.8566V86.8903C138.118 85.5959 139.167 84.5466 140.461 84.5466C141.756 84.5466 142.805 85.5959 142.805 86.8903V88.8566C142.805 90.1509 141.756 91.2003 140.461 91.2003Z" fill="#08345B"/>
<path d="M128.617 92.71C126.742 92.71 124.96 91.8985 123.727 90.4835C122.877 89.5075 122.978 88.0272 123.954 87.1766C124.93 86.3263 126.411 86.4278 127.261 87.4038C127.608 87.8025 128.09 88.0222 128.617 88.0222C129.143 88.0222 129.625 87.8025 129.972 87.4038C130.822 86.4278 132.303 86.3263 133.279 87.1766C134.255 88.0269 134.356 89.5075 133.506 90.4835C132.273 91.8988 130.491 92.71 128.617 92.71Z" fill="#08345B"/>
<path d="M156.966 162.377C157.781 165.479 160.581 167.533 163.645 167.533C164.227 167.533 164.818 167.459 165.406 167.305C168.839 166.403 172.319 165.369 175.723 164.019C176.058 161.398 176.234 158.657 176.234 155.792C176.234 153.369 176.106 150.983 175.865 148.639C171.944 150.956 167.296 152.517 161.894 153.936C158.203 154.907 155.996 158.685 156.966 162.377Z" fill="#08345B"/>
<path d="M100.268 162.377C99.4524 165.479 96.6527 167.533 93.5884 167.533C93.0071 167.533 92.4162 167.459 91.8277 167.305C88.3946 166.403 84.9149 165.369 81.5109 164.019C81.1762 161.398 81.0002 158.657 81.0002 155.792C81.0002 153.369 81.1277 150.983 81.3687 148.639C85.2896 150.956 89.9377 152.517 95.3399 153.936C99.0312 154.907 101.237 158.685 100.268 162.377Z" fill="#08345B"/>
</svg>
