<svg width="260" height="224" viewBox="0 0 260 224" fill="none" xmlns="http://www.w3.org/2000/svg">
<path d="M249.361 135.28L255.645 137.373L254.277 141.382L236.969 135.616L238.336 131.608L244.965 133.816C245.227 133.903 245.51 133.761 245.598 133.5L247.626 127.418C247.668 127.292 247.659 127.155 247.599 127.036C247.54 126.918 247.436 126.827 247.31 126.786L240.688 124.58L242.055 120.571L259.364 126.336L257.996 130.345L251.705 128.25C251.443 128.162 251.16 128.304 251.073 128.566L249.044 134.647C249.002 134.773 249.012 134.91 249.072 135.029C249.131 135.148 249.235 135.238 249.361 135.28Z" fill="#62CEBB" stroke="#62CEBB" stroke-linejoin="round"/>
<path d="M233.767 149.263C233.981 149.3 234.195 149.195 234.296 149.003L236.663 144.498C236.765 144.304 236.728 144.067 236.574 143.912L234.016 141.356L235.998 137.577L249.249 151.78L247.327 155.428L228.309 152.439L230.295 148.65L233.767 149.263ZM236.907 149.548C236.832 149.687 236.827 149.853 236.895 149.996C236.962 150.139 237.093 150.242 237.247 150.274L243.333 151.513C243.55 151.557 243.769 151.454 243.873 151.259C243.978 151.065 243.943 150.825 243.786 150.669L239.391 146.277C239.279 146.165 239.121 146.113 238.965 146.136C238.808 146.159 238.672 146.255 238.597 146.394L236.907 149.548Z" fill="#62CEBB" stroke="#62CEBB" stroke-linejoin="round"/>
<path d="M235.62 166.165L224.411 157.683L226.963 154.313L241.492 165.309L232.179 177.577L217.649 166.58L220.201 163.21L231.411 171.693C231.63 171.859 231.943 171.816 232.11 171.597L235.716 166.867C235.797 166.762 235.832 166.628 235.814 166.496C235.796 166.365 235.726 166.246 235.62 166.165Z" fill="#62CEBB" stroke="#62CEBB" stroke-linejoin="round"/>
<path d="M209.053 174.934C209.061 174.927 209.068 174.921 209.075 174.914C210.024 173.965 211.194 173.323 212.386 172.89C213.546 172.468 214.711 172.361 215.889 172.468C217.064 172.575 218.249 172.895 219.336 173.327C220.422 173.872 221.368 174.51 222.094 175.34C222.102 175.348 222.109 175.356 222.117 175.364C222.947 176.193 223.48 177.244 223.922 178.35C224.348 179.413 224.557 180.573 224.452 181.722C224.343 182.925 224.126 184.113 223.698 185.295C223.16 186.472 222.524 187.422 221.46 188.378C221.457 188.381 221.454 188.384 221.451 188.387C221.448 188.39 221.444 188.393 221.441 188.396C220.492 189.345 219.322 189.987 218.13 190.42C216.969 190.842 215.805 190.949 214.627 190.842C213.446 190.735 212.267 190.413 211.199 189.88C210.105 189.333 209.152 188.692 208.421 187.858C208.414 187.849 208.406 187.841 208.398 187.833C207.569 187.004 207.036 185.953 206.593 184.848C206.167 183.784 205.959 182.624 206.064 181.475C206.173 180.276 206.389 179.09 206.815 177.911C207.355 176.839 208.103 175.778 209.053 174.934ZM219.039 178.427C219.025 178.408 219.009 178.39 218.992 178.373L218.975 178.356C218.535 177.916 218.047 177.429 217.431 177.059C216.825 176.696 216.208 176.447 215.581 176.322C214.951 176.196 214.306 176.195 213.551 176.441C212.872 176.585 212.234 176.987 211.636 177.585C211.022 178.199 210.647 178.82 210.398 179.442C210.137 180.096 210.137 180.853 210.137 181.392C210.137 181.405 210.137 181.417 210.137 181.43C210.137 181.463 210.14 181.496 210.147 181.528L210.152 181.552C210.262 182.103 210.389 182.739 210.772 183.377L210.787 183.401C211.115 183.947 211.48 184.555 211.974 185.049L211.992 185.067C212.431 185.506 212.919 185.994 213.536 186.363C214.119 186.713 214.758 186.985 215.434 186.997C216.032 187.105 216.627 187.004 217.2 186.907C217.256 186.897 217.312 186.888 217.369 186.878C217.404 186.872 217.439 186.863 217.472 186.849C218.089 186.603 218.694 186.238 219.289 185.762C219.304 185.751 219.317 185.738 219.33 185.725C219.921 185.135 220.315 184.623 220.574 183.854C220.83 183.206 220.829 182.563 220.829 181.922C220.829 181.908 220.829 181.894 220.829 181.88C220.829 181.847 220.826 181.815 220.82 181.782L220.815 181.758C220.705 181.207 220.577 180.571 220.195 179.934C220.006 179.62 219.79 179.344 219.588 179.099C219.523 179.02 219.461 178.946 219.402 178.875C219.269 178.717 219.149 178.574 219.039 178.427Z" fill="#62CEBB" stroke="#62CEBB" stroke-linejoin="round"/>
<path d="M188.056 190.681L193.197 198.815C193.323 199.015 193.572 199.099 193.793 199.017C194.014 198.935 194.148 198.71 194.114 198.476L193.035 191.03L194.852 189.906L201.122 194.011C201.319 194.14 201.579 194.114 201.747 193.949C201.914 193.784 201.944 193.525 201.819 193.326L196.678 185.191L200.338 182.906L210.059 198.279L205.908 200.883L197.836 195.651C197.672 195.545 197.461 195.544 197.296 195.648C197.131 195.753 197.042 195.944 197.069 196.138L198.378 205.729L194.227 208.333L184.503 192.957L188.056 190.681Z" fill="#62CEBB" stroke="#62CEBB" stroke-linejoin="round"/>
<path d="M179.885 203.322C179.807 203.121 179.609 202.993 179.393 203.004C179.178 203.015 178.994 203.163 178.937 203.371L175.398 216.301L172.493 217.39L165.867 200.41L169.896 198.855L173.658 208.306C173.737 208.505 173.934 208.631 174.149 208.62C174.363 208.609 174.546 208.462 174.604 208.256L178.144 195.653L181.054 194.472L187.674 211.439L183.649 212.993L179.885 203.322Z" fill="#62CEBB" stroke="#62CEBB" stroke-linejoin="round"/>
<path d="M162.233 201.612L165.758 219.439L161.558 220.26L160.3 213.769C160.275 213.639 160.199 213.524 160.089 213.45C159.979 213.375 159.844 213.348 159.713 213.374L153.402 214.612C153.131 214.666 152.955 214.928 153.007 215.198L154.265 221.693L150.172 222.511L146.648 204.686L150.852 203.864L152.219 210.696C152.273 210.967 152.535 211.142 152.806 211.089L159.117 209.85C159.249 209.824 159.364 209.747 159.438 209.635C159.512 209.522 159.538 209.385 159.509 209.254L158.039 202.432L162.233 201.612Z" fill="#62CEBB" stroke="#62CEBB" stroke-linejoin="round"/>
<path d="M132.85 208.729C132.921 208.941 133.124 209.081 133.347 209.071L138.418 208.845C138.637 208.836 138.824 208.685 138.88 208.474L139.8 205.001L144.14 204.82L138.585 223.396L134.453 223.492L127.506 205.55L131.73 205.37L132.85 208.729ZM134.436 211.563C134.278 211.568 134.133 211.647 134.042 211.775C133.952 211.904 133.928 212.068 133.977 212.218L135.892 218.074C135.961 218.285 136.161 218.425 136.382 218.418C136.604 218.412 136.794 218.261 136.851 218.046L138.429 212.078C138.469 211.925 138.435 211.762 138.337 211.638C138.238 211.515 138.087 211.445 137.929 211.45L134.436 211.563Z" fill="#62CEBB" stroke="#62CEBB" stroke-linejoin="round"/>
<path d="M112.205 215.489L111.367 221.975L107.175 221.429L109.525 203.388L113.715 203.934L112.769 210.869C112.751 211.001 112.786 211.135 112.868 211.241C112.95 211.347 113.07 211.416 113.203 211.432L119.627 212.221C119.899 212.254 120.146 212.063 120.183 211.792L121.131 204.852L125.326 205.398L122.976 223.44L118.783 222.893L119.62 216.406C119.637 216.274 119.601 216.14 119.519 216.035C119.438 215.93 119.318 215.862 119.185 215.846L112.761 215.057C112.489 215.024 112.24 215.217 112.205 215.489Z" fill="#62CEBB" stroke="#62CEBB" stroke-linejoin="round"/>
<path d="M99.4279 208.722C99.4927 208.516 99.4184 208.292 99.2435 208.166C99.0686 208.039 98.8325 208.04 98.6578 208.166L87.814 216.017L84.8152 215.109L90.263 197.71L94.3804 198.99L91.3735 208.648C91.3097 208.853 91.3837 209.075 91.5574 209.201C91.7311 209.327 91.9657 209.328 92.1406 209.204L102.873 201.575L105.874 202.484L100.426 219.883L96.3106 218.604L99.4279 208.722Z" fill="#62CEBB" stroke="#62CEBB" stroke-linejoin="round"/>
<path d="M65.9265 205.877L74.2563 189.657L77.9969 191.662L75.1764 197.195C75.0534 197.436 75.1448 197.731 75.3826 197.861L76.6223 198.537C76.7779 198.621 76.9667 198.618 77.1187 198.526L83.643 194.615L87.658 196.665L81.0027 200.595C80.8802 200.667 80.7943 200.788 80.7665 200.928C80.7387 201.067 80.7716 201.212 80.857 201.326C81.4885 202.167 81.897 203.096 81.9991 204.116C82.0979 205.104 81.8076 206.126 81.2621 207.33C80.8243 208.093 80.4111 208.7 79.8099 209.201C79.1909 209.716 78.5779 210.023 77.8513 210.23C77.1024 210.444 76.3883 210.541 75.6925 210.441L75.6925 210.441L75.6838 210.44C74.8329 210.334 74.1103 210.125 73.3904 209.714C73.384 209.71 73.3775 209.707 73.371 209.703L65.9265 205.877ZM71.4587 204.287C71.3972 204.406 71.3859 204.544 71.4273 204.672C71.4688 204.799 71.5595 204.904 71.6793 204.964L74.1587 206.203C74.1692 206.208 74.1802 206.214 74.1915 206.219C74.3914 206.32 74.7117 206.481 75.0584 206.481C75.0755 206.481 75.1014 206.483 75.1503 206.491C75.1595 206.492 75.1722 206.494 75.1871 206.497C75.2284 206.504 75.2865 206.513 75.3345 206.519C75.4622 206.535 75.6458 206.546 75.8456 206.476C76.177 206.445 76.4658 206.277 76.7086 206.05C77.0209 205.871 77.3043 205.558 77.4486 205.126C77.4651 205.076 77.4839 205.024 77.5036 204.97C77.5923 204.726 77.6997 204.43 77.6997 204.066C77.6997 204.058 77.6997 204.05 77.6997 204.042C77.7 203.828 77.7004 203.499 77.5341 203.167C77.3849 202.869 77.2213 202.705 77.0075 202.492C77.0016 202.486 76.9956 202.48 76.9896 202.474C76.9516 202.436 76.9077 202.404 76.8597 202.38C76.7777 202.339 76.7162 202.299 76.6316 202.243L76.6267 202.239C76.543 202.183 76.4368 202.113 76.2962 202.042L76.0727 202.49L76.2961 202.042L73.8167 200.804C73.5722 200.681 73.2749 200.778 73.1492 201.021L71.4587 204.287Z" fill="#62CEBB" stroke="#62CEBB" stroke-linejoin="round"/>
<path d="M32.0388 176.271C32.0278 176.264 32.0166 176.258 32.0052 176.253C30.9605 175.731 29.9997 174.885 29.1291 173.797C28.2768 172.733 27.741 171.558 27.4179 170.374C27.1024 169.218 27.1013 167.946 27.3131 166.888L27.3132 166.888L27.3148 166.879C27.5335 165.677 27.856 164.614 28.4912 163.556C29.1354 162.483 29.8858 161.624 30.7475 160.869C31.7088 160.124 32.7759 159.592 33.8412 159.272C34.8996 158.955 36.1872 158.846 37.3715 158.954C38.5519 159.061 39.7158 159.381 40.766 160.011C41.8393 160.654 42.6965 161.402 43.563 162.484C44.4153 163.549 44.9511 164.724 45.2742 165.907C45.588 167.057 45.5941 168.221 45.486 169.425C45.2674 170.618 44.945 171.675 44.3136 172.726C43.6694 173.799 42.919 174.658 42.0573 175.413C41.0978 176.156 40.0329 176.688 38.9697 177.007C37.7876 177.329 36.6098 177.435 35.4333 177.328C34.2529 177.221 33.089 176.901 32.0388 176.271ZM40.813 170.634C40.842 170.605 40.8672 170.573 40.8883 170.538C41.2411 169.95 41.4836 169.467 41.7228 168.75C41.7294 168.73 41.7347 168.71 41.7388 168.689C41.8655 168.057 41.8625 167.431 41.7417 166.707L41.7388 166.691C41.6069 166.032 41.2255 165.285 40.7372 164.675C40.2461 164.062 39.6165 163.549 38.9547 163.284C38.3309 163.035 37.7043 162.911 36.9659 162.911C36.3289 162.911 35.6943 163.04 34.9578 163.405C34.3586 163.647 33.75 164.01 33.2513 164.502C32.8564 164.82 32.5391 165.165 32.2546 165.475C32.1239 165.617 32.0002 165.752 31.8791 165.873C31.8501 165.902 31.8249 165.934 31.8038 165.969C31.451 166.556 31.2085 167.04 30.9693 167.757C30.9627 167.777 30.9574 167.797 30.9533 167.817C30.8267 168.45 30.8296 169.075 30.9504 169.8L30.9533 169.816C31.0852 170.475 31.4666 171.222 31.9549 171.832C32.446 172.445 33.0756 172.958 33.7374 173.223C34.3612 173.472 34.9878 173.596 35.7262 173.596C36.346 173.596 37.0861 173.474 37.715 173.223C37.7778 173.197 37.8349 173.16 37.8828 173.112C38.0658 172.929 38.2781 172.785 38.5429 172.618C38.5771 172.596 38.6123 172.574 38.6484 172.552C38.8819 172.406 39.1517 172.237 39.4194 172.023C39.8243 171.699 40.1479 171.347 40.4375 171.032C40.5682 170.89 40.6919 170.755 40.813 170.634Z" fill="#62CEBB" stroke="#62CEBB" stroke-linejoin="round"/>
<path d="M13.7908 116.999C14.3871 116.304 15.0811 115.897 16.1358 115.579C16.9466 115.378 17.6564 115.375 18.3783 115.475C19.0863 115.681 19.7003 115.986 20.3246 116.399C20.9334 116.91 21.3377 117.415 21.7548 118.249C21.759 118.257 21.7633 118.265 21.7679 118.273C22.1897 119.011 22.5135 119.865 22.8471 120.864C23.1802 122.31 23.3863 123.588 23.2818 124.737C23.1841 125.811 23.001 126.87 22.5815 128L19.0368 126.938C19.2783 126.283 19.4469 125.626 19.5413 124.966C19.6609 124.13 19.6635 123.16 19.3073 122.07C19.1635 121.27 18.7475 120.724 18.2192 120.328C17.9502 120.126 17.6515 119.97 17.2971 119.911C16.9435 119.852 16.5775 119.897 16.1835 120.028C16.1611 120.036 16.1392 120.045 16.1181 120.056C16.0707 120.079 16.0435 120.088 15.9976 120.103C15.9603 120.114 15.9107 120.13 15.828 120.161C15.6897 120.213 15.5288 120.29 15.368 120.434C15.0396 120.631 14.877 120.959 14.7836 121.147C14.778 121.159 14.7726 121.17 14.7674 121.18L14.7607 121.193C14.6465 121.421 14.4891 121.736 14.4891 122.192V122.2C14.4891 122.541 14.4891 122.929 14.6168 123.44L14.6168 123.44L14.618 123.445L15.1686 125.553L12.7528 126.197L12.3178 124.545C12.0762 123.581 11.7022 122.931 11.2853 122.514C10.804 122.033 10.1708 121.902 9.48152 122.04C9.47375 122.041 9.46601 122.043 9.45832 122.045C8.9575 122.17 8.43596 122.45 8.22641 122.984C7.90968 123.515 7.97237 124.242 8.20012 124.93C8.43468 125.747 8.79509 126.602 9.30189 127.235C9.70135 127.734 10.2554 128.224 10.8068 128.688L8.78414 131.324C7.86048 130.712 7.02979 129.943 6.36766 129.093C5.63659 128.153 5.09565 126.875 4.65171 125.436C4.43743 124.576 4.33179 123.72 4.33179 122.98C4.33179 122.219 4.44424 121.543 4.71125 121.098C4.73004 121.067 4.74534 121.033 4.75689 120.999C4.94461 120.436 5.32638 119.948 5.8345 119.542C6.33783 119.14 6.94993 118.83 7.68037 118.621C7.76579 118.599 7.84412 118.579 7.91722 118.56C8.25849 118.472 8.48602 118.413 8.79061 118.413C9.24205 118.413 9.52436 118.414 9.90913 118.51C10.1796 118.578 10.3798 118.685 10.6591 118.834C10.772 118.894 10.8979 118.961 11.0465 119.036C11.3712 119.198 11.6396 119.538 11.9971 120.015C12.1263 120.187 12.3511 120.257 12.5552 120.189C12.7593 120.121 12.897 119.93 12.897 119.714C12.897 118.571 13.2068 117.68 13.7908 116.999Z" fill="#62CEBB" stroke="#62CEBB" stroke-linejoin="round"/>
<path d="M15.8032 102.251C15.6026 102.338 15.4824 102.547 15.5066 102.764L16.0701 107.832C16.0946 108.053 16.2616 108.231 16.4802 108.269L19.9415 108.88L20.3915 113.106L1.69434 108.942L1.21513 104.92L18.6241 96.5953L19.074 100.821L15.8032 102.251ZM13.1202 103.9C13.1049 103.742 13.016 103.601 12.8804 103.519C12.7448 103.438 12.5786 103.425 12.4323 103.485L6.68454 105.85C6.47952 105.935 6.35454 106.144 6.37748 106.364C6.40043 106.585 6.56583 106.764 6.78381 106.804L12.8696 107.931C13.024 107.959 13.1829 107.914 13.2986 107.807C13.4143 107.701 13.4734 107.547 13.4583 107.391L13.1202 103.9Z" fill="#62CEBB" stroke="#62CEBB" stroke-linejoin="round"/>
<path d="M19.4274 78.4058L19.2444 82.7039L12.194 82.3884C11.9197 82.3761 11.6868 82.5874 11.6723 82.8616L11.3342 89.2809C11.3272 89.414 11.3737 89.5444 11.4632 89.6431C11.5528 89.7419 11.678 89.8007 11.8112 89.8067L18.8637 90.1223L18.681 94.4122L0.520602 93.4514L0.70357 89.1548L7.30177 89.4688C7.57661 89.4819 7.81037 89.2704 7.82484 88.9957L8.16294 82.5763C8.16994 82.4435 8.12369 82.3133 8.03444 82.2146C7.94519 82.116 7.82029 82.0569 7.6874 82.0506L1.08422 81.7364L1.26696 77.4451L19.4274 78.4058Z" fill="#62CEBB" stroke="#62CEBB" stroke-linejoin="round"/>
<path d="M22.968 60.8583L22.1501 64.9448L16.1127 63.5925C15.8479 63.5332 15.5842 63.6959 15.5183 63.9591L15.1802 65.3105C15.1372 65.4827 15.1886 65.6649 15.3155 65.7891L20.7514 71.1125L19.7718 75.4731L14.3282 70.0334C14.2257 69.931 14.0839 69.8781 13.9393 69.8884C13.7948 69.8986 13.6619 69.9711 13.5749 70.087C12.9569 70.9104 12.142 71.5183 11.1264 71.8227L11.112 71.8273C10.1824 72.1369 9.03959 72.2427 7.78474 71.9292C6.93084 71.7159 6.19627 71.3991 5.57406 70.9846L5.29685 71.4007L5.57406 70.9846C4.95278 70.5707 4.43643 70.0547 4.02227 69.4339C3.62775 68.8426 3.41911 68.1347 3.3124 67.3883C3.20692 66.6504 3.20852 65.8162 3.41519 64.9901L3.41534 64.9902L3.41806 64.978L5.22486 56.9063L22.968 60.8583ZM8.21235 61.9008C7.94315 61.847 7.68091 62.0203 7.62488 62.2891L7.06138 64.992C7.05438 65.0255 7.05086 65.0597 7.05086 65.094C7.05086 65.1343 7.04057 65.1862 7.00946 65.3105C7.00818 65.3156 7.00686 65.3209 7.00549 65.3263C6.9797 65.4289 6.93816 65.5941 6.93816 65.7697C6.93816 65.7778 6.93815 65.7861 6.93814 65.7946C6.93786 66.0084 6.93744 66.3369 7.10371 66.6692C7.25293 66.9674 7.41649 67.1308 7.63027 67.3443C7.63622 67.3502 7.64221 67.3562 7.64823 67.3622C7.68624 67.4002 7.73012 67.4318 7.77818 67.4558C7.80851 67.471 7.84476 67.493 7.90417 67.5308C7.90969 67.5343 7.91545 67.5379 7.92143 67.5418C7.97273 67.5745 8.03995 67.6173 8.11116 67.6568C8.25984 67.7394 8.45801 67.8266 8.70474 67.8435C9.09972 67.9603 9.55224 67.9753 9.91565 67.7937C9.94353 67.7797 9.97622 67.7669 10.0266 67.749C10.0334 67.7466 10.0413 67.7438 10.0499 67.7408C10.0932 67.7257 10.1558 67.7038 10.213 67.6793C10.3401 67.6249 10.4924 67.5372 10.614 67.376C10.9019 67.1772 11.05 66.8783 11.1374 66.7019C11.143 66.6905 11.1484 66.6795 11.1536 66.6692C11.1589 66.6586 11.1644 66.6477 11.1701 66.6363C11.2649 66.448 11.4137 66.1524 11.4303 65.8286L11.9848 63.1689C12.0121 63.0384 11.986 62.9024 11.9125 62.7912C11.839 62.6799 11.7241 62.6027 11.5934 62.5766L8.21235 61.9008Z" fill="#62CEBB" stroke="#62CEBB" stroke-linejoin="round"/>
<path d="M6.73249 51.9731L12.3423 37.5885L15.694 38.9106L13.8472 43.6266C13.7988 43.7504 13.8016 43.8883 13.855 44.0099C13.9084 44.1316 14.008 44.227 14.1319 44.2751L27.3032 49.3875L25.7479 53.41L12.5778 48.2981C12.321 48.1984 12.0318 48.3253 11.9313 48.5819L10.0855 53.2957L6.73249 51.9731Z" fill="#62CEBB" stroke="#62CEBB" stroke-linejoin="round"/>
<path d="M25.7843 34.4443C25.9702 34.5514 26.2037 34.528 26.3646 34.386C26.5255 34.2441 26.5779 34.0153 26.4949 33.8175L21.2948 21.4348L22.8315 18.8153L38.5307 27.9933L36.3408 31.6406L27.526 26.4844C27.341 26.3762 27.1076 26.398 26.9457 26.5385C26.7839 26.679 26.7296 26.9071 26.8108 27.1055L31.7874 39.2617L30.1422 42.0017L14.4386 32.8212L16.6302 29.1711L25.7843 34.4443Z" fill="#62CEBB" stroke="#62CEBB" stroke-linejoin="round"/>
<path d="M37.6561 16.598C37.8203 16.7376 38.0553 16.7564 38.2395 16.6446C38.4237 16.5328 38.5156 16.3156 38.4675 16.1056L35.4804 3.06032L37.4726 0.707585L51.2556 12.5588L48.5126 15.848L40.7826 9.30366C40.6192 9.16534 40.3859 9.14637 40.2023 9.2565C40.0187 9.36663 39.9256 9.58141 39.9708 9.79068L42.7349 22.6072L40.6385 24.9754L26.9575 13.1199L29.7009 9.83019L37.6561 16.598Z" fill="#62CEBB" stroke="#62CEBB" stroke-linejoin="round"/>
<path d="M147.547 151.378C147.547 160.547 140.114 167.982 130.943 167.982C121.774 167.982 114.339 160.547 114.339 151.378C114.339 142.207 121.774 134.774 130.943 134.774C140.114 134.774 147.547 142.207 147.547 151.378Z" fill="#449486"/>
<path d="M130.943 171C120.124 171 111.322 162.197 111.322 151.378C111.322 140.558 120.124 131.755 130.943 131.755C141.764 131.755 150.567 140.558 150.567 151.378C150.567 162.197 141.764 171 130.943 171ZM130.943 137.794C123.453 137.794 117.359 143.887 117.359 151.378C117.359 158.87 123.453 164.963 130.943 164.963C138.435 164.963 144.529 158.87 144.529 151.378C144.529 143.887 138.435 137.794 130.943 137.794Z" fill="#08345B"/>
<path d="M138.49 41.19H117.359C115.69 41.19 114.339 39.8375 114.339 38.1705V24.5861C114.339 17.0943 120.433 11 127.925 11C135.415 11 141.51 17.0943 141.51 24.5861V38.1705C141.51 39.8375 140.159 41.19 138.49 41.19ZM120.378 35.151H135.472V24.5861C135.472 20.423 132.088 17.0373 127.925 17.0373C123.762 17.0373 120.378 20.423 120.378 24.5861V35.151Z" fill="#08345B"/>
<path d="M188.302 131.755H183.774V83.4529C183.774 53.4426 159.446 29.1137 129.433 29.1137C99.423 29.1137 75.0941 53.4426 75.0941 83.4529V131.755H70.5666C64.7314 131.755 60 136.486 60 142.322C60 148.157 64.7314 152.888 70.5666 152.888H188.302C194.137 152.888 198.869 148.157 198.869 142.322C198.869 136.486 194.137 131.755 188.302 131.755Z" fill="#62CEBB"/>
<path d="M210.313 74.3961C210.313 89.0532 198.43 100.934 183.774 100.934C169.117 100.934 157.236 89.0532 157.236 74.3961C157.236 59.7407 169.117 47.8578 183.774 47.8578C198.43 47.8578 210.313 59.7407 210.313 74.3961Z" fill="#D9D4D4"/>
<path d="M183.775 103.954C167.476 103.954 154.217 90.6942 154.217 74.3961C154.217 58.0997 167.476 44.84 183.775 44.84C200.071 44.84 213.332 58.0997 213.332 74.3961C213.332 90.6942 200.071 103.954 183.775 103.954ZM183.775 50.8791C170.805 50.8791 160.254 61.4284 160.254 74.3961C160.254 87.3655 170.805 97.9148 183.775 97.9148C196.744 97.9148 207.293 87.3655 207.293 74.3961C207.293 61.4284 196.744 50.8791 183.775 50.8791Z" fill="#08345B"/>
<path d="M175.695 85.4913C174.925 85.4913 174.151 85.1976 173.562 84.6068C172.382 83.4287 172.382 81.5165 173.562 80.3384L180.755 73.1472V62.8587C180.755 61.19 182.106 59.8392 183.775 59.8392C185.443 59.8392 186.792 61.19 186.792 62.8587V74.3961C186.792 75.1976 186.475 75.9646 185.908 76.5312L177.831 84.6068C177.242 85.1976 176.468 85.4913 175.695 85.4913Z" fill="#08345B"/>
<path d="M138.49 134.774H132.453C130.784 134.774 129.434 133.422 129.434 131.755C129.434 130.088 130.784 128.737 132.453 128.737H138.49C140.159 128.737 141.51 130.088 141.51 131.755C141.51 133.422 140.159 134.774 138.49 134.774Z" fill="#08345B"/>
<path d="M121.384 134.774H90.1884C88.5198 134.774 87.1707 133.422 87.1707 131.755C87.1707 130.088 88.5198 128.737 90.1884 128.737H121.384C123.053 128.737 124.402 130.088 124.402 131.755C124.402 133.422 123.053 134.774 121.384 134.774Z" fill="#08345B"/>
<path d="M78.5784 81.5959V94.0489C89.4075 99.7269 105.778 94.5256 117.39 80.9499C130.416 65.721 132.5 45.7607 122.042 36.3671C120.748 35.2028 119.319 34.2596 117.789 33.522C95.5018 37.635 78.5784 57.5693 78.5784 81.5959Z" fill="#D8EFED"/>
</svg>
