<svg width="260" height="262" viewBox="0 0 260 262" fill="none" xmlns="http://www.w3.org/2000/svg">
<path d="M245.328 71.1923L251.288 84.4714L248.073 85.8618L246.149 81.509C246.096 81.3871 245.995 81.2917 245.871 81.2441C245.746 81.1965 245.608 81.2005 245.486 81.2553L233.316 86.7483L231.706 83.081L243.886 77.5838C244.136 77.4709 244.248 77.1772 244.137 76.926L242.215 72.5758L245.328 71.1923Z" fill="#62CEBB" stroke="#62CEBB" stroke-linejoin="round"/>
<path d="M240.409 97.0631L242.715 104.4L239.436 105.349L236.03 93.787L252.618 88.9268L255.915 100.261L252.625 101.213L250.531 94.1992C250.453 93.939 250.182 93.7884 249.92 93.8598L247.461 94.5305C247.331 94.5659 247.221 94.6523 247.156 94.77C247.09 94.8876 247.075 95.0268 247.113 95.1558L248.869 101.043L245.918 101.886L244.159 95.9878C244.081 95.7263 243.808 95.5756 243.545 95.6492L240.751 96.4317C240.621 96.4681 240.511 96.5559 240.446 96.6749C240.382 96.7939 240.368 96.9339 240.409 97.0631Z" fill="#62CEBB" stroke="#62CEBB" stroke-linejoin="round"/>
<path d="M251.337 110.612C251.084 110.641 250.893 110.855 250.893 111.109V111.445C250.893 111.63 250.995 111.8 251.159 111.886L258.534 115.791L259.143 120.142L250.403 115.365C250.206 115.258 249.962 115.294 249.805 115.455L242.243 123.222L241.639 118.993L247.394 113.021C247.501 112.91 247.55 112.756 247.529 112.603L247.417 111.821C247.398 111.689 247.327 111.57 247.22 111.491C247.114 111.411 246.979 111.377 246.848 111.397L240.642 112.328L240.107 108.404L257.225 105.974L257.759 109.887L251.337 110.612Z" fill="#62CEBB" stroke="#62CEBB" stroke-linejoin="round"/>
<path d="M254.096 124.868C254.102 124.87 254.108 124.873 254.113 124.875C255.154 125.292 255.998 125.92 256.876 126.688C257.701 127.409 258.326 128.342 258.748 129.5C258.754 129.518 258.762 129.536 258.77 129.553C259.283 130.578 259.5 131.834 259.5 133.242C259.5 134.928 259.083 136.299 258.446 137.578C257.778 138.624 257.055 139.452 256.14 139.974L254.058 136.938C254.305 136.801 254.523 136.627 254.731 136.423C255.126 136.145 255.39 135.754 255.533 135.364C255.763 135.004 255.899 134.62 255.915 134.217C256.029 133.83 256.029 133.447 256.029 133.057C256.029 133.044 256.029 133.031 256.029 133.018C256.029 132.312 255.914 131.553 255.531 130.895C255.254 130.232 254.735 129.73 254.264 129.376C253.763 129.001 253.152 128.757 252.615 128.542L252.585 128.53C251.936 128.27 251.294 128.27 250.754 128.27C250.743 128.27 250.733 128.27 250.722 128.27C250.002 128.27 249.402 128.39 248.849 128.501L248.836 128.504C248.167 128.638 247.536 129.026 247.069 129.376C246.546 129.769 246.17 130.28 245.822 130.861C245.808 130.883 245.797 130.907 245.787 130.932C245.783 130.941 245.779 130.95 245.776 130.959C245.558 131.503 245.304 132.139 245.304 132.906C245.304 132.915 245.304 132.924 245.304 132.932C245.304 133.252 245.304 133.657 245.441 134.07L245.777 135.076C245.791 135.119 245.81 135.159 245.835 135.196L245.852 135.222C246.063 135.537 246.309 135.907 246.568 136.166C246.726 136.324 246.941 136.463 247.121 136.574C247.162 136.599 247.203 136.624 247.241 136.647L245.286 139.848C244.823 139.593 244.428 139.319 244.034 138.924C243.52 138.411 243.102 137.787 242.786 137.154C242.477 136.537 242.264 135.801 242.041 134.909C241.834 134.08 241.833 133.463 241.833 132.683C241.833 131.428 242.146 130.274 242.674 129.218C243.204 128.157 243.947 127.203 244.792 126.464C245.655 125.709 246.597 125.088 247.618 124.78C248.823 124.452 250.003 124.24 251.057 124.24C252.11 124.24 253.158 124.451 254.096 124.868Z" fill="#62CEBB" stroke="#62CEBB" stroke-linejoin="round"/>
<path d="M258.983 143.72L256.787 158.045L253.416 157.527L254.123 152.878C254.164 152.606 253.978 152.351 253.705 152.309L240.452 150.262L241.078 146.331L254.335 148.379C254.466 148.399 254.601 148.366 254.708 148.287C254.815 148.208 254.886 148.09 254.906 147.958L255.614 143.202L258.983 143.72Z" fill="#62CEBB" stroke="#62CEBB" stroke-linejoin="round"/>
<path d="M249.212 165.186C248.953 165.095 248.668 165.23 248.575 165.488L247.569 168.283L247.569 168.283L247.565 168.294C247.249 169.244 246.831 169.971 246.314 170.591C245.766 171.249 245.261 171.741 244.686 172.029C244.082 172.331 243.366 172.54 242.639 172.647C241.913 172.644 241.089 172.539 240.372 172.336C238.664 171.693 237.462 170.759 236.868 169.472C236.264 168.164 236.249 166.628 236.883 164.939L236.887 164.926L239.407 157.576L255.783 163.281L254.443 167.033L249.212 165.186ZM241.723 162.615C241.596 162.571 241.457 162.579 241.337 162.638C241.216 162.697 241.124 162.802 241.082 162.929L240.3 165.276C240.052 166.02 240.023 166.615 240.327 167.223C240.625 167.819 241.195 168.22 241.818 168.469C242.141 168.599 242.456 168.673 242.786 168.673C243.115 168.673 243.431 168.599 243.754 168.469C243.767 168.464 243.78 168.459 243.792 168.452C244.291 168.203 244.898 167.773 245.06 166.899L245.831 164.586C245.917 164.328 245.78 164.047 245.523 163.957L241.723 162.615ZM232.584 177.422L233.925 173.669L250.193 179.268L248.853 183.021L232.584 177.422Z" fill="#62CEBB" stroke="#62CEBB" stroke-linejoin="round"/>
<path d="M226.839 179.187L229.494 181.463C229.611 181.563 229.767 181.604 229.918 181.573C230.069 181.543 230.198 181.445 230.267 181.307L230.714 180.413L234.067 182.089L232.726 184.772L228.998 182.908L226.298 180.208L226.839 179.187Z" fill="#62CEBB" stroke="#62CEBB" stroke-linejoin="round"/>
<path d="M225.048 205.275C224.235 205.885 223.433 206.188 222.526 206.293C221.646 206.287 220.744 205.991 219.813 205.371C219.235 204.986 218.846 204.508 218.545 203.918C218.319 203.237 218.154 202.698 218.24 202.18C218.245 202.153 218.247 202.126 218.247 202.098C218.247 201.526 218.442 200.816 218.766 200.059C218.996 199.522 219.275 199.052 219.589 198.525C219.707 198.327 219.83 198.12 219.957 197.898L224.901 191.06L238.849 201.205L232.99 209.408C232.982 209.419 232.975 209.43 232.968 209.442C232.697 209.894 232.342 210.163 231.869 210.353C231.289 210.585 230.823 210.764 230.378 210.764C229.807 210.764 229.344 210.759 228.887 210.576C228.314 210.347 227.821 210.146 227.437 209.858C227.429 209.852 227.422 209.847 227.414 209.842C226.831 209.453 226.339 208.867 226.04 208.07C226.037 208.063 226.034 208.056 226.031 208.049C225.734 207.356 225.639 206.573 225.833 205.796C225.885 205.591 225.801 205.376 225.625 205.258C225.449 205.141 225.218 205.148 225.048 205.275ZM225.702 202.452C225.72 202.434 225.736 202.414 225.751 202.394L228.211 199.04C228.289 198.933 228.322 198.799 228.301 198.668C228.281 198.536 228.209 198.418 228.102 198.34L225.642 196.552C225.535 196.474 225.401 196.442 225.27 196.462C225.139 196.483 225.021 196.555 224.943 196.663L222.596 199.905C222.592 199.91 222.588 199.915 222.585 199.92C222.308 200.335 222.166 200.767 222.166 201.316C222.166 201.632 222.248 201.916 222.443 202.159C222.616 202.376 222.851 202.524 223.086 202.644C223.508 202.916 224.04 203.045 224.454 203.045C224.989 203.045 225.446 202.708 225.702 202.452ZM233.584 202.942C233.737 202.721 233.688 202.418 233.473 202.257L231.237 200.58C231.13 200.5 230.995 200.466 230.862 200.486C230.729 200.506 230.61 200.579 230.532 200.688L228.541 203.453C228.224 203.789 228.09 204.248 228.09 204.669C228.09 205.243 228.471 205.708 228.961 206.075C229.445 206.439 229.96 206.677 230.536 206.485C230.912 206.359 231.216 206.216 231.514 205.917C231.536 205.896 231.555 205.872 231.572 205.848L233.584 202.942Z" fill="#62CEBB" stroke="#62CEBB" stroke-linejoin="round"/>
<path d="M216.978 212.917C216.824 212.768 216.592 212.733 216.401 212.831C216.211 212.929 216.103 213.137 216.135 213.349L217.998 225.955L215.96 227.993L203.81 215.737L206.681 212.865L213.481 219.666C213.633 219.817 213.864 219.855 214.056 219.76C214.248 219.666 214.359 219.459 214.331 219.246L212.686 206.86L214.839 204.707L226.99 216.963L224.113 219.84L216.978 212.917Z" fill="#62CEBB" stroke="#62CEBB" stroke-linejoin="round"/>
<path d="M208.144 234.366L198.534 241.083L190.883 230.093C190.727 229.867 190.417 229.811 190.191 229.966L188.476 231.139L184.128 224.914L187.334 222.688L189.506 225.749C189.666 225.974 189.976 226.027 190.202 225.869L198.473 220.057C198.582 219.98 198.656 219.863 198.679 219.732C198.701 219.601 198.671 219.467 198.594 219.358L196.427 216.305L199.622 214.086L203.875 220.317L203.373 220.693C202.927 220.995 202.643 221.441 202.507 221.985C202.357 222.585 202.517 223.267 202.742 223.941C202.974 224.638 203.319 225.442 203.765 226.446C204.081 227.156 204.509 227.929 204.996 228.807C205.215 229.201 205.445 229.616 205.682 230.057L205.682 230.057L205.688 230.068L208.144 234.366ZM194.21 227.063C193.984 227.222 193.929 227.533 194.088 227.759L199.565 235.583C199.641 235.692 199.758 235.767 199.889 235.789C200.02 235.812 200.155 235.782 200.263 235.705L202.946 233.804C203.157 233.655 203.219 233.37 203.09 233.146L201.86 231.022L201.859 231.021C201.092 229.705 200.544 228.499 200.103 227.398C199.662 226.295 199.335 225.311 199.118 224.445C199.078 224.285 198.962 224.155 198.808 224.097C198.653 224.04 198.48 224.062 198.346 224.157L194.21 227.063Z" fill="#62CEBB" stroke="#62CEBB" stroke-linejoin="round"/>
<path d="M174.83 237.644L173.368 234.634L184.207 229.369L191.815 244.903L181.203 250.054L179.737 247.036L186.225 243.792C186.469 243.67 186.57 243.376 186.453 243.13L185.335 240.782C185.278 240.662 185.175 240.569 185.048 240.525C184.922 240.481 184.784 240.49 184.664 240.548L179.19 243.234L177.838 240.445L183.316 237.758C183.562 237.637 183.665 237.34 183.547 237.093L182.317 234.522C182.259 234.401 182.156 234.309 182.03 234.265C181.903 234.222 181.765 234.23 181.645 234.289L174.83 237.644Z" fill="#62CEBB" stroke="#62CEBB" stroke-linejoin="round"/>
<path d="M174.55 246.984L174.549 246.988C174.443 248.154 174.127 249.203 173.604 250.144C173.057 251.129 172.426 252.066 171.499 252.787C171.491 252.793 171.484 252.799 171.477 252.805C170.631 253.545 169.582 254.172 168.331 254.485C168.319 254.488 168.306 254.492 168.294 254.496C167.021 254.92 165.877 255.02 164.741 254.813C163.544 254.596 162.484 254.274 161.541 253.75C160.597 253.226 159.747 252.485 158.992 251.623C158.265 250.792 157.736 249.741 157.416 248.783C157.101 247.73 156.996 246.569 157.101 245.518L157.102 245.514C157.208 244.349 157.524 243.299 158.047 242.358C158.594 241.373 159.225 240.437 160.152 239.715C160.161 239.709 160.169 239.702 160.177 239.694C161.119 238.858 162.171 238.327 163.363 237.893C164.634 237.47 165.776 237.371 166.91 237.577C168.107 237.795 169.167 238.116 170.11 238.64C171.054 239.164 171.904 239.905 172.659 240.768C173.386 241.598 173.914 242.649 174.233 243.712C174.549 244.767 174.655 245.93 174.55 246.984ZM162.323 249.415C162.332 249.429 162.341 249.444 162.352 249.457C162.715 249.942 163.196 250.423 163.681 250.787C164.199 251.176 164.831 251.425 165.448 251.548C166.098 251.678 166.846 251.553 167.478 251.448C167.495 251.445 167.512 251.442 167.529 251.439C167.554 251.435 167.58 251.428 167.604 251.42C168.338 251.176 168.945 250.811 169.423 250.452C169.442 250.437 169.46 250.422 169.477 250.405C169.993 249.889 170.247 249.37 170.482 248.784C170.719 248.191 170.862 247.545 170.741 246.874C170.735 246.168 170.616 245.451 170.37 244.836L170.364 244.822C170.144 244.271 169.908 243.681 169.552 243.088C169.166 242.444 168.652 242.059 168.214 241.731L168.193 241.715C167.675 241.327 167.043 241.078 166.427 240.954C165.777 240.824 165.029 240.949 164.397 241.055C164.38 241.058 164.363 241.06 164.346 241.063C163.514 241.202 162.861 241.746 162.398 242.209C161.881 242.725 161.627 243.244 161.393 243.83C161.134 244.479 161.134 245.121 161.134 245.661C161.134 245.671 161.134 245.682 161.134 245.692C161.134 246.307 161.255 247.042 161.505 247.666L161.51 247.68C161.731 248.231 161.967 248.821 162.323 249.415Z" fill="#62CEBB" stroke="#62CEBB" stroke-linejoin="round"/>
<path d="M151.168 237.042L151.074 240.537C151.07 240.685 151.132 240.827 151.243 240.925C151.354 241.023 151.503 241.067 151.649 241.044L152.626 240.894L153.337 244.628L150.405 245.215L149.62 241.095L150.123 237.274L151.168 237.042Z" fill="#62CEBB" stroke="#62CEBB" stroke-linejoin="round"/>
<path d="M136.983 256.519L136.552 243.163L140.582 243.073L141.11 260.185L126.46 260.604L125.932 243.386L129.963 243.297L130.394 256.663C130.403 256.936 130.63 257.152 130.904 257.147L136.493 257.035C136.627 257.032 136.754 256.976 136.846 256.879C136.938 256.782 136.987 256.652 136.983 256.519Z" fill="#62CEBB" stroke="#62CEBB" stroke-linejoin="round"/>
<mask id="path-15-inside-1" fill="white">
<path d="M114.798 241.556C116.139 241.78 117.369 242.227 118.487 242.898C119.493 243.568 120.387 244.351 121.058 245.357C121.728 246.363 122.175 247.369 122.511 248.598C122.846 249.716 122.846 250.946 122.734 252.064C122.623 253.293 122.176 254.411 121.617 255.417C121.058 256.423 120.275 257.317 119.269 258.1C118.375 258.882 117.257 259.329 116.028 259.665C114.798 260 113.568 260.112 112.227 259.888C110.886 259.665 109.656 259.218 108.538 258.547C107.421 257.876 106.638 257.094 105.967 256.088C105.297 255.082 104.85 254.076 104.514 252.846C104.179 251.728 104.179 250.499 104.291 249.381C104.403 248.151 104.85 247.034 105.409 246.028C105.967 245.022 106.75 244.127 107.756 243.345C108.65 242.562 109.768 242.115 110.998 241.668C112.227 241.221 113.457 241.333 114.798 241.556ZM117.704 251.281C117.816 250.722 117.816 250.052 117.704 249.493C117.593 248.934 117.481 248.375 117.145 247.928C116.81 247.481 116.475 247.034 116.028 246.698C115.58 246.363 114.91 246.139 114.239 246.028C113.568 245.916 112.898 246.028 112.339 246.251C111.78 246.475 111.333 246.81 110.886 247.145C110.439 247.592 110.215 248.04 109.991 248.598C109.768 249.157 109.544 249.716 109.544 250.275C109.433 250.834 109.433 251.505 109.544 252.064C109.656 252.623 109.88 253.181 110.103 253.629C110.439 254.076 110.774 254.523 111.221 254.858C111.668 255.193 112.339 255.417 113.01 255.529C113.68 255.641 114.351 255.529 114.91 255.417C115.469 255.193 115.916 254.858 116.363 254.523C116.81 254.076 117.034 253.629 117.369 253.07C117.369 252.399 117.593 251.84 117.704 251.281Z"/>
</mask>
<path d="M114.798 241.556C116.139 241.78 117.369 242.227 118.487 242.898C119.493 243.568 120.387 244.351 121.058 245.357C121.728 246.363 122.175 247.369 122.511 248.598C122.846 249.716 122.846 250.946 122.734 252.064C122.623 253.293 122.176 254.411 121.617 255.417C121.058 256.423 120.275 257.317 119.269 258.1C118.375 258.882 117.257 259.329 116.028 259.665C114.798 260 113.568 260.112 112.227 259.888C110.886 259.665 109.656 259.218 108.538 258.547C107.421 257.876 106.638 257.094 105.967 256.088C105.297 255.082 104.85 254.076 104.514 252.846C104.179 251.728 104.179 250.499 104.291 249.381C104.403 248.151 104.85 247.034 105.409 246.028C105.967 245.022 106.75 244.127 107.756 243.345C108.65 242.562 109.768 242.115 110.998 241.668C112.227 241.221 113.457 241.333 114.798 241.556ZM117.704 251.281C117.816 250.722 117.816 250.052 117.704 249.493C117.593 248.934 117.481 248.375 117.145 247.928C116.81 247.481 116.475 247.034 116.028 246.698C115.58 246.363 114.91 246.139 114.239 246.028C113.568 245.916 112.898 246.028 112.339 246.251C111.78 246.475 111.333 246.81 110.886 247.145C110.439 247.592 110.215 248.04 109.991 248.598C109.768 249.157 109.544 249.716 109.544 250.275C109.433 250.834 109.433 251.505 109.544 252.064C109.656 252.623 109.88 253.181 110.103 253.629C110.439 254.076 110.774 254.523 111.221 254.858C111.668 255.193 112.339 255.417 113.01 255.529C113.68 255.641 114.351 255.529 114.91 255.417C115.469 255.193 115.916 254.858 116.363 254.523C116.81 254.076 117.034 253.629 117.369 253.07C117.369 252.399 117.593 251.84 117.704 251.281Z" fill="#62CEBB"/>
<path d="M118.487 242.898L119.041 242.066C119.028 242.057 119.015 242.048 119.001 242.04L118.487 242.898ZM122.511 248.598L121.546 248.862C121.548 248.87 121.551 248.878 121.553 248.886L122.511 248.598ZM122.734 252.064L121.739 251.964L121.739 251.973L122.734 252.064ZM119.269 258.1L118.655 257.31C118.64 257.322 118.625 257.334 118.611 257.347L119.269 258.1ZM104.514 252.846L105.479 252.583C105.477 252.575 105.475 252.567 105.472 252.559L104.514 252.846ZM104.291 249.381L105.286 249.48L105.287 249.471L104.291 249.381ZM107.756 243.345L108.37 244.134C108.385 244.122 108.4 244.11 108.414 244.097L107.756 243.345ZM110.886 247.145L110.286 246.345C110.248 246.374 110.212 246.405 110.179 246.438L110.886 247.145ZM109.544 250.275L110.525 250.471C110.538 250.407 110.544 250.341 110.544 250.275H109.544ZM110.103 253.629L109.209 254.076C109.236 254.129 109.267 254.181 109.303 254.229L110.103 253.629ZM114.91 255.417L115.106 256.398C115.166 256.386 115.224 256.368 115.281 256.346L114.91 255.417ZM116.363 254.523L116.963 255.323C117.001 255.294 117.037 255.263 117.07 255.23L116.363 254.523ZM117.369 253.07L118.226 253.584C118.32 253.429 118.369 253.251 118.369 253.07H117.369ZM114.634 242.543C115.857 242.747 116.967 243.152 117.972 243.755L119.001 242.04C117.771 241.302 116.422 240.813 114.962 240.57L114.634 242.543ZM117.932 243.73C118.869 244.354 119.651 245.05 120.226 245.912L121.89 244.802C121.123 243.652 120.117 242.782 119.041 242.066L117.932 243.73ZM120.226 245.912C120.832 246.821 121.237 247.727 121.546 248.862L123.476 248.335C123.114 247.011 122.625 245.905 121.89 244.802L120.226 245.912ZM121.553 248.886C121.834 249.823 121.845 250.903 121.739 251.964L123.729 252.163C123.847 250.988 123.858 249.609 123.469 248.311L121.553 248.886ZM121.739 251.973C121.644 253.017 121.261 253.998 120.742 254.931L122.491 255.903C123.09 254.824 123.602 253.569 123.73 252.154L121.739 251.973ZM120.742 254.931C120.256 255.808 119.566 256.602 118.655 257.31L119.883 258.889C120.984 258.033 121.86 257.038 122.491 255.903L120.742 254.931ZM118.611 257.347C117.884 257.983 116.938 258.38 115.765 258.7L116.291 260.629C117.577 260.279 118.866 259.782 119.928 258.852L118.611 257.347ZM115.765 258.7C114.652 259.003 113.57 259.098 112.391 258.902L112.063 260.875C113.567 261.125 114.944 260.997 116.291 260.629L115.765 258.7ZM112.391 258.902C111.168 258.698 110.058 258.293 109.053 257.689L108.024 259.404C109.254 260.142 110.603 260.631 112.063 260.875L112.391 258.902ZM109.053 257.689C108.07 257.1 107.393 256.424 106.799 255.533L105.135 256.642C105.883 257.764 106.771 258.653 108.024 259.404L109.053 257.689ZM106.799 255.533C106.193 254.624 105.788 253.717 105.479 252.583L103.55 253.109C103.911 254.434 104.4 255.54 105.135 256.642L106.799 255.533ZM105.472 252.559C105.191 251.621 105.18 250.541 105.286 249.48L103.296 249.281C103.178 250.456 103.167 251.835 103.556 253.133L105.472 252.559ZM105.287 249.471C105.382 248.427 105.764 247.446 106.283 246.513L104.534 245.542C103.935 246.621 103.423 247.875 103.295 249.29L105.287 249.471ZM106.283 246.513C106.769 245.637 107.459 244.843 108.37 244.134L107.142 242.555C106.041 243.412 105.165 244.406 104.534 245.542L106.283 246.513ZM108.414 244.097C109.151 243.453 110.101 243.058 111.339 242.608L110.656 240.728C109.434 241.172 108.149 241.672 107.097 242.592L108.414 244.097ZM111.339 242.608C112.309 242.255 113.316 242.323 114.634 242.543L114.962 240.57C113.598 240.342 112.145 240.187 110.656 240.728L111.339 242.608ZM118.685 251.477C118.823 250.789 118.823 249.985 118.685 249.297L116.724 249.689C116.81 250.118 116.81 250.656 116.724 251.085L118.685 251.477ZM118.685 249.297C118.582 248.783 118.44 247.988 117.945 247.328L116.345 248.528C116.521 248.762 116.603 249.084 116.724 249.689L118.685 249.297ZM117.945 247.328C117.625 246.901 117.208 246.334 116.628 245.898L115.428 247.498C115.741 247.733 115.995 248.061 116.345 248.528L117.945 247.328ZM116.628 245.898C115.998 245.426 115.149 245.165 114.404 245.041L114.075 247.014C114.671 247.113 115.163 247.3 115.428 247.498L116.628 245.898ZM114.404 245.041C113.523 244.894 112.667 245.043 111.967 245.323L112.71 247.18C113.129 247.012 113.613 246.937 114.075 247.014L114.404 245.041ZM111.967 245.323C111.268 245.603 110.72 246.019 110.286 246.345L111.486 247.945C111.945 247.601 112.292 247.347 112.71 247.18L111.967 245.323ZM110.179 246.438C109.593 247.024 109.308 247.615 109.063 248.227L110.92 248.97C111.122 248.464 111.285 248.161 111.593 247.852L110.179 246.438ZM109.063 248.227C108.857 248.743 108.544 249.488 108.544 250.275H110.544C110.544 249.945 110.679 249.571 110.92 248.97L109.063 248.227ZM108.564 250.079C108.426 250.767 108.426 251.571 108.564 252.26L110.525 251.868C110.439 251.438 110.439 250.901 110.525 250.471L108.564 250.079ZM108.564 252.26C108.698 252.933 108.96 253.578 109.209 254.076L110.998 253.181C110.799 252.784 110.614 252.312 110.525 251.868L108.564 252.26ZM109.303 254.229C109.624 254.656 110.041 255.223 110.621 255.658L111.821 254.058C111.507 253.823 111.254 253.496 110.903 253.029L109.303 254.229ZM110.621 255.658C111.25 256.13 112.1 256.391 112.845 256.515L113.174 254.542C112.578 254.443 112.086 254.257 111.821 254.058L110.621 255.658ZM112.845 256.515C113.712 256.66 114.54 256.511 115.106 256.398L114.714 254.436C114.162 254.547 113.649 254.622 113.174 254.542L112.845 256.515ZM115.281 256.346C115.981 256.066 116.528 255.649 116.963 255.323L115.763 253.723C115.303 254.068 114.956 254.321 114.538 254.489L115.281 256.346ZM117.07 255.23C117.629 254.671 117.932 254.075 118.226 253.584L116.511 252.555C116.135 253.183 115.991 253.48 115.656 253.816L117.07 255.23ZM118.369 253.07C118.369 252.846 118.406 252.624 118.468 252.365C118.516 252.161 118.627 251.766 118.685 251.477L116.724 251.085C116.67 251.355 116.613 251.519 116.522 251.902C116.444 252.23 116.369 252.623 116.369 253.07H118.369Z" fill="#62CEBB" mask="url(#path-15-inside-1)"/>
<path d="M94.9573 255.808L83.6818 252.188L87.7761 239.474C87.8168 239.347 87.8055 239.21 87.7446 239.092C87.6838 238.974 87.5784 238.885 87.4517 238.844L85.4717 238.214L87.8471 230.89L91.5825 232.046L90.4027 235.586C90.3603 235.713 90.3708 235.852 90.4318 235.971C90.4929 236.091 90.5993 236.181 90.7273 236.221L100.34 239.239C100.601 239.321 100.878 239.179 100.964 238.92L102.151 235.36L105.902 236.521L103.623 243.953L102.981 243.76C102.974 243.758 102.966 243.756 102.959 243.754C102.708 243.691 102.455 243.651 102.187 243.67C101.915 243.69 101.655 243.768 101.384 243.904C101.366 243.913 101.348 243.923 101.331 243.935C100.97 244.175 100.478 244.544 99.9879 245.156C99.5038 245.761 99.0364 246.586 98.5801 247.613C98.1343 248.616 97.5764 249.843 96.9063 251.295L96.9062 251.295L96.9013 251.307L94.9573 255.808ZM92.485 240.41C92.3586 240.369 92.221 240.38 92.1026 240.44C91.9842 240.501 91.8948 240.606 91.8541 240.733L88.9479 249.787C88.8635 250.05 89.0081 250.331 89.2709 250.416L92.4008 251.422C92.6431 251.5 92.9053 251.383 93.0097 251.151L94.0158 248.915C94.0196 248.907 94.0231 248.898 94.0265 248.89C94.5718 247.472 95.2276 246.268 95.7854 245.264C96.3242 244.294 96.9744 243.426 97.5209 242.771C97.627 242.643 97.6631 242.471 97.6172 242.312C97.5712 242.153 97.4493 242.026 97.2915 241.975L92.485 240.41Z" fill="#62CEBB" stroke="#62CEBB" stroke-linejoin="round"/>
<path d="M75.892 241.569C76.014 241.342 75.9433 241.06 75.7289 240.917L75.3935 240.693C75.2434 240.593 75.051 240.582 74.89 240.663L67.4042 244.46L63.4966 242.463L72.5392 238.094C72.7414 237.996 72.8537 237.776 72.8137 237.555L70.8718 226.824L74.6693 228.809L76.1896 236.953C76.2202 237.117 76.3307 237.255 76.4842 237.321L77.2666 237.656C77.5073 237.76 77.7869 237.66 77.9075 237.427L80.8105 231.828L84.3876 233.617L76.4636 248.937L72.894 247.152L75.892 241.569Z" fill="#62CEBB" stroke="#62CEBB" stroke-linejoin="round"/>
<path d="M59.8882 222.95C59.8162 223.159 59.8904 223.391 60.0704 223.52L63.9827 226.314C64.1591 226.44 64.3967 226.438 64.5709 226.309L67.2936 224.292L70.5634 226.678L55.562 237.031L52.4473 234.766L57.729 217.337L60.9978 219.722L59.8882 222.95ZM59.3086 225.723C59.1816 225.633 59.0199 225.607 58.8713 225.653C58.7226 225.699 58.604 225.812 58.5503 225.958L56.5383 231.436C56.4616 231.644 56.5319 231.878 56.7107 232.01C56.8894 232.142 57.1339 232.14 57.3106 232.006L62.0054 228.429C62.1319 228.332 62.205 228.181 62.2023 228.022C62.1995 227.863 62.1212 227.715 61.9914 227.623L59.3086 225.723Z" fill="#62CEBB" stroke="#62CEBB" stroke-linejoin="round"/>
<path d="M48.1032 224.549C48.0974 224.551 48.0916 224.553 48.0859 224.556C47.1196 224.985 46.0728 225.295 44.9355 225.295C43.7402 225.295 42.6855 225.187 41.5295 224.767C40.3655 224.343 39.3205 223.715 38.3768 222.666C38.371 222.66 38.3649 222.654 38.3587 222.647C37.1673 221.456 36.3401 220.194 36.0332 218.864C36.0305 218.853 36.0274 218.841 36.0239 218.83C35.6511 217.618 35.613 216.507 35.8994 215.407L39.5456 216.014C39.4542 216.31 39.4055 216.598 39.4055 216.853C39.4055 217.382 39.5389 217.782 39.6498 218.114L39.6547 218.129C39.7879 218.529 40.0433 218.911 40.2535 219.227C40.2597 219.236 40.2658 219.245 40.2719 219.254C40.5229 219.631 40.7757 219.883 40.9981 220.106L41.005 220.113C41.5881 220.696 42.1272 221.121 42.9531 221.258C43.0382 221.273 43.1222 221.288 43.2055 221.302C43.7318 221.395 44.2298 221.483 44.81 221.367C45.4261 221.244 46.0283 221.001 46.5005 220.765C47.0113 220.51 47.6132 220.024 47.9718 219.666C48.3219 219.316 48.626 218.881 48.8781 218.52C48.9713 218.387 49.0574 218.264 49.1361 218.159C49.5685 217.582 49.6832 216.779 49.6832 216.182L49.6832 216.151C49.6833 215.611 49.6834 214.969 49.4239 214.32C49.17 213.685 48.7913 213.187 48.344 212.628C48.3325 212.614 48.3202 212.6 48.3072 212.587C48.1756 212.456 48.0175 212.329 47.8855 212.224L47.8747 212.215C47.7294 212.099 47.6131 212.005 47.5247 211.916C47.3356 211.727 47.0853 211.613 46.8895 211.538C46.7526 211.485 46.595 211.435 46.466 211.394C46.4123 211.377 46.3635 211.362 46.3232 211.349C45.9096 211.211 45.3947 211.211 45.079 211.211C45.0682 211.211 45.0576 211.211 45.0473 211.211C44.7761 211.211 44.4684 211.266 44.1536 211.369L43.1829 207.751C43.6486 207.581 44.1362 207.516 44.712 207.516C45.4462 207.516 46.1824 207.621 46.922 207.832C47.6424 208.038 48.2688 208.348 49.032 208.783C49.7048 209.232 50.3275 209.65 50.8417 210.164C50.8486 210.171 50.8557 210.178 50.863 210.185C51.7965 211.014 52.4283 212.06 52.8548 213.126C53.267 214.157 53.3779 215.312 53.3779 216.518C53.3779 217.653 53.0693 218.702 52.6325 219.794C52.0951 221.083 51.4587 222.03 50.7299 222.759C49.9821 223.507 49.1429 224.133 48.1032 224.549Z" fill="#62CEBB" stroke="#62CEBB" stroke-linejoin="round"/>
<path d="M25.0567 201.462L27.8815 205.194C27.9615 205.3 28.0803 205.37 28.2117 205.388C28.3431 205.406 28.4764 205.371 28.5821 205.291L39.2479 197.211L41.6659 200.435L30.9963 208.518C30.8904 208.598 30.8208 208.717 30.8028 208.849C30.7849 208.981 30.8201 209.114 30.9008 209.22L33.8411 213.073L31.1683 215.142L22.3823 203.532L25.0567 201.462Z" fill="#62CEBB" stroke="#62CEBB" stroke-linejoin="round"/>
<path d="M22.3633 192.928C22.6054 192.802 22.7016 192.505 22.5796 192.261L21.2382 189.579C20.804 188.71 20.4949 187.873 20.3929 187.058C20.2843 186.189 20.2947 185.495 20.4829 184.93C20.7004 184.278 21.0061 183.587 21.4799 183.114C22.0146 182.579 22.6484 182.052 23.3801 181.633C24.9669 180.788 26.487 180.611 27.7654 181.103C29.0863 181.611 30.2281 182.632 31.0747 184.325L31.0746 184.325L31.0774 184.33L34.6474 191.26L19.2249 199.077L17.4341 195.496L22.3633 192.928ZM29.5099 189.355C29.7569 189.232 29.857 188.931 29.7335 188.684L28.6157 186.449C28.61 186.437 28.6038 186.426 28.5972 186.415C28.2276 185.799 27.8287 185.385 27.2743 185.107C26.9091 184.925 26.5284 184.942 26.2071 185.009C25.8988 185.074 25.5852 185.2 25.3199 185.306L25.3001 185.314C25.2872 185.319 25.2745 185.325 25.2621 185.331C24.7065 185.609 24.285 186.037 24.0155 186.71C23.7189 187.452 23.8896 188.052 24.1273 188.647C24.1324 188.659 24.1381 188.672 24.1443 188.684L25.2621 190.92C25.3214 191.039 25.4254 191.129 25.5512 191.171C25.677 191.213 25.8143 191.203 25.9329 191.144L29.5099 189.355ZM26.9406 176.169L11.6232 183.986L9.83488 180.409L25.1522 172.592L26.9406 176.169Z" fill="#62CEBB" stroke="#62CEBB" stroke-linejoin="round"/>
<path d="M14.8652 161.339L21.3085 159.884L22.2054 163.83L5.40639 167.74L4.50973 163.794L10.6229 162.344C10.8896 162.28 11.0556 162.014 10.9951 161.747L9.65372 155.823C9.62424 155.692 9.54391 155.579 9.43063 155.509C9.31734 155.438 9.18052 155.416 9.05062 155.446L2.94674 156.895L2.05105 152.954L18.8501 149.045L19.7455 152.985L13.3036 154.439C13.1742 154.468 13.0617 154.548 12.9909 154.66C12.9201 154.772 12.8967 154.908 12.926 155.037L14.2674 160.962C14.3284 161.231 14.5959 161.4 14.8652 161.339Z" fill="#62CEBB" stroke="#62CEBB" stroke-linejoin="round"/>
<path d="M14.4627 136.24C14.2582 136.32 14.1291 136.523 14.1444 136.742L14.4797 141.548C14.4953 141.771 14.6564 141.956 14.8748 142.002L18.193 142.706L18.4584 146.777L0.807953 142.127L0.524708 138.256L17.321 131.072L17.585 135.032L14.4627 136.24ZM11.8991 137.775C11.8837 137.621 11.798 137.483 11.6669 137.401C11.5359 137.319 11.3743 137.302 11.2291 137.355L5.75192 139.367C5.54431 139.444 5.41147 139.647 5.42531 139.868C5.43915 140.089 5.59639 140.274 5.8119 140.324L11.6245 141.665C11.7815 141.701 11.9463 141.66 12.0673 141.553C12.1882 141.447 12.2504 141.289 12.2344 141.128L11.8991 137.775Z" fill="#62CEBB" stroke="#62CEBB" stroke-linejoin="round"/>
<path d="M15.5598 113.524C15.3433 113.563 15.178 113.739 15.1526 113.958L14.5937 118.764C14.5686 118.98 14.6862 119.188 14.8846 119.278L18.0108 120.69L17.4811 124.662L1.09832 116.629L1.57099 112.753L19.4193 108.951L18.8905 112.918L15.5598 113.524ZM12.7912 114.531C12.8127 114.375 12.7592 114.217 12.6466 114.106C12.5341 113.996 12.3759 113.944 12.2198 113.968L6.40726 114.863C6.18739 114.897 6.01631 115.072 5.9875 115.292C5.95869 115.513 6.07908 115.726 6.28288 115.815L11.6483 118.162C11.7918 118.225 11.9565 118.217 12.0931 118.14C12.2298 118.064 12.3226 117.928 12.344 117.773L12.7912 114.531Z" fill="#62CEBB" stroke="#62CEBB" stroke-linejoin="round"/>
<path d="M14.7253 101.193L21.0611 103.063L19.8973 106.912L3.41885 102.053L4.58282 98.2031L10.5903 99.9639C10.7183 100.001 10.856 99.9862 10.9728 99.9217C11.0896 99.8572 11.1757 99.7486 11.212 99.6203L12.8887 93.6959C12.9634 93.432 12.8115 93.1571 12.5483 93.0799L6.53866 91.3185L7.61121 87.4752L24.1906 92.3329L23.0272 96.1813L16.685 94.3098C16.5569 94.272 16.419 94.287 16.302 94.3515C16.185 94.416 16.0988 94.5247 16.0624 94.6532L14.3857 100.578C14.3111 100.841 14.4625 101.116 14.7253 101.193Z" fill="#62CEBB" stroke="#62CEBB" stroke-linejoin="round"/>
<path d="M14.4407 71.7479L17.5525 73.1309L14.8603 78.9296C14.804 79.0507 14.7986 79.1893 14.8452 79.3144C14.8917 79.4396 14.9864 79.5409 15.1081 79.5959L27.2789 85.0889L25.5765 88.7626L9.83301 81.5777L14.4407 71.7479Z" fill="#62CEBB" stroke="#62CEBB" stroke-linejoin="round"/>
<path d="M36.9564 67.8294L25.643 60.6103C25.4135 60.4639 25.109 60.528 24.958 60.7545L23.1695 63.4372C23.0242 63.6552 23.0718 63.9484 23.2786 64.1092L25.2864 65.6709C27.0724 67.1221 28.5064 68.3365 29.6034 69.4335C30.6831 70.5132 31.3164 71.4694 31.7357 72.4129C32.1276 73.2946 32.1356 74.1855 31.9281 75.1194C31.7464 75.9367 31.3163 76.8605 30.6783 77.9904L27.8151 76.1683C28.0304 75.6724 28.1096 75.1903 28.1096 74.7808C28.1096 74.2703 27.9857 73.6045 27.5781 73.0487C27.1946 72.4206 26.4771 71.7145 25.7013 71.0493C24.7962 70.2575 23.6693 69.3563 22.1066 68.1284C22.1064 68.1282 22.1062 68.1281 22.106 68.1279L18.2135 65.0549L24.5214 55.1277L39.1051 64.4274L36.9564 67.8294Z" fill="#62CEBB" stroke="#62CEBB" stroke-linejoin="round"/>
<path d="M38.5652 53.5791C38.7255 53.7232 38.9601 53.7483 39.1473 53.6414C39.3345 53.5345 39.4321 53.3196 39.3895 53.1083L36.8688 40.6147L38.8212 38.4848L51.6051 50.0009L48.9261 52.9477L41.8069 46.466C41.648 46.3214 41.4144 46.2944 41.2267 46.3991C41.039 46.5038 40.9392 46.7167 40.9788 46.9279L43.2813 59.2077L41.3173 61.4395L28.541 49.9303L31.2221 46.981L38.5652 53.5791Z" fill="#62CEBB" stroke="#62CEBB" stroke-linejoin="round"/>
<path d="M42.9368 27.6993L44.5793 26.3696C44.9507 26.603 45.4189 26.6565 45.8298 26.6565C45.8627 26.6565 45.8955 26.6532 45.9278 26.6468C45.9414 26.6441 45.955 26.6414 45.9688 26.6386C46.495 26.5337 47.1719 26.3987 47.7224 25.8648C48.2311 25.4752 48.6405 24.936 48.7792 24.2425C48.8632 23.8223 48.9072 23.3791 48.7952 22.9718L50.5153 21.7209C50.7113 22.0363 50.8662 22.3661 50.9285 22.6776C51.0273 23.1718 51.0273 23.664 50.9285 24.1582C50.8845 24.378 50.793 24.6141 50.6599 24.8936C50.5794 25.0627 50.4955 25.2247 50.404 25.401C50.3396 25.5254 50.2714 25.6569 50.1981 25.8031C49.9074 26.2807 49.4106 26.7826 48.794 27.1936C48.638 27.2976 48.4936 27.397 48.3573 27.4909C47.8625 27.8316 47.4732 28.0997 47.013 28.2531C46.3804 28.4639 45.8757 28.5628 45.2709 28.5628C44.7803 28.5628 44.2843 28.465 43.7799 28.2632C43.4428 28.1284 43.1661 27.9526 42.9368 27.6993ZM52.9275 39.2104C53.0613 39.3788 53.2877 39.4428 53.4898 39.3693C53.6919 39.2959 53.8244 39.1014 53.8189 38.8865L53.4901 26.1742L55.8034 24.3948L66.4796 37.925L63.3482 40.43L57.4003 32.889C57.2674 32.7205 57.0419 32.6556 56.8397 32.7277C56.6376 32.7998 56.5041 32.9928 56.5078 33.2074L56.7271 45.7061L54.4039 47.5825L43.624 33.9492L46.7564 31.4433L52.9275 39.2104Z" fill="#62CEBB" stroke="#62CEBB" stroke-linejoin="round"/>
<path d="M67.9781 17.0941L67.9781 17.0942L67.9867 17.0893C69.4726 16.2402 70.8396 15.9256 72.3216 15.9256C73.6367 15.9256 74.6688 16.173 75.5947 16.7248L74.037 20.0132C73.7657 19.843 73.4899 19.7219 73.2622 19.646C73.0816 19.5858 72.8539 19.5197 72.6159 19.4857C72.4065 19.4557 72.156 19.4456 71.9099 19.51C71.5078 19.5245 71.0385 19.6484 70.7103 19.7578L70.6928 19.7636C70.3731 19.8702 69.9939 19.9965 69.6115 20.2458C68.8707 20.6223 68.3748 21.1215 68.0093 21.6088C67.6321 22.1117 67.3636 22.754 67.3509 23.4242C67.2349 24.0651 67.3601 24.6903 67.4643 25.2107C67.4669 25.2234 67.4694 25.236 67.4719 25.2485C67.5935 25.8568 67.8374 26.4799 68.217 26.9941C68.5657 27.5723 68.9224 28.0473 69.3971 28.5221C69.8573 28.9822 70.3777 29.3936 71.0594 29.5433C71.6594 29.7779 72.2673 29.8981 72.8805 29.8981C73.5568 29.8981 74.199 29.6316 74.8631 29.3011C75.0793 29.224 75.2533 29.116 75.4028 29.0113C75.4859 28.9531 75.5464 28.908 75.6032 28.8656C75.6754 28.8117 75.7417 28.7622 75.8406 28.6963C76.2595 28.417 76.5376 28.0121 76.6857 27.6084C76.9229 27.2357 77.0456 26.8674 77.1495 26.5557L77.1554 26.5381C77.244 26.2721 77.2763 25.9714 77.2613 25.6641L81.0307 25.7517C81.0404 26.2267 80.9487 26.7506 80.7896 27.2279C80.7874 27.2348 80.7852 27.2417 80.7832 27.2487C80.5764 27.9725 80.266 28.5964 79.8419 29.2325C79.4307 29.8494 78.9138 30.3704 78.3555 30.9287C77.703 31.4722 77.1683 31.8989 76.5339 32.3231C75.3718 32.9541 74.3259 33.2657 73.0625 33.371L73.0588 33.3713C71.9161 33.4752 70.7547 33.2684 69.6708 32.9432C68.6337 32.6321 67.5775 32.002 66.7265 31.2574C66.7041 31.2378 66.68 31.2202 66.6545 31.2049C65.6215 30.5851 64.8972 29.7596 64.3752 28.8199C63.8459 27.8672 63.5339 26.9264 63.4296 25.8832C63.3207 24.7938 63.3263 23.639 63.6346 22.6114C63.9617 21.521 64.3868 20.4696 65.1152 19.5331C65.8583 18.5778 66.8125 17.7299 67.9781 17.0941Z" fill="#62CEBB" stroke="#62CEBB" stroke-linejoin="round"/>
<path d="M84.8186 15.8213C84.9116 16.0752 85.1896 16.209 85.4461 16.1235L85.7815 16.0118C85.938 15.9596 86.0588 15.8335 86.1041 15.6748L88.4929 7.31405L92.901 5.72712L89.84 15.7264C89.7745 15.9403 89.8591 16.1716 90.047 16.2929L99.5998 22.456L95.2923 24.0384L87.8981 19.4714C87.7596 19.3859 87.5881 19.3731 87.4384 19.4373L86.656 19.7726C86.4107 19.8777 86.2912 20.1569 86.3844 20.4069L88.6675 26.5296L84.6933 27.9747L78.5508 11.0301L82.5311 9.58273L84.8186 15.8213Z" fill="#62CEBB" stroke="#62CEBB" stroke-linejoin="round"/>
<path d="M99.0724 9.74464C99.0762 9.73074 99.0793 9.71669 99.0819 9.70252C99.289 8.56372 99.8103 7.51037 100.459 6.53703C101.091 5.58898 101.939 4.73793 103.013 3.98658C104.058 3.25469 105.214 2.83126 106.494 2.61754C107.903 2.40107 109.168 2.40722 110.307 2.71799C111.469 3.03477 112.533 3.56369 113.499 4.20639C114.45 4.94818 115.193 5.79677 115.835 6.76059C116.461 7.69993 116.887 8.86329 117.101 9.93032C117.313 11.0994 117.31 12.2505 116.998 13.3938C116.995 13.4077 116.991 13.4218 116.989 13.4359C116.782 14.5747 116.261 15.6281 115.612 16.6014C114.98 17.5495 114.132 18.4005 113.058 19.1519C111.991 19.899 110.831 20.4232 109.577 20.6327C108.168 20.8492 106.903 20.843 105.764 20.5322C104.596 20.2138 103.527 19.681 102.556 19.0337C101.636 18.42 100.898 17.483 100.236 16.4896C99.6099 15.5512 99.184 14.3888 98.9701 13.2124C98.7573 12.0419 98.7602 10.8893 99.0724 9.74464ZM103.715 14.3817C103.725 14.4065 103.737 14.4304 103.75 14.4533C104.103 15.0412 104.463 15.5221 104.943 16.0027C105.462 16.5218 105.986 16.7775 106.69 17.0133C107.369 17.2805 108.142 17.2649 108.944 17.1502C109.827 17.0241 110.46 16.6444 111.011 16.3139L111.031 16.3015C111.046 16.2927 111.06 16.2831 111.074 16.2727C111.587 15.8882 112.083 15.2675 112.339 14.755C112.345 14.7426 112.351 14.73 112.356 14.7171L112.367 14.6897C112.581 14.1557 112.83 13.5333 112.839 12.7844C112.946 12.0935 112.846 11.5001 112.746 10.9138C112.738 10.8627 112.729 10.8116 112.72 10.7605C112.6 10.0363 112.359 9.43502 112.139 8.88445L112.132 8.86848C112.123 8.84372 112.111 8.8198 112.097 8.79693C111.744 8.20901 111.385 7.7281 110.904 7.24749C110.887 7.23076 110.869 7.21524 110.85 7.20104C110.384 6.85086 109.753 6.46208 109.084 6.32829C108.512 6.21393 107.772 6.08759 106.903 6.21183C106.005 6.34002 105.368 6.72699 104.885 7.08926C104.405 7.44954 103.875 7.964 103.603 8.64492C103.598 8.65839 103.592 8.67193 103.587 8.68554C103.379 9.20357 103.131 9.8234 103.12 10.4644C103.006 11.1725 103.008 11.7778 103.127 12.4898C103.248 13.2139 103.488 13.8152 103.708 14.3658L103.715 14.3817Z" fill="#62CEBB" stroke="#62CEBB" stroke-linejoin="round"/>
<path d="M139.887 0.825462L139.569 18.8269L135.536 18.7372L135.642 9.1715C135.645 8.93679 135.483 8.73186 135.255 8.67886C135.026 8.62586 134.791 8.73906 134.691 8.95098L131.473 15.7081H129.321L126.322 8.85376C126.228 8.63787 125.995 8.51724 125.765 8.5642C125.534 8.61117 125.367 8.81299 125.364 9.04862L125.258 18.6037L121.007 18.5133L121.325 0.509725L126.203 0.605378L129.988 9.36427C130.066 9.54442 130.242 9.66238 130.438 9.66587C130.635 9.66936 130.815 9.55774 130.899 9.38048L135.008 0.729796L139.887 0.825462Z" fill="#62CEBB" stroke="#62CEBB" stroke-linejoin="round"/>
<path d="M158.886 22.3137L160.331 16.3254C160.396 16.0585 160.233 15.7896 159.966 15.723L158.625 15.3877C158.456 15.3455 158.278 15.394 158.154 15.5156L152.763 20.7981L148.438 19.7389L153.932 14.4443C154.038 14.3426 154.093 14.1997 154.084 14.0535C154.075 13.9072 154.003 13.7722 153.885 13.6843C153.069 13.0718 152.466 12.2642 152.164 11.2579C151.859 10.241 151.853 9.21622 152.17 7.94587C152.382 7.09936 152.696 6.37126 153.107 5.75458C153.502 5.16241 154.104 4.65937 154.703 4.35952C154.722 4.35025 154.74 4.33983 154.757 4.32833C155.343 3.93744 156.045 3.73062 156.786 3.62483C157.518 3.52025 158.346 3.52185 159.165 3.7267L159.165 3.72674L159.171 3.72817L167.178 5.62452L162.939 23.2145L158.886 22.3137ZM159.184 7.33954C159.144 7.32962 159.103 7.32461 159.063 7.32461C159.023 7.32461 158.972 7.31452 158.849 7.28364C158.843 7.28238 158.838 7.28106 158.833 7.2797C158.731 7.25412 158.567 7.21282 158.392 7.21282C158.384 7.21282 158.376 7.21281 158.367 7.2128C158.155 7.21253 157.828 7.21211 157.498 7.37739C157.201 7.52567 157.039 7.68827 156.827 7.90029C156.821 7.90621 156.815 7.91217 156.809 7.91817C156.771 7.95617 156.739 8.00005 156.715 8.04812C156.7 8.07799 156.678 8.11377 156.641 8.17271C156.637 8.17819 156.634 8.1839 156.63 8.18983C156.598 8.2407 156.555 8.30748 156.516 8.37822C156.434 8.52589 156.347 8.72291 156.33 8.96828C156.225 9.32283 156.203 9.72435 156.333 10.0653C156.363 10.3644 156.499 10.6345 156.587 10.81C156.593 10.8213 156.598 10.8322 156.603 10.8427L157.051 10.6191L156.603 10.8427C156.792 11.2193 157.153 11.3981 157.353 11.4973C157.365 11.5029 157.376 11.5083 157.386 11.5134C157.396 11.5187 157.407 11.5242 157.419 11.5299C157.603 11.6227 157.892 11.7682 158.21 11.7876L160.842 12.4455C160.972 12.4782 161.11 12.4568 161.225 12.3862C161.34 12.3157 161.421 12.2019 161.451 12.0706L162.233 8.60541C162.293 8.3404 162.13 8.07611 161.867 8.01021L159.184 7.33954Z" fill="#62CEBB" stroke="#62CEBB" stroke-linejoin="round"/>
<path d="M174.265 12.4664C173.593 12.4664 172.93 12.6152 172.307 12.7845L171.706 9.60647C172.772 9.24314 173.818 8.99524 174.936 8.99524C176.193 8.99524 177.47 9.30931 178.892 9.85615L178.892 9.85617L178.896 9.85764C179.744 10.1756 180.491 10.6018 181.141 11.0351C181.729 11.427 182.122 11.9145 182.425 12.5194C182.43 12.5308 182.437 12.542 182.443 12.553C182.741 13.0498 182.931 13.6326 182.931 14.196C182.931 14.8128 182.828 15.526 182.524 16.2347C182.519 16.2474 182.514 16.2603 182.509 16.2735C182.413 16.5613 182.211 16.9686 182.009 17.2721C181.822 17.5525 181.534 17.8407 181.253 18.0276C180.96 18.2229 180.564 18.4238 180.127 18.6423C179.706 18.7454 179.214 18.8379 178.736 18.8379C178.522 18.8379 178.332 18.9736 178.263 19.1756C178.194 19.3777 178.26 19.6014 178.429 19.7326C179.371 20.4651 179.845 21.1549 180.036 22.0173C180.235 22.9115 180.139 23.8085 179.732 24.7238C179.728 24.7329 179.725 24.742 179.721 24.7513C179.408 25.5861 179.013 26.1533 178.459 26.5229C178.431 26.5412 178.406 26.5621 178.382 26.5854C177.915 27.053 177.24 27.3502 176.542 27.45C176.519 27.4532 176.497 27.4579 176.475 27.4642C175.783 27.6618 174.964 27.6682 174.103 27.5606C173.254 27.4545 172.408 27.2432 171.45 26.8174L171.45 26.8172L171.439 26.8127C170.122 26.2637 168.947 25.6179 168.111 24.8859C167.346 24.2168 166.579 23.375 165.886 22.36L168.754 20.1868C169.124 20.7892 169.52 21.3367 169.999 21.8153C170.62 22.4363 171.467 22.9134 172.365 23.3621C172.377 23.3683 172.39 23.3739 172.402 23.3791C173.005 23.6202 173.792 23.7719 174.386 23.6235C174.992 23.4719 175.565 23.0222 175.846 22.2103C175.995 21.8914 175.995 21.5796 175.994 21.3747C175.994 21.3663 175.994 21.358 175.994 21.3499C175.994 21.3419 175.994 21.3336 175.994 21.3252C175.995 21.113 175.995 20.7862 175.83 20.4556L175.823 20.4428C175.713 20.2208 175.57 19.9362 175.289 19.655C175.014 19.3801 174.613 19.1128 174.087 18.974L172.13 18.1734L173.081 15.955L174.635 16.5592C175.464 16.9134 176.24 17.0606 176.934 16.9219C176.942 16.9203 176.949 16.9186 176.957 16.9167C177.589 16.7586 178.023 16.2923 178.289 15.761C178.305 15.7283 178.318 15.694 178.327 15.6586C178.334 15.6297 178.342 15.5995 178.35 15.5682C178.396 15.3893 178.451 15.1757 178.466 14.9749C178.485 14.7247 178.45 14.4591 178.292 14.1966C178.183 13.9251 177.972 13.7042 177.749 13.5261C177.501 13.3278 177.187 13.142 176.836 12.9663C176.827 12.962 176.818 12.9578 176.809 12.954C175.949 12.5855 175.096 12.4664 174.265 12.4664Z" fill="#62CEBB" stroke="#62CEBB" stroke-linejoin="round"/>
<path d="M190.41 14.8859L194.031 17.1495L190.943 22.091C190.797 22.3251 190.868 22.6336 191.102 22.78L193.785 24.4567C194.641 24.9918 195.381 25.629 195.901 26.253C196.43 26.8878 196.815 27.5854 196.908 28.2392C196.911 28.2618 196.916 28.284 196.922 28.3059C197.12 28.9975 197.126 29.7042 197.019 30.5613C196.918 31.2639 196.613 32.0807 196.102 32.7962L196.093 32.8095C195.028 34.4073 193.787 35.3146 192.38 35.616C190.962 35.9199 189.31 35.6229 187.732 34.5711L187.732 34.5709L187.722 34.5642L180.876 30.2461L190.41 14.8859ZM186.354 29.1428C186.217 29.3735 186.287 29.6711 186.512 29.8173L188.747 31.2705C188.749 31.2717 188.751 31.273 188.753 31.2742C188.756 31.2762 188.759 31.2781 188.762 31.28C189.395 31.6598 190.091 31.8253 190.706 31.6717C191.3 31.5232 191.842 31.0962 192.23 30.4595C192.645 29.8933 192.776 29.1962 192.64 28.5176C192.577 28.2019 192.474 27.878 192.268 27.5779C192.064 27.2805 191.778 27.0372 191.393 26.8403L189.18 25.4019C189.066 25.3277 188.927 25.3033 188.794 25.3342C188.662 25.3652 188.547 25.4488 188.478 25.5659L186.354 29.1428ZM199.258 41.9005L195.635 39.636L205.273 24.385L208.896 26.6495L199.258 41.9005Z" fill="#62CEBB" stroke="#62CEBB" stroke-linejoin="round"/>
<path d="M212.8 39.2281C212.699 39.3354 212.651 39.4814 212.668 39.6274C212.684 39.7734 212.765 39.9046 212.887 39.9861L213.222 40.2097C213.331 40.2823 213.464 40.3093 213.593 40.2849L222.172 38.6559L225.506 41.8144L215.205 43.5482C214.984 43.5854 214.815 43.7646 214.791 43.9871L213.559 55.281L210.221 52.119L211.091 43.5328C211.108 43.3675 211.041 43.2047 210.914 43.0983L210.243 42.5394C210.039 42.3697 209.738 42.3884 209.557 42.5821L205.094 47.3574L202.023 44.4674L214.415 31.3341L217.488 34.2268L212.8 39.2281Z" fill="#62CEBB" stroke="#62CEBB" stroke-linejoin="round"/>
<path d="M229.094 51.8914C229.012 51.7873 228.892 51.7201 228.76 51.7046C228.628 51.6891 228.496 51.7266 228.392 51.8088L226.268 53.4854C226.053 53.6555 226.015 53.9674 226.183 54.1843L230.122 59.2642L227.562 61.2267L223.62 56.1424C223.537 56.0362 223.415 55.9676 223.282 55.9522C223.148 55.9367 223.014 55.9756 222.91 56.0602L220.562 57.9605C220.351 58.132 220.315 58.4416 220.483 58.6565L225.317 64.8576L222.528 67.0368L214.76 57.0934L228.953 45.9721L236.605 55.6931L233.816 57.8724L229.094 51.8914Z" fill="#62CEBB" stroke="#62CEBB" stroke-linejoin="round"/>
<path d="M123.391 138.366C122.045 138.366 120.904 137.33 120.795 135.966C120.681 134.53 121.752 133.274 123.187 133.159L143.042 131.576C144.482 131.461 145.734 132.533 145.847 133.969C145.962 135.404 144.891 136.66 143.456 136.775L123.601 138.357C123.531 138.363 123.461 138.366 123.391 138.366Z" fill="#08345B"/>
<path d="M111.86 153.883L85.5187 159.634L82.882 119.595C82.6269 115.715 85.5627 112.363 89.4421 112.106L101.976 111.274C105.856 111.017 109.211 113.954 109.468 117.834L111.86 153.883Z" fill="#08345B"/>
<path d="M105.742 97.29C105.742 103.047 101.075 107.715 95.3186 107.715C89.5605 107.715 84.8938 103.047 84.8938 97.29C84.8938 91.5332 89.5605 86.8665 95.3186 86.8665C101.075 86.8665 105.742 91.5332 105.742 97.29Z" fill="#D9D4D4"/>
<path d="M107.808 140.67C106.343 140.67 104.961 139.991 104.066 138.831L91.2671 122.222C89.674 120.155 90.0586 117.19 92.124 115.598C94.1907 114.006 97.1557 114.39 98.7475 116.456L110.123 131.217L126.658 131.156C126.664 131.156 126.67 131.156 126.676 131.156C129.276 131.156 131.389 133.259 131.399 135.861C131.407 138.469 129.302 140.592 126.693 140.601L107.825 140.67C107.819 140.67 107.812 140.67 107.808 140.67Z" fill="#D9D4D4"/>
<path d="M97.4829 130.288L105.221 124.855L98.7475 116.456C97.1557 114.39 94.1907 114.006 92.124 115.598C90.0586 117.19 89.674 120.155 91.2671 122.222L97.4829 130.288Z" fill="#0A477D"/>
<path d="M139.462 188.359L112.993 158.506L88.0176 158.522C88.0164 158.522 88.0139 158.522 88.0127 158.522C84.884 158.522 82.3474 155.988 82.3462 152.859C82.3438 149.729 84.8792 147.19 88.009 147.188L115.537 147.169C115.54 147.169 115.541 147.169 115.542 147.169C117.163 147.169 118.706 147.864 119.782 149.077L147.943 180.84C150.02 183.182 149.803 186.764 147.462 188.84C145.127 190.911 141.544 190.708 139.462 188.359Z" fill="#08345B"/>
<path d="M204.785 139.185C201.904 139.185 199.57 136.851 199.57 133.97V93.3557C199.57 90.4749 201.904 88.1396 204.785 88.1396C207.665 88.1396 210 90.4749 210 93.3557V133.97C210 136.849 207.665 139.185 204.785 139.185Z" fill="#828181"/>
<path d="M122.389 156.022C122.389 150.454 117.875 145.94 112.307 145.94H78.7573L75.4406 118.91C74.6545 112.507 69.2175 107.697 62.7673 107.697C59.1101 107.697 55.6286 109.265 53.2055 112.004C50.7824 114.742 49.6496 118.39 50.0952 122.019L57.4499 181.949C57.6061 183.225 58.6889 184.183 59.9731 184.183H62.9394V188.789C62.9394 189.606 63.601 190.267 64.4165 190.267H74.3249C75.1403 190.267 75.802 189.606 75.802 188.789V184.183H104.31V188.789C104.31 189.606 104.972 190.267 105.789 190.267H115.697C116.512 190.267 117.174 189.606 117.174 188.789V184.183H119.846C121.25 184.183 122.389 183.044 122.389 181.639V156.022Z" fill="#62CEBB"/>
<path d="M62.9395 184.182V188.789C62.9395 189.605 63.6011 190.266 64.4165 190.266H74.325C75.1404 190.266 75.802 189.605 75.802 188.789V184.182H62.9395Z" fill="#449486"/>
<path d="M104.31 184.182V188.789C104.31 189.605 104.972 190.266 105.789 190.266H115.697C116.512 190.266 117.174 189.605 117.174 188.789V184.182H104.31Z" fill="#449486"/>
<path d="M196.788 156.915C193.909 156.915 191.573 154.581 191.573 151.7V75.2148C191.573 72.3352 193.909 70 196.788 70C199.669 70 202.003 72.3352 202.003 75.2148V151.7C202.003 154.58 199.669 156.915 196.788 156.915Z" fill="#08345B"/>
</svg>
