<svg width="100" height="110" viewBox="0 0 100 110" fill="none" xmlns="http://www.w3.org/2000/svg">
<path d="M92.8571 9.56226H64.286C62.9718 9.56226 61.905 10.6337 61.905 11.9537C61.905 13.2737 62.9718 14.3452 64.286 14.3452H92.8571C94.1714 14.3452 95.2381 13.2737 95.2381 11.9537C95.2381 10.6337 94.1714 9.56226 92.8571 9.56226Z" fill="#62CEBB"/>
<path d="M94.5429 10.2653L85.0191 0.699722C84.0905 -0.232915 82.581 -0.232915 81.6524 0.699722C80.7238 1.63236 80.7238 3.14857 81.6524 4.0812L89.4905 11.9537L81.6477 19.8309C80.7192 20.7635 80.7192 22.2797 81.6477 23.2124C82.1145 23.6762 82.7238 23.9107 83.3334 23.9107C83.943 23.9107 84.5524 23.6764 85.0191 23.2124L94.5429 13.6468C95.4714 12.7139 95.4714 11.1979 94.5429 10.2653Z" fill="#62CEBB"/>
<path d="M30.9531 9.56226H2.38198C1.06771 9.56226 0.000976562 10.6337 0.000976562 11.9537C0.000976562 13.2737 1.06771 14.3452 2.38198 14.3452H30.9531C32.2674 14.3452 33.3341 13.2737 33.3341 11.9537C33.3341 10.6337 32.2674 9.56226 30.9531 9.56226Z" fill="#62CEBB"/>
<path d="M5.7486 11.9534L13.5867 4.08096C14.5152 3.14832 14.5152 1.63211 13.5867 0.699477C12.6581 -0.233159 11.1485 -0.233159 10.22 0.699477L0.696421 10.2653C-0.23214 11.1979 -0.23214 12.7141 0.696421 13.6468L10.2202 23.2123C10.6869 23.6762 11.2963 23.9107 11.9059 23.9107C12.5155 23.9107 13.1249 23.6764 13.5869 23.2076C14.5155 22.275 14.5155 20.7588 13.5869 19.8261L5.7486 11.9534Z" fill="#62CEBB"/>
<path d="M90.4761 47.8241C88.519 47.8241 86.6951 48.422 85.1809 49.4407C83.8762 45.7198 80.3381 43.0414 76.1906 43.0414C74.2334 43.0414 72.4096 43.6393 70.8953 44.6581C69.5906 40.9372 66.0525 38.2587 61.905 38.2587C60.1718 38.2587 58.5432 38.7275 57.1432 39.5454V23.9105C57.1432 18.635 52.8718 14.3449 47.6195 14.3449C42.3671 14.3449 38.0957 18.635 38.0957 23.9105V64.5638L29.8197 58.332C24.915 54.6348 17.9341 55.1276 13.5866 59.4895C10.8009 62.2874 10.8009 66.8358 13.5866 69.6337L47.4958 103.696C51.5433 107.762 56.9289 110 62.6528 110H73.8098C88.2478 110 99.9999 98.201 99.9999 83.695V57.3897C99.9999 52.1142 95.7285 47.8241 90.4761 47.8241ZM95.2381 83.6947C95.2381 95.5607 85.6239 105.217 73.8098 105.217H62.6528C58.1957 105.217 54.01 103.476 50.8625 100.315L16.9533 66.2522C16.0247 65.3196 16.0247 63.8033 16.9533 62.8707C18.4294 61.3928 20.4008 60.6324 22.3818 60.6324C23.9914 60.6324 25.6103 61.1346 26.9675 62.158L39.0483 71.2595C39.7722 71.8047 40.7436 71.8861 41.5436 71.4844C42.3483 71.0779 42.8579 70.2504 42.8579 69.3465V23.9105C42.8579 21.2751 44.9911 19.1278 47.6197 19.1278C50.2482 19.1278 52.3815 21.2753 52.3815 23.9105V59.7811C52.3815 61.1012 53.4482 62.1726 54.7625 62.1726C56.0767 62.1726 57.1435 61.1012 57.1435 59.7811V47.8243C57.1435 45.1889 59.2767 43.0416 61.9052 43.0416C64.5338 43.0416 66.667 45.1892 66.667 47.8243V59.7811C66.667 61.1012 67.7337 62.1726 69.048 62.1726C70.3623 62.1726 71.429 61.1012 71.429 59.7811V52.607C71.429 49.9716 73.5622 47.8243 76.1908 47.8243C78.8193 47.8243 80.9526 49.9719 80.9526 52.607V59.7811C80.9526 61.1012 82.0193 62.1726 83.3336 62.1726C84.6478 62.1726 85.7146 61.1012 85.7146 59.7811V57.3897C85.7146 54.7543 87.8478 52.607 90.4763 52.607C93.1049 52.607 95.2381 54.7545 95.2381 57.3897V83.6947Z" fill="#62CEBB"/>
</svg>
