<svg width="260" height="260" viewBox="0 0 260 260" fill="none" xmlns="http://www.w3.org/2000/svg">
<path d="M234.839 88.125L240.663 85.6301C240.786 85.5776 240.882 85.4784 240.931 85.3544C240.98 85.2305 240.978 85.0921 240.925 84.97L238.567 79.5837C238.457 79.3321 238.165 79.2165 237.912 79.3246L232.082 81.8221L230.572 78.3605L245.708 71.8008L247.217 75.2607L241.727 77.6423C241.605 77.6952 241.509 77.7944 241.461 77.9181C241.412 78.0418 241.415 78.1797 241.468 78.3015L243.825 83.6877C243.936 83.9401 244.23 84.0556 244.482 83.946L249.975 81.5636L251.483 85.0232L236.347 91.5828L234.839 88.125Z" fill="#62CEBB" stroke="#62CEBB" stroke-linejoin="round"/>
<path d="M256.468 101.766L253.393 102.62L251.615 95.9269C251.58 95.7972 251.495 95.6868 251.378 95.6205C251.262 95.5542 251.123 95.5377 250.994 95.5745L248.637 96.2478C248.373 96.323 248.219 96.596 248.291 96.8602L249.843 102.546L246.993 103.3L245.439 97.6069C245.368 97.3445 245.1 97.1875 244.836 97.2534L242.141 97.9267C242.012 97.9591 241.901 98.042 241.832 98.1569C241.764 98.2718 241.745 98.4091 241.779 98.5384L243.563 105.356L240.481 106.211L237.487 95.1725L253.475 90.8334L256.468 101.766Z" fill="#62CEBB" stroke="#62CEBB" stroke-linejoin="round"/>
<path d="M254.91 117.214L242.165 118.186L241.898 114.358L258.416 113.088L259.464 127.127L242.951 128.397L242.684 124.57L255.435 123.597C255.568 123.587 255.691 123.525 255.778 123.423C255.864 123.322 255.907 123.19 255.896 123.057L255.447 117.671C255.424 117.397 255.184 117.193 254.91 117.214Z" fill="#62CEBB" stroke="#62CEBB" stroke-linejoin="round"/>
<path d="M247.458 136.29L242.571 135.985L242.84 132.046L259.352 133.104L258.829 140.106C258.723 140.94 258.517 141.656 258.219 142.261C257.798 142.89 257.379 143.413 256.86 143.934C256.325 144.36 255.719 144.753 255.036 144.949C254.285 145.163 253.658 145.266 252.928 145.266C252.249 145.266 251.653 145.076 250.893 144.751C250.261 144.434 249.64 144.017 249.127 143.505C248.624 143.001 248.318 142.5 247.999 141.754C247.695 141.046 247.599 140.353 247.697 139.665C247.699 139.655 247.7 139.645 247.701 139.634L247.925 136.829C247.936 136.695 247.892 136.563 247.804 136.461C247.717 136.36 247.592 136.298 247.458 136.29ZM251.724 136.402C251.453 136.385 251.218 136.587 251.195 136.858L250.97 139.439C250.969 139.453 250.968 139.468 250.968 139.482C250.968 139.969 251.148 140.296 251.389 140.657C251.407 140.685 251.428 140.71 251.451 140.733C251.639 140.921 251.915 141.065 252.208 141.163C252.511 141.264 252.873 141.329 253.264 141.329C253.626 141.329 253.973 141.299 254.271 141.233C254.535 141.174 254.826 141.073 255.038 140.883C255.518 140.543 255.67 140.045 255.673 139.607L255.785 137.148C255.797 136.876 255.589 136.644 255.316 136.627L251.724 136.402Z" fill="#62CEBB" stroke="#62CEBB" stroke-linejoin="round"/>
<path d="M246.915 147.61C246.931 147.608 246.947 147.606 246.963 147.603C247.992 147.397 249.04 147.496 250.135 147.715C251.18 147.924 252.127 148.341 253.088 148.98C253.941 149.621 254.682 150.364 255.318 151.317C255.323 151.325 255.329 151.333 255.334 151.34C255.941 152.149 256.256 153.172 256.595 154.303C256.801 155.344 256.803 156.502 256.591 157.783C256.263 159.088 255.84 160.115 255.133 160.922C254.358 161.808 253.618 162.54 252.685 163.059C251.694 163.609 250.755 164.018 249.734 164.12C248.644 164.229 247.574 164.227 246.514 164.015C245.47 163.807 244.523 163.39 243.562 162.751C242.706 162.108 241.958 161.359 241.315 160.503C240.695 159.676 240.272 158.627 240.059 157.563C240.056 157.551 240.054 157.54 240.051 157.529C239.738 156.384 239.736 155.237 240.053 153.967C240.382 152.653 240.806 151.62 241.516 150.808C242.291 149.923 243.031 149.19 243.965 148.672C244.955 148.122 245.894 147.712 246.915 147.61ZM253.29 156.921C253.298 156.896 253.304 156.871 253.308 156.845C253.429 156.123 253.432 155.5 253.306 154.869C253.171 154.196 252.775 153.668 252.454 153.241C252.446 153.23 252.437 153.219 252.429 153.209C252.037 152.686 251.518 152.298 250.887 152.042C250.416 151.808 249.819 151.57 249.209 151.447C248.599 151.326 247.995 151.326 247.447 151.326L247.427 151.326C246.745 151.326 246.097 151.594 245.631 151.827C245.126 152.08 244.612 152.462 244.22 152.984C243.863 153.461 243.472 154.098 243.341 154.885C243.223 155.592 243.214 156.334 243.346 156.873C243.483 157.54 243.877 158.065 244.196 158.489C244.204 158.5 244.212 158.511 244.22 158.522C244.616 159.05 245.142 159.44 245.782 159.696C245.893 159.74 246.004 159.787 246.117 159.834C246.527 160.007 246.954 160.186 247.441 160.283C248.051 160.405 248.654 160.405 249.202 160.405H249.223C249.904 160.405 250.552 160.136 251.018 159.903C251.523 159.651 252.038 159.268 252.429 158.746C252.818 158.228 253.063 157.6 253.29 156.921Z" fill="#62CEBB" stroke="#62CEBB" stroke-linejoin="round"/>
<path d="M245.652 166.758C245.667 166.765 245.682 166.77 245.697 166.776C246.605 167.078 247.437 167.691 248.209 168.352C248.957 169.101 249.585 169.945 250.001 170.881C250.432 171.85 250.751 172.918 250.858 174.089C250.961 175.227 250.757 176.379 250.221 177.667C250.218 177.675 250.214 177.683 250.211 177.691C249.68 179.178 248.835 180.334 247.788 181.172C246.84 181.93 245.925 182.412 244.883 182.584L244.015 179.201C244.303 179.152 244.565 179.078 244.778 179.007C245.197 178.867 245.599 178.598 245.872 178.325C246.004 178.193 246.131 178.034 246.237 177.902L246.245 177.891C246.362 177.745 246.456 177.628 246.545 177.54C246.569 177.516 246.59 177.491 246.608 177.463C246.854 177.095 246.987 176.831 247.115 176.446C247.347 175.75 247.494 175.087 247.356 174.395C247.353 174.38 247.35 174.366 247.347 174.351C247.241 173.82 247.11 173.162 246.704 172.622L246.686 172.598C246.361 172.165 245.988 171.667 245.481 171.287C244.985 170.915 244.493 170.672 243.908 170.438C243.292 170.191 242.668 170.065 242.038 170.065C242.028 170.065 242.017 170.065 242.006 170.065C241.476 170.065 240.848 170.065 240.211 170.309C239.559 170.452 239.045 170.837 238.627 171.151C238.616 171.159 238.606 171.167 238.595 171.175C238.04 171.591 237.66 172.249 237.42 172.848C237.417 172.857 237.413 172.867 237.41 172.876C237.407 172.886 237.403 172.896 237.4 172.906C237.295 173.222 237.16 173.625 237.16 174.044C237.16 174.13 237.153 174.195 237.143 174.283C237.136 174.346 237.127 174.421 237.119 174.525C237.103 174.737 237.101 174.992 237.175 175.287C237.194 175.363 237.21 175.44 237.226 175.517C237.285 175.793 237.346 176.08 237.546 176.4C237.634 176.626 237.776 176.826 237.904 176.984C237.913 176.995 237.922 177.005 237.931 177.016L235.131 179.203C234.835 178.855 234.581 178.452 234.436 177.946C234.427 177.916 234.416 177.888 234.402 177.86C234.125 177.305 234.017 176.654 233.908 175.998C233.901 175.955 233.894 175.912 233.887 175.869C233.79 175.286 233.886 174.468 234.001 173.666C234.107 172.925 234.32 172.174 234.54 171.515C234.963 170.355 235.59 169.421 236.417 168.697C237.299 167.926 238.147 167.296 239.193 166.878C240.261 166.451 241.321 166.24 242.375 166.24C243.702 166.24 244.739 166.353 245.652 166.758Z" fill="#62CEBB" stroke="#62CEBB" stroke-linejoin="round"/>
<path d="M243.578 185.491L246.406 187.033L239.604 199.168L236.767 197.535L238.993 193.591C239.059 193.475 239.075 193.338 239.039 193.209C239.003 193.081 238.918 192.973 238.801 192.908L227.566 186.645L229.43 183.363L240.672 189.63C240.912 189.764 241.216 189.678 241.351 189.439L243.578 185.491Z" fill="#62CEBB" stroke="#62CEBB" stroke-linejoin="round"/>
<path d="M227.106 199.294C227.094 199.288 227.081 199.282 227.068 199.277C226.459 199.033 225.835 198.904 225.311 198.904C224.689 198.904 224.048 199.028 223.516 199.294C222.999 199.552 222.394 200.042 221.926 200.51C221.371 201.065 221.122 201.858 221.004 202.448C220.881 203.061 220.872 203.712 221.125 204.373C221.269 205.025 221.654 205.538 221.968 205.956C221.976 205.967 221.984 205.978 221.992 205.988C222.357 206.475 222.84 206.958 223.327 207.323C223.803 207.679 224.39 208.031 224.863 208.268C224.875 208.274 224.888 208.28 224.901 208.285C225.51 208.528 226.134 208.657 226.658 208.657C227.301 208.657 227.814 208.525 228.415 208.285C229.096 208.013 229.611 207.485 229.972 207.005C230.473 206.376 230.727 205.741 230.853 205.113C230.978 204.487 230.985 203.822 230.715 203.146C230.672 203.038 230.631 202.927 230.589 202.814C230.44 202.41 230.281 201.978 229.977 201.573L229.967 201.561C229.499 200.975 229.133 200.606 228.642 200.239C228.166 199.882 227.579 199.53 227.106 199.294ZM219.194 198.589C219.949 197.62 220.898 196.787 221.809 196.383C222.817 195.935 223.876 195.517 224.912 195.413C225.967 195.308 227.024 195.413 228.086 195.731C229.171 196.057 230.123 196.483 230.961 197.111C231.802 197.742 232.542 198.586 233.069 199.535C233.596 200.484 233.917 201.435 234.133 202.616C234.24 203.694 234.235 204.742 233.923 205.887C233.595 206.98 233.168 208.033 232.438 208.972C231.683 209.942 230.734 210.774 229.823 211.179C228.815 211.627 227.756 212.045 226.721 212.148C225.665 212.254 224.608 212.149 223.546 211.83C222.461 211.505 221.509 211.078 220.671 210.45C219.83 209.819 219.09 208.975 218.563 208.026C218.035 207.077 217.715 206.125 217.499 205.053C217.392 203.975 217.398 202.926 217.71 201.78C218.038 200.58 218.464 199.527 219.194 198.589Z" fill="#62CEBB" stroke="#62CEBB" stroke-linejoin="round"/>
<path d="M216.73 222.359C216.729 222.375 216.728 222.392 216.728 222.408C216.728 223.435 216.419 224.486 215.978 225.589C215.567 226.617 214.84 227.56 213.772 228.414C213.764 228.421 213.756 228.427 213.748 228.434C212.578 229.498 211.308 230.132 209.931 230.449L209.931 230.449L209.922 230.451C208.82 230.727 207.727 230.676 206.706 230.303L207.576 226.913C207.855 227.008 208.138 227.06 208.471 227.06C208.482 227.06 208.492 227.06 208.503 227.06C208.82 227.06 209.337 227.061 209.752 226.922L209.77 226.916C210.098 226.807 210.489 226.677 210.882 226.415C210.948 226.371 211.017 226.328 211.085 226.284C211.3 226.148 211.522 226.008 211.723 225.812C212.332 225.321 212.72 224.808 212.977 224.165C213.206 223.592 213.362 222.936 213.237 222.348C213.222 221.698 212.969 221.083 212.745 220.632C212.49 220.006 212.115 219.508 211.744 219.137C211.732 219.125 211.72 219.113 211.708 219.101C211.298 218.691 210.815 218.208 210.308 217.942C209.809 217.578 209.179 217.321 208.522 217.308C207.923 217.194 207.289 217.192 206.644 217.439C206.111 217.556 205.649 217.846 205.232 218.107C205.139 218.166 205.048 218.223 204.959 218.276C204.924 218.297 204.891 218.323 204.862 218.352L204.855 218.359C204.632 218.582 204.378 218.835 204.126 219.213C204.007 219.392 203.918 219.54 203.834 219.68L203.833 219.682C203.749 219.823 203.67 219.954 203.565 220.111C203.54 220.148 203.521 220.188 203.507 220.23L203.502 220.245C203.39 220.579 203.256 220.98 203.256 221.511C203.256 221.523 203.256 221.535 203.256 221.548C203.256 221.72 203.256 221.973 203.306 222.243L199.844 222.849C199.725 222.371 199.684 221.893 199.761 221.357C199.873 220.57 199.978 219.971 200.274 219.378C200.613 218.701 200.937 218.055 201.366 217.412C201.78 216.791 202.303 216.266 202.834 215.842C202.841 215.836 202.847 215.831 202.854 215.825C203.811 214.974 204.754 214.453 205.909 214.138L205.909 214.138L205.921 214.135C206.982 213.816 208.133 213.716 209.159 213.921C209.175 213.925 209.191 213.927 209.208 213.929C210.266 214.034 211.322 214.352 212.27 214.878C213.301 215.451 214.224 215.97 214.828 216.674C215.466 217.419 215.987 218.256 216.3 219.298C216.632 220.403 216.833 221.336 216.73 222.359Z" fill="#62CEBB" stroke="#62CEBB" stroke-linejoin="round"/>
<path d="M187.322 227.029L194.127 237.934C194.197 238.047 194.31 238.127 194.44 238.157C194.57 238.187 194.706 238.163 194.818 238.092L199.421 235.174C199.653 235.027 199.723 234.72 199.578 234.487L192.767 223.573L195.966 221.531L204.752 235.604L192.912 243.04L184.124 229.071L187.322 227.029Z" fill="#62CEBB" stroke="#62CEBB" stroke-linejoin="round"/>
<path d="M180.081 238.822C179.997 238.623 179.794 238.5 179.579 238.518C179.364 238.535 179.184 238.689 179.134 238.899L176.275 250.77L173.712 251.83L167.251 236.583L170.713 235.075L174.332 243.588C174.416 243.785 174.616 243.907 174.83 243.891C175.044 243.875 175.223 243.724 175.277 243.517L178.246 231.976L180.812 230.915L187.274 246.161L183.813 247.669L180.081 238.822Z" fill="#62CEBB" stroke="#62CEBB" stroke-linejoin="round"/>
<path d="M166.781 245.622L166.781 245.622L166.783 245.633C166.999 246.603 167.104 247.671 166.998 248.729C166.893 249.776 166.58 250.721 166.048 251.678C165.521 252.626 164.781 253.471 163.94 254.101C163.93 254.109 163.92 254.117 163.911 254.125C163.09 254.843 161.936 255.375 160.639 255.7L160.639 255.699L160.631 255.702C159.02 256.131 157.663 256.122 156.427 255.71C155.273 255.326 154.337 254.872 153.573 254.142L155.815 251.471C156.008 251.672 156.223 251.855 156.441 252C156.834 252.262 157.225 252.392 157.553 252.501L157.571 252.507C157.985 252.645 158.394 252.645 158.812 252.645C158.825 252.645 158.838 252.645 158.851 252.645C159.121 252.645 159.325 252.61 159.488 252.581L159.509 252.577C159.662 252.549 159.752 252.533 159.862 252.533C159.889 252.533 159.917 252.53 159.944 252.526C160.732 252.395 161.369 252.005 161.846 251.647C162.369 251.255 162.792 250.707 162.934 249.999C162.97 249.819 163.016 249.663 163.067 249.488C163.089 249.413 163.112 249.334 163.136 249.249C163.21 248.981 163.28 248.678 163.28 248.33L163.28 248.298C163.281 247.768 163.281 247.14 163.037 246.504C162.909 245.895 162.665 245.295 162.311 244.706C162.302 244.691 162.293 244.677 162.282 244.663L162.265 244.64C161.94 244.206 161.566 243.709 161.06 243.329C160.562 242.956 160.045 242.695 159.398 242.565C158.772 242.44 158.144 242.44 157.518 242.565C157.498 242.569 157.478 242.575 157.458 242.581L156.953 242.75L156.448 242.918C156.214 242.996 156.029 243.11 155.87 243.221C155.787 243.279 155.726 243.325 155.669 243.367C155.597 243.421 155.53 243.471 155.431 243.537C155.403 243.555 155.378 243.576 155.354 243.6C155.094 243.86 154.847 244.231 154.636 244.547C154.63 244.556 154.624 244.565 154.618 244.574C154.46 244.811 154.346 245.054 154.276 245.32L150.901 244.282C151.02 243.813 151.211 243.349 151.521 242.884C151.957 242.23 152.373 241.717 152.877 241.314C153.411 240.887 154.055 240.456 154.724 240.01C155.383 239.683 156.101 239.383 156.688 239.285C156.705 239.282 156.721 239.278 156.738 239.274C157.886 238.961 159.043 238.957 160.217 239.17C161.276 239.383 162.336 239.807 163.289 240.442C164.237 241.073 164.977 241.809 165.616 242.655C166.156 243.631 166.572 244.581 166.781 245.622Z" fill="#62CEBB" stroke="#62CEBB" stroke-linejoin="round"/>
<path d="M144.866 252.086C144.836 251.834 144.623 251.645 144.37 251.645H144.033C143.854 251.645 143.689 251.74 143.6 251.895L139.574 258.856L135.439 259.286L140.419 251.057C140.535 250.866 140.51 250.621 140.357 250.457L133.296 242.888L137.443 242.456L142.999 248.228C143.111 248.343 143.271 248.399 143.43 248.376L144.216 248.264C144.482 248.226 144.671 247.984 144.642 247.716L144.022 241.822L147.737 241.469L149.325 257.866L145.594 258.222L144.866 252.086Z" fill="#62CEBB" stroke="#62CEBB" stroke-linejoin="round"/>
<path d="M127.019 249.704C127.031 249.488 126.903 249.289 126.702 249.211C126.501 249.132 126.272 249.191 126.134 249.358L118.326 258.811L115.594 258.635L116.441 242.12L120.266 242.297L119.734 251.555C119.722 251.77 119.848 251.969 120.048 252.049C120.248 252.128 120.477 252.071 120.615 251.906L128.311 242.785L131.159 242.963L130.312 259.478L126.486 259.3L127.019 249.704Z" fill="#62CEBB" stroke="#62CEBB" stroke-linejoin="round"/>
<path d="M111.974 237.324L113.03 237.5L111.798 240.628C111.742 240.768 111.753 240.926 111.828 241.058C111.902 241.189 112.032 241.28 112.181 241.305L113.03 241.446L112.418 244.945L109.586 244.445L110.272 240.527L111.974 237.324Z" fill="#62CEBB" stroke="#62CEBB" stroke-linejoin="round"/>
<path d="M92.2287 239.465C92.2287 239.682 92.3682 239.874 92.5742 239.94L97.0647 241.399C97.2747 241.467 97.5045 241.39 97.6302 241.208L99.4423 238.592L103.122 239.731L92.4343 253.693L88.954 252.564L88.5304 235.099L92.2287 236.243V239.465ZM92.5292 242.238C92.3801 242.196 92.2196 242.225 92.0948 242.317C91.97 242.409 91.8951 242.554 91.892 242.709L91.7798 248.32C91.7753 248.54 91.9161 248.738 92.126 248.806C92.336 248.873 92.5656 248.796 92.691 248.614L95.9467 243.901C96.0382 243.768 96.0603 243.6 96.006 243.448C95.9516 243.296 95.8275 243.18 95.6726 243.136L92.5292 242.238Z" fill="#62CEBB" stroke="#62CEBB" stroke-linejoin="round"/>
<path d="M72.7385 226.979L66.4719 238.211C66.4069 238.328 66.3912 238.465 66.4281 238.593C66.465 238.721 66.5515 238.829 66.6685 238.893L71.3835 241.474C71.6243 241.606 71.9264 241.519 72.0602 241.279L78.3288 230.044L81.718 231.916L73.5645 246.417L61.3016 239.607L69.3488 225.107L72.7385 226.979Z" fill="#62CEBB" stroke="#62CEBB" stroke-linejoin="round"/>
<path d="M49.0692 230.178C49.0654 230.169 49.0613 230.161 49.0569 230.152C48.7484 229.535 48.5372 228.803 48.4311 228.06C48.3317 227.365 48.4303 226.659 48.635 226.045C48.6373 226.038 48.6394 226.031 48.6414 226.024C48.8502 225.294 49.1591 224.682 49.5614 224.179C49.9862 223.649 50.5108 223.126 51.1322 222.712C51.7331 222.312 52.333 222.109 53.0586 222.006C53.7976 221.9 54.4236 221.9 55.1625 222.006C55.8131 222.098 56.3896 222.471 57.0774 222.929L59.3115 224.604C59.5311 224.768 59.8423 224.725 60.0088 224.507L62.9637 220.637L66.2042 223.066L56.1494 236.185L50.4928 231.892C49.8406 231.348 49.3572 230.85 49.0692 230.178ZM57.6428 227.997C57.7272 227.892 57.766 227.758 57.7506 227.625C57.7352 227.492 57.6668 227.37 57.5608 227.288L55.5611 225.733C55.3596 225.544 55.1239 225.461 54.9156 225.423C54.7163 225.387 54.509 225.387 54.3525 225.387C54.3466 225.387 54.3408 225.387 54.3351 225.387C54.2814 225.387 54.228 225.396 54.177 225.413C53.7631 225.55 53.2279 225.825 52.7098 226.472C52.259 227.035 51.8777 227.661 52.0538 228.365C52.0569 228.377 52.0605 228.389 52.0646 228.402C52.0691 228.415 52.0737 228.429 52.0785 228.443C52.1797 228.748 52.3247 229.185 52.6345 229.495C52.6501 229.51 52.6667 229.525 52.6843 229.538L54.5928 230.997C54.808 231.162 55.1151 231.125 55.2853 230.914L57.6428 227.997Z" fill="#62CEBB" stroke="#62CEBB" stroke-linejoin="round"/>
<path d="M46.718 216.029C46.8698 215.877 46.9079 215.646 46.8125 215.453C46.7171 215.261 46.5097 215.151 46.297 215.18L34.1938 216.83L32.258 214.895L44.1087 203.366L46.7829 206.129L40.1763 212.626C40.0238 212.776 39.9836 213.006 40.0763 213.199C40.1691 213.392 40.3742 213.504 40.5866 213.479L52.4628 212.05L54.4169 214.092L42.5582 225.628L39.8813 222.863L46.718 216.029Z" fill="#62CEBB" stroke="#62CEBB" stroke-linejoin="round"/>
<path d="M18.5451 195.832L32.193 186.526L34.2246 189.616L26.9996 194.502C26.8042 194.634 26.7277 194.884 26.816 195.103C26.9043 195.322 27.1333 195.449 27.3656 195.408L34.1213 194.229L35.2162 195.829L31.6804 201.612C31.5576 201.813 31.5915 202.072 31.7616 202.235C31.9317 202.397 32.1921 202.419 32.387 202.287L39.6094 197.404L41.7392 200.508L28.0889 209.816L25.6273 206.125L30.1765 198.655C30.2786 198.487 30.2731 198.275 30.1625 198.113C30.0519 197.951 29.8567 197.868 29.6633 197.902L20.9993 199.417L18.5451 195.832Z" fill="#62CEBB" stroke="#62CEBB" stroke-linejoin="round"/>
<path d="M17.3901 178.431L19.966 177.185L22.335 182.332C22.3916 182.455 22.4956 182.55 22.6234 182.595C22.7511 182.64 22.8916 182.631 23.0127 182.571L25.4825 181.336C25.7261 181.215 25.8275 180.92 25.7105 180.674L22.6705 174.283L25.5843 172.912L30.542 183.236L15.6157 190.432L10.7705 180.23L13.6856 178.859L16.7259 185.146C16.8438 185.39 17.1342 185.496 17.3812 185.385L19.6264 184.375C19.7487 184.32 19.8438 184.218 19.8903 184.092C19.9368 183.966 19.9308 183.827 19.8737 183.706L17.3901 178.431Z" fill="#62CEBB" stroke="#62CEBB" stroke-linejoin="round"/>
<path d="M7.03955 164.334C7.05105 164.317 7.06148 164.299 7.07075 164.281C7.36469 163.693 7.86262 163.189 8.43647 162.615C8.92162 162.13 9.51181 161.828 10.241 161.62C10.9914 161.406 11.6182 161.303 12.349 161.303C13.043 161.303 13.7525 161.502 14.3707 161.811C15.0068 162.129 15.6335 162.548 16.1492 163.064C16.633 163.548 16.9389 164.138 17.2662 165.009L18.1613 167.694C18.2483 167.954 18.5293 168.096 18.7906 168.011L23.4615 166.488L24.5332 170.238L8.73977 175.323L6.54039 168.623C6.33135 167.889 6.23281 167.177 6.33334 166.368C6.4398 165.626 6.64753 164.922 7.03955 164.334ZM14.6444 169.355C14.9014 169.267 15.0408 168.989 14.9584 168.73L14.1726 166.262L14.1726 166.262L14.1704 166.255C14.0124 165.781 13.6713 165.563 13.4015 165.39C13.3662 165.367 13.3321 165.346 13.2998 165.324C13.2628 165.299 13.2227 165.28 13.1806 165.266C12.7089 165.109 12.0312 165.132 11.2928 165.378C10.9194 165.502 10.5893 165.664 10.3273 165.856C10.0722 166.043 9.84306 166.288 9.74166 166.592C9.73707 166.606 9.73231 166.62 9.72742 166.634C9.62469 166.94 9.46332 167.42 9.6294 167.918L10.4152 170.275C10.4574 170.401 10.5485 170.506 10.668 170.565C10.7876 170.624 10.9259 170.633 11.052 170.589L14.6444 169.355Z" fill="#62CEBB" stroke="#62CEBB" stroke-linejoin="round"/>
<path d="M18.8154 148.875L19.8655 156.223L3.45584 158.445L2.92362 154.721L8.15086 154.004C8.28416 153.986 8.40447 153.915 8.48459 153.807C8.56471 153.698 8.59788 153.563 8.57662 153.43L8.12948 150.636C8.02197 149.662 8.02434 148.812 8.12882 148.081C8.22924 147.378 8.53254 146.678 8.92232 146.191C9.34369 145.664 9.87186 145.135 10.3986 144.712C10.9808 144.329 11.677 144.124 12.5231 144.018C14.2212 143.806 15.6584 144.128 16.7699 144.936C17.8535 145.724 18.4887 147.031 18.8154 148.875ZM15.7916 152.769C16.063 152.728 16.2506 152.475 16.2117 152.204L15.8749 149.847L15.8751 149.847L15.8732 149.836C15.8102 149.458 15.7117 149.151 15.5685 148.883C15.4251 148.614 15.2489 148.407 15.0599 148.218C14.7876 147.946 14.4431 147.83 14.1161 147.794C13.7924 147.758 13.4556 147.795 13.149 147.857C12.4728 147.992 12.0509 148.275 11.6586 148.667C11.1697 149.155 11.0536 149.901 11.1822 150.563L11.5171 152.906C11.536 153.038 11.6068 153.157 11.7138 153.237C11.8208 153.316 11.9551 153.35 12.087 153.33L15.7916 152.769ZM17.5085 139.955L1.09788 142.283L0.565783 138.56L16.9764 136.232L17.5085 139.955Z" fill="#62CEBB" stroke="#62CEBB" stroke-linejoin="round"/>
<path d="M17.5148 124.446C17.4801 124.516 17.462 124.592 17.462 124.67C17.462 124.781 17.3884 125.036 17.2903 125.232C17.2797 125.253 17.2706 125.275 17.2632 125.297C17.1628 125.598 17.0642 125.796 16.9535 126.017C16.9087 126.107 16.8261 126.208 16.7051 126.337L13.9288 125.357C13.9299 125.354 13.931 125.351 13.9321 125.348C13.989 125.272 14.0365 125.191 14.073 125.118C14.1092 125.046 14.1577 124.936 14.1816 124.813C14.2328 124.698 14.2678 124.589 14.2874 124.472C14.3084 124.346 14.3084 124.224 14.3083 124.125C14.3083 124.119 14.3083 124.114 14.3083 124.109L14.3083 124.091C14.3083 123.935 14.3084 123.728 14.2722 123.528C14.2362 123.331 14.1599 123.109 13.9907 122.915C13.882 122.736 13.7239 122.593 13.596 122.494C13.4405 122.373 13.2716 122.272 13.1337 122.203C13.0025 122.137 12.8492 122.132 12.7143 122.19L0.568703 127.363L0.919325 123.245L8.69 120.656C8.88241 120.592 9.01703 120.418 9.0308 120.215C9.04456 120.013 8.93475 119.822 8.7528 119.733L1.53153 116.177L1.79332 112.252L13.8971 119.044C13.8976 119.045 13.8982 119.045 13.8987 119.045C14.0418 119.127 14.1769 119.203 14.3056 119.275C14.5442 119.409 14.7609 119.53 14.9657 119.655C15.2758 119.843 15.5171 120.015 15.7001 120.198C15.729 120.227 15.7613 120.252 15.7964 120.273C16.2632 120.553 16.5478 120.925 16.8885 121.379C17.1936 121.786 17.3839 122.175 17.4769 122.547C17.4801 122.559 17.4836 122.572 17.4877 122.584C17.5216 122.685 17.5474 122.854 17.5609 123.111C17.5741 123.362 17.5743 123.656 17.5743 123.997C17.5743 124.234 17.567 124.342 17.5148 124.446Z" fill="#62CEBB" stroke="#62CEBB" stroke-linejoin="round"/>
<path d="M6.73889 105.184L19.2668 107.99L18.3768 111.727L2.39515 108.024L5.53986 94.2983L21.625 98.0005L20.7335 101.743L8.1924 98.9337C7.92477 98.8738 7.65879 99.0406 7.59626 99.3077L6.36137 104.582C6.33095 104.712 6.35372 104.848 6.42462 104.961C6.49553 105.074 6.60868 105.154 6.73889 105.184Z" fill="#62CEBB" stroke="#62CEBB" stroke-linejoin="round"/>
<path d="M20.9617 92.3221C20.9415 92.3282 20.9217 92.3356 20.9023 92.3441C19.988 92.7503 18.9492 92.8622 17.7375 92.8622C16.6801 92.8622 15.6271 92.6505 14.6848 92.2319C14.6827 92.231 14.6806 92.2301 14.6785 92.2292C14.6748 92.2276 14.6712 92.2261 14.6675 92.2246C13.5991 91.7974 12.7733 91.2765 12.0515 90.4519C12.0442 90.4435 12.0366 90.4354 12.0288 90.4276C11.2896 89.6888 10.6498 88.731 10.2237 87.7727C9.80507 86.8312 9.58847 85.7685 9.47893 84.5642C9.37747 83.4486 9.67787 82.4171 10.1244 81.1895C10.5379 80.0531 11.266 79.1071 12.017 78.3542C12.8848 77.5972 13.8329 76.974 14.7522 76.6678C14.7615 76.6647 14.7706 76.6613 14.7797 76.6577C15.8219 76.241 16.7627 76.1323 17.962 76.1323C19.0194 76.1323 20.0723 76.3439 21.0146 76.7625C21.0203 76.7651 21.0261 76.7675 21.032 76.7699C22.1003 77.197 22.9261 77.718 23.6479 78.5426C23.6553 78.5509 23.6628 78.559 23.6707 78.5669C24.4218 79.3177 25.0506 80.1604 25.4684 81.2044C25.4708 81.2102 25.4732 81.216 25.4758 81.2217C25.8918 82.1573 26.1082 83.2126 26.2184 84.4076C26.2157 85.5751 26.0018 86.7377 25.5807 87.7901L25.575 87.8049C25.1594 88.9473 24.4259 89.8972 23.6707 90.652C22.9318 91.3906 21.9908 92.0136 20.9617 92.3221ZM17.864 89.3639C17.8962 89.3703 17.9291 89.3736 17.962 89.3736H17.9826C18.5307 89.3736 19.1339 89.3736 19.7439 89.2517C20.4174 89.117 20.9453 88.721 21.3728 88.4003C21.3837 88.3921 21.3945 88.384 21.4053 88.3759C21.9599 87.9602 22.3402 87.3018 22.5799 86.7029C22.5836 86.6938 22.5869 86.6846 22.59 86.6753C22.8252 85.97 22.9525 85.3534 22.9525 84.7217C22.9525 84.6887 22.9492 84.6559 22.9428 84.6236C22.9399 84.6092 22.937 84.5948 22.9341 84.5803C22.8281 84.0492 22.6967 83.3911 22.2911 82.8506L22.2734 82.827C21.9484 82.3937 21.575 81.896 21.0685 81.5162C20.5928 81.1597 20.0055 80.8076 19.5327 80.5714C19.5203 80.5652 19.5076 80.5595 19.4948 80.5543C18.8907 80.3128 18.2913 80.193 17.7406 80.0829L17.7232 80.0794C17.6909 80.073 17.6581 80.0697 17.6252 80.0697L17.6046 80.0697C17.0565 80.0697 16.4533 80.0697 15.8432 80.1917C15.1697 80.3263 14.6419 80.7223 14.2144 81.0431C14.2035 81.0512 14.1927 81.0593 14.1819 81.0674C13.6273 81.4832 13.247 82.1415 13.0073 82.7405C13.0036 82.7496 13.0003 82.7588 12.9972 82.7681C12.762 83.4733 12.6347 84.0899 12.6347 84.7217C12.6347 85.4119 12.9081 86.0757 13.2961 86.5927L13.3137 86.6163C13.6388 87.0496 14.0122 87.5473 14.5187 87.9271L14.8186 87.527L14.5187 87.9271L14.5373 87.941C14.9755 88.2695 15.4695 88.6399 16.0924 88.889C16.6965 89.1305 17.2959 89.2503 17.8466 89.3604L17.864 89.3639Z" fill="#62CEBB" stroke="#62CEBB" stroke-linejoin="round"/>
<path d="M21.9605 58.4716L24.7961 60.1035L22.4709 64.0446C22.4035 64.1589 22.3842 64.2953 22.4175 64.4239C22.4507 64.5524 22.5337 64.6624 22.6481 64.7297L33.6657 71.2078L31.7071 74.5002L20.6852 68.0195C20.4474 67.8797 20.1413 67.9589 20.0011 68.1965L17.6738 72.1411L14.9391 70.518L21.9605 58.4716Z" fill="#62CEBB" stroke="#62CEBB" stroke-linejoin="round"/>
<path d="M36.0633 58.856L39.9426 61.9173L37.6297 64.9405L24.6121 54.7848L28.9044 49.2386C29.4492 48.5859 29.9475 48.102 30.62 47.8139C30.629 47.81 30.6379 47.8059 30.6466 47.8016C31.2648 47.4926 31.9744 47.2932 32.6683 47.2932C32.692 47.2932 32.7156 47.2916 32.739 47.2882C33.4346 47.1889 34.1415 47.2874 34.7555 47.492C35.4104 47.7102 36.1298 48.0244 36.6221 48.4181C37.1531 48.8427 37.6758 49.3671 38.09 49.9882C38.4906 50.5888 38.6932 51.1884 38.7969 51.9136C38.9022 52.651 38.8988 53.25 38.6988 53.9497C38.493 54.6698 38.185 55.2914 37.7651 55.9239L35.9826 58.1511C35.8994 58.2551 35.8611 58.388 35.8762 58.5203C35.8914 58.6527 35.9587 58.7735 36.0633 58.856ZM32.9156 56.3838C33.02 56.4681 33.1538 56.5069 33.2871 56.4915C33.4204 56.4761 33.5419 56.4077 33.6243 56.3018L35.1796 54.303C35.3689 54.1015 35.4518 53.8659 35.4897 53.6576C35.526 53.4583 35.5259 53.251 35.5259 53.0946L35.5259 53.0772C35.5259 52.7534 35.3706 52.452 35.1904 52.2064C35.0024 51.95 34.7431 51.6947 34.44 51.4524C33.8764 51.0017 33.2512 50.6208 32.5471 50.7967C32.5347 50.7998 32.5224 50.8034 32.5103 50.8074C32.4966 50.812 32.4827 50.8166 32.4684 50.8213C32.1633 50.9225 31.7265 51.0674 31.4168 51.377C31.4011 51.3926 31.3866 51.4093 31.3731 51.4268L29.9137 53.3345C29.749 53.5498 29.7858 53.8571 29.9967 54.0273L32.9156 56.3838Z" fill="#62CEBB" stroke="#62CEBB" stroke-linejoin="round"/>
<path d="M47.8404 48.269L53.0933 43.0184L55.3161 45.3256L47.154 53.3809L35.5092 41.6353L43.5487 33.7023L45.7759 36.0141L40.8468 40.9411C40.6558 41.132 40.6509 41.4399 40.8355 41.6368L42.5195 43.4323C42.6121 43.531 42.7408 43.588 42.8761 43.5901C43.0115 43.5923 43.1419 43.5395 43.2377 43.4438L47.3674 39.3159L49.3689 41.3998L45.225 45.5419C45.0336 45.7333 45.0292 46.0422 45.215 46.2389L47.1235 48.2588C47.2163 48.357 47.3448 48.4134 47.4798 48.4154C47.6148 48.4173 47.7449 48.3645 47.8404 48.269Z" fill="#62CEBB" stroke="#62CEBB" stroke-linejoin="round"/>
<path d="M66.7521 35.0407C66.5558 36.2182 65.7605 37.461 64.1456 38.6454L57.4746 43.4083L47.6244 30.1745L57.5987 22.697L59.4777 25.2582L53.0238 30.1229C52.8049 30.2879 52.7597 30.5983 52.9223 30.8189L54.494 32.9509C54.6573 33.1725 54.969 33.2204 55.1913 33.058L58.1102 30.926L58.1108 30.9255C59.7441 29.7282 61.1967 29.239 62.3765 29.3373C63.5662 29.4364 64.6762 30.026 65.6105 31.2711C66.563 32.5406 66.9483 33.8641 66.7521 35.0407ZM62.6678 35.1689C62.6719 35.1568 62.6754 35.1445 62.6785 35.1321C62.8342 34.5098 62.6639 34.0294 62.3849 33.6112C62.0436 33.0994 61.5255 32.9538 61.0798 32.8425C61.0402 32.8326 60.9995 32.8275 60.9586 32.8275C60.4155 32.8275 59.8584 32.9668 59.313 33.3752C59.3125 33.3756 59.312 33.376 59.3115 33.3763L56.7323 35.2819C56.6246 35.3615 56.5533 35.4809 56.5344 35.6135C56.5155 35.746 56.5506 35.8807 56.6318 35.9871L58.428 38.3436C58.5087 38.4495 58.6283 38.5189 58.7603 38.5363C58.8924 38.5536 59.0259 38.5176 59.1312 38.4362L61.5983 36.5307C62.1026 36.1518 62.5151 35.6268 62.6678 35.1689Z" fill="#62CEBB" stroke="#62CEBB" stroke-linejoin="round"/>
<path d="M70.8149 21.8225C70.8194 21.8354 70.8244 21.848 70.8299 21.8604C71.6091 23.6128 72.1307 25.192 72.5526 26.4691C72.6104 26.6443 72.6664 26.8138 72.721 26.9773C73.15 28.2639 73.2436 29.5157 73.044 30.4137C72.8288 31.3814 72.5172 32.1907 71.9176 32.8899C71.3825 33.5139 70.5939 34.0802 69.5859 34.6587L68.1194 31.8133C68.5197 31.5178 68.8126 31.1891 69.0263 30.7724C69.3178 30.316 69.4293 29.6525 69.4293 29.0634C69.4293 28.2906 69.1748 27.4351 68.7224 26.4137C68.4505 25.6022 68.0386 24.5805 67.5501 23.3687C67.4211 23.0487 67.2868 22.7154 67.1483 22.3693L67.1484 22.3692L67.1436 22.358L65.3027 18.0644L75.2372 12.6856L83.0691 27.2846L79.6891 29.0628L73.6364 17.7189C73.5737 17.6014 73.4668 17.5138 73.3393 17.4754C73.2118 17.4371 73.0743 17.4512 72.9572 17.5146L70.2629 18.9733C70.047 19.0902 69.9479 19.3466 70.0291 19.5783L70.8149 21.8225Z" fill="#62CEBB" stroke="#62CEBB" stroke-linejoin="round"/>
<path d="M91.4219 6.47281L92.5348 9.46775L86.0436 11.8747C85.9185 11.9211 85.8172 12.0155 85.7621 12.137C85.707 12.2585 85.7027 12.3969 85.7502 12.5216L86.6483 14.8781C86.7453 15.1325 87.0279 15.2625 87.2842 15.1707L92.7657 13.2065L93.771 15.9698L88.294 17.9324C88.0358 18.0249 87.9003 18.3083 87.9905 18.5674L88.8886 21.1483C88.933 21.276 89.0272 21.3802 89.1496 21.4372C89.2721 21.4943 89.4125 21.4994 89.5387 21.4513L96.1402 18.9375L97.2484 21.9198L86.4057 25.8421L80.7955 10.2884L91.4219 6.47281Z" fill="#62CEBB" stroke="#62CEBB" stroke-linejoin="round"/>
<path d="M114.141 18.1312L110.408 18.9308L109.16 12.6949C109.134 12.5636 109.056 12.4483 108.944 12.3749C108.832 12.3015 108.696 12.276 108.565 12.3042L102.839 13.5386C102.572 13.5962 102.401 13.8575 102.454 14.1255L103.705 20.3746L99.9633 21.176L96.5757 4.98606L100.315 4.18506L101.558 9.98025C101.585 10.11 101.664 10.2234 101.775 10.2954C101.887 10.3674 102.022 10.3922 102.152 10.3642L107.877 9.12985C108.147 9.0717 108.319 8.80606 108.261 8.53628L107.019 2.74126L110.753 1.9413L114.141 18.1312Z" fill="#62CEBB" stroke="#62CEBB" stroke-linejoin="round"/>
<path d="M121.193 10.4581C121.203 10.673 121.349 10.8577 121.555 10.9167C121.762 10.9757 121.984 10.8959 122.105 10.7185L129.034 0.603789L131.768 0.515652L132.509 17.0291L128.68 17.2071L128.254 7.94422C128.244 7.73026 128.099 7.54633 127.894 7.48686C127.688 7.42739 127.467 7.50559 127.345 7.68131L120.528 17.4623L117.679 17.5513L116.938 1.03735L120.766 0.85937L121.193 10.4581Z" fill="#62CEBB" stroke="#62CEBB" stroke-linejoin="round"/>
<path d="M145.035 18.1772L145.653 12.6236C145.667 12.49 145.628 12.3561 145.543 12.2521C145.458 12.148 145.335 12.0825 145.201 12.0704L143.966 11.9582C143.799 11.943 143.635 12.0126 143.53 12.1437L139.211 17.5401L135.226 17.107L139.596 11.6464C139.685 11.5349 139.723 11.3907 139.699 11.25C139.675 11.1093 139.592 10.9855 139.471 10.9099C138.638 10.39 138.042 9.78701 137.642 8.88653C137.238 7.97731 137.128 7.0609 137.233 5.89358C137.339 5.15535 137.55 4.42809 137.857 3.81487C138.16 3.20747 138.555 2.71776 139.146 2.32406C139.158 2.31604 139.17 2.30751 139.181 2.29848C139.684 1.89631 140.296 1.58754 141.027 1.37883C141.726 1.17931 142.437 1.17516 143.176 1.28081L143.191 1.28269L150.666 2.12461L148.866 18.5333L145.035 18.1772ZM146.553 5.29164C146.563 5.0258 146.362 4.79931 146.097 4.77628L143.515 4.55185C143.501 4.5506 143.486 4.54997 143.472 4.54997H143.47H143.469H143.468H143.466H143.465H143.464H143.462H143.461H143.46H143.458H143.457H143.456H143.455H143.453H143.452H143.451H143.449H143.448H143.447H143.445H143.444H143.443H143.441H143.44H143.439H143.437H143.436H143.435H143.434H143.432H143.431H143.43H143.428H143.427H143.426H143.424H143.423H143.422H143.42H143.419H143.418H143.416H143.415H143.414H143.413H143.411H143.41H143.409H143.407H143.406H143.405H143.403H143.402H143.401H143.399H143.398H143.397H143.395H143.394H143.393H143.392H143.39H143.389H143.388H143.386H143.385H143.384H143.382H143.381H143.38H143.379H143.377H143.376H143.375H143.373H143.372H143.371H143.369H143.368H143.367H143.366H143.364H143.363H143.362H143.36H143.359H143.358H143.356H143.355H143.354H143.353H143.351H143.35H143.349H143.347H143.346H143.345H143.343H143.342H143.341H143.34H143.338H143.337H143.336H143.334H143.333H143.332H143.331H143.329H143.328H143.327H143.325H143.324H143.323H143.322H143.32H143.319H143.318H143.316H143.315H143.314H143.313H143.311H143.31H143.309H143.308H143.306H143.305H143.304H143.302H143.301H143.3H143.299H143.297H143.296H143.295H143.294H143.292H143.291H143.29H143.288H143.287H143.286H143.285H143.283H143.282H143.281H143.28H143.278H143.277H143.276H143.275H143.273H143.272H143.271H143.27H143.268H143.267H143.266H143.265H143.263H143.262H143.261H143.26H143.258H143.257H143.256H143.255H143.253H143.252H143.251H143.25H143.248H143.247H143.246H143.245H143.243H143.242H143.241H143.24H143.238H143.237H143.236H143.235H143.234H143.232H143.231H143.23H143.229H143.227H143.226H143.225H143.224H143.223H143.221H143.22H143.219H143.218H143.216H143.215H143.214H143.213H143.212H143.21H143.209H143.208H143.207H143.206H143.204H143.203H143.202H143.201H143.2H143.198H143.197H143.196H143.195H143.194H143.192H143.191H143.19H143.189H143.188H143.186H143.185H143.184H143.183H143.182H143.18H143.179H143.178H143.177H143.176H143.175H143.173H143.172H143.171H143.17H143.169H143.167H143.166H143.165H143.164H143.163H143.162H143.16H143.159H143.158H143.157H143.156H143.155H143.153H143.152H143.151H143.15H143.149H143.148H143.147H143.145H143.144H143.143H143.142H143.141H143.14H143.139H143.137H143.136H143.135H143.134H143.133H143.132H143.131H143.13H143.128H143.127H143.126H143.125H143.124H143.123H143.122H143.121H143.119H143.118H143.117H143.116H143.115H143.114H143.113H143.112H143.111H143.109H143.108H143.107H143.106H143.105H143.104H143.103H143.102H143.101H143.1H143.098H143.097H143.096H143.095H143.094H143.093H143.092H143.091H143.09H143.089H143.088H143.087H143.086H143.084H143.083H143.082H143.081H143.08H143.079H143.078H143.077H143.076H143.075H143.074H143.073H143.072H143.071H143.07H143.069H143.068H143.067H143.065H143.064H143.063H143.062H143.061H143.06H143.059H143.058H143.057H143.056H143.055H143.054H143.053H143.052H143.051H143.05H143.049H143.048H143.047H143.046H143.045H143.044H143.043H143.042H143.041H143.04H143.039H143.038H143.037H143.036H143.035H143.034H143.033H143.032H143.031H143.03H143.029H143.028H143.027H143.026H143.025H143.024H143.023H143.022H143.021H143.02H143.02H143.019H143.018H143.017H143.016H143.015H143.014H143.013H143.012H143.011H143.01H143.009H143.008H143.007H143.006H143.005H143.004H143.004H143.003H143.002H143.001H143H142.999H142.998H142.997H142.996H142.995H142.994H142.993H142.993H142.992H142.991H142.99H142.989H142.988H142.987H142.986H142.985H142.985H142.984H142.983H142.982H142.981H142.98H142.979H142.978H142.978H142.977H142.976H142.975H142.974H142.973H142.972H142.972H142.971H142.97H142.969H142.968H142.967H142.967H142.966H142.965H142.964H142.963H142.962H142.962H142.961H142.96H142.959H142.958H142.957H142.957H142.956H142.955H142.954H142.953H142.953H142.952H142.951H142.95H142.949H142.949H142.948H142.947H142.946H142.946H142.945H142.944H142.943H142.942H142.942H142.941H142.94H142.939H142.939H142.938H142.937H142.936H142.936H142.935H142.934H142.933H142.933H142.932H142.931H142.93H142.93H142.929H142.928H142.928H142.927H142.926H142.925H142.925H142.924H142.923H142.923H142.922H142.921H142.92H142.92H142.919H142.918H142.918H142.917H142.916H142.916H142.915H142.914H142.914H142.913H142.912H142.912H142.911H142.91C142.582 4.54997 142.267 4.68781 142.062 4.86038C141.943 4.9247 141.831 5.00117 141.729 5.10312C141.609 5.22321 141.524 5.35719 141.453 5.49957C141.451 5.50399 141.448 5.50845 141.446 5.51294C141.332 5.74021 141.175 6.05362 141.175 6.50875C141.175 6.5238 141.175 6.53894 141.175 6.55417C141.175 6.85292 141.174 7.18595 141.341 7.51794L141.344 7.52435C141.398 7.63202 141.459 7.75468 141.522 7.86502C141.583 7.97153 141.666 8.1038 141.771 8.20895C141.876 8.3141 142.009 8.39696 142.115 8.45781C142.225 8.52086 142.348 8.58217 142.456 8.636L142.462 8.63922C142.794 8.80489 143.121 8.80447 143.335 8.8042C143.336 8.8042 143.337 8.8042 143.338 8.8042L145.898 9.02673C146.035 9.0386 146.17 8.99384 146.273 8.90292C146.376 8.812 146.436 8.6829 146.441 8.54585L146.553 5.29164Z" fill="#62CEBB" stroke="#62CEBB" stroke-linejoin="round"/>
<path d="M174.994 12.0039L171.743 13.0301C171.676 12.7262 171.562 12.4329 171.392 12.1784L171.374 12.1522C171.163 11.8354 170.916 11.4644 170.656 11.2045C170.396 10.9446 170.025 10.6973 169.708 10.4862L169.681 10.4687C169.406 10.2849 169.081 10.1439 168.88 10.0564C168.815 10.0281 168.763 10.0054 168.73 9.98871C168.708 9.97813 168.687 9.96907 168.664 9.9616C167.899 9.70658 167.248 9.70621 166.612 9.83345C165.965 9.96278 165.448 10.2238 164.951 10.597C164.464 10.962 164.083 11.3404 163.712 11.9523C163.343 12.4525 163.102 13.0532 162.977 13.5364C162.729 14.1767 162.73 14.8117 162.73 15.4437C162.73 15.4576 162.73 15.4716 162.73 15.4856C162.73 16.1151 162.856 16.739 163.102 17.3546C163.328 17.9194 163.589 18.4717 164.136 18.8934C164.646 19.3954 165.16 19.6461 165.738 19.8773C165.747 19.881 165.757 19.8844 165.766 19.8874C165.972 19.9561 166.173 19.9896 166.334 20.0164L166.347 20.0185C166.521 20.0475 166.651 20.0701 166.776 20.1119C167.041 20.1999 167.289 20.1939 167.481 20.1779C167.571 20.1704 167.64 20.1625 167.699 20.1557C167.789 20.1453 167.858 20.1375 167.945 20.1375C167.998 20.1375 168.052 20.1289 168.103 20.1119L169.113 19.7752C169.392 19.6822 169.599 19.5042 169.758 19.3459C169.787 19.3162 169.817 19.2855 169.846 19.2547L172.214 21.8849C171.871 22.2333 171.479 22.4962 171.042 22.6418C171.02 22.6493 170.998 22.6583 170.977 22.6689C170.347 22.9837 169.725 23.1905 168.997 23.2945C168.252 23.4008 167.501 23.4016 166.71 23.4016C166.01 23.4016 165.289 23.2004 164.623 22.9784C164.614 22.9755 164.605 22.9728 164.596 22.9704C163.46 22.6608 162.516 22.0383 161.65 21.281C160.817 20.552 160.183 19.6058 159.757 18.6489C159.327 17.6805 159.007 16.6123 158.901 15.4422C158.793 14.1482 158.903 13.0969 159.214 12.1651C159.542 11.1794 159.961 10.2581 160.664 9.55523C161.459 8.76134 162.204 8.0191 163.046 7.49359C163.858 6.98577 165.012 6.66448 166.086 6.55713C167.139 6.45187 168.413 6.55657 169.69 6.98116C171.232 7.53209 172.484 8.17056 173.411 9.19952C173.417 9.20603 173.423 9.21239 173.429 9.21859C174.242 10.0315 174.742 11.0044 174.994 12.0039Z" fill="#62CEBB" stroke="#62CEBB" stroke-linejoin="round"/>
<path d="M188.153 18.7339C188.211 18.6143 188.219 18.4764 188.175 18.3507C188.131 18.2251 188.039 18.1221 187.919 18.0645L185.113 16.718C184.878 16.6056 184.597 16.6913 184.465 16.9152L183.343 18.8228C182.406 20.4149 181.471 21.6867 180.657 22.7947C180.512 22.9926 180.37 23.1853 180.233 23.3736C179.372 24.4472 178.527 25.1817 177.591 25.7034C176.768 26.1127 175.857 26.3096 174.96 26.21C174.148 26.1198 173.238 25.7887 172.106 25.3255L173.476 22.5017C173.939 22.6441 174.395 22.7184 174.793 22.7184C175.421 22.7184 175.99 22.4021 176.493 21.8987L176.495 21.8974C176.947 21.4448 177.529 20.8637 178.224 19.9375C178.914 19.0177 179.71 17.7658 180.611 16.1896L183.063 12.2067L193.207 17.1729L185.905 31.9823L182.531 30.2961L188.153 18.7339Z" fill="#62CEBB" stroke="#62CEBB" stroke-linejoin="round"/>
<path d="M191.887 29.3194C191.891 29.3043 191.895 29.2891 191.898 29.2737C192.102 28.2525 192.616 27.3129 193.167 26.4291C193.808 25.5781 194.55 24.8394 195.502 24.2054C196.442 23.5791 197.385 23.2614 198.466 23.0453C199.52 22.8346 200.577 22.8327 201.754 23.0462C202.784 23.253 203.841 23.7732 204.944 24.4335C205.998 25.1741 206.727 26.012 207.249 26.9498C207.792 27.9272 208.208 28.9818 208.311 30.0109C208.42 31.1026 208.415 32.1508 208.105 33.1838C208.1 33.1989 208.097 33.2141 208.094 33.2295C207.889 34.2507 207.376 35.1903 206.824 36.0741C206.187 36.9201 205.45 37.6551 204.506 38.2866C203.526 38.8297 202.572 39.2488 201.526 39.4579C200.47 39.6688 199.412 39.6705 198.233 39.4562C197.09 39.2486 196.034 38.7265 195.058 38.0765C193.998 37.3342 193.266 36.494 192.743 35.5534C192.2 34.576 191.784 33.5214 191.681 32.4923C191.571 31.4006 191.576 30.3524 191.887 29.3194ZM200.823 35.9499C200.853 35.9439 200.883 35.9352 200.911 35.9239C201.496 35.69 201.988 35.4463 202.485 35.0742C202.95 34.7254 203.455 34.2368 203.734 33.7043C204.096 33.209 204.335 32.6119 204.545 32.0848L204.558 32.0545C204.818 31.4036 204.818 30.7613 204.818 30.32L204.818 30.2978C204.818 29.7111 204.611 29.2122 204.423 28.7605C204.392 28.6861 204.362 28.613 204.333 28.541C204.069 27.8821 203.554 27.4725 203.058 27.0791C203.021 27.0493 202.983 27.0195 202.946 26.9897C202.336 26.5019 201.685 26.2204 201 26.2074C200.344 26.0886 199.714 26.2203 199.268 26.3313C198.6 26.4683 198.076 26.8615 197.651 27.1803C197.641 27.1884 197.63 27.1965 197.619 27.2046L197.607 27.2141C197.021 27.6824 196.652 28.0485 196.284 28.5389C195.907 29.0411 195.662 29.6543 195.446 30.194L195.434 30.2242C195.173 30.8752 195.174 31.5175 195.174 31.9587L195.174 31.981C195.174 32.6332 195.311 33.171 195.694 33.8093C196.041 34.3878 196.423 34.9125 197.071 35.3097C197.674 35.7848 198.316 36.0586 198.992 36.0714C199.635 36.1878 200.263 36.0622 200.786 35.9575C200.798 35.955 200.811 35.9524 200.823 35.9499Z" fill="#62CEBB" stroke="#62CEBB" stroke-linejoin="round"/>
<path d="M213.457 52.3784C213.432 52.3702 213.407 52.3639 213.381 52.3596C212.803 52.2634 212.208 51.973 211.529 51.634C210.858 51.1865 210.237 50.7684 209.723 50.2549L209.723 50.2548L209.716 50.2484L203.904 44.6498L215.442 32.7994L222.378 39.5191C222.802 39.9433 223.054 40.305 223.137 40.7196C223.252 41.2975 223.351 41.804 223.351 42.1925C223.351 42.528 223.166 43.1192 222.955 43.5398C222.949 43.5522 222.943 43.5648 222.938 43.5777C222.743 44.0642 222.449 44.4579 222.151 44.7564C221.641 45.2663 221.044 45.6609 220.25 45.8593L220.234 45.8636C219.546 46.0602 218.757 46.0611 217.965 45.764C217.764 45.6888 217.538 45.7498 217.402 45.9157C217.266 46.0816 217.252 46.3155 217.365 46.4973C217.849 47.2706 217.96 48.0493 217.963 49.0055C217.861 49.7615 217.476 50.5514 216.65 51.377C216.143 51.8836 215.649 52.1787 215.049 52.3784C214.478 52.5687 214.028 52.5687 213.457 52.3784ZM211.856 42.5121C211.761 42.4167 211.631 42.364 211.496 42.3658C211.361 42.3676 211.232 42.4239 211.14 42.5218L209.119 44.6539C208.932 44.8505 208.937 45.1599 209.128 45.3515L211.823 48.0446C211.846 48.0679 211.871 48.0888 211.899 48.107C211.938 48.1329 211.979 48.163 212.024 48.1953C212.28 48.3798 212.641 48.6398 213.186 48.6398C213.737 48.6398 214.2 48.2827 214.55 47.9324C214.98 47.503 215.146 47.0396 215.146 46.5688C215.146 46.1329 215.002 45.6569 214.663 45.3175L211.856 42.5121ZM216.346 37.9113C216.151 37.7162 215.835 37.7162 215.64 37.9113L213.731 39.819C213.636 39.9143 213.583 40.044 213.585 40.1787C213.586 40.3135 213.642 40.4418 213.74 40.5348L216.093 42.7753C216.26 42.9405 216.454 43.0518 216.611 43.1307C216.692 43.1711 216.772 43.2066 216.838 43.2363L216.844 43.239C216.911 43.269 216.961 43.2915 217.004 43.313C217.179 43.4005 217.36 43.4045 217.499 43.3859C217.642 43.3669 217.779 43.3199 217.9 43.2637C218.144 43.1512 218.388 42.974 218.592 42.7705C219.021 42.3412 219.187 41.8778 219.187 41.407C219.187 41.1803 219.149 40.969 219.06 40.769C218.972 40.5712 218.846 40.4096 218.704 40.2678L216.346 37.9113Z" fill="#62CEBB" stroke="#62CEBB" stroke-linejoin="round"/>
<path d="M130 198C129.275 198 128.591 197.665 128.147 197.091L108.263 171.418H68.9766C58.513 171.418 50 162.907 50 152.445V81.9744C50 71.5122 58.513 63 68.9766 63H191.023C201.487 63 210 71.5119 210 81.9744V152.445C210 162.907 201.487 171.419 191.023 171.419H151.736L131.853 197.092C131.409 197.665 130.725 198 130 198Z" fill="#EF5350"/>
<path d="M130 198C129.275 198 128.591 197.665 128.147 197.091L108.263 171.418H68.9766C58.513 171.418 50 162.907 50 152.445V81.9744C50 71.5122 58.513 63 68.9766 63H191.023C201.487 63 210 71.5119 210 81.9744V152.445C210 162.907 201.487 171.419 191.023 171.419H151.736L131.853 197.092C131.409 197.665 130.725 198 130 198Z" fill="#62CEBB"/>
<path d="M192.651 63.0742C195.663 66.434 197.5 70.8684 197.5 75.7248V122.324C197.5 145.987 178.315 165.169 154.649 165.169H148.992C142.838 165.169 137.031 168.016 133.263 172.881L121.33 188.289L128.147 197.091C128.591 197.664 129.275 198 130 198C130.725 198 131.409 197.664 131.853 197.091L151.736 171.418H191.023C201.504 171.418 210 162.923 210 152.444V81.9742C209.999 72.0607 202.355 63.9035 192.651 63.0742Z" fill="#449486"/>
<path d="M191.357 123.681C189.172 123.681 187.402 121.911 187.402 119.727V105.557C187.402 103.373 189.172 101.603 191.357 101.603C193.541 101.603 195.312 103.373 195.312 105.557V119.727C195.311 121.911 193.541 123.681 191.357 123.681Z" fill="#D9D4D4"/>
<path d="M66.0013 132.303C64.4569 130.759 64.4569 128.255 66.0013 126.71L85.8444 106.87C87.3888 105.326 89.8931 105.326 91.4374 106.87C92.9818 108.414 92.9818 110.918 91.4374 112.462L71.5943 132.303C70.05 133.847 67.5459 133.847 66.0013 132.303Z" fill="#D9D4D4"/>
<path d="M135.16 123.919H131.255L132.726 115.254H135.16C137.344 115.254 139.115 113.484 139.115 111.3C139.115 109.115 137.344 107.345 135.16 107.345H134.069L134.271 106.154C134.675 103.774 132.841 101.603 130.427 101.603C128.525 101.603 126.901 102.974 126.583 104.849L126.159 107.345H117.493L117.695 106.154C118.099 103.774 116.265 101.603 113.851 101.603C111.949 101.603 110.325 102.974 110.007 104.849L109.583 107.345H104.742C102.558 107.345 100.787 109.115 100.787 111.3C100.787 113.484 102.558 115.254 104.742 115.254H108.24L106.769 123.919H104.742C102.557 123.919 100.787 125.689 100.787 127.873C100.787 130.057 102.557 131.827 104.742 131.827H105.426L105.224 133.019C104.82 135.398 106.654 137.57 109.068 137.57C110.969 137.57 112.594 136.198 112.912 134.324L113.335 131.827H122.001L121.799 133.019C121.395 135.398 123.229 137.57 125.643 137.57C127.545 137.57 129.169 136.198 129.487 134.324L129.911 131.827H135.159C137.343 131.827 139.114 130.057 139.114 127.873C139.115 125.689 137.344 123.919 135.16 123.919ZM123.345 123.919H114.679L116.15 115.254H124.816L123.345 123.919Z" fill="#D9D4D4"/>
<path d="M191.357 137.57C193.541 137.57 195.312 135.8 195.312 133.616C195.312 131.432 193.541 129.661 191.357 129.661C189.172 129.661 187.402 131.432 187.402 133.616C187.402 135.8 189.172 137.57 191.357 137.57Z" fill="#D9D4D4"/>
<path d="M88.7961 133.616C90.9803 133.616 92.751 131.845 92.751 129.661C92.751 127.477 90.9803 125.707 88.7961 125.707C86.6118 125.707 84.8411 127.477 84.8411 129.661C84.8411 131.845 86.6118 133.616 88.7961 133.616Z" fill="#D9D4D4"/>
<path d="M68.6432 113.466C70.8275 113.466 72.5982 111.695 72.5982 109.511C72.5982 107.327 70.8275 105.557 68.6432 105.557C66.4589 105.557 64.6882 107.327 64.6882 109.511C64.6882 111.695 66.4589 113.466 68.6432 113.466Z" fill="#D9D4D4"/>
<path d="M177.387 123.176L171.168 119.586L177.387 115.996C179.279 114.904 179.927 112.486 178.835 110.594C177.742 108.703 175.324 108.055 173.432 109.147L167.213 112.737V105.557C167.213 103.373 165.443 101.603 163.258 101.603C161.074 101.603 159.303 103.373 159.303 105.557V112.737L153.084 109.147C151.193 108.055 148.774 108.703 147.682 110.594C146.59 112.486 147.238 114.904 149.129 115.996L155.348 119.586L149.129 123.176C147.238 124.268 146.59 126.687 147.682 128.578C148.774 130.469 151.193 131.117 153.084 130.025L159.303 126.435V133.615C159.303 135.799 161.074 137.57 163.258 137.57C165.443 137.57 167.213 135.799 167.213 133.615V126.435L173.432 130.025C175.324 131.117 177.742 130.469 178.835 128.578C179.927 126.687 179.279 124.268 177.387 123.176Z" fill="#D9D4D4"/>
</svg>
