<svg width="260" height="253" viewBox="0 0 260 253" fill="none" xmlns="http://www.w3.org/2000/svg">
<path d="M238.044 71.4291C237.847 71.5136 237.725 71.7151 237.742 71.9295C237.76 72.1438 237.912 72.323 238.121 72.3744L250.977 75.5365L252.131 78.2908L235.621 85.3423L234.009 81.4876L243.21 77.5711C243.408 77.4871 243.53 77.2863 243.513 77.0723C243.496 76.8583 243.345 76.6788 243.137 76.6263L230.608 73.464L229.353 70.5951L245.856 63.5465L247.468 67.4018L238.044 71.4291Z" fill="#62CEBB" stroke="#62CEBB" stroke-linejoin="round"/>
<path d="M250.676 97.4873L256.954 96.0451L257.852 100.179L240.398 104.177L239.5 100.043L246.235 98.4872C246.365 98.4573 246.477 98.3773 246.547 98.2648C246.617 98.1522 246.64 98.0163 246.61 97.8871L245.167 91.6648C245.104 91.396 244.836 91.2285 244.567 91.2906L237.845 92.8433L236.947 88.7103L254.401 84.7115L255.299 88.8456L249.008 90.2905C248.879 90.3202 248.767 90.4002 248.696 90.5128C248.626 90.6254 248.603 90.7614 248.633 90.8908L250.077 97.113C250.139 97.3816 250.407 97.5491 250.676 97.4873Z" fill="#62CEBB" stroke="#62CEBB" stroke-linejoin="round"/>
<path d="M244.402 106.414V107.111C244.402 107.752 244.734 108.206 245.103 108.576C245.532 109.005 246.202 109.257 246.853 109.474C247.583 109.718 248.645 109.833 249.737 109.942C250.855 110.054 252.304 110.165 253.858 110.277L253.874 110.277L258.965 110.481L259.48 122.746L245.656 123.389C245.381 123.402 245.168 123.635 245.179 123.91L245.27 126.081L237.275 126.476L237.097 122.363L241.041 122.166C241.315 122.152 241.527 121.92 241.516 121.645L241.072 111.201C241.066 111.068 241.007 110.943 240.909 110.853C240.81 110.763 240.68 110.716 240.547 110.723L236.609 110.92L236.431 106.808L244.402 106.414ZM244.957 118.678C244.96 118.812 245.017 118.94 245.115 119.032C245.214 119.124 245.345 119.172 245.479 119.166L255.36 118.722C255.633 118.709 255.846 118.479 255.837 118.206L255.726 114.872C255.717 114.611 255.509 114.401 255.248 114.389L252.702 114.279C251.145 114.167 249.732 114.058 248.544 113.841C247.328 113.62 246.366 113.404 245.521 113.087C245.366 113.029 245.192 113.052 245.057 113.148C244.921 113.244 244.842 113.401 244.846 113.566L244.957 118.678Z" fill="#62CEBB" stroke="#62CEBB" stroke-linejoin="round"/>
<path d="M248.415 133.95C248.201 133.919 247.991 134.029 247.895 134.223C247.799 134.417 247.839 134.651 247.994 134.802L257.47 144.068L257.024 147.105L239.245 144.683L239.782 140.564L249.718 141.94C249.931 141.969 250.138 141.859 250.234 141.667C250.33 141.475 250.292 141.243 250.14 141.091L240.992 131.935L241.439 128.896L259.218 131.317L258.682 135.433L248.415 133.95Z" fill="#62CEBB" stroke="#62CEBB" stroke-linejoin="round"/>
<path d="M238.079 163.975C238.068 163.971 238.057 163.967 238.045 163.964C237.362 163.768 236.786 163.38 236.411 162.91C235.998 162.393 235.702 161.896 235.502 161.196C235.5 161.189 235.498 161.182 235.496 161.175C235.304 160.601 235.299 159.912 235.299 159C235.299 158.2 235.497 157.489 235.823 156.62C235.826 156.611 235.829 156.602 235.832 156.593L238.458 148.182L255.596 153.549L252.42 163.512C252.23 164.079 251.951 164.462 251.628 164.893C251.225 165.293 250.842 165.572 250.378 165.758C249.883 165.956 249.391 166.056 248.787 166.056C248.181 166.056 247.674 165.956 247.121 165.845C246.377 165.656 245.795 165.186 245.144 164.535C244.578 163.969 244.278 163.195 244.177 162.382C244.151 162.18 244.006 162.013 243.809 161.961C243.612 161.909 243.403 161.981 243.28 162.145C242.655 162.979 241.936 163.592 241.126 163.997C240.395 164.363 239.213 164.387 238.079 163.975ZM242.934 159.158L242.934 159.158L242.935 159.154L244.267 155.043C244.352 154.782 244.21 154.501 243.95 154.415L240.952 153.415C240.825 153.372 240.686 153.383 240.567 153.444C240.447 153.505 240.357 153.611 240.317 153.739L239.096 157.628C239.093 157.637 239.09 157.647 239.088 157.657C238.972 158.122 238.939 158.581 239.192 159.042C239.263 159.691 239.78 160.123 240.34 160.263L240.461 159.778L240.34 160.263C240.849 160.39 241.394 160.401 241.841 160.252C242.096 160.167 242.327 160.007 242.508 159.826C242.689 159.644 242.849 159.413 242.934 159.158ZM250.817 157.153C250.858 157.027 250.847 156.89 250.786 156.772C250.726 156.653 250.621 156.564 250.494 156.524L247.719 155.635C247.458 155.551 247.178 155.693 247.092 155.953L245.982 159.286C245.836 159.722 245.836 160.167 245.982 160.602C246.171 161.172 246.715 161.465 247.269 161.686C247.29 161.695 247.312 161.702 247.334 161.707C247.843 161.835 248.388 161.846 248.835 161.697C248.877 161.682 248.917 161.663 248.954 161.638C249.167 161.496 249.328 161.34 249.453 161.152C249.574 160.971 249.646 160.781 249.706 160.602L249.706 160.602L249.707 160.598L250.817 157.153Z" fill="#62CEBB" stroke="#62CEBB" stroke-linejoin="round"/>
<path d="M237.69 172.443C237.497 172.346 237.265 172.382 237.112 172.534C236.959 172.685 236.92 172.918 237.016 173.111L242.897 184.992L241.473 187.664L225.476 179.448L227.361 175.675L236.237 180.223C236.427 180.321 236.659 180.286 236.813 180.136C236.967 179.987 237.008 179.756 236.916 179.563L231.361 167.898L232.795 165.117L248.785 173.33L246.899 177.105L237.69 172.443Z" fill="#62CEBB" stroke="#62CEBB" stroke-linejoin="round"/>
<path d="M221.445 184.378L218.299 182.016L220.79 178.811L227.22 183.762L226.85 184.256C226.845 184.263 226.839 184.271 226.834 184.278C226.545 184.712 226.417 185.259 226.417 185.778C226.417 185.819 226.422 185.859 226.432 185.899C226.556 186.395 226.798 186.996 227.155 187.59C227.52 188.2 228.222 189.013 229.006 189.798L229.007 189.799C229.784 190.577 230.79 191.583 232.02 192.702C232.02 192.703 232.02 192.703 232.021 192.703L235.788 196.168L228.27 205.856L217.23 197.381C217.013 197.215 216.703 197.253 216.533 197.468L215.173 199.192L208.859 194.354L211.357 191.14L214.516 193.511C214.736 193.676 215.048 193.633 215.215 193.413L221.543 185.08C221.623 184.974 221.658 184.84 221.64 184.709C221.621 184.577 221.551 184.458 221.445 184.378ZM219.75 193.471C219.669 193.576 219.633 193.709 219.649 193.841C219.666 193.973 219.735 194.092 219.84 194.174L227.611 200.174C227.717 200.255 227.851 200.291 227.984 200.273C228.116 200.255 228.236 200.185 228.317 200.078L230.315 197.411C230.468 197.207 230.443 196.921 230.257 196.747L228.481 195.08L228.481 195.08L228.475 195.075C227.263 193.972 226.278 192.986 225.517 192.115C224.752 191.24 224.118 190.388 223.701 189.554C223.624 189.401 223.474 189.297 223.303 189.28C223.132 189.263 222.964 189.335 222.859 189.471L219.75 193.471Z" fill="#62CEBB" stroke="#62CEBB" stroke-linejoin="round"/>
<path d="M208.157 200.892C208.205 200.868 208.249 200.836 208.287 200.798C208.434 200.651 208.576 200.572 208.869 200.474C209.088 200.401 209.267 200.294 209.399 200.214C209.404 200.211 209.408 200.209 209.412 200.206C209.556 200.12 209.65 200.066 209.757 200.03C209.927 199.973 210.079 199.922 210.216 199.885C210.216 199.885 210.217 199.885 210.217 199.885L211.809 202.82C211.791 202.828 211.773 202.837 211.755 202.847C211.628 202.868 211.521 202.909 211.429 202.956C211.376 202.982 211.324 203.012 211.285 203.035C211.281 203.037 211.278 203.039 211.274 203.041C211.23 203.067 211.192 203.088 211.151 203.108C211.012 203.178 210.907 203.248 210.825 203.303L210.82 203.306C210.736 203.362 210.676 203.402 210.596 203.442C210.577 203.451 210.56 203.462 210.542 203.473C210.065 203.792 209.906 204.27 209.802 204.586C209.798 204.597 209.794 204.609 209.79 204.62C209.607 205.169 209.814 205.67 210.071 206.055C210.13 206.145 210.217 206.213 210.319 206.249L223.861 211.082L220.493 214.187L212.356 210.544C212.171 210.461 211.953 210.498 211.807 210.639C211.66 210.779 211.612 210.994 211.687 211.183L214.891 219.308L211.722 222.216L207.077 207.846C207.075 207.839 207.072 207.832 207.069 207.825C206.744 206.955 206.532 206.21 206.428 205.585C206.313 204.89 206.225 204.323 206.314 203.876C206.321 203.844 206.324 203.811 206.324 203.778C206.324 203.356 206.491 202.902 206.696 202.485C207.02 202.053 207.328 201.647 207.732 201.242C207.788 201.187 207.859 201.116 207.94 201.046C208.024 200.974 208.099 200.921 208.157 200.892Z" fill="#62CEBB" stroke="#62CEBB" stroke-linejoin="round"/>
<path d="M191.853 218.388C192.025 218.528 192.269 218.538 192.452 218.413L196.67 215.524C196.85 215.4 196.929 215.175 196.866 214.966L195.862 211.648L199.309 209.259L204.25 227.566L200.95 229.831L185.701 218.569L189.147 216.181L191.853 218.388ZM194.652 219.928C194.527 220.018 194.45 220.161 194.445 220.316C194.439 220.47 194.506 220.618 194.624 220.717L199.287 224.606C199.458 224.749 199.702 224.761 199.887 224.637C200.071 224.513 200.151 224.281 200.083 224.07L198.196 218.181C198.147 218.028 198.028 217.909 197.876 217.858C197.724 217.808 197.557 217.834 197.428 217.928L194.652 219.928Z" fill="#62CEBB" stroke="#62CEBB" stroke-linejoin="round"/>
<path d="M182.768 232.634C182.765 232.627 182.763 232.62 182.761 232.613C181.989 230.407 181.44 228.428 181.112 226.895C180.785 225.365 180.689 224.11 180.892 223.098C181.097 222.073 181.498 221.276 182.198 220.576C182.835 219.938 183.735 219.363 184.932 218.78L186.426 222.033C186.005 222.316 185.632 222.63 185.33 223.033L185.73 223.333L185.33 223.033C184.912 223.591 184.786 224.152 184.786 224.889C184.786 225.64 185.032 226.597 185.362 227.699C185.402 227.831 185.443 227.97 185.486 228.115C185.804 229.183 186.223 230.591 186.815 232.173L188.546 236.961L177.424 242.115L169.852 225.905L173.613 224.112L179.505 236.657C179.561 236.778 179.664 236.871 179.79 236.916C179.916 236.96 180.054 236.953 180.174 236.895L183.172 235.45C183.393 235.344 183.504 235.092 183.434 234.856L182.768 232.634Z" fill="#62CEBB" stroke="#62CEBB" stroke-linejoin="round"/>
<path d="M158.668 229.592L166.401 227.396L171.237 244.547L167.204 245.713L165.674 240.2C165.638 240.07 165.552 239.961 165.435 239.896C165.317 239.831 165.179 239.816 165.05 239.854L162.053 240.743L162.037 240.748C161.098 241.061 160.175 241.16 159.37 241.059C159.35 241.057 159.329 241.056 159.308 241.056C158.514 241.056 157.81 240.86 157.077 240.546C156.488 240.249 155.88 239.745 155.363 239.125C154.87 238.533 154.564 237.831 154.354 236.99C154.352 236.983 154.35 236.977 154.348 236.97C153.82 235.171 153.949 233.559 154.729 232.388C154.737 232.375 154.746 232.362 154.753 232.348C155.447 231.059 156.754 230.124 158.665 229.593L158.665 229.593L158.668 229.592ZM163.455 232.095C163.385 231.828 163.112 231.669 162.846 231.739L160.292 232.405C160.281 232.408 160.271 232.411 160.26 232.415C159.521 232.661 158.941 233.061 158.639 233.666C158.344 234.257 158.367 234.946 158.482 235.638L158.485 235.654C158.625 236.356 159.045 236.9 159.563 237.289C160.184 237.755 160.926 237.719 161.611 237.604C161.626 237.602 161.64 237.599 161.655 237.595L164.208 236.928C164.337 236.895 164.447 236.811 164.514 236.697C164.581 236.582 164.599 236.446 164.566 236.317L163.455 232.095Z" fill="#62CEBB" stroke="#62CEBB" stroke-linejoin="round"/>
<path d="M146.817 238.947L146.092 232.111L150.319 231.661L152.316 249.445L148.093 249.895L147.371 243.5C147.341 243.227 147.095 243.03 146.822 243.058L140.494 243.725C140.362 243.739 140.24 243.805 140.157 243.909C140.073 244.013 140.035 244.146 140.05 244.278L140.77 250.667L136.547 251.117L134.55 233.333L138.77 232.884L139.494 239.719C139.523 239.994 139.769 240.193 140.044 240.164L146.372 239.497C146.504 239.483 146.625 239.418 146.708 239.314C146.792 239.211 146.831 239.079 146.817 238.947Z" fill="#62CEBB" stroke="#62CEBB" stroke-linejoin="round"/>
<path d="M122.97 232.943L131.009 233.675L129.326 251.571L125.103 251.211L125.613 245.489C125.625 245.355 125.583 245.222 125.496 245.12C125.409 245.018 125.285 244.955 125.151 244.946L122.05 244.724C120.983 244.617 120.149 244.405 119.428 244.096C118.708 243.787 118.112 243.385 117.617 242.791C117.608 242.78 117.597 242.768 117.587 242.758C117.096 242.266 116.693 241.565 116.493 240.863C116.287 240.141 116.184 239.318 116.287 238.389C116.5 236.465 117.129 235.064 118.31 234.178C118.316 234.173 118.321 234.169 118.327 234.165C119.421 233.268 120.947 232.838 122.97 232.943ZM126.39 237.162C126.403 237.029 126.363 236.896 126.278 236.792C126.192 236.689 126.069 236.625 125.936 236.613L123.401 236.392C122.587 236.263 121.877 236.534 121.431 236.98C120.991 237.42 120.744 238.097 120.625 238.807C120.621 238.834 120.619 238.861 120.619 238.889C120.619 239.504 120.741 240.14 121.004 240.668C121.018 240.695 121.034 240.72 121.052 240.744C121.485 241.323 122.065 241.591 122.813 241.715C122.825 241.718 122.838 241.719 122.852 241.72L125.405 241.943C125.677 241.966 125.918 241.767 125.946 241.495L126.39 237.162ZM113.36 232.122L111.783 250.015L107.562 249.656L109.139 231.763L113.36 232.122Z" fill="#62CEBB" stroke="#62CEBB" stroke-linejoin="round"/>
<path d="M99.3947 236.92C99.4563 236.713 99.3781 236.49 99.2008 236.367C99.0235 236.244 98.7872 236.248 98.6147 236.378L88.049 244.337L85.1057 243.444L90.2597 226.284L94.2965 227.452L91.4421 237.08C91.3812 237.286 91.4581 237.507 91.6333 237.631C91.8085 237.754 92.043 237.752 92.2162 237.626L102.672 229.995L105.62 230.889L100.466 248.049L96.43 246.882L99.3947 236.92ZM95.6469 251.304L95.6498 251.32C95.7179 251.661 95.7349 252.033 95.6817 252.375L93.5733 251.75C93.5666 251.303 93.3956 250.874 93.0987 250.478C92.6955 249.94 92.0496 249.55 91.3988 249.408C90.738 249.155 90.0645 249.16 89.4043 249.425C88.9398 249.611 88.5567 249.822 88.2674 250.184L86.0225 249.462C86.176 249.103 86.3486 248.841 86.6134 248.576C87.026 248.163 87.415 247.876 87.8887 247.686C88.3699 247.494 88.9696 247.389 89.7012 247.389C90.3156 247.389 91.0463 247.492 91.784 247.703C92.5025 247.908 93.1218 248.217 93.7533 248.638C94.3631 249.045 94.7621 249.444 95.0586 249.835C95.3691 250.355 95.552 250.735 95.6469 251.304Z" fill="#62CEBB" stroke="#62CEBB" stroke-linejoin="round"/>
<path d="M54.5909 204.255L57.9104 206.859L49.234 217.687C49.0617 217.902 49.0959 218.216 49.3105 218.389L53.8622 222.056C53.9657 222.139 54.098 222.178 54.2301 222.164C54.3621 222.149 54.483 222.083 54.5661 221.979L63.2489 211.143L66.5691 213.748L55.3197 227.743L43.4433 218.254L54.5909 204.255Z" fill="#62CEBB" stroke="#62CEBB" stroke-linejoin="round"/>
<path d="M40.5579 208.486L40.5579 208.486L40.5536 208.489L36.4814 211.546L28.3465 202.373L41.7013 190.375L44.478 193.513L34.0829 202.737C33.8779 202.919 33.8576 203.232 34.0374 203.439L36.2577 205.995C36.4329 206.196 36.7356 206.225 36.9451 206.059L39.0514 204.395C40.9248 202.961 42.5661 201.867 43.9774 201.107C45.3924 200.344 46.5469 199.933 47.5645 199.831C48.5669 199.731 49.4644 199.928 50.3802 200.437C51.2235 200.906 52.071 201.544 52.9251 202.509L50.2687 204.902C49.8455 204.577 49.4192 204.294 48.9683 204.182C48.4242 204.046 47.772 204.054 47.0234 204.303C46.2895 204.548 45.4653 205.026 44.4618 205.695C43.4516 206.369 42.221 207.265 40.5579 208.486Z" fill="#62CEBB" stroke="#62CEBB" stroke-linejoin="round"/>
<path d="M31.4808 180.787C31.3391 180.954 31.322 181.193 31.4387 181.378L34.1031 185.6C34.2197 185.785 34.4428 185.873 34.654 185.817L38.0785 184.909L40.3818 188.456L21.8781 192.875L19.7073 189.475L31.4893 174.524L33.7926 178.071L31.4808 180.787ZM29.7268 183.504C29.6413 183.373 29.4995 183.29 29.3436 183.279C29.1876 183.268 29.0355 183.33 28.9324 183.448L24.9358 188.004C24.7897 188.17 24.7706 188.413 24.8889 188.6C25.0072 188.788 25.2347 188.875 25.4479 188.814L31.3318 187.148C31.4848 187.104 31.6081 186.991 31.6638 186.842C31.7195 186.693 31.7011 186.526 31.6141 186.393L29.7268 183.504Z" fill="#62CEBB" stroke="#62CEBB" stroke-linejoin="round"/>
<path d="M15.3442 166.43L9.36946 169.007L7.75774 165.154L24.2676 158.102L25.88 161.957L19.5646 164.651C19.3124 164.759 19.1939 165.049 19.299 165.303L21.7413 171.192C21.7925 171.315 21.8908 171.413 22.0144 171.463C22.138 171.513 22.2766 171.512 22.3994 171.46L28.7082 168.769L30.3207 172.624L13.8108 179.676L12.1977 175.819L18.1826 173.237C18.4337 173.129 18.5512 172.839 18.4464 172.586L16.0041 166.697C15.9528 166.574 15.8541 166.476 15.7301 166.426C15.606 166.375 15.467 166.377 15.3442 166.43Z" fill="#62CEBB" stroke="#62CEBB" stroke-linejoin="round"/>
<path d="M17.6668 121.854C17.6602 121.865 17.6541 121.876 17.6484 121.888C17.1251 122.935 16.3882 123.888 15.5335 124.746C14.6945 125.478 13.6418 126.11 12.5884 126.533C11.4144 126.959 10.3826 127.16 9.25965 127.058C9.24459 127.056 9.22947 127.056 9.21435 127.056C8.08701 127.056 6.93904 126.749 5.86698 126.321C4.80134 125.786 3.85545 125.151 3.0181 124.313C2.17751 123.472 1.55326 122.533 1.13604 121.385C0.712365 120.219 0.5 119.054 0.5 117.667C0.5 116.298 0.815394 115.057 1.42799 114.035C1.43457 114.024 1.44072 114.013 1.44644 114.001C1.96971 112.954 2.70665 112 3.56135 111.143C4.40027 110.411 5.45297 109.779 6.50638 109.356C7.65106 108.941 8.69613 108.833 9.88045 108.833C11.0078 108.833 12.1557 109.14 13.2278 109.568C14.2935 110.103 15.2393 110.738 16.0767 111.576C16.9173 112.417 17.5415 113.356 17.9587 114.504L17.9644 114.519C18.3797 115.558 18.5948 116.826 18.5948 118.222C18.5948 119.591 18.2794 120.832 17.6668 121.854ZM9.22723 122.713C9.25954 122.719 9.29241 122.722 9.32537 122.722H9.34906C9.99416 122.722 10.6113 122.722 11.342 122.484C11.9956 122.345 12.6104 121.965 13.067 121.622C13.5356 121.27 14.0511 120.771 14.3261 120.112C14.7074 119.457 14.8211 118.702 14.8211 118C14.8211 117.177 14.7039 116.444 14.4523 115.814C14.1816 115.137 13.6554 114.625 13.178 114.267C12.7142 113.919 12.087 113.532 11.4218 113.399C11.261 113.366 11.1058 113.328 10.9366 113.287C10.816 113.257 10.6883 113.225 10.5464 113.193C10.2341 113.122 9.88357 113.056 9.54739 113.056L9.52356 113.056C8.87003 113.056 8.24522 113.056 7.50189 113.304C6.79765 113.538 6.30244 113.783 5.80573 114.156C5.33726 114.507 4.82178 115.007 4.54682 115.666C4.16797 116.313 4.05166 116.959 4.05166 117.778C4.05166 118.601 4.16889 119.334 4.42042 119.963C4.69121 120.641 5.21736 121.153 5.69471 121.511C6.16668 121.865 6.75981 122.223 7.36327 122.464C7.42237 122.488 7.48544 122.5 7.5491 122.5C8.05113 122.5 8.67574 122.602 9.22723 122.713Z" fill="#62CEBB" stroke="#62CEBB" stroke-linejoin="round"/>
<path d="M5.94806 98.9043C5.8954 99.1744 6.07087 99.4362 6.34068 99.4902L9.11608 100.046C9.38584 100.1 9.64854 99.9257 9.70397 99.6563L10.4811 95.8785L10.4811 95.8785L10.4816 95.8757C10.9124 93.7203 11.6487 92.2945 12.7395 91.3958C13.8371 90.6013 15.1346 90.2933 16.7821 90.6025C18.4377 90.9132 19.6391 91.7301 20.3328 92.8157C21.0269 94.0119 21.2517 95.5428 20.8247 97.6798L20.824 97.6832L19.1433 106.409L1.58474 102.831L4.16894 89.5889L7.62912 90.2815L5.94806 98.9043ZM17.4763 97.7616L17.4764 97.7616L17.4786 97.7488C17.5371 97.3972 17.5706 97.052 17.5541 96.7376C17.5383 96.4378 17.4752 96.1264 17.3084 95.8616C17.0104 95.2832 16.5501 94.9868 15.9966 94.8483C15.7009 94.7743 15.4165 94.7698 15.1271 94.8526C14.8492 94.932 14.5985 95.0831 14.3539 95.2668C14.3349 95.281 14.317 95.2965 14.3003 95.3132C13.9253 95.6886 13.5205 96.2204 13.3851 97.0206L12.7205 100.346C12.6669 100.615 12.8386 100.876 13.106 100.933L16.2144 101.6C16.3458 101.628 16.483 101.602 16.595 101.528C16.7071 101.454 16.7847 101.338 16.8102 101.206L17.4763 97.7616Z" fill="#62CEBB" stroke="#62CEBB" stroke-linejoin="round"/>
<path d="M11.3001 69.2393L21.9605 79.9089C22.6323 80.5812 23.1657 81.116 23.5889 81.6455C24.0024 82.1628 24.3139 82.6802 24.5221 83.0938C24.7096 83.5666 24.7995 83.9263 24.8105 84.3535C24.7094 84.6197 24.6308 84.8819 24.5578 85.1254L24.5552 85.1342C24.4731 85.4081 24.3976 85.659 24.2998 85.9067L23.9763 86.5543L24.4236 86.7778L23.9763 86.5543C23.9312 86.6444 23.8595 86.7648 23.7727 86.9096L23.7661 86.9205C23.6878 87.0511 23.5964 87.2036 23.5322 87.3321C23.5097 87.3772 23.44 87.4725 23.3163 87.6101C23.2016 87.7376 23.0721 87.8674 22.9597 87.9799C22.8116 88.1282 22.6987 88.2368 22.5826 88.3138L11.3001 69.2393Z" fill="#62CEBB" stroke="#62CEBB" stroke-linejoin="round"/>
<path d="M20.2314 69.6304C19.4986 69.4209 18.755 69.1038 17.8839 68.6683L12.6688 65.8026L14.6261 62.2408L18.2927 64.3237L18.2927 64.3237L18.2967 64.3259C19.3378 64.9048 20.2306 65.184 21.1638 65.0505C21.6366 64.983 22.0562 64.8096 22.4368 64.498C22.8088 64.1934 23.123 63.7734 23.4175 63.2427C23.4188 63.2404 23.42 63.2381 23.4213 63.2358C23.4234 63.2317 23.4256 63.2276 23.4276 63.2235C23.7793 62.5197 24.0165 61.8109 24.1368 61.2091C24.1788 60.9985 24.0817 60.7845 23.8954 60.6775L17.549 57.033L19.514 53.4572L35.1795 62.0859L33.2165 65.6579L27.8802 62.7821C27.7253 62.6986 27.5379 62.7027 27.3867 62.7929C27.2356 62.8832 27.143 63.0462 27.143 63.2222C27.143 63.7095 27.046 64.2022 26.8457 64.7034C26.811 64.7903 26.7768 64.8782 26.742 64.9678C26.5474 65.4685 26.3328 66.0209 25.8867 66.7352C25.8822 66.7425 25.8778 66.7499 25.8737 66.7574C25.3245 67.7467 24.8174 68.4325 24.2571 68.8063C24.2423 68.8162 24.228 68.8269 24.2143 68.8383C23.6031 69.3481 23.0207 69.632 22.3545 69.7273C21.6234 69.8318 20.9212 69.8277 20.2314 69.6304Z" fill="#62CEBB" stroke="#62CEBB" stroke-linejoin="round"/>
<path d="M31.7057 48.7456L35.5097 43.7035L38.0468 45.6503L34.2379 50.6989C34.0722 50.9185 34.1151 51.2307 34.3339 51.3976L36.6652 53.1754C36.7713 53.2562 36.9052 53.2914 37.0373 53.273C37.1693 53.2547 37.2886 53.1843 37.3685 53.0776L42.0627 46.8133L44.9288 48.9864L37.4255 58.965L23.1256 48.1256L30.515 38.3674L33.3815 40.5408L28.7988 46.5869C28.718 46.6934 28.6833 46.828 28.7024 46.9603C28.7215 47.0927 28.7929 47.2119 28.9005 47.2913L31.0098 48.8468C31.2304 49.0095 31.5407 48.9643 31.7057 48.7456Z" fill="#62CEBB" stroke="#62CEBB" stroke-linejoin="round"/>
<path d="M58.023 35.8763L54.9659 38.846L50.2074 33.8764C50.1152 33.78 49.9881 33.7245 49.8547 33.7223C49.7213 33.7201 49.5925 33.7713 49.497 33.8645L44.9453 38.3089C44.7491 38.5005 44.7438 38.8144 44.9335 39.0125L49.6969 43.9873L46.644 46.953L34.3382 33.7946L37.4032 30.8172L41.9395 35.4605C42.1325 35.658 42.449 35.6617 42.6465 35.4689L47.1982 31.0244C47.2931 30.9318 47.3473 30.8052 47.3488 30.6726C47.3504 30.54 47.2992 30.4121 47.2065 30.3173L42.678 25.6818L45.6094 22.9257L58.023 35.8763Z" fill="#62CEBB" stroke="#62CEBB" stroke-linejoin="round"/>
<path d="M60.3137 24.7275C60.4355 24.905 60.6573 24.9845 60.8641 24.9249C61.071 24.8654 61.2165 24.6801 61.2254 24.4651L61.7701 11.2722L64.2549 9.58458L74.2407 24.4183L70.745 26.7508L65.2495 18.5006C65.1304 18.3217 64.9102 18.239 64.7027 18.2952C64.4952 18.3513 64.3469 18.5339 64.3343 18.7484L63.5719 31.7197L60.9757 33.4221L50.9854 18.5817L54.4871 16.2453L60.3137 24.7275Z" fill="#62CEBB" stroke="#62CEBB" stroke-linejoin="round"/>
<path d="M80.6966 21.3255L76.6723 23.1642L77.7623 15.6271C77.783 15.4835 77.7404 15.338 77.6454 15.2283C77.5504 15.1186 77.4125 15.0556 77.2674 15.0556C76.2541 15.0556 75.252 14.7508 74.4591 14.1557C73.6344 13.5366 72.9139 12.7139 72.3961 11.576C72.0833 10.8438 71.8835 10.0249 71.8835 9.33334C71.8835 8.60461 71.9873 7.89731 72.2872 7.19682C72.6151 6.43119 72.9102 5.85922 73.4801 5.38398C73.4917 5.3743 73.5028 5.36409 73.5135 5.3534C74.0288 4.83771 74.7539 4.3206 75.4662 4.01507L75.4662 4.01515L75.4747 4.01133L82.9011 0.661346L90.2613 16.9727L86.5053 18.6733L83.9381 13.1234C83.8227 12.8739 83.5275 12.7644 83.2773 12.8782L82.0561 13.4338C81.9008 13.5044 81.7923 13.6494 81.7681 13.8182L80.6966 21.3255ZM80.7152 5.89389C80.5985 5.652 80.3116 5.54548 80.0653 5.65264L77.512 6.76375C77.5038 6.76731 77.4957 6.77109 77.4877 6.77508C77.3487 6.84465 77.2438 6.91466 77.1614 6.96967L77.1564 6.97298C77.0731 7.02859 77.0129 7.06827 76.9326 7.10842C76.7323 7.20869 76.5966 7.35198 76.5085 7.45785C76.4739 7.49936 76.4406 7.5428 76.4165 7.57421C76.411 7.58141 76.406 7.58798 76.4015 7.59374C76.3879 7.61139 76.3781 7.62385 76.3699 7.63363C76.3624 7.64265 76.3589 7.64627 76.3586 7.64659C76.3586 7.64662 76.3586 7.64662 76.3586 7.6466C76.3206 7.6846 76.289 7.72848 76.265 7.77655C76.1006 8.10572 76.101 8.43105 76.1013 8.64194C76.1013 8.65037 76.1013 8.65862 76.1013 8.66667C76.1013 8.6711 76.1013 8.67562 76.1013 8.68023C76.1012 8.90221 76.1009 9.33569 76.3712 9.77649C76.5256 10.188 76.8026 10.4648 77.0046 10.6666C77.0114 10.6734 77.0181 10.6801 77.0247 10.6867C77.0627 10.7248 77.1066 10.7564 77.1547 10.7805C77.2349 10.8206 77.2951 10.8603 77.3784 10.9159L77.3834 10.9192C77.4658 10.9742 77.5707 11.0442 77.7097 11.1138C78.0384 11.2783 78.3875 11.2938 78.72 11.1603C79.0163 11.1298 79.2835 10.9953 79.4569 10.908C79.464 10.9044 79.4709 10.9009 79.4777 10.8975L82.0186 9.79181C82.1433 9.73755 82.2405 9.63484 82.2878 9.50735C82.3351 9.37986 82.3285 9.2386 82.2694 9.11611L80.7152 5.89389Z" fill="#62CEBB" stroke="#62CEBB" stroke-linejoin="round"/>
<path d="M196.439 117.146C196.439 147.128 172.157 171.435 142.202 171.435C112.249 171.435 87.9663 147.128 87.9663 117.146C87.9663 87.1627 112.249 62.8575 142.202 62.8575C172.157 62.8575 196.439 87.1627 196.439 117.146Z" fill="#62CEBB"/>
<path d="M63.5596 141.576H85.2539V179.577H63.5596V141.576Z" fill="#62CEBB"/>
<path d="M50 144.29H63.5596V176.863H50V144.29Z" fill="#D9D4D4"/>
<path d="M85.2539 174.477L109.235 184.444C119.637 188.685 131.262 188.813 141.755 184.803L183.647 168.815C187.416 167.344 189.279 163.095 187.81 159.323C187.803 159.306 187.795 159.288 187.789 159.271C186.378 155.589 182.253 153.749 178.575 155.161C178.508 155.187 178.441 155.214 178.374 155.242L155.699 164.879C154.448 165.388 153.129 165.711 151.783 165.842C155.438 165.026 157.741 161.399 156.925 157.741C156.235 154.651 153.502 152.447 150.338 152.433H129.302C126.753 152.432 124.24 151.838 121.959 150.698C113.539 146.484 104.254 144.29 94.8401 144.29H85.2539V174.477Z" fill="#D9D4D4"/>
<path d="M121.969 150.682C124.249 151.822 126.763 152.416 129.31 152.416H150.338C154.082 152.416 157.118 155.455 157.118 159.203C157.113 160.132 156.915 161.05 156.537 161.898C155.455 159.437 153.024 157.849 150.338 157.846H129.31C126.763 157.845 124.249 157.251 121.969 156.111C113.55 151.897 104.265 149.703 94.8511 149.703H85.2539V144.274H94.8486C104.264 144.273 113.549 146.467 121.969 150.682Z" fill="#828181"/>
<path d="M187.797 159.251C188.478 160.991 188.472 162.926 187.781 164.662C186.353 160.989 182.219 159.171 178.551 160.6C178.494 160.622 178.438 160.646 178.381 160.669L155.71 170.306C153.961 171.05 152.081 171.433 150.181 171.435H117.797V165.989H150.181C152.081 165.989 153.961 165.606 155.71 164.862L178.381 155.227C182.013 153.702 186.19 155.411 187.715 159.046C187.743 159.113 187.77 159.183 187.797 159.251Z" fill="#828181"/>
<path d="M71.6943 166.006H77.1179V171.435H71.6943V166.006Z" fill="#E6E6E6"/>
<path d="M163.816 98.8022L150.338 95.4299V90.0011C153.662 88.3382 155.762 84.9377 155.762 81.2184V65.5724C155.762 58.0763 149.691 52 142.202 52C134.714 52 128.644 58.0763 128.644 65.5724V81.2184C128.644 84.9377 130.743 88.3382 134.067 90.0011V95.4311L120.59 98.8022C115.759 100.011 112.372 104.354 112.372 109.336V133.432H120.508V114.431H125.931V138.861H158.473V114.431H163.898V133.432H172.032V109.336C172.034 104.353 168.645 100.011 163.816 98.8022Z" fill="#08345B"/>
<path d="M169.578 181.825L173.778 180.221L175.712 185.293L171.511 186.897L169.578 181.825Z" fill="#D9D4D4"/>
<path d="M125.947 201C119.867 200.996 113.844 199.812 108.213 197.514L105.907 196.556L107.99 191.543L110.276 192.492C120.035 196.48 130.946 196.598 140.79 192.821L165.643 183.337L167.574 188.41L142.723 197.911C137.366 199.954 131.681 201.001 125.947 201Z" fill="#D9D4D4"/>
<path d="M206.143 139.765L201.025 137.957C208.727 116.079 203.694 91.7337 187.952 74.7119L191.93 71.0195C209.039 89.5221 214.509 115.985 206.143 139.765Z" fill="#D9D4D4"/>
<path d="M183.461 70.3218C181.891 68.9374 180.25 67.6264 178.579 66.4289L181.742 62.0217C183.553 63.3217 185.332 64.7354 187.037 66.2481L183.461 70.3218Z" fill="#D9D4D4"/>
<path d="M80.0452 111.94L74.6375 111.495C76.3086 90.8015 87.3999 72.03 104.712 60.5958L107.714 65.1191C91.7847 75.6333 81.5796 92.9031 80.0452 111.94Z" fill="#D9D4D4"/>
</svg>
