<svg width="260" height="260" viewBox="0 0 260 260" fill="none" xmlns="http://www.w3.org/2000/svg">
<path d="M252.917 89.1304L236.43 95.9563L234.913 92.1185L243.662 88.5344C243.881 88.4448 244.007 88.2146 243.965 87.9822C243.922 87.7498 243.723 87.5787 243.487 87.5719L236.151 87.3592L235.298 85.398L240.291 79.9805C240.45 79.8081 240.467 79.5486 240.334 79.3562C240.2 79.1638 239.95 79.0901 239.734 79.1789L230.986 82.7622L229.375 78.9133L245.869 72.0848L247.767 76.5451L241.331 83.5175C241.198 83.6612 241.161 83.869 241.237 84.0494C241.312 84.2298 241.485 84.3497 241.681 84.3564L251.117 84.6781L252.917 89.1304Z" fill="#62CEBB" stroke="#62CEBB" stroke-linejoin="round"/>
<path d="M238.282 103.657L237.208 99.6318L254.543 95.1143L255.616 99.1396L238.282 103.657Z" fill="#62CEBB" stroke="#62CEBB" stroke-linejoin="round"/>
<path d="M249.049 111.155C249.195 111.001 249.228 110.772 249.131 110.583C249.035 110.395 248.83 110.287 248.62 110.315L239.911 111.469L239.374 107.357L257.133 104.94L257.585 108.197L249.215 116.784C249.067 116.936 249.031 117.166 249.126 117.356C249.221 117.547 249.426 117.656 249.637 117.629L258.681 116.472L259.218 120.587L241.461 123.004L241.005 119.633L249.049 111.155Z" fill="#62CEBB" stroke="#62CEBB" stroke-linejoin="round"/>
<path d="M259.278 133.867L259.278 133.882C259.278 135.359 258.963 136.619 258.435 137.779C257.909 138.938 257.285 139.767 256.454 140.494C255.622 141.222 254.691 141.739 253.546 142.052L253.546 142.052L253.534 142.055C252.462 142.377 251.308 142.584 250.058 142.479C250.045 142.478 250.031 142.478 250.017 142.478C248.651 142.478 247.383 142.162 246.32 141.737C245.301 141.329 244.362 140.607 243.616 139.863C242.873 139.011 242.263 138.083 241.958 136.967C241.955 136.954 241.951 136.941 241.946 136.928C241.532 135.791 241.422 134.531 241.421 133.224L241.628 126.524L259.485 127.154L259.278 133.867ZM244.858 133.439C244.858 134.134 244.97 134.878 245.234 135.418C245.488 136.042 245.872 136.556 246.389 136.944C246.851 137.291 247.43 137.64 248.02 137.881C248.678 138.264 249.436 138.375 250.239 138.375C250.258 138.375 250.278 138.375 250.297 138.375C251.026 138.376 251.776 138.376 252.421 138.118L252.451 138.106C252.985 137.892 253.591 137.65 254.088 137.277C254.611 136.885 254.998 136.365 255.251 135.732L255.262 135.705C255.476 135.168 255.727 134.541 255.73 133.785L255.84 131.69C255.848 131.556 255.8 131.425 255.71 131.326C255.619 131.227 255.492 131.169 255.358 131.164L245.486 130.831C245.214 130.822 244.984 131.033 244.97 131.305L244.859 133.412C244.858 133.421 244.858 133.43 244.858 133.439Z" fill="#62CEBB" stroke="#62CEBB" stroke-linejoin="round"/>
<path d="M253.445 168.447L252.214 173.087L234.998 168.364L236.162 164.334L245.336 166.864C245.564 166.927 245.804 166.822 245.913 166.614C246.022 166.405 245.97 166.148 245.789 165.998L240.162 161.327L240.759 159.283L247.989 158.113C248.222 158.075 248.396 157.881 248.409 157.646C248.421 157.411 248.268 157.199 248.041 157.137L238.76 154.606L239.833 150.581L257.051 155.306L255.724 159.949L246.388 161.452C246.195 161.483 246.038 161.624 245.986 161.813C245.934 162.001 245.996 162.203 246.146 162.329L253.445 168.447Z" fill="#62CEBB" stroke="#62CEBB" stroke-linejoin="round"/>
<path d="M232.532 181.963C232.75 181.994 232.963 181.878 233.056 181.678L235.164 177.13C235.256 176.93 235.207 176.692 235.041 176.545L232.442 174.246L234.3 170.443L247.752 183.685L246.054 187.364L227.248 185.263L229.017 181.46L232.532 181.963ZM235.477 181.923C235.411 182.064 235.415 182.228 235.488 182.366C235.561 182.505 235.694 182.601 235.848 182.626L241.838 183.625C242.057 183.661 242.274 183.549 242.37 183.349C242.467 183.149 242.42 182.909 242.255 182.76L237.707 178.656C237.589 178.55 237.428 178.506 237.272 178.537C237.117 178.569 236.985 178.673 236.919 178.817L235.477 181.923Z" fill="#62CEBB" stroke="#62CEBB" stroke-linejoin="round"/>
<path d="M228.223 193.476L223.851 190.528L225.989 187.054L240.782 197.021L236.517 203.367C235.995 204.098 235.491 204.594 234.794 204.992C234.088 205.396 233.378 205.604 232.609 205.824C231.886 205.923 231.088 205.916 230.41 205.722L230.394 205.718C229.525 205.501 228.926 205.296 228.332 204.9C227.694 204.474 227.102 203.972 226.714 203.293C226.708 203.283 226.702 203.273 226.696 203.264C226.256 202.604 225.87 201.908 225.776 201.252C225.773 201.229 225.768 201.207 225.762 201.185C225.566 200.497 225.561 199.685 225.666 198.953L225.666 198.953L225.667 198.944C225.766 198.152 226.061 197.453 226.576 196.733L226.576 196.733L226.579 196.727L228.354 194.176C228.43 194.066 228.46 193.93 228.435 193.799C228.41 193.667 228.334 193.551 228.223 193.476ZM231.77 195.915C231.66 195.841 231.525 195.815 231.395 195.841C231.265 195.867 231.151 195.943 231.077 196.054L229.548 198.348C229.161 198.774 229.234 199.341 229.344 199.78C229.504 200.421 229.986 200.845 230.661 201.295C231.36 201.761 232.077 201.977 232.63 201.803C233.197 201.657 233.497 201.357 233.725 201.129L233.732 201.121C233.757 201.097 233.779 201.07 233.798 201.04L235.24 198.822C235.389 198.592 235.326 198.285 235.098 198.133L231.77 195.915Z" fill="#62CEBB" stroke="#62CEBB" stroke-linejoin="round"/>
<path d="M221.546 219.715C221.176 219.863 220.854 220.011 220.553 220.157L219.168 216.693C219.3 216.644 219.436 216.595 219.574 216.545L219.578 216.543C219.88 216.434 220.191 216.32 220.476 216.207C220.489 216.201 220.501 216.196 220.514 216.19C220.631 216.131 220.768 216.067 220.919 215.997C221.273 215.833 221.698 215.636 222.1 215.395C222.666 215.055 223.165 214.69 223.552 214.185C223.873 213.86 224.194 213.439 224.226 212.941C224.288 212.714 224.29 212.489 224.217 212.27C224.14 212.04 223.996 211.864 223.86 211.728C223.492 211.359 223.089 211.36 222.857 211.36C222.852 211.36 222.846 211.36 222.841 211.36C222.649 211.36 222.477 211.408 222.337 211.455C222.271 211.477 222.204 211.502 222.14 211.525L222.124 211.531C222.053 211.557 221.982 211.582 221.907 211.608C221.51 211.74 221.129 211.994 220.817 212.202C220.808 212.208 220.798 212.214 220.789 212.22C220.73 212.26 220.669 212.301 220.608 212.343C220.298 212.554 219.961 212.784 219.55 212.949C219.528 212.957 219.508 212.967 219.487 212.979C218.696 213.431 217.967 213.845 217.359 214.048C216.707 214.265 215.957 214.479 215.431 214.585C214.876 214.676 214.3 214.587 213.682 214.381C213.105 214.188 212.498 213.792 211.852 213.255C211.008 212.515 210.53 211.817 210.344 211.168C210.338 211.148 210.331 211.128 210.323 211.108C210.042 210.453 210.032 209.671 210.137 208.936C210.243 208.193 210.452 207.374 210.852 206.673C211.284 205.917 211.702 205.293 212.325 204.671C212.338 204.658 212.35 204.644 212.361 204.63C212.765 204.126 213.274 203.716 213.836 203.266C214.392 202.821 214.931 202.39 215.576 201.96C216.229 201.525 216.765 201.204 217.408 200.882C217.866 200.653 218.312 200.484 218.745 200.32C218.76 200.314 218.776 200.308 218.791 200.303L220.291 204.008C219.762 204.179 219.17 204.376 218.643 204.637C218.071 204.868 217.374 205.215 216.778 205.688C216.101 206.141 215.505 206.615 215.019 207.222L215.01 207.234C214.675 207.68 214.429 208.043 214.297 208.309C214.262 208.378 214.244 208.455 214.244 208.532C214.244 208.538 214.244 208.543 214.244 208.548C214.244 208.78 214.243 209.183 214.612 209.551C214.982 209.921 215.394 209.921 215.704 209.92C215.717 209.92 215.73 209.92 215.742 209.92C216.192 209.92 216.62 209.768 217.018 209.503C217.319 209.302 217.732 209.095 218.184 208.869C218.211 208.855 218.237 208.839 218.261 208.821C218.547 208.607 218.819 208.45 219.154 208.258C219.306 208.171 219.471 208.076 219.655 207.966C220.419 207.529 221.05 207.216 221.668 207.01C222.302 206.799 222.801 206.703 223.285 206.703C223.771 206.703 224.263 206.8 224.763 207C225.24 207.191 225.632 207.479 226.183 207.919C226.897 208.533 227.397 209.239 227.697 210.039C227.698 210.04 227.698 210.042 227.699 210.043C227.701 210.049 227.704 210.055 227.706 210.06C228.003 210.753 228.109 211.567 228.109 212.304C228.109 213.102 227.911 213.81 227.595 214.547C227.29 215.258 226.771 215.992 226.229 216.642L226.228 216.642L226.222 216.65C225.823 217.149 225.317 217.556 224.802 217.865C224.783 217.876 224.765 217.889 224.747 217.903C224.223 218.323 223.696 218.64 223.139 218.974L223.396 219.403L223.139 218.974C222.623 219.283 222.105 219.491 221.546 219.715Z" fill="#62CEBB" stroke="#62CEBB" stroke-linejoin="round"/>
<path d="M211.318 232.356L208.31 233.275C208.251 232.909 208.151 232.497 208.015 232.021C207.935 231.743 207.872 231.455 207.803 231.139C207.78 231.034 207.756 230.926 207.731 230.815C207.632 230.379 207.515 229.908 207.337 229.432C207.252 229.205 207.165 228.967 207.076 228.721C206.824 228.028 206.55 227.27 206.216 226.52C205.752 225.476 205.173 224.665 204.623 223.895L204.613 223.882C204.608 223.874 204.603 223.867 204.597 223.86C203.664 222.694 202.393 221.658 201.02 220.856C199.784 220.136 198.276 219.42 196.675 218.71L198.025 215.924C198.808 216.208 199.655 216.49 200.494 216.77L200.499 216.771C201.453 217.089 202.304 217.514 203.165 218.052C203.178 218.06 203.192 218.068 203.206 218.075C204.06 218.502 204.906 219.031 205.641 219.659C205.928 219.945 206.202 220.205 206.46 220.451C206.936 220.903 207.359 221.304 207.705 221.719C208.222 222.34 208.646 223.076 209.083 223.952C209.512 224.81 209.832 225.663 210.044 226.512C210.135 226.876 210.239 227.259 210.346 227.65C210.511 228.258 210.682 228.886 210.817 229.494C211.009 230.358 211.2 231.386 211.318 232.356Z" fill="#62CEBB" stroke="#62CEBB" stroke-linejoin="round"/>
<path d="M192.816 239.178L198.378 235.573C198.609 235.423 198.675 235.115 198.527 234.883L191.033 223.214L194.519 220.979L204.29 236.004L194.807 242.122L192.816 239.178Z" fill="#62CEBB" stroke="#62CEBB" stroke-linejoin="round"/>
<path d="M181.477 234.72L179.251 229.965L183.001 228.269L190.673 244.454L183.806 247.679L183.806 247.679L183.795 247.684C182.997 248.083 182.303 248.186 181.468 248.186C180.66 248.186 179.948 247.985 179.165 247.762C178.509 247.574 177.925 247.098 177.24 246.527C176.647 246.033 176.246 245.438 175.937 244.718L175.478 244.915L175.937 244.718C175.622 243.982 175.413 243.25 175.308 242.412C175.208 241.608 175.306 240.901 175.515 240.172C175.713 239.478 176.116 238.761 176.544 238.116C177.055 237.508 177.649 237.023 178.426 236.731C178.44 236.726 178.454 236.72 178.467 236.714L181.24 235.383C181.488 235.264 181.593 234.968 181.477 234.72ZM183.367 238.945C183.312 238.82 183.208 238.723 183.079 238.676C182.95 238.63 182.808 238.638 182.686 238.7L180.273 239.906C179.987 240.013 179.808 240.209 179.685 240.385C179.624 240.474 179.569 240.567 179.523 240.644L179.52 240.65C179.473 240.73 179.433 240.798 179.388 240.866C179.363 240.903 179.343 240.943 179.329 240.985C179.234 241.27 179.25 241.591 179.313 241.907C179.378 242.23 179.503 242.598 179.677 243.004C179.681 243.013 179.685 243.022 179.689 243.031C179.863 243.378 180.051 243.698 180.272 243.953C180.495 244.21 180.772 244.424 181.124 244.512C181.596 244.63 182.076 244.668 182.463 244.477L184.788 243.37C185.033 243.253 185.14 242.964 185.031 242.716L183.367 238.945Z" fill="#62CEBB" stroke="#62CEBB" stroke-linejoin="round"/>
<path d="M164.793 235.729C164.806 235.724 164.819 235.718 164.831 235.712C164.928 235.663 165.025 235.654 165.384 235.654C165.6 235.654 165.78 235.618 165.915 235.591L165.926 235.588C166.067 235.56 166.16 235.543 166.271 235.543H166.273H166.275H166.277H166.279H166.281H166.283H166.285H166.287H166.289H166.291H166.293H166.295H166.297H166.299H166.3H166.302H166.304H166.306H166.308H166.31H166.312H166.314H166.316H166.318H166.32H166.322H166.324H166.326H166.328H166.33H166.332H166.334H166.336H166.338H166.339H166.341H166.343H166.345H166.347H166.349H166.351H166.353H166.355H166.357H166.359H166.361H166.363H166.365H166.367H166.369H166.371H166.373H166.375H166.377H166.378H166.38H166.382H166.384H166.386H166.388H166.39H166.392H166.394H166.396H166.398H166.4H166.402H166.404H166.406H166.408H166.41H166.412H166.414H166.416H166.417H166.419H166.421H166.423H166.425H166.427H166.429H166.431H166.433H166.435H166.437H166.439H166.441H166.443H166.445H166.447H166.449H166.451H166.453H166.455H166.456H166.458H166.46H166.462H166.464H166.466H166.468H166.47H166.472H166.474H166.476H166.478H166.48H166.482H166.484H166.486H166.488H166.49H166.492H166.494H166.495H166.497H166.499H166.501H166.503H166.505H166.507H166.509H166.511H166.513H166.515H166.517H166.519H166.521H166.523H166.525H166.527H166.529H166.531H166.533H166.534H166.536H166.538H166.54H166.542H166.544H166.546H166.548H166.55H166.552H166.554H166.556H166.558H166.56H166.562H166.564H166.566H166.568H166.57H166.572H166.573H166.575H166.577H166.579H166.581H166.583H166.585H166.587H166.589H166.591H166.593H166.595H166.597H166.599H166.601H166.603H166.605H166.607H166.609H166.611H166.612H166.614H166.616H166.618H166.62H166.622H166.624H166.626H166.628H166.63H166.632H166.634H166.636H166.638H166.64H166.642H166.644H166.646H166.648H166.65H166.651H166.653H166.655H166.657H166.659H166.661H166.663H166.665H166.667H166.669H166.671H166.673H166.675H166.677H166.679H166.681H166.683H166.685H166.687H166.689H166.69H166.692H166.694H166.696H166.698H166.7H166.702H166.704H166.706H166.708H166.71H166.712H166.714H166.716H166.718H166.72H166.722H166.724H166.726H166.728H166.729H166.731H166.733H166.735H166.737H166.739H166.741H166.743H166.745H166.747H166.749H166.751H166.753H166.755H166.757H166.759H166.761H166.763H166.765H166.767H166.768H166.77H166.772H166.774H166.776H166.778H166.78H166.782H166.784H166.786H166.788H166.79H166.792H166.794H166.796H166.798H166.8H166.802H166.804H166.806H166.807H166.809H166.811H166.813H166.815H166.817H166.819H166.821H166.823H166.825H166.827H166.829H166.831H166.833H166.835H166.837H166.839H166.841H166.843H166.844H166.846H166.848H166.85H166.852H166.854H166.856H166.858H166.86H166.862H166.864H166.866H166.868H166.87H166.872H166.874H166.876H166.878H166.88H166.882H166.883H166.885H166.887H166.889H166.891H166.893H166.895H166.897H166.899H166.901H166.903H166.905H166.907H166.909H166.911H166.913H166.915H166.917H166.919H166.921H166.922H166.924H166.926H166.928H166.93H166.932H166.934H166.936H166.938H166.94H166.942H166.944H166.946H166.948H166.95H166.952H166.954H166.956H166.958H166.96H166.961H166.963H166.965H166.967H166.969H166.971H166.973H166.975H166.977H166.979H166.981H166.983H166.985H166.987H166.989H166.991H166.993H166.995H166.997H166.999H167H167.002H167.004H167.006H167.008H167.01H167.012H167.014H167.016H167.018H167.02H167.022H167.024H167.026H167.028H167.03H167.032H167.034H167.036H167.038H167.039H167.041H167.043H167.045H167.047H167.049H167.051H167.053H167.055H167.057H167.059H167.061H167.063H167.065H167.067H167.069H167.071H167.073H167.075H167.077H167.078H167.08H167.082H167.084H167.086H167.088H167.09H167.092H167.094H167.096H167.098H167.1H167.102H167.104H167.106H167.108H167.11H167.112H167.114H167.116H167.117H167.119H167.121H167.123H167.125H167.127H167.129H167.131H167.133H167.135H167.137H167.139H167.141H167.143H167.145H167.147H167.149H167.151H167.153H167.155H167.156H167.158H167.16H167.162H167.164H167.166H167.168H167.17H167.172H167.174H167.176H167.178H167.18H167.182H167.184H167.186H167.188H167.19H167.192H167.194H167.195H167.197H167.199H167.201H167.203H167.205H167.207H167.209H167.211H167.213H167.215H167.217H167.219H167.221H167.223H167.225H167.227H167.229H167.231H167.233H167.234H167.236H167.238H167.24H167.242H167.244H167.246H167.248H167.25H167.252H167.254H167.256H167.258H167.26H167.262H167.264H167.266H167.268H167.27C167.404 235.543 167.545 235.57 167.674 235.609L167.842 238.88C167.803 238.874 167.759 238.869 167.713 238.869C167.692 238.869 167.677 238.866 167.594 238.839C167.591 238.838 167.588 238.837 167.585 238.836C167.5 238.807 167.352 238.758 167.159 238.758C167.151 238.758 167.142 238.758 167.134 238.758C166.931 238.757 166.62 238.757 166.303 238.905C165.9 239.046 165.515 239.306 165.252 239.57C164.916 239.906 164.73 240.431 164.91 240.969C164.933 241.04 164.973 241.105 165.025 241.159L174.994 251.442L170.659 252.769L164.993 245.927C164.863 245.771 164.652 245.708 164.458 245.768C164.265 245.829 164.127 246 164.109 246.203L163.362 254.848L159.222 256.081L161.331 241.214L161.331 241.214L161.332 241.205C161.385 240.78 161.466 240.351 161.548 239.938C161.569 239.836 161.589 239.735 161.61 239.635C161.668 239.349 161.724 239.072 161.766 238.825C161.971 238.215 162.176 237.699 162.385 237.175C162.674 236.791 162.931 236.459 163.24 236.199C163.478 236.177 163.717 236.117 163.94 236.046C164.221 235.957 164.513 235.841 164.784 235.732L164.793 235.729Z" fill="#62CEBB" stroke="#62CEBB" stroke-linejoin="round"/>
<path d="M149.907 253.723L148.087 240.021L152.2 239.485L154.616 257.24L139.527 259.217L137.216 241.464L141.328 240.927L143.148 254.631C143.165 254.762 143.234 254.882 143.34 254.962C143.445 255.043 143.578 255.078 143.71 255.06L149.478 254.284C149.751 254.247 149.943 253.996 149.907 253.723Z" fill="#62CEBB" stroke="#62CEBB" stroke-linejoin="round"/>
<path d="M128.725 255.471L129.26 241.553L133.473 241.733L132.738 259.483L117.54 258.963L118.17 241.11L122.382 241.289L121.847 255.211C121.842 255.344 121.89 255.473 121.98 255.57C122.07 255.668 122.195 255.725 122.328 255.73L128.206 255.952C128.482 255.962 128.714 255.747 128.725 255.471Z" fill="#62CEBB" stroke="#62CEBB" stroke-linejoin="round"/>
<path d="M108.749 247.236C108.793 247.025 108.697 246.81 108.511 246.701C108.325 246.593 108.091 246.615 107.929 246.758L98.0237 255.466L95.0995 254.845L98.8814 237.301L103.006 238.198L100.894 247.914C100.848 248.124 100.941 248.34 101.126 248.45C101.31 248.56 101.544 248.54 101.707 248.4L111.504 240.019L114.541 240.644L110.76 258.185L106.632 257.288L108.749 247.236Z" fill="#62CEBB" stroke="#62CEBB" stroke-linejoin="round"/>
<path d="M89.4252 239.328L91.3471 234.371L95.1931 235.981L88.676 252.694L81.6009 249.885L81.6009 249.885L81.592 249.882C80.7828 249.578 80.1804 249.18 79.5675 248.57C79.0419 247.937 78.6325 247.317 78.3265 246.603C78.0282 245.907 77.9232 245.203 77.9232 244.36C77.9232 243.517 78.0282 242.813 78.3265 242.117C78.6354 241.396 79.0495 240.772 79.5821 240.132C80.0731 239.543 80.6682 239.137 81.4176 238.708C82.1465 238.398 82.8704 238.193 83.5902 238.089C84.3493 237.996 85.0287 238.179 85.8976 238.505L88.7796 239.613C89.0368 239.712 89.3256 239.584 89.4252 239.328ZM87.653 243.647C87.748 243.391 87.6205 243.106 87.3665 243.007L84.8153 242.009C84.8074 242.006 84.7993 242.003 84.7912 242C84.3491 241.853 83.8479 241.842 83.3575 242.169C82.9135 242.465 82.5327 243.006 82.1893 243.693C82.1849 243.702 82.1808 243.71 82.177 243.719C81.8253 244.54 81.7425 245.307 82.1096 245.858L82.1183 245.871C82.2232 246.028 82.3513 246.22 82.5006 246.386C82.6537 246.556 82.8561 246.73 83.1262 246.825L85.553 247.818C85.6784 247.869 85.8192 247.867 85.9432 247.813C86.0672 247.758 86.1639 247.656 86.211 247.529L87.653 243.647Z" fill="#62CEBB" stroke="#62CEBB" stroke-linejoin="round"/>
<path d="M67.7514 242.759C67.7355 242.756 67.7195 242.754 67.7035 242.753C66.4642 242.649 65.3209 242.237 64.1591 241.498C62.9846 240.751 62.0337 239.904 61.2981 238.961C60.5684 237.915 60.1542 236.877 59.9457 235.73C59.7284 234.535 59.6285 233.383 59.8348 232.248C60.0499 231.065 60.3671 230.018 60.9917 228.977C61.6286 227.916 62.3575 227.089 63.2806 226.474C63.2907 226.467 63.3006 226.46 63.3102 226.453C64.2373 225.732 65.2779 225.31 66.3576 224.986C67.5209 224.669 68.662 224.57 69.7909 224.775C69.8205 224.781 69.8504 224.783 69.8804 224.783C71.2064 224.783 72.3346 225.187 73.4942 225.925C74.6687 226.673 75.6196 227.519 76.3551 228.463C77.0849 229.508 77.499 230.547 77.7076 231.694C77.9248 232.889 78.0248 234.041 77.8185 235.175C77.6033 236.358 77.2862 237.405 76.6615 238.446C76.0263 239.505 75.2904 240.345 74.343 241.081C73.3953 241.819 72.359 242.332 71.2329 242.537C69.9965 242.762 68.8671 242.962 67.7514 242.759ZM73.0534 236.23C73.0637 236.216 73.0733 236.202 73.0822 236.187C73.4419 235.588 73.6879 234.977 73.8108 234.246C73.9196 233.701 74.0527 232.945 73.9202 232.282L73.9153 232.258C73.8069 231.716 73.6815 231.089 73.304 230.459C72.9252 229.828 72.4124 229.316 71.6569 228.938C70.9761 228.598 70.3345 228.331 69.5476 228.331C68.8199 228.331 68.2021 228.454 67.5872 228.7C66.9512 228.954 66.4525 229.333 65.9773 229.809C65.967 229.819 65.9565 229.829 65.946 229.84C65.5328 230.253 65.0377 230.748 64.7731 231.38C64.4242 231.969 64.1849 232.571 64.0643 233.289C63.9555 233.833 63.8224 234.589 63.9549 235.252C64.0786 235.87 64.3239 236.478 64.682 237.075C65.0608 237.706 65.5736 238.218 66.3291 238.596C67.0162 238.939 67.6213 239.185 68.3562 239.307C69.1606 239.441 69.8287 239.174 70.3634 238.96C70.3753 238.955 70.3871 238.95 70.3988 238.945C71.0348 238.691 71.5336 238.312 72.0087 237.836C72.0566 237.789 72.0942 237.731 72.1194 237.669C72.2903 237.241 72.6205 236.804 72.9417 236.378C72.9791 236.329 73.0165 236.279 73.0534 236.23Z" fill="#62CEBB" stroke="#62CEBB" stroke-linejoin="round"/>
<path d="M49.1791 213.301L49.1895 213.289C49.7099 212.665 50.1921 212.295 50.7383 212.113C51.3506 211.908 51.9361 211.814 52.617 211.911C53.3292 212.013 53.9347 212.214 54.658 212.627C55.4096 213.056 56.0564 213.487 56.8176 214.03L63.5184 219.684L51.9627 233.341L43.9142 226.563L43.9143 226.563L43.9045 226.555C43.4093 226.159 43.1333 225.783 42.9471 225.318C42.7494 224.823 42.6501 224.332 42.6501 223.729C42.6501 223.23 42.7515 222.629 42.9471 222.14C43.148 221.638 43.4533 221.125 43.7625 220.711C44.2596 220.119 44.9615 219.615 45.6641 219.312C46.4331 219.027 47.2142 219.019 48.1424 219.225C48.3466 219.271 48.5575 219.184 48.671 219.008C48.7844 218.832 48.7764 218.605 48.6508 218.437C48.074 217.668 47.8682 216.796 47.8635 215.885C47.9661 215.122 48.357 214.226 49.1791 213.301ZM50.5826 227.764C50.6833 227.853 50.8153 227.897 50.9491 227.888C51.0828 227.878 51.2071 227.815 51.2939 227.713L53.1796 225.494C53.3566 225.286 53.3336 224.974 53.1279 224.794L50.4769 222.475C50.1707 222.177 49.7459 222.036 49.4489 221.937C49.4347 221.932 49.4208 221.928 49.4072 221.923C49.3562 221.906 49.3029 221.898 49.2491 221.898C49.0189 221.898 48.7672 221.938 48.4991 222.082C48.2405 222.221 47.9972 222.441 47.7495 222.751L47.7399 222.763C47.3627 223.266 47.1962 223.702 47.1962 224.172C47.1962 224.717 47.5554 225.073 47.7567 225.273C47.767 225.283 47.7769 225.293 47.7863 225.302C47.7939 225.31 47.8016 225.317 47.8096 225.324L50.5826 227.764ZM55.1406 222.449C55.2431 222.534 55.3755 222.575 55.5082 222.563C55.641 222.55 55.7632 222.485 55.8477 222.381L57.8443 219.941C58.0163 219.731 57.989 219.422 57.7827 219.245L54.6769 216.583C54.6616 216.57 54.6456 216.558 54.6289 216.546C54.6187 216.54 54.6084 216.533 54.598 216.526C54.283 216.315 53.839 216.019 53.2423 216.019C53.2014 216.019 53.1607 216.024 53.121 216.034C52.5666 216.172 52.1574 216.453 51.7795 216.831C51.3292 217.281 51.1894 217.866 51.1894 218.294C51.1894 218.817 51.3244 219.34 51.8316 219.691L55.1406 222.449Z" fill="#62CEBB" stroke="#62CEBB" stroke-linejoin="round"/>
<path d="M38.9305 212.125C39.1188 211.96 39.1557 211.68 39.0167 211.472L38.7948 211.139C38.6935 210.987 38.5173 210.902 38.3352 210.918L29.7188 211.672L26.7569 208.188L37.1926 207.478C37.4154 207.463 37.6012 207.302 37.6477 207.084L39.9905 196.083L42.9417 199.468L41.2167 207.877C41.1861 208.026 41.225 208.181 41.3224 208.298L41.877 208.963C41.9625 209.066 42.0856 209.13 42.2188 209.142C42.352 209.153 42.4842 209.11 42.5858 209.024L47.5305 204.8L50.2087 207.925L36.5466 219.695L33.8668 216.569L38.9305 212.125Z" fill="#62CEBB" stroke="#62CEBB" stroke-linejoin="round"/>
<path d="M30.7944 187.792C30.6485 187.956 30.6277 188.197 30.7431 188.385L33.4052 192.711C33.5208 192.899 33.7458 192.989 33.959 192.932L37.3697 192.029L39.5844 195.661L21.0863 199.76L18.918 196.366L30.8935 181.66L33.0982 185.187L30.7944 187.792ZM29.1588 190.53C29.0777 190.393 28.9365 190.303 28.7783 190.287C28.6202 190.272 28.4639 190.332 28.3574 190.45L24.2533 194.998C24.1051 195.162 24.0825 195.404 24.1976 195.593C24.3127 195.782 24.5383 195.873 24.7522 195.816L30.6311 194.263C30.7826 194.223 30.9066 194.114 30.9661 193.969C31.0255 193.824 31.0134 193.66 30.9335 193.525L29.1588 190.53Z" fill="#62CEBB" stroke="#62CEBB" stroke-linejoin="round"/>
<path d="M8.75838 165.068L11.8734 167.232C11.6783 167.439 11.4901 167.657 11.3417 167.88C11.0592 168.303 10.9249 168.846 10.9249 169.266V169.269V169.271V169.274V169.277V169.279V169.282V169.284V169.287V169.289V169.292V169.295V169.297V169.3V169.302V169.305V169.307V169.31V169.313V169.315V169.318V169.32V169.323V169.325V169.328V169.33V169.333V169.335V169.338V169.341V169.343V169.346V169.348V169.351V169.353V169.356V169.358V169.361V169.363V169.366V169.368V169.371V169.373V169.376V169.378V169.381V169.383V169.386V169.388V169.391V169.393V169.396V169.398V169.401V169.403V169.406V169.408V169.411V169.413V169.415V169.418V169.42V169.423V169.425V169.428V169.43V169.433V169.435V169.438V169.44V169.443V169.445V169.447V169.45V169.452V169.455V169.457V169.46V169.462V169.464V169.467V169.469V169.472V169.474V169.477V169.479V169.481V169.484V169.486V169.489V169.491V169.493V169.496V169.498V169.501V169.503V169.506V169.508V169.51V169.513V169.515V169.518V169.52V169.522V169.525V169.527V169.529V169.532V169.534V169.537V169.539V169.541V169.544V169.546V169.549V169.551V169.553V169.556V169.558V169.56V169.563V169.565V169.567V169.57V169.572V169.575V169.577V169.579V169.582V169.584V169.586V169.589V169.591V169.593V169.596V169.598V169.6V169.603V169.605V169.607V169.61V169.612V169.614V169.617V169.619V169.621V169.624V169.626V169.628V169.631V169.633V169.635V169.638V169.64V169.642V169.645V169.647V169.649V169.652V169.654V169.656V169.659V169.661V169.663V169.666V169.668V169.67V169.673V169.675V169.677V169.68V169.682V169.684V169.687V169.689V169.691V169.693V169.696V169.698V169.7V169.703V169.705V169.707V169.71V169.712V169.714V169.716V169.719V169.721V169.723V169.726V169.728V169.73V169.733V169.735V169.737V169.739V169.742V169.744V169.746V169.749V169.751V169.753V169.755V169.758V169.76V169.762V169.765V169.767V169.769V169.771V169.774V169.776V169.778V169.781V169.783V169.785V169.787V169.79V169.792V169.794V169.797V169.799V169.801V169.803V169.806V169.808V169.81V169.813V169.815V169.817V169.819V169.822V169.824V169.826V169.828V169.831V169.833V169.835V169.838V169.84V169.842V169.844V169.847V169.849V169.851V169.854V169.856V169.858V169.86V169.863V169.865V169.867V169.869V169.872V169.874V169.876V169.879V169.881V169.883V169.885V169.888V169.89V169.892V169.894V169.897V169.899V169.901V169.904V169.906V169.908V169.91V169.913V169.915V169.917V169.919V169.922V169.924V169.926V169.929V169.931V169.933V169.935V169.938V169.94V169.942V169.945V169.947V169.949V169.951V169.954V169.956V169.958V169.961V169.963V169.965V169.967V169.97V169.972V169.974V169.976V169.979V169.981V169.983V169.986V169.988V169.99V169.992V169.995V169.997V169.999V170.002V170.004V170.006V170.009V170.011V170.013V170.015V170.018V170.02V170.022V170.025V170.027V170.029V170.031V170.034V170.036V170.038V170.041V170.043V170.045V170.048V170.05V170.052V170.054V170.057V170.059V170.061V170.064V170.066V170.068V170.071V170.073V170.075V170.078V170.08V170.082V170.085V170.087V170.089V170.091V170.094V170.096V170.098V170.101V170.103V170.105V170.108V170.11V170.112V170.115V170.117V170.119V170.122V170.124V170.126V170.129V170.131V170.133V170.136V170.138V170.14V170.143V170.145V170.147V170.15V170.152V170.154V170.157V170.159V170.161V170.164V170.166V170.169V170.171V170.173V170.176V170.178V170.18V170.183V170.185V170.187V170.19V170.192V170.195V170.197V170.199V170.202V170.204V170.206V170.209V170.211V170.214V170.216V170.218V170.221V170.223V170.225V170.228V170.23V170.233V170.235V170.237V170.24V170.242V170.245V170.247V170.249V170.252V170.254V170.257V170.259V170.261V170.264V170.266V170.269V170.271V170.274V170.276V170.278V170.281V170.283V170.286V170.288V170.29V170.293V170.295V170.298V170.3V170.303V170.305V170.308V170.31V170.312V170.315V170.317V170.32V170.322V170.325V170.327V170.33V170.332V170.335V170.337V170.339V170.342V170.344V170.347V170.349V170.352V170.354V170.357V170.359V170.362V170.364V170.367V170.369V170.372V170.374V170.377V170.379V170.382V170.384V170.387V170.389V170.392V170.394V170.397V170.399V170.402V170.404V170.407V170.409V170.412V170.414V170.417V170.42V170.422V170.425V170.427V170.43V170.432V170.435V170.437V170.44V170.442V170.445V170.448V170.45V170.453V170.455V170.458V170.46V170.463V170.466V170.468V170.471V170.473V170.476V170.479V170.481V170.484V170.486C10.9249 170.54 10.9336 170.593 10.9506 170.644C10.989 170.76 11.0115 170.906 11.0409 171.112L11.0436 171.131C11.0693 171.311 11.1025 171.544 11.1724 171.754C11.4145 172.48 11.7887 173.118 12.4223 173.633C12.9355 174.136 13.563 174.387 14.09 174.598C14.1011 174.602 14.1122 174.607 14.1232 174.611C14.1515 174.622 14.1809 174.631 14.2108 174.637L14.2244 174.64C14.773 174.749 15.3685 174.869 16.0836 174.869C16.806 174.869 17.42 174.748 18.0304 174.505C18.7528 174.263 19.3502 173.902 19.8222 173.548L19.8345 173.539C20.4388 173.055 20.8034 172.569 21.1347 172.128L21.1423 172.117C21.1526 172.104 21.1622 172.089 21.1711 172.075C21.5155 171.501 21.7838 170.87 21.7965 170.203C21.9164 169.536 21.7767 168.791 21.5494 168.11C21.4826 167.909 21.3858 167.716 21.3072 167.559L21.3005 167.545C21.2139 167.372 21.1479 167.238 21.1058 167.111C20.943 166.623 20.5012 166.212 20.1323 165.966L19.6332 165.633L19.134 165.301C19.097 165.276 19.0569 165.256 19.0148 165.242C18.7961 165.169 18.5238 165.093 18.2265 165.045L18.9368 161.139C19.4471 161.199 19.9382 161.369 20.5318 161.623C21.1478 161.932 21.7711 162.346 22.4014 162.87C22.9252 163.396 23.4481 164.024 23.8664 164.649C23.953 164.8 24.037 164.944 24.1177 165.081C24.4697 165.682 24.7585 166.175 24.9203 166.741C24.9223 166.748 24.9244 166.755 24.9267 166.762C25.3561 168.05 25.5605 169.31 25.4577 170.441L25.4574 170.445C25.3521 171.708 25.0398 172.742 24.4177 173.779C24.4111 173.79 24.4049 173.801 24.3992 173.812C23.8742 174.862 23.1432 175.799 22.2101 176.525C21.9603 176.719 21.718 176.92 21.4842 177.113L21.4652 177.129C21.2234 177.329 20.9907 177.521 20.7558 177.702C20.2858 178.065 19.8289 178.366 19.3365 178.563C18.3114 178.973 17.2742 179.082 16.0836 179.082C14.9561 179.082 13.9157 178.775 12.8308 178.341C11.8099 177.933 10.8684 177.21 9.88258 176.334C9.05617 175.504 8.32724 174.359 7.90964 173.001C7.90562 172.988 7.90107 172.975 7.89599 172.963C7.26743 171.391 7.16085 169.818 7.37212 168.339C7.55418 167.064 8.05692 166.026 8.75838 165.068Z" fill="#62CEBB" stroke="#62CEBB" stroke-linejoin="round"/>
<path d="M9.42841 153.35C9.44352 153.35 9.45862 153.349 9.47367 153.348C11.8802 153.129 13.8512 153.128 15.4002 153.128C16.9307 153.238 18.1844 153.456 19.0974 153.861C19.9845 154.256 20.6911 154.953 21.2058 155.777C21.6574 156.5 22.0464 157.579 22.2781 158.876L18.7457 159.494C18.5577 158.982 18.3293 158.492 17.9902 158.153C17.6141 157.777 17.0807 157.371 16.2768 157.237C15.5897 157.123 14.6744 157.009 13.4216 157.009C12.1764 157.009 10.6053 157.121 8.71372 157.344L3.62885 157.75L1.46749 145.709L19.1162 142.452L19.832 146.567L6.2335 149.03C5.96447 149.079 5.78446 149.335 5.82941 149.604L6.38402 152.932C6.4242 153.173 6.63279 153.35 6.87721 153.35H9.42841Z" fill="#62CEBB" stroke="#62CEBB" stroke-linejoin="round"/>
<path d="M17.9658 134.657C17.963 134.662 17.9603 134.668 17.9578 134.674C17.4228 135.851 16.7947 136.783 15.9762 137.499C15.9679 137.506 15.9598 137.514 15.9519 137.522C15.11 138.364 14.1681 138.99 13.1249 139.408C12.0482 139.838 10.8942 140.148 9.76109 140.148C8.60535 140.148 7.44543 139.939 6.27906 139.516C5.22221 139.092 4.17702 138.461 3.34843 137.633C2.48636 136.771 1.76052 135.828 1.35161 134.806C1.34876 134.799 1.34574 134.792 1.34256 134.785C0.823925 133.644 0.609081 132.493 0.500014 131.09C0.501977 129.702 0.717967 128.462 1.22366 127.451C1.22642 127.445 1.22908 127.439 1.23163 127.434C1.7666 126.257 2.39473 125.325 3.21321 124.608C3.22156 124.601 3.22967 124.593 3.23751 124.586C4.07733 123.746 5.01441 123.122 6.16063 122.705C7.3275 122.281 8.38766 122.067 9.5618 121.959C10.7151 121.962 11.8636 122.173 12.903 122.589C13.9624 123.013 15.0105 123.644 15.841 124.475C16.7 125.334 17.4406 126.289 17.9658 127.34C18.4738 128.356 18.6894 129.602 18.6894 130.998C18.6894 132.394 18.4738 133.641 17.9658 134.657ZM11.8049 135.577C11.8142 135.574 11.8234 135.57 11.8325 135.567L11.8625 135.555C12.3958 135.341 13.0026 135.099 13.4997 134.726C14.0194 134.336 14.392 133.828 14.7376 133.252C14.7513 133.229 14.7632 133.205 14.7731 133.181C14.9995 132.615 15.2526 131.875 15.2526 131.109C15.2526 130.24 15.0051 129.498 14.7561 129C14.5024 128.493 14.0073 127.868 13.3682 127.477C12.8592 127.101 12.2453 126.862 11.583 126.642C11.5634 126.635 11.5433 126.63 11.523 126.626C10.9596 126.513 10.2552 126.394 9.53925 126.394C8.80791 126.394 8.19911 126.518 7.49547 126.753C7.48618 126.756 7.47698 126.759 7.46789 126.763C7.45687 126.767 7.44581 126.772 7.4347 126.776C6.90962 126.986 6.2847 127.236 5.77258 127.736C5.26745 128.123 4.90213 128.622 4.56272 129.188C4.549 129.211 4.53713 129.235 4.52723 129.26C4.30778 129.808 4.03927 130.572 4.1588 131.371C4.16262 132.184 4.28534 132.827 4.67365 133.474C5.01931 134.05 5.39186 134.558 5.91161 134.948C6.42462 135.333 7.04613 135.575 7.71732 135.799C7.7683 135.816 7.82169 135.824 7.87543 135.824C8.18223 135.824 8.4656 135.85 8.773 135.878L8.78116 135.878C9.08154 135.906 9.40559 135.935 9.76109 135.935C10.4924 135.935 11.1012 135.811 11.8049 135.577Z" fill="#62CEBB" stroke="#62CEBB" stroke-linejoin="round"/>
<path d="M16.9996 103.65C17.0063 103.651 17.0131 103.652 17.0198 103.653C17.8056 103.751 18.3862 104.042 18.877 104.435C19.3762 104.834 19.7509 105.314 19.9351 105.866C19.9426 105.889 19.9517 105.911 19.9623 105.932C20.2507 106.509 20.3554 107.199 20.4679 108.1C20.5695 108.912 20.4699 109.735 20.358 110.63L18.9949 119.333L1.3506 116.497L3.04431 106.123C3.04435 106.123 3.04439 106.123 3.04444 106.122C3.14505 105.519 3.34139 105.044 3.61664 104.677C3.91884 104.274 4.31649 103.879 4.80495 103.586C5.31737 103.278 5.81861 103.08 6.30958 102.982C6.79946 102.884 7.39833 102.884 7.88821 102.982C7.90015 102.984 7.91217 102.986 7.92425 102.988C8.71092 103.086 9.39653 103.376 10.1011 103.98C10.1123 103.99 10.1239 103.999 10.1359 104.008C10.7905 104.475 11.179 105.132 11.3804 106.039C11.4272 106.249 11.604 106.406 11.8187 106.428C12.0335 106.449 12.2378 106.33 12.3254 106.133C12.7176 105.251 13.4114 104.543 14.1347 104.023C14.7965 103.652 15.7779 103.447 16.9996 103.65ZM5.27544 112.388C5.25207 112.52 5.28305 112.656 5.3614 112.766C5.43975 112.875 5.55885 112.948 5.6918 112.969L8.57576 113.412C8.84824 113.454 9.10324 113.268 9.1458 112.995L9.69471 109.482C9.83589 109.004 9.68239 108.547 9.58396 108.254C9.5791 108.24 9.57437 108.226 9.56982 108.212C9.46056 107.884 9.20669 107.664 8.95533 107.52C8.69957 107.374 8.39421 107.276 8.08432 107.215C7.41869 107.081 6.89719 107.199 6.5235 107.573C6.51408 107.583 6.50417 107.592 6.49386 107.603C6.29871 107.796 5.95518 108.137 5.93435 108.654L5.27544 112.388ZM16.244 114.11L16.9064 110.135C17.0488 109.54 16.8905 109.077 16.6274 108.673C16.4882 108.404 16.3016 108.174 16.0559 108.01C15.8157 107.85 15.5446 107.77 15.2581 107.76C14.6806 107.635 14.1181 107.786 13.6987 108.065C13.5131 108.189 13.3266 108.333 13.1696 108.529C13.0087 108.731 12.8962 108.964 12.8254 109.247C12.8219 109.262 12.8189 109.276 12.8166 109.291L12.1511 113.506C12.1302 113.638 12.1632 113.773 12.2428 113.881C12.3223 113.988 12.4417 114.06 12.5743 114.079L15.6801 114.522C15.9489 114.561 16.1993 114.377 16.244 114.11Z" fill="#62CEBB" stroke="#62CEBB" stroke-linejoin="round"/>
<path d="M29.0823 82.0304L27.5568 85.9789L14.6042 80.8407C14.4803 80.7915 14.342 80.7939 14.2198 80.8472C14.0977 80.9005 14.0019 81.0004 13.9537 81.1247L11.8462 86.5598C11.7469 86.8159 11.8727 87.1041 12.128 87.2054L25.0889 92.3469L23.5645 96.2922L6.86003 89.5684L12.4814 75.411L29.0823 82.0304Z" fill="#62CEBB" stroke="#62CEBB" stroke-linejoin="round"/>
<path d="M19.9383 72.5981C19.9315 72.5879 19.9244 72.578 19.9169 72.5684C19.1963 71.6419 18.7752 70.6021 18.4517 69.4162C18.1429 68.284 18.1371 67.1373 18.2438 65.9513C18.4563 64.6888 18.877 63.5364 19.5039 62.4898C20.2548 61.311 21.0905 60.3827 22.1088 59.7717C23.2021 59.1158 24.2492 58.5985 25.3796 58.3929C26.5406 58.1818 27.7001 58.1818 28.8611 58.3929C30.0149 58.6027 31.0701 59.0228 32.0281 59.5542C33.0861 60.19 33.9103 60.9177 34.5243 61.8388C35.1664 62.802 35.695 63.8624 36.0108 65.0206C36.3213 66.1588 36.3256 67.3115 36.2171 68.5042C36.2158 68.5192 36.2151 68.5344 36.2151 68.5495C36.2151 69.6456 35.8166 70.773 35.0731 71.9414C34.3213 73.1229 33.4846 74.0531 32.4646 74.6651C31.3714 75.321 30.3243 75.8384 29.1939 76.0439C28.0329 76.255 26.8734 76.255 25.7124 76.0439C24.5622 75.8348 23.5053 75.416 22.4252 74.8771C21.3717 74.2426 20.5505 73.5164 19.9383 72.5981ZM26.5464 72.1195C26.5748 72.1308 26.6041 72.1396 26.6341 72.1456C27.1794 72.2546 27.9389 72.3897 28.6049 72.2565L28.6292 72.2516C29.1717 72.1432 29.7988 72.0178 30.4279 71.6403C31.0514 71.2662 31.5586 70.7614 31.9349 70.021C32.4253 69.2752 32.5481 68.6402 32.6605 67.9661C32.665 67.939 32.6673 67.9115 32.6673 67.8839C32.6673 67.87 32.6673 67.8561 32.6673 67.8421C32.6674 67.2073 32.6675 66.5681 32.4097 65.9235C32.1576 65.2932 31.7814 64.7987 31.3376 64.2439C30.8454 63.6287 30.3496 63.2597 29.7624 62.9074C29.1734 62.554 28.5873 62.3196 28.0407 62.1009L28.027 62.0955C27.3549 61.8266 26.5844 61.8353 25.9685 61.9585L25.9442 61.9634C25.4018 62.0718 24.7747 62.1971 24.1455 62.5746C23.5221 62.9487 23.0149 63.4536 22.6385 64.1939C22.1482 64.9397 22.0254 65.5747 21.913 66.2488C21.9085 66.276 21.9062 66.3035 21.9062 66.331C21.9062 66.345 21.9062 66.3589 21.9062 66.3728C21.9061 67.0076 21.9059 67.6468 22.1638 68.2915C22.4159 68.9218 22.7921 69.4163 23.2359 69.971C23.2474 69.9854 23.2597 69.9992 23.2728 70.0122L23.2902 70.0296C23.7228 70.4623 24.2034 70.943 24.8111 71.3076C25.4001 71.661 25.9862 71.8954 26.5328 72.1141L26.5464 72.1195Z" fill="#62CEBB" stroke="#62CEBB" stroke-linejoin="round"/>
<path d="M44.0981 37.7308L40.6822 41.2472C40.589 41.3431 40.5381 41.4723 40.5409 41.606C40.5437 41.7397 40.5999 41.8667 40.697 41.9586L50.7617 51.4879L47.8975 54.531L37.8351 45.0038C37.7387 44.9126 37.61 44.8634 37.4773 44.8671C37.3447 44.8708 37.2189 44.9271 37.1278 45.0236L33.6978 48.6554L31.1027 46.2334L41.5052 35.3108L44.0981 37.7308Z" fill="#62CEBB" stroke="#62CEBB" stroke-linejoin="round"/>
<path d="M58.4837 30.9785L60.521 33.5252L55.487 37.4291C55.3808 37.5115 55.3122 37.6332 55.2967 37.7667C55.2813 37.9002 55.3202 38.0343 55.4048 38.1388L57.2905 40.4682C57.3739 40.5713 57.4949 40.637 57.6269 40.6508C57.7588 40.6647 57.8908 40.6256 57.9939 40.542L64.0319 35.6492L66.1853 38.4056L56.4288 46.108L45.2948 32.138L54.9319 24.5514L57.0897 27.3134L51.1576 31.9966C51.0536 32.0788 50.9864 32.1989 50.9709 32.3306C50.9554 32.4623 50.9929 32.5948 51.075 32.6989L52.7388 34.8064C52.9089 35.0218 53.2208 35.0599 53.4377 34.8917L58.4837 30.9785Z" fill="#62CEBB" stroke="#62CEBB" stroke-linejoin="round"/>
<path d="M80.9504 29.8241L76.4204 21.5016C76.3079 21.2948 76.0664 21.1945 75.8405 21.2608C75.6146 21.3271 75.4656 21.542 75.4826 21.7767L76.0139 29.1093L74.1411 30.1309L68.2984 25.6692C68.1109 25.5259 67.8487 25.5333 67.6696 25.6869C67.4904 25.8404 67.443 26.0983 67.5558 26.3056L72.0894 34.6348L68.413 36.6971L59.7981 20.9382L64.0728 18.5634L71.689 24.2488C71.8455 24.3656 72.0558 24.3806 72.2273 24.2872C72.3988 24.1937 72.5002 24.009 72.487 23.8141L71.8434 14.3759L76.1139 12.0983L84.73 27.7543L80.9504 29.8241Z" fill="#62CEBB" stroke="#62CEBB" stroke-linejoin="round"/>
<path d="M96.2429 20.2299C96.1161 20.0523 95.8888 19.9775 95.6813 20.045L90.9117 21.5979C90.7008 21.6666 90.5603 21.866 90.5667 22.0877L90.667 25.5987L86.6937 26.9231L86.9038 8.00969L90.6687 6.692L102.221 21.7103L98.2467 23.0352L96.2429 20.2299ZM94.1134 17.9983C94.2611 17.9473 94.3766 17.8303 94.4254 17.6818C94.4742 17.5334 94.4508 17.3706 94.3622 17.2419L90.9236 12.2505C90.7975 12.0674 90.5657 11.9896 90.3547 12.0595C90.1437 12.1294 90.0041 12.3302 90.0122 12.5523L90.234 18.653C90.2398 18.8113 90.3202 18.9575 90.4509 19.0471C90.5815 19.1367 90.7469 19.1591 90.8967 19.1075L94.1134 17.9983Z" fill="#62CEBB" stroke="#62CEBB" stroke-linejoin="round"/>
<path d="M110.207 6.18539L112.563 19.8915L108.445 20.6076L106.09 6.90337C106.067 6.77138 105.993 6.65401 105.883 6.57756C105.773 6.5011 105.637 6.47194 105.505 6.49662L100.678 7.40165L100.075 3.9559L114.94 1.3572L115.456 4.801L110.617 5.60749C110.486 5.62937 110.369 5.70264 110.292 5.8111C110.215 5.91956 110.184 6.05426 110.207 6.18539Z" fill="#62CEBB" stroke="#62CEBB" stroke-linejoin="round"/>
<path d="M124.398 11.1024C124.402 11.3176 124.544 11.5059 124.749 11.5697C124.955 11.6335 125.178 11.5585 125.304 11.3835L133.035 0.603432L136.053 0.514658L136.368 18.3674L132.153 18.4571L131.942 8.41951C131.937 8.20504 131.796 8.01735 131.592 7.95304C131.387 7.88872 131.164 7.96212 131.038 8.13545L123.418 18.5857L120.286 18.6752L119.971 0.822053L124.186 0.732376L124.398 11.1024Z" fill="#62CEBB" stroke="#62CEBB" stroke-linejoin="round"/>
<path d="M145.923 8.34533C145.879 8.6032 146.041 8.85164 146.295 8.9151L146.739 9.02602C146.911 9.069 147.092 9.01777 147.217 8.89136L153.249 2.75155L157.78 3.44865L150.391 10.7362C150.232 10.8929 150.196 11.136 150.303 11.3319L155.695 21.2002L151.282 20.5079L147.075 12.9563C146.997 12.8172 146.858 12.7233 146.7 12.7035L145.813 12.5926C145.543 12.5588 145.295 12.7474 145.256 13.0169L144.33 19.3958L140.221 18.7705L142.952 1.12394L147.057 1.74868L145.923 8.34533Z" fill="#62CEBB" stroke="#62CEBB" stroke-linejoin="round"/>
<path d="M167.77 21.5188C167.77 21.3023 167.63 21.1104 167.424 21.0433L162.655 19.4904C162.444 19.4219 162.214 19.4999 162.088 19.682L160.082 22.5915L156.001 21.261L167.455 6.12944L171.325 7.35661L171.746 26.27L167.77 25.0329V21.5188ZM167.328 18.442C167.478 18.4936 167.644 18.4712 167.774 18.3816C167.905 18.292 167.985 18.1458 167.991 17.9875L168.213 11.8868C168.221 11.6646 168.081 11.4638 167.87 11.394C167.659 11.3241 167.428 11.4019 167.301 11.585L163.863 16.5764C163.774 16.7051 163.751 16.8678 163.8 17.0163C163.848 17.1647 163.964 17.2818 164.112 17.3328L167.328 18.442Z" fill="#62CEBB" stroke="#62CEBB" stroke-linejoin="round"/>
<path d="M186.473 33.7284L190.894 25.4139C191.004 25.2063 190.955 24.95 190.776 24.7979C190.597 24.6458 190.336 24.6391 190.149 24.7818L184.306 29.2435L182.429 28.2195L182.854 20.8822C182.868 20.6476 182.716 20.4352 182.49 20.3718C182.264 20.3084 182.024 20.411 181.914 20.6185L177.49 28.9381L173.823 26.9703L182.229 11.1037L186.496 13.3795L185.96 22.8214C185.949 23.0169 186.053 23.2008 186.226 23.2921C186.399 23.3834 186.61 23.3653 186.765 23.2457L194.273 17.4532L198.54 19.7287L190.13 35.6015L186.473 33.7284Z" fill="#62CEBB" stroke="#62CEBB" stroke-linejoin="round"/>
<path d="M193.684 40.5313L192.238 37.8095C192.395 37.7265 192.551 37.6441 192.706 37.5621C194.023 36.8674 195.281 36.2043 196.387 35.4672C197.755 34.5549 198.904 33.5227 199.827 32.3687C199.833 32.3616 199.838 32.3543 199.844 32.3469C200.428 31.5288 200.888 30.6045 201.336 29.5973C201.342 29.5826 201.348 29.5676 201.353 29.5523L201.357 29.5402C201.687 28.5507 202.025 27.5375 202.251 26.6315L202.251 26.6315L202.254 26.6187C202.321 26.3165 202.391 26.0271 202.458 25.7474C202.603 25.1399 202.737 24.5781 202.816 24.0297C202.842 23.8447 202.87 23.6664 202.896 23.4952C202.934 23.2529 202.969 23.025 202.996 22.8129L205.995 23.5628C205.897 24.5261 205.79 25.4705 205.602 26.4122C205.599 26.4281 205.596 26.4443 205.595 26.4605C205.487 27.5358 205.272 28.5063 205.049 29.5076C204.837 30.4627 204.519 31.3155 204.186 32.2026C203.87 32.9386 203.446 33.6804 202.912 34.4278C202.389 35.1597 201.756 35.7956 200.997 36.4463C200.243 37.0927 199.487 37.6328 198.617 38.1767C197.753 38.7168 196.887 39.1504 195.996 39.5954C195.324 39.9315 194.591 40.1996 193.865 40.4649C193.805 40.487 193.744 40.5091 193.684 40.5313Z" fill="#62CEBB" stroke="#62CEBB" stroke-linejoin="round"/>
<path d="M79.5522 52H180.448C195.664 52 208 64.3357 208 79.5522V118.048C208 133.264 195.664 145.6 180.448 145.6H79.5522C64.3357 145.6 52 133.264 52 118.048V79.5522C52 64.3357 64.3357 52 79.5522 52Z" fill="#62CEBB"/>
<path d="M71.0931 182.594C75.7478 179.229 76.7933 172.727 73.4282 168.073C70.0632 163.418 63.5616 162.373 58.9069 165.738C54.2523 169.103 53.2067 175.604 56.5718 180.259C57.2208 181.157 58.0093 181.945 58.9069 182.594C54.7853 183.993 52.0094 187.858 52 192.211V208H78V192.211C77.9906 187.858 75.2148 183.993 71.0931 182.594Z" fill="#828181"/>
<path d="M57.2 118.049V79.5509C57.2 64.3351 69.535 52 84.7509 52H79.5509C64.3351 52 52 64.3351 52 79.5509V118.049C52 133.265 64.3351 145.6 79.5509 145.6H84.7509C69.535 145.6 57.2 133.265 57.2 118.049Z" fill="#D8EFED"/>
<path d="M83.1997 93.5999C91.8154 93.5999 98.7997 86.6156 98.7997 77.9999C98.7997 69.3843 91.8154 62.3999 83.1997 62.3999C74.5841 62.3999 67.5997 69.3843 67.5997 77.9999C67.5997 86.6156 74.5841 93.5999 83.1997 93.5999Z" fill="#4BAD32"/>
<path d="M83.1997 93.5999C91.8154 93.5999 98.7997 86.6156 98.7997 77.9999C98.7997 69.3843 91.8154 62.3999 83.1997 62.3999C74.5841 62.3999 67.5997 69.3843 67.5997 77.9999C67.5997 86.6156 74.5841 93.5999 83.1997 93.5999Z" fill="#D9D4D4"/>
<path d="M61.5069 182.594C56.8692 179.262 55.8106 172.801 59.1429 168.163C60.8312 165.813 63.4273 164.278 66.3 163.931C65.87 163.86 65.4358 163.816 65 163.8C59.2686 163.788 54.6124 168.424 54.6 174.155C54.5929 177.497 56.1961 180.639 58.9069 182.594C54.7853 183.993 52.0094 187.858 52 192.21V208H54.6V192.21C54.6094 187.858 57.3853 183.993 61.5069 182.594Z" fill="#D9D4D4"/>
<path d="M112.693 182.594C117.348 179.229 118.393 172.727 115.028 168.073C111.663 163.418 105.162 162.373 100.507 165.738C95.8525 169.103 94.8069 175.604 98.172 180.259C98.821 181.157 99.6095 181.945 100.507 182.594C96.3855 183.993 93.6096 187.858 93.6002 192.211V208H119.6V192.211C119.591 187.858 116.815 183.993 112.693 182.594Z" fill="#828181"/>
<path d="M103.107 182.594C98.4694 179.262 97.4108 172.801 100.743 168.163C102.431 165.813 105.028 164.278 107.9 163.931C107.47 163.86 107.036 163.816 106.6 163.8C100.869 163.788 96.2126 168.424 96.2002 174.155C96.1931 177.497 97.7963 180.639 100.507 182.594C96.3855 183.993 93.6096 187.858 93.6002 192.21V208H96.2002V192.21C96.2096 187.858 98.9855 183.993 103.107 182.594Z" fill="#D9D4D4"/>
<path d="M159.493 182.594C164.148 179.229 165.193 172.727 161.828 168.073C158.463 163.418 151.962 162.373 147.307 165.738C142.652 169.103 141.607 175.604 144.972 180.259C145.621 181.157 146.409 181.945 147.307 182.594C143.185 183.993 140.41 187.858 140.4 192.211V208H166.4V192.211C166.391 187.858 163.615 183.993 159.493 182.594Z" fill="#828181"/>
<path d="M149.907 182.594C145.269 179.262 144.211 172.801 147.543 168.163C149.231 165.813 151.827 164.278 154.7 163.931C154.27 163.86 153.836 163.816 153.4 163.8C147.669 163.788 143.012 168.424 143 174.155C142.993 177.497 144.596 180.639 147.307 182.594C143.185 183.993 140.41 187.858 140.4 192.21V208H143V192.21C143.01 187.858 145.785 183.993 149.907 182.594Z" fill="#D9D4D4"/>
<path d="M201.093 182.594C205.748 179.229 206.793 172.727 203.428 168.073C200.063 163.418 193.562 162.373 188.907 165.738C184.252 169.103 183.207 175.604 186.572 180.259C187.221 181.157 188.009 181.945 188.907 182.594C184.785 183.993 182.01 187.858 182 192.211V208H208V192.211C207.991 187.858 205.215 183.993 201.093 182.594Z" fill="#828181"/>
<path d="M191.507 182.594C186.869 179.262 185.811 172.801 189.143 168.163C190.831 165.813 193.427 164.278 196.3 163.931C195.87 163.86 195.436 163.816 195 163.8C189.269 163.788 184.612 168.424 184.6 174.155C184.593 177.497 186.196 180.639 188.907 182.594C184.785 183.993 182.01 187.858 182 192.21V208H184.6V192.21C184.61 187.858 187.385 183.993 191.507 182.594Z" fill="#D9D4D4"/>
<path d="M109.2 65H145.6V111.8H109.2V65Z" fill="#D9D4D4"/>
<path d="M187.448 64.6685C184.267 61.644 179.273 61.644 176.093 64.6685L174.2 66.494L172.307 64.6685C169.126 61.644 164.133 61.644 160.952 64.6685C157.927 67.5405 157.804 72.3209 160.676 75.3454C160.766 75.4396 160.858 75.5316 160.952 75.6213L174.2 88.3999L187.448 75.6213C190.473 72.7493 190.596 67.9688 187.724 64.9444C187.634 64.8498 187.542 64.7578 187.448 64.6685Z" fill="#0A477D"/>
<path d="M127.4 78L119.6 88.4L127.4 98.8L135.2 88.4L127.4 78Z" fill="#0A477D"/>
<path d="M174.2 135.2C184.251 135.2 192.4 127.052 192.4 117C192.4 106.948 184.251 98.8 174.2 98.8C164.148 98.8 156 106.948 156 117C156 127.052 164.148 135.2 174.2 135.2Z" fill="#D9D4D4"/>
<path d="M174.2 130C169.894 129.995 166.404 126.506 166.4 122.2H171.6C171.6 123.636 172.764 124.8 174.2 124.8C175.636 124.8 176.8 123.636 176.8 122.2H182C181.995 126.506 178.506 129.995 174.2 130Z" fill="#0A477D"/>
<path d="M67.5997 104H98.7997V122.2H90.9997L93.5997 135.2L77.9997 122.2H67.5997V104Z" fill="#0A477D"/>
<path d="M79.5396 81.6943C76.4056 78.5593 72.0825 76.9119 67.657 77.1657C67.1662 85.7386 73.7182 93.0862 82.2911 93.5766C82.8829 93.6104 83.476 93.6104 84.0678 93.5766C84.322 89.1514 82.6746 84.8282 79.5396 81.6943Z" fill="#828181"/>
<path d="M94.2476 66.9863C91.1137 63.8514 86.7905 62.2039 82.365 62.4578C81.8742 71.0309 88.4265 78.3782 96.9994 78.869C97.5912 78.9028 98.1844 78.9028 98.7759 78.869C99.03 74.4434 97.3826 70.1203 94.2476 66.9863Z" fill="#828181"/>
<path d="M166.4 114.4C167.836 114.4 169 113.236 169 111.8C169 110.364 167.836 109.2 166.4 109.2C164.964 109.2 163.8 110.364 163.8 111.8C163.8 113.236 164.964 114.4 166.4 114.4Z" fill="#0A477D"/>
<path d="M182 114.4C183.436 114.4 184.6 113.236 184.6 111.8C184.6 110.364 183.436 109.2 182 109.2C180.564 109.2 179.4 110.364 179.4 111.8C179.4 113.236 180.564 114.4 182 114.4Z" fill="#0A477D"/>
</svg>
