<svg width="80" height="80" viewBox="0 0 80 80" fill="none" xmlns="http://www.w3.org/2000/svg">
    <rect x="1" y="1" width="78" height="78" rx="19" fill="black" stroke="white" stroke-width="2"/>
    <g clip-path="url(#clip0)">
        <path d="M48.2698 55.6163H31.7301C24.5911 55.6163 18.783 61.4244 18.783 68.5635V78.8282C18.783 79.4753 19.3076 80 19.9548 80H60.0451C60.6923 80 61.2169 79.4753 61.2169 78.8282V68.5635C61.2169 61.4244 55.4088 55.6163 48.2698 55.6163Z" fill="#F0EEEE"/>
        <path d="M48.2698 55.6163H46.5781C45.9309 55.6163 45.4062 56.141 45.4062 56.7882V78.8282C45.4062 79.4753 45.9309 80 46.5781 80H60.0451C60.6923 80 61.2169 79.4753 61.2169 78.8282V68.5635C61.2169 61.4244 55.4088 55.6163 48.2698 55.6163Z" fill="#FB403F"/>
        <path d="M48.2698 55.6163H46.578C46.3701 55.6163 46.1752 55.671 46.0059 55.766C52.2132 56.7179 56.9826 62.0941 56.9826 68.5635V78.8282C56.9826 79.4753 56.4579 80 55.8107 80H60.0451C60.6922 80 61.2169 79.4753 61.2169 78.8282V68.5635C61.2169 61.4244 55.4088 55.6163 48.2698 55.6163Z" fill="#C21C1C"/>
        <path d="M33.4218 55.6163H31.7301C24.5911 55.6163 18.783 61.4244 18.783 68.5635V78.8282C18.783 79.4753 19.3076 80 19.9548 80H33.4218C34.069 80 34.5937 79.4753 34.5937 78.8282V56.7882C34.5937 56.141 34.069 55.6163 33.4218 55.6163Z" fill="#FB403F"/>
        <path d="M57.2531 65.8005L51.3789 56.076C50.8564 55.0738 49.8356 54.4534 48.7019 54.4534H46.578C45.9308 54.4534 45.4061 54.9781 45.4061 55.6252V76.5107V78.8282V80H46.9791V79.9288C47.1042 79.8832 47.223 79.8163 47.3288 79.728L54.8588 73.4455C55.263 73.1082 55.3928 72.5427 55.1758 72.0629L53.675 68.7438L56.6991 67.4885C57.0144 67.3577 57.2569 67.0958 57.3633 66.7715C57.4697 66.4473 57.4295 66.0927 57.2531 65.8005Z" fill="#FF6464"/>
        <path d="M33.4218 54.4532H31.2982C30.1645 54.4532 29.1435 55.0737 28.6212 56.0758L22.747 65.8004C22.5704 66.0926 22.5301 66.4472 22.6365 66.7716C22.7429 67.096 22.9854 67.3577 23.3007 67.4886L26.3248 68.744L24.8242 72.063C24.6073 72.5427 24.737 73.1083 25.1412 73.4457L32.6712 79.7282C32.7771 79.8164 32.8957 79.8833 33.0209 79.9289V80H34.5937V78.8282V76.5105V55.6251C34.5937 54.9779 34.069 54.4532 33.4218 54.4532Z" fill="#FF6464"/>
        <path d="M46.578 41.8329V56.7313L43.646 59.7575C42.6898 60.7446 41.3741 61.3016 39.9999 61.3016C38.6257 61.3016 37.3101 60.7444 36.3538 59.7575L33.4218 56.7313V41.8329H46.578Z" fill="#FA9E3E"/>
        <path d="M48.8043 61.6663L49.9098 59.156C50.3327 58.1955 50.1524 57.1208 49.4395 56.351C48.7263 55.581 47.6682 55.3192 46.6787 55.6674L40.4085 57.8725C40.2526 57.9274 40.1159 58.0152 39.9999 58.1233C39.884 58.0152 39.7474 57.9274 39.5914 57.8725L33.3212 55.6674C32.3315 55.3192 31.2734 55.5811 30.5604 56.351C29.8475 57.1208 29.6673 58.1956 30.0901 59.156L31.1956 61.6664L30.0901 64.1767C29.6671 65.137 29.8475 66.2119 30.5604 66.9817C31.065 67.5264 31.742 67.8169 32.4454 67.8169C32.7362 67.8169 33.0315 67.7674 33.321 67.6655L39.5912 65.4603C39.7471 65.4055 39.8839 65.3177 39.9998 65.2095C40.1156 65.3177 40.2523 65.4055 40.4084 65.4603L46.6785 67.6655C46.9681 67.7674 47.2634 67.8169 47.5543 67.8169C48.2577 67.8169 48.9349 67.5264 49.4393 66.9817C50.1523 66.2119 50.3324 65.137 49.9096 64.1767L48.8043 61.6663Z" fill="#2A434F"/>
        <path d="M39.9999 56.9664C38.1201 56.9664 36.5909 58.4958 36.5909 60.3755V62.9569C36.5909 64.8367 38.1203 66.3659 39.9999 66.3659C41.8798 66.3659 43.409 64.8366 43.409 62.9569V60.3755C43.4091 58.4958 41.8798 56.9664 39.9999 56.9664Z" fill="#3D5868"/>
        <path d="M39.9999 70.3125C39.9234 70.3125 39.8468 70.3047 39.7718 70.2891C39.6968 70.275 39.6218 70.2516 39.5515 70.2235C39.4812 70.1938 39.4124 70.1578 39.3499 70.1157C39.2859 70.0719 39.2249 70.0235 39.1718 69.9688C38.9531 69.7516 38.8281 69.4485 38.8281 69.1407C38.8281 69.0641 38.8359 68.9875 38.8515 68.911C38.8656 68.8375 38.889 68.7625 38.9171 68.6922C38.9468 68.6219 38.9828 68.5532 39.0249 68.4907C39.0687 68.4266 39.1171 68.3657 39.1718 68.3125C39.2249 68.2578 39.2859 68.2094 39.3499 68.1657C39.4124 68.1235 39.4812 68.0875 39.5515 68.0578C39.6218 68.0297 39.6968 68.0063 39.7718 67.9922C40.1515 67.9141 40.5562 68.0407 40.8281 68.3125C40.8827 68.3657 40.9312 68.4266 40.9749 68.4907C41.0171 68.5532 41.0531 68.6219 41.0827 68.6922C41.1109 68.7625 41.1343 68.8375 41.1484 68.911C41.164 68.9875 41.1718 69.0641 41.1718 69.1407C41.1718 69.2172 41.164 69.2938 41.1484 69.3703C41.1343 69.4438 41.1109 69.5188 41.0827 69.5891C41.0531 69.6594 41.0171 69.7282 40.9749 69.7907C40.9312 69.8547 40.8827 69.9157 40.8281 69.9688C40.7749 70.0235 40.714 70.0719 40.6499 70.1157C40.5874 70.1578 40.5187 70.1938 40.4484 70.2235C40.3781 70.2516 40.3031 70.275 40.2296 70.2891C40.1531 70.3047 40.0765 70.3125 39.9999 70.3125Z" fill="#3D5868"/>
        <path d="M39.9999 75.3516C39.9234 75.3516 39.8468 75.3438 39.7702 75.3281C39.6968 75.3141 39.6218 75.2906 39.5515 75.2625C39.4812 75.2328 39.4124 75.1969 39.3499 75.1547C39.2859 75.1109 39.2249 75.0625 39.1718 75.0078C39.1171 74.9547 39.0687 74.8938 39.0249 74.8297C38.9828 74.7672 38.9468 74.6984 38.9187 74.6281C38.889 74.5578 38.8656 74.4828 38.8515 74.4094C38.8359 74.3328 38.8281 74.2563 38.8281 74.1797C38.8281 74.1031 38.8359 74.0266 38.8515 73.95C38.8656 73.8766 38.889 73.8016 38.9187 73.7313C38.9468 73.6609 38.9828 73.5922 39.0249 73.5297C39.0687 73.4656 39.1171 73.4047 39.1718 73.3516C39.2249 73.2969 39.2859 73.2484 39.3499 73.2047C39.4124 73.1625 39.4812 73.1266 39.5515 73.0984C39.6218 73.0687 39.6968 73.0453 39.7702 73.0313C39.9218 73 40.0781 73 40.2296 73.0313C40.3031 73.0453 40.3781 73.0687 40.4484 73.0984C40.5187 73.1266 40.5874 73.1625 40.6499 73.2047C40.714 73.2484 40.7749 73.2969 40.8281 73.3516C40.8827 73.4047 40.9312 73.4656 40.9749 73.5297C41.0171 73.5922 41.0531 73.6609 41.0827 73.7313C41.1109 73.8016 41.1343 73.8766 41.1484 73.95C41.164 74.0266 41.1718 74.1031 41.1718 74.1797C41.1718 74.2563 41.164 74.3328 41.1484 74.4094C41.1343 74.4828 41.1109 74.5578 41.0827 74.6281C41.0531 74.6984 41.0171 74.7672 40.9749 74.8297C40.9312 74.8938 40.8827 74.9547 40.8281 75.0078C40.7749 75.0625 40.714 75.1109 40.6499 75.1547C40.5874 75.1969 40.5187 75.2328 40.4484 75.2625C40.3781 75.2906 40.3031 75.3141 40.2296 75.3281C40.1531 75.3438 40.0765 75.3516 39.9999 75.3516Z" fill="#3D5868"/>
        <path d="M48.2826 5.0317C46.8954 4.82545 43.0464 2.12702 40.7367 0.260616C40.3929 -0.0173527 39.9221 -0.0778213 39.519 0.103428C39.1161 0.284834 38.8493 0.67749 38.8293 1.11905C38.8128 1.48561 38.7798 2.68936 38.979 3.93155C36.7675 3.22155 33.9229 2.17671 32.4009 0.407647C32.1225 0.0838971 31.6901 -0.0626651 31.2718 0.024991C30.8539 0.112803 30.5167 0.420772 30.3918 0.829208C29.8812 2.49905 30.2728 4.00311 30.8165 5.11404C22.6667 6.09014 16.3281 13.0461 16.3281 21.4546V39.8438C16.3281 40.491 16.8528 41.0157 17.5 41.0157H22.8969C23.2523 41.0157 23.5886 40.8543 23.8111 40.5771C24.0334 40.2999 24.118 39.9366 24.0409 39.5896C23.7847 38.4368 23.6548 37.2438 23.6548 36.0438V28.747C23.6548 28.7287 23.6548 28.7104 23.655 28.692C26.757 28.3701 29.1876 25.6249 29.1876 22.297C29.1876 20.806 28.6962 19.3806 27.8126 18.2442C28.2175 17.8128 28.6483 17.4043 29.1019 17.0214C31.5642 18.5626 35.6179 19.4968 40.0001 19.4968C44.3823 19.4968 48.436 18.5626 50.8984 17.0214C51.352 17.4043 51.7827 17.8128 52.1876 18.2442C51.304 19.3806 50.8126 20.806 50.8126 22.297C50.8126 25.6249 53.2434 28.3702 56.3452 28.692C56.3452 28.7102 56.3452 28.7285 56.3452 28.747V36.0438C56.3452 37.2438 56.2152 38.4366 55.9591 39.5896C55.882 39.9366 55.9665 40.2999 56.189 40.5771C56.4115 40.8543 56.7477 41.0157 57.1032 41.0157H62.4999C63.1471 41.0157 63.6718 40.491 63.6718 39.8438V21.4548C63.6718 12.7909 56.9159 5.58529 48.2826 5.0317Z" fill="#D9D4D4"/>
        <path d="M48.2826 5.0317C46.8954 4.82545 43.0464 2.12702 40.7367 0.260615C40.3929 -0.0173533 39.9221 -0.0778219 39.519 0.103428C39.2229 0.236709 39.0014 0.484677 38.8964 0.781551C40.9893 2.59186 43.9618 4.84373 45.0985 5.03154C52.8717 5.58514 58.9543 12.7907 58.9543 21.4546V39.8438C58.9543 40.491 58.482 41.0157 57.8991 41.0157H62.4999C63.1471 41.0157 63.6718 40.491 63.6718 39.8438V21.4548C63.6718 12.7909 56.9159 5.58529 48.2826 5.0317Z" fill="#C6BEBE"/>
        <path d="M19.6623 34.9985H27.3762V43.8438H19.6623C17.2198 43.8438 15.2397 41.8637 15.2397 39.4212C15.2397 36.9787 17.2198 34.9985 19.6623 34.9985Z" fill="#FA9E3E"/>
        <path d="M60.3376 34.9985H52.6237V43.8438H60.3376C62.78 43.8438 64.7602 41.8637 64.7602 39.4212C64.7602 36.9787 62.7802 34.9985 60.3376 34.9985Z" fill="#FA9E3E"/>
        <path d="M57.5171 28.747V36.0438C57.5171 36.1954 57.5155 36.3454 57.5108 36.4954C57.5077 36.647 57.5015 36.7954 57.4937 36.9454C57.4874 37.0938 57.478 37.2438 57.4655 37.3923C57.4546 37.5391 57.4421 37.6876 57.4265 37.8345C57.4171 37.9345 57.4062 38.0345 57.3921 38.1345C57.3843 38.2204 57.3733 38.3063 57.3608 38.3923C57.3546 38.4376 57.3483 38.4829 57.3405 38.5282C57.328 38.6298 57.3124 38.7313 57.2952 38.8329C57.2874 38.8891 57.278 38.9454 57.2671 39.0001C57.2499 39.111 57.2296 39.2204 57.2077 39.3313C57.203 39.3641 57.1968 39.3969 57.189 39.4298C57.1671 39.5469 57.1421 39.6626 57.1171 39.7782C57.1108 39.8141 57.103 39.8501 57.0937 39.886C57.0765 39.9657 57.0577 40.0454 57.039 40.1235C57.0249 40.1829 57.0108 40.2407 56.9952 40.3001C56.9749 40.3844 56.953 40.4688 56.9296 40.5532C56.9265 40.5704 56.9218 40.5891 56.9155 40.6063C56.8874 40.711 56.8593 40.8157 56.828 40.9204C56.8218 40.9469 56.814 40.9719 56.8062 40.9985C56.7765 41.0969 56.7483 41.1938 56.7171 41.2907C56.6812 41.4094 56.6421 41.5266 56.6015 41.6454C56.5624 41.7626 56.5218 41.8798 56.4796 41.9954C56.4452 42.0891 56.4108 42.1829 56.3749 42.2766C56.3405 42.3688 56.3046 42.461 56.2671 42.5532C56.2358 42.6329 56.203 42.711 56.1702 42.7907C56.1499 42.8407 56.1296 42.8891 56.1077 42.9391C56.0843 42.9954 56.0593 43.0501 56.0343 43.1063C55.9968 43.1923 55.9593 43.2782 55.9187 43.3626C55.689 43.861 55.4374 44.3485 55.1624 44.8204C55.1062 44.9188 55.0484 45.0173 54.989 45.1141C54.9812 45.1266 54.9734 45.1376 54.9655 45.1501C54.9077 45.2469 54.8484 45.3422 54.7874 45.436C54.7718 45.4641 54.7546 45.4891 54.7374 45.5157C54.6812 45.6032 54.6249 45.6891 54.5687 45.7735C54.5499 45.8032 54.5296 45.8313 54.5109 45.8594C54.4577 45.9376 54.4046 46.0141 54.3515 46.0907C54.3234 46.1297 54.2952 46.1704 54.2671 46.2094C54.1265 46.4063 53.9827 46.6016 53.8327 46.7923C53.7187 46.9391 53.6015 47.0844 53.4827 47.2266C53.4062 47.3204 53.328 47.4126 53.2499 47.5032C53.2468 47.5063 53.2452 47.5079 53.2437 47.5094C53.1562 47.611 53.0671 47.711 52.9765 47.811C52.9718 47.8172 52.9655 47.8219 52.9609 47.8282C52.903 47.8907 52.8452 47.9548 52.7859 48.0173C52.739 48.0688 52.6921 48.1188 52.6437 48.1672C52.6171 48.1954 52.589 48.2251 52.5609 48.2532C52.503 48.3126 52.4452 48.3719 52.3874 48.4297C52.289 48.5282 52.1874 48.6266 52.0874 48.7235C51.9937 48.8126 51.8984 48.9016 51.803 48.9876L51.739 49.0454C51.6593 49.1188 51.578 49.1907 51.4952 49.261L51.2327 49.4844C51.1859 49.5266 51.139 49.5657 51.0905 49.6032L50.4234 50.1235C50.2187 50.2766 50.0077 50.4251 49.7952 50.5688L49.5374 50.7391C49.4656 50.7876 49.3921 50.8344 49.3187 50.8782L49.039 51.0516C48.9327 51.1157 48.8265 51.1782 48.7202 51.2391C48.6093 51.3032 48.4984 51.3657 48.3859 51.4266L48.3124 51.4672C48.0765 51.5954 47.8374 51.7172 47.5952 51.8329C47.4781 51.8891 47.3609 51.9438 47.2437 51.9985L47.1327 52.0469C47.0499 52.0844 46.9671 52.1204 46.8827 52.1563L46.7577 52.2094C46.6468 52.2563 46.5359 52.3016 46.4234 52.3454C46.3093 52.3907 46.1968 52.4344 46.0812 52.4766L45.1312 52.7969C45.0374 52.8266 44.9437 52.8547 44.8484 52.8813C44.7812 52.9016 44.7124 52.9204 44.6437 52.9376L44.3093 53.0266C44.2218 53.0485 44.1343 53.0704 44.0452 53.0907C43.9827 53.1063 43.9202 53.1204 43.8562 53.1344L43.4906 53.2126C43.3843 53.2344 43.2765 53.2547 43.1702 53.2751L42.6921 53.3547C42.6093 53.3688 42.5281 53.3797 42.4452 53.3907L42.2827 53.4126C42.2062 53.4235 42.1296 53.4329 42.0515 53.4407L41.8749 53.461C41.8234 53.4672 41.7718 53.4719 41.7203 53.4766C41.614 53.4876 41.5062 53.4969 41.3984 53.5047L41.2734 53.5141C41.1812 53.5219 41.0906 53.5282 40.9984 53.5313L40.8671 53.5391C40.7515 53.5454 40.6343 53.55 40.5171 53.5516L39.9999 53.561C39.8687 53.561 39.739 53.5594 39.6093 53.5563C39.5031 53.5547 39.3984 53.5516 39.2937 53.5469C39.2203 53.5438 39.1453 53.5407 39.0703 53.536C31.1156 53.1204 24.5672 47.3985 22.8968 39.8438C22.625 38.6204 22.4828 37.3485 22.4828 36.0438V28.747C22.4828 28.336 22.4984 27.9267 22.5281 27.5235C22.6968 27.5423 22.8703 27.5517 23.0437 27.5517C25.789 27.5517 28.0156 25.2001 28.0156 22.297C28.0156 20.6782 27.3234 19.2314 26.2343 18.2673C27.0625 17.2564 28.0109 16.347 29.0578 15.5579C31.1015 17.2017 35.2343 18.3251 39.9999 18.3251C44.7656 18.3251 48.8984 17.2017 50.9421 15.5579C51.989 16.347 52.9374 17.2564 53.7655 18.2673C52.6765 19.2314 51.9843 20.6782 51.9843 22.297C51.9843 23.9673 52.7218 25.4563 53.8718 26.4188C54.7187 27.1282 55.7921 27.5517 56.9562 27.5517C57.1296 27.5517 57.303 27.5423 57.4718 27.5235C57.5015 27.9267 57.5171 28.336 57.5171 28.747Z" fill="#FFB56B"/>
        <path d="M57.5171 28.747V36.0439C57.5171 36.1954 57.5155 36.3454 57.5108 36.4954C57.5077 36.647 57.5015 36.7954 57.4937 36.9454C57.4874 37.0939 57.478 37.2439 57.4655 37.3923C57.4546 37.5392 57.4421 37.6876 57.4265 37.8345C57.4171 37.9345 57.4062 38.0345 57.3921 38.1345C57.3843 38.2204 57.3733 38.3064 57.3608 38.3923C57.3546 38.4376 57.3483 38.4829 57.3405 38.5282C57.328 38.6298 57.3124 38.7314 57.2952 38.8329C57.2874 38.8892 57.278 38.9454 57.2671 39.0001C57.2499 39.111 57.2296 39.2204 57.2077 39.3314C57.203 39.3642 57.1968 39.397 57.189 39.4298C57.1671 39.547 57.1421 39.6626 57.1171 39.7782C57.1108 39.8142 57.103 39.8501 57.0937 39.886C57.0765 39.9657 57.0577 40.0454 57.039 40.1235C57.0249 40.1829 57.0108 40.2407 56.9952 40.3001C56.9749 40.3845 56.953 40.4689 56.9296 40.5532C56.9265 40.5704 56.9218 40.5892 56.9155 40.6064C56.8874 40.711 56.8593 40.8157 56.828 40.9204C56.8218 40.947 56.814 40.972 56.8062 40.9985C56.7765 41.097 56.7483 41.1939 56.7171 41.2907C56.6812 41.4095 56.6421 41.5267 56.6015 41.6454C56.5624 41.7626 56.5218 41.8798 56.4796 41.9954C56.4452 42.0892 56.4108 42.1829 56.3749 42.2767C56.3405 42.3689 56.3046 42.461 56.2671 42.5532C56.2358 42.6329 56.203 42.711 56.1702 42.7907C56.1499 42.8407 56.1296 42.8892 56.1077 42.9392C56.0843 42.9954 56.0593 43.0501 56.0343 43.1064C55.9968 43.1923 55.9593 43.2782 55.9187 43.3626C55.689 43.861 55.4374 44.3485 55.1624 44.8204C55.1062 44.9189 55.0483 45.0173 54.989 45.1142C54.9812 45.1267 54.9733 45.1376 54.9655 45.1501C54.9077 45.247 54.8483 45.3423 54.7874 45.436C54.7718 45.4642 54.7546 45.4892 54.7374 45.5157C54.6812 45.6032 54.6249 45.6892 54.5687 45.7735C54.5499 45.8032 54.5296 45.8313 54.5108 45.8595C54.4577 45.9376 54.4046 46.0142 54.3515 46.0907C54.3233 46.1298 54.2952 46.1704 54.2671 46.2095C54.1265 46.4063 53.9812 46.6017 53.8327 46.7923C53.7187 46.9392 53.6015 47.0845 53.4827 47.2267C53.4062 47.3204 53.328 47.4126 53.2499 47.5032C53.2468 47.5063 53.2452 47.5079 53.2437 47.5095C53.1562 47.611 53.0671 47.711 52.9765 47.811C52.9718 47.8173 52.9655 47.822 52.9608 47.8282C52.903 47.8907 52.8452 47.9548 52.7858 48.0173C52.739 48.0688 52.6921 48.1188 52.6437 48.1673C52.6171 48.1954 52.589 48.2251 52.5609 48.2532C52.503 48.3126 52.4452 48.372 52.3874 48.4298C52.289 48.5282 52.1874 48.6267 52.0874 48.7235C51.9937 48.8126 51.8984 48.9017 51.803 48.9876L51.739 49.0454C51.6593 49.1188 51.578 49.1907 51.4952 49.261L51.2327 49.4845C51.1859 49.5267 51.139 49.5657 51.0905 49.6032L50.4234 50.1235C50.2171 50.2766 50.0077 50.4251 49.7952 50.5688L49.5374 50.7391C49.4655 50.7876 49.3921 50.8345 49.3187 50.8782L49.039 51.0516C48.9327 51.1157 48.8265 51.1782 48.7202 51.2392C48.6093 51.3032 48.4984 51.3657 48.3859 51.4267L48.3124 51.4673C48.0765 51.5938 47.8374 51.7173 47.5952 51.8329C47.478 51.8891 47.3609 51.9438 47.2437 51.9985L47.1327 52.047C47.0499 52.0845 46.9671 52.1204 46.8827 52.1563L46.7577 52.2095C46.6468 52.2563 46.5359 52.3016 46.4234 52.3454C46.3093 52.3907 46.1968 52.4345 46.0812 52.4767L45.1312 52.797C45.0374 52.8266 44.9437 52.8548 44.8484 52.8813C44.7812 52.9016 44.7124 52.9204 44.6437 52.9376L44.3093 53.0266C44.2218 53.0485 44.1343 53.0704 44.0452 53.0907C43.9827 53.1063 43.9202 53.1204 43.8562 53.1345L43.4906 53.2126C43.3843 53.2345 43.2765 53.2548 43.1702 53.2751L42.6921 53.3548C42.6093 53.3688 42.5281 53.3798 42.4452 53.3907L42.2827 53.4126C42.2062 53.4235 42.1296 53.4329 42.0515 53.4407L41.8749 53.461C41.8234 53.4673 41.7718 53.472 41.7202 53.4766C41.614 53.4876 41.5062 53.497 41.3984 53.5048L41.2734 53.5141C41.1812 53.522 41.0906 53.5282 40.9984 53.5313L40.8671 53.5391C40.7515 53.5454 40.6343 53.5501 40.5171 53.5516L39.9999 53.561C39.8687 53.561 39.739 53.5595 39.6093 53.5563C39.5031 53.5548 39.3984 53.5516 39.2937 53.547C39.2203 53.5438 39.1453 53.5407 39.0703 53.536C47.3218 53.0735 53.8718 46.2345 53.8718 37.8657V26.4189C54.7187 27.1283 55.7921 27.5517 56.9562 27.5517C57.1296 27.5517 57.303 27.5423 57.4718 27.5236C57.5015 27.9267 57.5171 28.3361 57.5171 28.747Z" fill="#EF9245"/>
        <path d="M48.488 33.4318C47.8408 33.4318 47.3162 32.9071 47.3162 32.2599V31.9474C47.3162 31.3003 47.8408 30.7756 48.488 30.7756C49.1352 30.7756 49.6599 31.3003 49.6599 31.9474V32.2599C49.6599 32.9071 49.1352 33.4318 48.488 33.4318Z" fill="#19303F"/>
        <path d="M31.512 33.4318C30.8648 33.4318 30.3401 32.9071 30.3401 32.2599V31.9474C30.3401 31.3003 30.8648 30.7756 31.512 30.7756C32.1591 30.7756 32.6838 31.3003 32.6838 31.9474V32.2599C32.6838 32.9071 32.1591 33.4318 31.512 33.4318Z" fill="#19303F"/>
        <path d="M48.3816 45.091L48.3757 45.0177C48.0782 41.3591 45.0223 38.5416 41.3516 38.5416H38.6485C34.9779 38.5416 31.922 41.3591 31.6245 45.0177L31.6185 45.091C26.1751 42.1194 22.4823 36.3437 22.4823 29.7051V36.0432C22.4823 45.718 30.3253 53.5611 40.0002 53.5611C49.6751 53.5611 57.5182 45.7182 57.5182 36.0432V29.7051C57.5179 36.3437 53.8249 42.1194 48.3816 45.091ZM39.9999 47.223C38.2002 47.223 36.4641 46.9511 34.8299 46.4471C35.4523 44.3033 37.1513 42.788 39.1271 42.788H40.8727C42.8485 42.788 44.5476 44.3033 45.1699 46.4471C43.5357 46.9511 41.7996 47.223 39.9999 47.223Z" fill="#D9D4D4"/>
        <path d="M32.6843 36.8188V47.3282C32.6843 50.4626 30.1328 53.0141 26.9968 53.0141C23.8625 53.0141 21.3109 50.4626 21.3109 47.3282V43.8438H23.6547V47.3282C23.6547 49.1704 25.1547 50.6704 26.9968 50.6704C28.8406 50.6704 30.3406 49.1704 30.3406 47.3282V36.8188C30.3406 36.172 30.864 35.647 31.5125 35.647C32.1593 35.647 32.6843 36.172 32.6843 36.8188Z" fill="#696970"/>
        <path d="M31.512 37.9907C28.352 37.9907 25.7812 35.4199 25.7812 32.2599C25.7812 29.1 28.352 26.5292 31.512 26.5292C34.672 26.5292 37.2429 29.1 37.2429 32.2599C37.2429 35.4199 34.672 37.9907 31.512 37.9907ZM31.512 28.8729C29.6443 28.8729 28.1249 30.3924 28.1249 32.2599C28.1249 34.1276 29.6445 35.647 31.512 35.647C33.3796 35.647 34.8991 34.1274 34.8991 32.2599C34.899 30.3923 33.3796 28.8729 31.512 28.8729Z" fill="#3D5868"/>
    </g>
    <defs>
        <clipPath id="clip0">
            <rect width="80" height="80" fill="white"/>
        </clipPath>
    </defs>
</svg>
