<svg width="57" height="50" viewBox="0 0 57 50" fill="none" xmlns="http://www.w3.org/2000/svg">
    <path d="M41.9707 33.3323C46.5747 33.3323 50.3203 29.5937 50.3203 24.9985V11.6643C50.3203 7.06901 46.5747 3.33044 41.9707 3.33044C37.3667 3.33044 33.6211 7.06901 33.6211 11.6643V24.9985C33.6211 29.5937 37.3667 33.3323 41.9707 33.3323Z" fill="#0A477D"/>
    <path d="M55.3301 16.6646C54.4078 16.6646 53.6602 17.4108 53.6602 18.3313V24.9984C53.6602 31.4318 48.4163 36.6658 41.9707 36.6658C35.5251 36.6658 30.2812 31.4318 30.2812 24.9984V18.3313C30.2812 17.4108 29.5336 16.6646 28.6113 16.6646C27.6891 16.6646 26.9414 17.4108 26.9414 18.3313V24.9984C26.9414 32.7065 32.7966 39.0744 40.3008 39.9062V46.6664H35.291C34.3688 46.6664 33.6211 47.4127 33.6211 48.3332C33.6211 49.2537 34.3688 49.9999 35.291 49.9999H48.6504C49.5726 49.9999 50.3203 49.2537 50.3203 48.3332C50.3203 47.4127 49.5726 46.6664 48.6504 46.6664H43.6406V39.9062C51.1448 39.0744 57 32.7065 57 24.9984V18.3313C57 17.4107 56.2523 16.6646 55.3301 16.6646Z" fill="#0A477D"/>
    <path d="M30.2813 11.6643C30.2813 10.7438 29.5336 9.99752 28.6113 9.99752H26.1923L23.314 4.25183C22.6714 2.96909 20.8042 3.04487 20.27 4.37817L15.2833 16.8211L10.0451 1.13653C9.5396 -0.37712 7.38328 -0.380565 6.87663 1.13653L3.91741 9.99741H1.66992C0.74768 9.99741 0 10.7437 0 11.6642C0 12.5847 0.74768 13.331 1.66992 13.331H5.12109C5.83983 13.331 6.47796 12.8719 6.70529 12.1912L8.46094 6.93444L13.5564 22.1919C13.7781 22.8555 14.3912 23.3103 15.0916 23.3309C15.7828 23.3513 16.4276 22.9414 16.6911 22.2838L21.9898 9.06235L23.6667 12.4097C23.9495 12.9744 24.5277 13.3311 25.1603 13.3311H28.6114C29.5336 13.3311 30.2813 12.5848 30.2813 11.6643Z" fill="#0A477D"/>
</svg>
