<svg width="40" height="28" viewBox="0 0 40 28" fill="none" xmlns="http://www.w3.org/2000/svg">
<path d="M37.7612 15.9384C38.5572 14.9325 39.3166 13.8828 40 12.75C35.4272 5.17188 28.1859 0.25 20 0.25C11.8166 0.25 4.57281 5.17188 0 12.75C0.68375 13.8828 1.44281 14.9325 2.23875 15.9384L1.43781 16.7394C0.949375 17.23 0.949375 18.0187 1.43781 18.5094C1.92625 18.9978 2.71719 18.9978 3.20531 18.5094L3.86219 17.8525C4.49937 18.5263 5.17312 19.1441 5.86156 19.7372L5.04375 21.1531C4.69937 21.7512 4.90469 22.5153 5.50281 22.8597C6.10094 23.2062 6.865 23.0012 7.20937 22.4031L7.86375 21.2678C8.60594 21.7853 9.37 22.2494 10.1538 22.6716L9.67031 24.4806C9.49219 25.1497 9.8875 25.8331 10.5541 26.0112C11.2206 26.1919 11.9066 25.7963 12.0847 25.1275L12.4559 23.7431C13.2859 24.0728 14.1331 24.3534 15 24.5731V26.5C15 27.1909 15.5591 27.75 16.25 27.75C16.9409 27.75 17.5 27.1909 17.5 26.5V25.0619C18.3253 25.1644 19.1528 25.25 20 25.25C20.8472 25.25 21.6747 25.1647 22.5 25.0619V26.5C22.5 27.1909 23.0591 27.75 23.75 27.75C24.4409 27.75 25 27.1909 25 26.5V24.5737C25.8666 24.3541 26.7137 24.0756 27.5441 23.7437L27.9153 25.1281C28.0934 25.7972 28.7797 26.1925 29.4459 26.0119C30.1125 25.8338 30.5078 25.15 30.3297 24.4813L29.8463 22.6747C30.63 22.25 31.3941 21.7884 32.1362 21.2709L32.7906 22.4037C33.135 23.0019 33.8991 23.2069 34.4972 22.8603C35.0953 22.5159 35.3003 21.7519 34.9562 21.1537L34.1384 19.7378C34.8269 19.1447 35.5006 18.5269 36.1378 17.8531L36.7947 18.51C37.2831 18.9984 38.0741 18.9984 38.5622 18.51C39.0506 18.0194 39.0506 17.2306 38.5622 16.74L37.7612 15.9384ZM20 22.75C13.4131 22.75 7.27531 19.1269 2.96625 12.75C7.27531 6.37313 13.4131 2.75 20 2.75C26.5869 2.75 32.7247 6.37313 37.0338 12.75C32.7247 19.1269 26.5869 22.75 20 22.75Z" fill="#2E2E33"/>
</svg>
