<svg width="40" height="40" viewBox="0 0 40 40" fill="none" xmlns="http://www.w3.org/2000/svg">
    <g clip-path="url(#clip0)">
        <path d="M37.7612 21.9384C38.5572 20.9325 39.3166 19.8828 40 18.75C35.4272 11.1719 28.1859 6.25 20 6.25C11.8166 6.25 4.57281 11.1719 0 18.75C0.68375 19.8828 1.44281 20.9325 2.23875 21.9384L1.43781 22.7394C0.949375 23.23 0.949375 24.0187 1.43781 24.5094C1.92625 24.9978 2.71719 24.9978 3.20531 24.5094L3.86219 23.8525C4.49937 24.5263 5.17312 25.1441 5.86156 25.7372L5.04375 27.1531C4.69937 27.7512 4.90469 28.5153 5.50281 28.8597C6.10094 29.2062 6.865 29.0012 7.20937 28.4031L7.86375 27.2678C8.60594 27.7853 9.37 28.2494 10.1538 28.6716L9.67031 30.4806C9.49219 31.1497 9.8875 31.8331 10.5541 32.0112C11.2206 32.1919 11.9066 31.7963 12.0847 31.1275L12.4559 29.7431C13.2859 30.0728 14.1331 30.3534 15 30.5731V32.5C15 33.1909 15.5591 33.75 16.25 33.75C16.9409 33.75 17.5 33.1909 17.5 32.5V31.0619C18.3253 31.1644 19.1528 31.25 20 31.25C20.8472 31.25 21.6747 31.1647 22.5 31.0619V32.5C22.5 33.1909 23.0591 33.75 23.75 33.75C24.4409 33.75 25 33.1909 25 32.5V30.5737C25.8666 30.3541 26.7137 30.0756 27.5441 29.7437L27.9153 31.1281C28.0934 31.7972 28.7797 32.1925 29.4459 32.0119C30.1125 31.8338 30.5078 31.15 30.3297 30.4813L29.8463 28.6747C30.63 28.25 31.3941 27.7884 32.1362 27.2709L32.7906 28.4037C33.135 29.0019 33.8991 29.2069 34.4972 28.8603C35.0953 28.5159 35.3003 27.7519 34.9562 27.1537L34.1384 25.7378C34.8269 25.1447 35.5006 24.5269 36.1378 23.8531L36.7947 24.51C37.2831 24.9984 38.0741 24.9984 38.5622 24.51C39.0506 24.0194 39.0506 23.2306 38.5622 22.74L37.7612 21.9384ZM20 28.75C13.4131 28.75 7.27531 25.1269 2.96625 18.75C7.27531 12.3731 13.4131 8.75 20 8.75C26.5869 8.75 32.7247 12.3731 37.0338 18.75C32.7247 25.1269 26.5869 28.75 20 28.75Z" fill="#0A477D"/>
    </g>
    <defs>
        <clipPath id="clip0">
            <rect width="40" height="40" fill="white"/>
        </clipPath>
    </defs>
</svg>
