<svg width="40" height="40" viewBox="0 0 40 40" fill="none" xmlns="http://www.w3.org/2000/svg">
    <path d="M39.5537 18.4601C37.4701 15.0524 34.6685 12.3143 31.1494 10.2459C27.63 8.17746 23.9137 7.14311 20 7.14311C16.0863 7.14311 12.3698 8.17707 8.85045 10.2459C5.331 12.3143 2.52958 15.0524 0.446263 18.4601C0.148781 18.9809 0 19.4943 0 20.0004C0 20.5065 0.148781 21.0199 0.446263 21.5405C2.52958 24.9484 5.331 27.6867 8.85045 29.7546C12.3698 31.8233 16.0863 32.8569 20 32.8569C23.9138 32.8569 27.6301 31.8268 31.1494 29.7659C34.6685 27.7049 37.4706 24.963 39.5537 21.5405C39.8513 21.0199 40 20.5067 40 20.0004C40 19.4943 39.8513 18.9809 39.5537 18.4601ZM15.2117 12.3551C16.5435 11.0234 18.1394 10.3573 19.9998 10.3573C20.2972 10.3573 20.5504 10.4617 20.7588 10.6699C20.967 10.8782 21.0716 11.1313 21.0716 11.4288C21.0716 11.7266 20.967 11.9795 20.7593 12.1875C20.5512 12.396 20.2979 12.5002 20.0003 12.5002C18.7206 12.5002 17.6265 12.9542 16.7189 13.8618C15.811 14.7699 15.3573 15.8635 15.3573 17.1432C15.3573 17.4411 15.2529 17.6939 15.0447 17.9023C14.8361 18.1109 14.5833 18.2149 14.2857 18.2149C13.988 18.2149 13.735 18.1107 13.5266 17.9023C13.3181 17.6939 13.2139 17.4408 13.2139 17.1432C13.2139 15.2832 13.8801 13.687 15.2117 12.3551ZM29.6988 27.2887C26.7151 29.0963 23.4822 30.0006 20 30.0006C16.5178 30.0006 13.285 29.0968 10.3014 27.2887C7.31784 25.4806 4.83642 23.0512 2.85732 20.0004C5.11921 16.4884 7.95401 13.8617 11.3617 12.121C10.454 13.6683 10 15.3426 10 17.1431C10 19.8963 10.9786 22.2506 12.9353 24.2078C14.892 26.1649 17.2471 27.143 20 27.143C22.7531 27.143 25.1076 26.1644 27.0647 24.2078C29.0218 22.2512 30 19.8963 30 17.1431C30 15.3426 29.546 13.6681 28.6382 12.121C32.0457 13.8617 34.8807 16.4886 37.1425 20.0004C35.1637 23.0512 32.6825 25.4806 29.6988 27.2887Z" fill="#0A477D"/>
</svg>
