<svg width="40" height="26" viewBox="0 0 40 26" fill="none" xmlns="http://www.w3.org/2000/svg">
<path d="M39.5537 11.4601C37.4701 8.05241 34.6685 5.31431 31.1494 3.24593C27.63 1.17746 23.9137 0.143112 20 0.143112C16.0863 0.143112 12.3698 1.17707 8.85045 3.24593C5.331 5.31431 2.52958 8.05241 0.446263 11.4601C0.148781 11.9809 0 12.4943 0 13.0004C0 13.5065 0.148781 14.0199 0.446263 14.5405C2.52958 17.9484 5.331 20.6867 8.85045 22.7546C12.3698 24.8233 16.0863 25.8569 20 25.8569C23.9138 25.8569 27.6301 24.8268 31.1494 22.7659C34.6685 20.7049 37.4706 17.963 39.5537 14.5405C39.8513 14.0199 40 13.5067 40 13.0004C40 12.4943 39.8513 11.9809 39.5537 11.4601ZM15.2117 5.35512C16.5435 4.02337 18.1394 3.35726 19.9998 3.35726C20.2972 3.35726 20.5504 3.46171 20.7588 3.66991C20.967 3.87818 21.0716 4.13126 21.0716 4.42882C21.0716 4.72662 20.967 4.97954 20.7593 5.1875C20.5512 5.39601 20.2979 5.50015 20.0003 5.50015C18.7206 5.50015 17.6265 5.95423 16.7189 6.86177C15.811 7.76986 15.3573 8.86347 15.3573 10.1432C15.3573 10.4411 15.2529 10.6939 15.0447 10.9023C14.8361 11.1109 14.5833 11.2149 14.2857 11.2149C13.988 11.2149 13.735 11.1107 13.5266 10.9023C13.3181 10.6939 13.2139 10.4408 13.2139 10.1432C13.2139 8.2832 13.8801 6.68695 15.2117 5.35512ZM29.6988 20.2887C26.7151 22.0963 23.4822 23.0006 20 23.0006C16.5178 23.0006 13.285 22.0968 10.3014 20.2887C7.31784 18.4806 4.83642 16.0512 2.85732 13.0004C5.11921 9.48838 7.95401 6.86169 11.3617 5.12097C10.454 6.66835 10 8.34262 10 10.1431C10 12.8963 10.9786 15.2506 12.9353 17.2078C14.892 19.1649 17.2471 20.143 20 20.143C22.7531 20.143 25.1076 19.1644 27.0647 17.2078C29.0218 15.2512 30 12.8963 30 10.1431C30 8.34262 29.546 6.66811 28.6382 5.12097C32.0457 6.86169 34.8807 9.48861 37.1425 13.0004C35.1637 16.0512 32.6825 18.4806 29.6988 20.2887Z" fill="black"/>
</svg>
