<svg width="50" height="50" viewBox="0 0 50 50" fill="none" xmlns="http://www.w3.org/2000/svg">
    <path d="M25 0C11.1931 0 0 11.1929 0 25C0 38.8071 11.1931 50 25 50C38.8069 50 50 38.8071 50 25C50 11.1929 38.8069 0 25 0ZM33.6406 26.3252L21.1406 34.1377C20.8877 34.2956 20.6001 34.375 20.3125 34.375C20.052 34.375 19.791 34.3102 19.5549 34.1789C19.0582 33.9035 18.75 33.3809 18.75 32.8125V17.1875C18.75 16.6191 19.0582 16.0965 19.5549 15.8211C20.0516 15.5441 20.6589 15.5609 21.1406 15.8623L33.6406 23.6748C34.0973 23.9609 34.375 24.4614 34.375 25C34.375 25.5386 34.0973 26.0392 33.6406 26.3252Z" fill="#0A477D"/>
</svg>
