<svg width="50" height="49" viewBox="0 0 50 49" fill="none" xmlns="http://www.w3.org/2000/svg">
<path d="M49.1659 25.6886C46.4803 17.0479 37.9563 11.1512 27.7393 10.976V0.875747C27.7393 0.408682 27.3306 0 26.8635 0C26.6884 0 26.5132 0.0583831 26.3381 0.175149L0.357597 18.9745C-0.0510852 19.2664 -0.109468 19.7919 0.182447 20.2006C0.24083 20.2589 0.299213 20.3173 0.357597 20.3757L26.3381 39.0583C26.7468 39.3502 27.2722 39.2335 27.5641 38.8832C27.6809 38.708 27.7393 38.5329 27.7393 38.3577V28.3158C34.0447 28.3158 39.3575 31.2934 41.2258 35.7889C42.8021 39.6421 41.5177 43.7873 37.7812 47.2319C37.4309 47.5822 37.3725 48.1077 37.7228 48.458C37.8979 48.6331 38.1315 48.7499 38.365 48.7499H39.0656C39.2407 48.7499 39.4159 48.6915 39.5327 48.5748C48.115 42.9116 51.7931 34.0957 49.1659 25.6886Z" fill="#62CEBB"/>
</svg>
