<svg width="52" height="30" viewBox="0 0 52 30" fill="none" xmlns="http://www.w3.org/2000/svg">
<g filter="url(#filter0_i)">
<path d="M9.87702 20.5199C11.8828 23.2377 14.1876 25.6411 17.165 27.3415C20.5368 29.2687 24.167 29.8498 27.9956 29.6727C29.7842 29.587 30.3222 29.1205 30.4047 27.3382C30.4601 26.1172 30.6012 24.8995 31.2024 23.8022C31.7933 22.7261 32.6895 22.5225 33.7237 23.192C34.2385 23.5303 34.6721 23.9536 35.0826 24.4065C36.0903 25.5064 37.0658 26.6456 38.1096 27.7094C39.4221 29.0457 40.9788 29.8331 42.9318 29.6727L50.4988 29.6759C51.7166 29.5934 52.3499 28.1005 51.6509 26.7371C51.1586 25.7854 50.5123 24.9388 49.8293 24.1172C48.2829 22.2596 46.4608 20.6765 44.7378 18.9961C43.185 17.48 43.0864 16.5998 44.3338 14.8505C45.6992 12.9394 47.1631 11.1043 48.5387 9.20357C49.8222 7.4278 51.1393 5.6546 51.8113 3.53089C52.2417 2.17522 51.8609 1.57793 50.4762 1.33823C50.2365 1.29893 49.9872 1.29893 49.7443 1.29893L41.5104 1.28862C40.4962 1.27251 39.9382 1.71581 39.58 2.61465C39.0942 3.82986 38.5954 5.04442 38.0168 6.21324C36.7108 8.87239 35.2494 11.4426 33.2011 13.6159C32.7481 14.0947 32.2456 14.7023 31.4911 14.4529C30.5491 14.1082 30.2701 12.5528 30.2862 12.0277L30.2791 2.52316C30.0961 1.16813 29.7933 0.560528 28.4447 0.296997H19.8925C18.7539 0.296997 18.1792 0.740941 17.5684 1.45293C17.2204 1.86723 17.1116 2.13269 17.8345 2.27058C19.252 2.53927 20.0568 3.45873 20.2668 4.88076C20.6051 7.15589 20.5819 9.44004 20.3854 11.7216C20.3293 12.3879 20.2146 13.0515 19.9511 13.6752C19.5381 14.6565 18.868 14.8537 17.9917 14.25C17.2011 13.7049 16.6431 12.9368 16.0942 12.1656C14.0426 9.26607 12.4079 6.14172 11.0716 2.85821C10.6876 1.90911 10.0213 1.33501 9.01683 1.31826C6.54776 1.27896 4.07611 1.27316 1.60382 1.32148C0.119928 1.3479 -0.323371 2.07019 0.284232 3.41942C2.97302 9.40396 5.96722 15.221 9.87702 20.5199Z" fill="#E5E5E5"/>
</g>
<defs>
<filter id="filter0_i" x="0.0205078" y="0.296997" width="51.9586" height="33.4058" filterUnits="userSpaceOnUse" color-interpolation-filters="sRGB">
<feFlood flood-opacity="0" result="BackgroundImageFix"/>
<feBlend mode="normal" in="SourceGraphic" in2="BackgroundImageFix" result="shape"/>
<feColorMatrix in="SourceAlpha" type="matrix" values="0 0 0 0 0 0 0 0 0 0 0 0 0 0 0 0 0 0 127 0" result="hardAlpha"/>
<feOffset dy="4"/>
<feGaussianBlur stdDeviation="2"/>
<feComposite in2="hardAlpha" operator="arithmetic" k2="-1" k3="1"/>
<feColorMatrix type="matrix" values="0 0 0 0 0 0 0 0 0 0 0 0 0 0 0 0 0 0 0.25 0"/>
<feBlend mode="normal" in2="shape" result="effect1_innerShadow"/>
</filter>
</defs>
</svg>
